<?xml version="1.0" encoding="UTF-8" standalone="no"?>
<svg xmlns="http://www.w3.org/2000/svg" viewBox="0 0 512 512" width="512" height="512">
  <circle cx="256.0" cy="256.0" r="240.0" fill="#745742" />
  <path fill="#FCF2F0" fill-rule="evenodd" stroke="none" d="M 320.7 96.0 L 323.9 96.8 L 324.7 98.5 L 326.4 98.5 L 326.4 99.3 L 327.2 99.3 L 327.2 100.1 L 328.8 100.9 L 328.8 102.5 L 330.5 103.4 L 330.5 105.0 L 331.3 105.0 L 331.3 106.6 L 332.1 106.6 L 332.1 109.1 L 332.9 109.1 L 332.9 119.7 L 333.7 119.7 L 333.7 124.6 L 334.6 124.6 L 335.4 132.8 L 336.2 132.8 L 336.2 135.3 L 337.0 135.3 L 337.0 136.9 L 337.8 136.9 L 337.8 143.5 L 338.7 143.5 L 338.7 145.9 L 339.5 145.9 L 339.5 159.0 L 338.7 159.0 L 338.7 165.6 L 337.8 165.6 L 337.8 172.9 L 337.0 172.9 L 337.0 176.2 L 336.2 176.2 L 336.2 177.8 L 335.4 177.8 L 335.4 181.1 L 334.6 181.1 L 334.6 182.8 L 333.7 182.8 L 333.7 185.2 L 332.9 185.2 L 332.9 188.5 L 332.1 188.5 L 332.1 190.1 L 331.3 190.1 L 331.3 196.7 L 332.1 196.7 L 332.1 199.1 L 333.7 199.9 L 333.7 201.6 L 335.4 202.4 L 335.4 204.0 L 337.0 204.0 L 337.0 205.7 L 337.8 205.7 L 337.8 206.5 L 338.7 206.5 L 338.7 207.3 L 339.5 207.3 L 339.5 208.1 L 341.1 208.9 L 341.1 210.6 L 342.8 211.4 L 342.8 213.0 L 343.6 213.0 L 343.6 215.5 L 344.4 215.5 L 344.4 218.8 L 343.6 218.8 L 343.6 220.4 L 342.8 220.4 L 342.8 222.9 L 341.9 222.9 L 341.9 224.5 L 341.1 224.5 L 340.3 237.6 L 339.5 237.6 L 339.5 241.7 L 338.7 241.7 L 337.8 246.6 L 337.0 246.6 L 337.0 248.2 L 336.2 248.2 L 336.2 249.9 L 335.4 249.9 L 335.4 253.1 L 334.6 253.1 L 334.6 254.8 L 333.7 254.8 L 333.7 256.4 L 332.9 256.4 L 332.9 258.0 L 332.1 258.0 L 332.1 259.7 L 331.3 259.7 L 330.5 263.0 L 328.8 263.8 L 328.0 267.0 L 326.4 267.9 L 326.4 269.5 L 325.6 269.5 L 324.7 271.1 L 336.2 271.1 L 336.2 272.0 L 346.8 272.0 L 346.8 272.8 L 351.8 272.8 L 351.8 273.6 L 353.4 273.6 L 353.4 274.4 L 356.7 274.4 L 356.7 275.2 L 358.3 275.2 L 358.3 276.1 L 361.6 276.9 L 361.6 278.5 L 363.2 279.3 L 363.2 281.0 L 364.0 281.0 L 364.0 282.6 L 364.8 282.6 L 364.8 291.6 L 364.0 291.6 L 364.0 293.2 L 362.4 294.1 L 362.4 295.7 L 360.8 295.7 L 360.8 296.5 L 359.9 296.5 L 359.1 298.1 L 357.5 298.1 L 357.5 299.0 L 353.4 299.0 L 353.4 299.8 L 351.8 299.8 L 351.8 300.6 L 343.6 300.6 L 343.6 301.4 L 328.8 301.4 L 328.8 300.6 L 327.2 300.6 L 327.2 301.4 L 320.7 301.4 L 320.7 300.6 L 303.5 300.6 L 303.5 299.8 L 301.0 299.8 L 301.0 299.0 L 295.3 299.0 L 295.3 298.1 L 292.0 298.1 L 292.0 297.3 L 290.4 297.3 L 290.4 296.5 L 287.9 296.5 L 287.9 295.7 L 286.3 295.7 L 286.3 294.9 L 280.6 294.9 L 280.6 295.7 L 275.6 295.7 L 275.6 296.5 L 271.5 296.5 L 271.5 297.3 L 264.2 297.3 L 264.2 298.1 L 257.6 298.1 L 257.6 299.0 L 226.5 299.0 L 226.5 298.1 L 218.4 298.1 L 218.4 297.3 L 209.4 297.3 L 209.4 296.5 L 168.4 296.5 L 168.4 297.3 L 158.6 297.3 L 158.6 298.1 L 148.8 298.1 L 148.8 299.0 L 131.6 299.0 L 131.6 298.1 L 130.0 298.1 L 130.0 297.3 L 129.1 297.3 L 129.1 295.7 L 128.3 295.7 L 128.3 293.2 L 129.1 293.2 L 129.1 291.6 L 130.0 291.6 L 130.8 290.0 L 132.4 290.0 L 132.4 289.1 L 134.9 289.1 L 134.9 288.3 L 135.7 288.3 L 136.5 286.7 L 138.1 286.7 L 138.1 285.9 L 139.8 285.9 L 139.8 285.1 L 141.4 285.1 L 141.4 284.2 L 143.9 284.2 L 143.9 283.4 L 146.3 283.4 L 146.3 282.6 L 148.0 282.6 L 148.0 281.8 L 148.8 281.8 L 148.8 280.1 L 149.6 280.1 L 149.6 279.3 L 150.4 279.3 L 150.4 278.5 L 151.2 278.5 L 152.1 276.9 L 153.7 276.9 L 153.7 276.1 L 155.3 276.1 L 155.3 275.2 L 161.9 275.2 L 161.9 276.1 L 163.5 276.1 L 164.3 277.7 L 166.0 277.7 L 166.0 278.5 L 167.6 278.5 L 167.6 279.3 L 174.2 279.3 L 174.2 278.5 L 179.1 278.5 L 179.1 277.7 L 184.8 277.7 L 184.8 276.9 L 191.3 276.9 L 191.3 276.1 L 196.3 276.1 L 196.3 275.2 L 206.9 275.2 L 206.9 276.1 L 220.0 276.1 L 220.0 276.9 L 228.2 276.9 L 228.2 276.1 L 235.5 276.1 L 235.5 275.2 L 243.7 274.4 L 243.7 273.6 L 250.3 272.8 L 250.3 272.0 L 252.7 272.0 L 252.7 271.1 L 256.0 271.1 L 256.0 270.3 L 258.5 270.3 L 258.5 269.5 L 261.7 269.5 L 261.7 268.7 L 263.4 268.7 L 263.4 267.9 L 265.0 267.9 L 265.0 267.0 L 268.3 266.2 L 268.3 265.4 L 269.1 265.4 L 269.1 264.6 L 270.7 263.8 L 271.5 260.5 L 272.4 260.5 L 272.4 259.7 L 274.0 259.7 L 274.0 258.9 L 275.6 258.9 L 275.6 258.0 L 276.5 258.0 L 276.5 257.2 L 278.1 257.2 L 278.9 255.6 L 280.6 255.6 L 280.6 254.8 L 283.0 254.8 L 283.0 254.0 L 284.6 254.0 L 284.6 253.1 L 287.9 253.1 L 287.9 252.3 L 289.6 252.3 L 289.6 251.5 L 292.0 251.5 L 292.8 249.9 L 294.5 249.9 L 294.5 249.0 L 296.9 249.0 L 296.9 247.4 L 297.7 247.4 L 297.7 246.6 L 299.4 246.6 L 299.4 245.0 L 301.0 244.1 L 301.0 242.5 L 301.8 242.5 L 301.8 240.9 L 302.6 240.9 L 302.6 239.2 L 303.5 239.2 L 303.5 235.1 L 304.3 235.1 L 304.3 223.7 L 303.5 223.7 L 303.5 207.3 L 304.3 207.3 L 304.3 204.8 L 305.1 204.8 L 305.1 200.8 L 305.9 200.8 L 305.9 198.3 L 305.1 198.3 L 305.1 197.5 L 305.9 197.5 L 305.9 195.8 L 306.7 195.8 L 306.7 195.0 L 303.5 195.0 L 303.5 194.2 L 300.2 194.2 L 300.2 193.4 L 298.6 193.4 L 298.6 192.6 L 297.7 192.6 L 297.7 191.8 L 296.1 191.8 L 296.1 190.9 L 295.3 190.9 L 295.3 190.1 L 294.5 190.1 L 294.5 189.3 L 292.8 188.5 L 292.8 186.8 L 292.0 186.8 L 292.0 191.8 L 292.8 191.8 L 292.8 195.8 L 293.6 195.8 L 293.6 198.3 L 294.5 198.3 L 294.5 201.6 L 295.3 201.6 L 295.3 204.0 L 296.1 204.0 L 296.1 206.5 L 296.9 206.5 L 296.9 220.4 L 296.1 220.4 L 296.1 223.7 L 295.3 223.7 L 295.3 225.3 L 294.5 225.3 L 294.5 226.1 L 292.8 226.1 L 292.8 226.9 L 291.2 226.1 L 291.2 227.8 L 289.6 227.8 L 289.6 228.6 L 288.7 228.6 L 288.7 229.4 L 287.9 229.4 L 287.1 231.0 L 285.5 231.0 L 285.5 231.9 L 283.8 231.9 L 283.8 232.7 L 281.4 232.7 L 281.4 231.9 L 279.7 231.9 L 279.7 230.2 L 278.9 230.2 L 278.9 228.6 L 279.7 228.6 L 279.7 224.5 L 280.6 224.5 L 280.6 216.3 L 279.7 216.3 L 279.7 209.8 L 278.9 209.8 L 278.9 201.6 L 278.1 201.6 L 278.1 191.8 L 278.9 191.8 L 278.9 186.8 L 279.7 186.8 L 279.7 185.2 L 278.9 185.2 L 278.9 184.4 L 279.7 184.4 L 279.7 182.8 L 280.6 182.8 L 281.4 179.5 L 283.0 178.7 L 283.0 177.0 L 284.6 177.0 L 284.6 175.4 L 286.3 175.4 L 286.3 174.6 L 287.9 174.6 L 287.9 173.7 L 289.6 172.9 L 289.6 169.7 L 290.4 169.7 L 290.4 168.0 L 291.2 168.0 L 292.0 164.7 L 292.8 164.7 L 292.8 163.9 L 294.5 163.9 L 294.5 162.3 L 295.3 162.3 L 295.3 161.5 L 296.9 161.5 L 297.7 159.8 L 299.4 159.8 L 299.4 159.0 L 301.0 159.0 L 301.0 158.2 L 302.6 158.2 L 302.6 157.4 L 306.7 157.4 L 306.7 156.6 L 307.6 156.6 L 307.6 157.4 L 310.8 157.4 L 310.8 158.2 L 312.5 158.2 L 312.5 159.0 L 314.1 159.0 L 314.1 159.8 L 318.2 159.8 L 318.2 159.0 L 319.8 159.0 L 319.8 159.8 L 321.5 159.8 L 321.5 160.7 L 322.3 160.7 L 322.3 155.7 L 321.5 155.7 L 321.5 128.7 L 320.7 128.7 L 320.7 125.5 L 319.8 125.5 L 319.8 123.8 L 318.2 123.8 L 318.2 123.0 L 317.4 123.0 L 317.4 122.2 L 316.6 122.2 L 316.6 121.4 L 314.9 120.6 L 314.9 118.9 L 313.3 118.1 L 313.3 116.5 L 312.5 116.5 L 312.5 114.8 L 311.7 114.8 L 311.7 111.5 L 312.5 111.5 L 312.5 109.9 L 314.1 109.9 L 314.1 109.1 L 314.9 109.1 L 314.9 108.3 L 313.3 108.3 L 313.3 106.6 L 312.5 106.6 L 312.5 105.8 L 313.3 105.8 L 313.3 102.5 L 314.1 102.5 L 314.1 100.9 L 315.7 100.1 L 315.7 98.5 L 317.4 98.5 L 317.4 97.6 L 319.0 97.6 L 319.0 96.8 L 320.7 96.8 L 320.7 96.0 Z M 284.6 321.9 L 288.7 321.9 L 288.7 322.7 L 305.1 322.7 L 305.1 323.5 L 312.5 323.5 L 312.5 324.3 L 319.8 324.3 L 319.8 325.2 L 328.8 325.2 L 328.8 326.0 L 333.7 326.0 L 333.7 326.8 L 339.5 326.8 L 339.5 327.6 L 349.3 327.6 L 349.3 328.4 L 366.5 328.4 L 366.5 327.6 L 371.4 327.6 L 371.4 326.0 L 373.0 326.0 L 373.0 325.2 L 373.9 325.2 L 373.9 326.0 L 375.5 326.0 L 375.5 325.2 L 376.3 325.2 L 376.3 323.5 L 379.6 322.7 L 379.6 323.5 L 381.2 323.5 L 381.2 324.3 L 382.9 325.2 L 382.9 326.8 L 383.7 326.8 L 382.9 330.1 L 382.0 330.1 L 382.0 330.9 L 380.4 330.9 L 379.6 334.2 L 377.9 334.2 L 377.9 335.0 L 375.5 335.0 L 375.5 335.8 L 373.9 335.8 L 373.9 336.6 L 372.2 336.6 L 372.2 335.8 L 368.1 335.8 L 368.1 336.6 L 365.7 336.6 L 365.7 337.4 L 361.6 337.4 L 361.6 338.3 L 346.0 338.3 L 346.0 337.4 L 332.9 336.6 L 332.9 335.8 L 328.0 335.8 L 328.0 335.0 L 323.1 335.0 L 323.1 334.2 L 317.4 334.2 L 317.4 333.3 L 312.5 333.3 L 312.5 332.5 L 307.6 332.5 L 307.6 331.7 L 297.7 331.7 L 297.7 330.9 L 274.0 330.9 L 274.0 331.7 L 265.8 331.7 L 265.8 332.5 L 262.5 332.5 L 262.5 333.3 L 260.9 332.5 L 260.9 333.3 L 259.3 333.3 L 259.3 334.2 L 256.8 334.2 L 256.8 335.8 L 255.2 335.8 L 255.2 336.6 L 252.7 336.6 L 252.7 337.4 L 249.5 337.4 L 249.5 336.6 L 244.5 337.4 L 244.5 338.3 L 242.9 338.3 L 242.9 339.1 L 239.6 339.9 L 238.8 341.5 L 237.2 341.5 L 237.2 342.3 L 233.9 343.2 L 233.9 344.0 L 233.1 344.0 L 233.1 344.8 L 231.4 345.6 L 231.4 347.3 L 230.6 347.3 L 230.6 348.1 L 229.8 348.1 L 229.8 348.9 L 229.0 348.9 L 228.2 350.5 L 226.5 350.5 L 226.5 351.3 L 225.7 351.3 L 225.7 350.5 L 224.1 350.5 L 224.1 351.3 L 224.9 351.3 L 224.9 353.0 L 224.1 353.0 L 224.1 354.6 L 224.9 354.6 L 224.9 355.4 L 224.1 355.4 L 224.1 357.1 L 223.3 357.1 L 223.3 357.9 L 221.6 357.9 L 221.6 358.7 L 218.4 357.9 L 218.4 358.7 L 216.7 359.5 L 216.7 361.2 L 215.1 362.0 L 215.1 363.6 L 214.3 363.6 L 214.3 365.3 L 213.4 365.3 L 213.4 366.9 L 212.6 366.9 L 212.6 368.5 L 211.8 368.5 L 211.8 370.2 L 211.0 370.2 L 211.0 372.6 L 210.2 372.6 L 210.2 377.5 L 209.4 377.5 L 209.4 388.2 L 210.2 388.2 L 210.2 391.4 L 211.0 391.4 L 211.0 393.1 L 211.8 393.1 L 212.6 396.4 L 213.4 396.4 L 213.4 397.2 L 215.1 398.0 L 215.1 399.6 L 215.9 399.6 L 215.9 398.8 L 216.7 398.8 L 216.7 399.6 L 218.4 399.6 L 218.4 401.3 L 219.2 401.3 L 219.2 402.9 L 220.0 402.9 L 220.0 403.7 L 222.4 403.7 L 222.4 404.5 L 224.1 404.5 L 224.1 405.4 L 225.7 405.4 L 225.7 404.5 L 229.0 404.5 L 229.0 405.4 L 230.6 405.4 L 230.6 406.2 L 233.1 406.2 L 233.1 407.0 L 234.7 407.0 L 234.7 407.8 L 239.6 407.8 L 239.6 407.0 L 242.1 407.0 L 242.1 407.8 L 243.7 407.8 L 243.7 407.0 L 245.4 407.0 L 245.4 406.2 L 247.0 406.2 L 247.0 407.0 L 247.8 407.0 L 247.8 406.2 L 249.5 406.2 L 249.5 405.4 L 250.3 405.4 L 250.3 406.2 L 255.2 405.4 L 255.2 404.5 L 256.8 404.5 L 256.8 403.7 L 259.3 403.7 L 259.3 402.9 L 260.1 402.9 L 260.1 402.1 L 261.7 402.1 L 262.5 400.5 L 264.2 400.5 L 264.2 399.6 L 265.0 399.6 L 265.8 398.0 L 267.5 398.0 L 267.5 396.4 L 269.1 396.4 L 269.1 395.5 L 271.5 395.5 L 271.5 396.4 L 273.2 396.4 L 274.8 399.6 L 274.0 399.6 L 273.2 402.9 L 272.4 402.9 L 271.5 404.5 L 269.9 404.5 L 269.9 405.4 L 269.1 405.4 L 269.1 406.2 L 269.9 406.2 L 269.9 407.0 L 269.1 407.0 L 269.1 408.6 L 267.5 408.6 L 267.5 409.5 L 265.8 409.5 L 265.8 408.6 L 265.0 408.6 L 265.0 409.5 L 261.7 410.3 L 260.9 413.5 L 259.3 413.5 L 259.3 414.4 L 257.6 414.4 L 257.6 413.5 L 253.5 413.5 L 253.5 414.4 L 250.3 414.4 L 250.3 415.2 L 246.2 415.2 L 246.2 416.0 L 231.4 416.0 L 231.4 415.2 L 226.5 415.2 L 226.5 414.4 L 224.1 414.4 L 224.1 413.5 L 222.4 413.5 L 222.4 412.7 L 220.0 412.7 L 220.0 411.9 L 216.7 411.1 L 215.9 409.5 L 212.6 408.6 L 212.6 407.8 L 211.8 407.8 L 211.8 407.0 L 211.0 407.0 L 211.0 406.2 L 210.2 406.2 L 210.2 405.4 L 209.4 405.4 L 209.4 404.5 L 208.5 404.5 L 208.5 403.7 L 206.9 402.9 L 206.9 401.3 L 205.3 400.5 L 205.3 398.8 L 204.4 398.8 L 204.4 398.0 L 202.8 398.0 L 202.8 397.2 L 201.2 397.2 L 201.2 395.5 L 200.3 395.5 L 200.3 394.7 L 201.2 394.7 L 201.2 393.1 L 202.0 393.1 L 202.0 389.8 L 201.2 389.8 L 201.2 376.7 L 202.0 376.7 L 202.0 375.1 L 201.2 375.1 L 201.2 374.3 L 202.0 374.3 L 202.0 371.8 L 202.8 371.8 L 202.8 370.2 L 203.6 370.2 L 204.4 365.3 L 205.3 365.3 L 205.3 363.6 L 206.1 363.6 L 206.1 362.0 L 206.9 362.0 L 206.9 360.3 L 207.7 360.3 L 207.7 359.5 L 206.9 359.5 L 207.7 356.3 L 209.4 356.3 L 209.4 355.4 L 210.2 355.4 L 210.2 354.6 L 211.8 353.8 L 211.8 352.2 L 212.6 352.2 L 212.6 351.3 L 213.4 351.3 L 213.4 350.5 L 214.3 350.5 L 214.3 349.7 L 215.9 348.9 L 215.9 347.3 L 217.5 347.3 L 217.5 345.6 L 219.2 345.6 L 219.2 344.0 L 220.8 344.0 L 221.6 340.7 L 223.3 340.7 L 223.3 339.9 L 224.9 340.7 L 225.7 339.1 L 227.4 339.1 L 228.2 337.4 L 231.4 336.6 L 232.3 335.0 L 233.9 335.0 L 233.9 334.2 L 234.7 334.2 L 234.7 333.3 L 236.4 333.3 L 236.4 332.5 L 238.8 332.5 L 238.8 331.7 L 240.5 331.7 L 240.5 330.9 L 242.9 330.9 L 242.9 330.1 L 244.5 330.1 L 244.5 329.2 L 247.0 329.2 L 247.0 328.4 L 249.5 328.4 L 249.5 327.6 L 251.9 327.6 L 251.9 326.8 L 255.2 326.8 L 255.2 326.0 L 257.6 326.0 L 257.6 325.2 L 261.7 325.2 L 261.7 324.3 L 266.6 324.3 L 266.6 323.5 L 273.2 323.5 L 273.2 322.7 L 284.6 322.7 L 284.6 321.9 Z" />
</svg>
