<?xml version="1.0" encoding="UTF-8" standalone="no"?>
<svg xmlns="http://www.w3.org/2000/svg" viewBox="-20 -20 1332 429" width="1332" height="429">
  <path fill="#D8C1BB" fill-rule="evenodd" stroke="none" d="M 234.0 0.0 L 236.0 0.0 L 237.0 2.0 L 239.0 2.0 L 239.0 3.0 L 240.0 3.0 L 240.0 4.0 L 241.0 4.0 L 241.0 5.0 L 242.0 5.0 L 242.0 6.0 L 244.0 7.0 L 244.0 9.0 L 245.0 9.0 L 245.0 10.0 L 246.0 10.0 L 246.0 12.0 L 247.0 12.0 L 247.0 15.0 L 248.0 15.0 L 248.0 28.0 L 249.0 28.0 L 249.0 34.0 L 250.0 34.0 L 250.0 39.0 L 251.0 39.0 L 251.0 44.0 L 252.0 44.0 L 252.0 48.0 L 254.0 49.0 L 254.0 57.0 L 255.0 57.0 L 255.0 60.0 L 256.0 60.0 L 256.0 76.0 L 255.0 76.0 L 255.0 84.0 L 254.0 84.0 L 254.0 93.0 L 253.0 93.0 L 253.0 97.0 L 252.0 97.0 L 252.0 99.0 L 251.0 99.0 L 251.0 103.0 L 250.0 103.0 L 250.0 105.0 L 249.0 105.0 L 249.0 108.0 L 248.0 108.0 L 248.0 112.0 L 247.0 112.0 L 247.0 114.0 L 246.0 114.0 L 246.0 122.0 L 247.0 122.0 L 247.0 125.0 L 248.0 125.0 L 248.0 127.0 L 250.0 128.0 L 250.0 130.0 L 251.0 130.0 L 251.0 131.0 L 252.0 131.0 L 252.0 132.0 L 254.0 133.0 L 254.0 135.0 L 255.0 135.0 L 255.0 136.0 L 256.0 136.0 L 256.0 137.0 L 257.0 137.0 L 257.0 138.0 L 259.0 139.0 L 259.0 141.0 L 261.0 142.0 L 261.0 145.0 L 262.0 145.0 L 262.0 149.0 L 261.0 149.0 L 261.0 151.0 L 260.0 151.0 L 260.0 154.0 L 259.0 154.0 L 259.0 156.0 L 258.0 156.0 L 257.0 172.0 L 256.0 172.0 L 256.0 177.0 L 255.0 177.0 L 254.0 183.0 L 253.0 183.0 L 253.0 185.0 L 252.0 185.0 L 252.0 187.0 L 251.0 187.0 L 251.0 191.0 L 250.0 191.0 L 250.0 193.0 L 249.0 193.0 L 249.0 195.0 L 248.0 195.0 L 248.0 197.0 L 247.0 197.0 L 246.0 201.0 L 244.0 202.0 L 243.0 206.0 L 241.0 207.0 L 241.0 209.0 L 239.0 210.0 L 239.0 212.0 L 238.0 212.0 L 237.0 214.0 L 253.0 214.0 L 253.0 215.0 L 266.0 215.0 L 266.0 216.0 L 272.0 216.0 L 272.0 217.0 L 274.0 217.0 L 274.0 218.0 L 278.0 218.0 L 278.0 219.0 L 282.0 220.0 L 282.0 221.0 L 284.0 222.0 L 284.0 224.0 L 286.0 225.0 L 286.0 227.0 L 287.0 227.0 L 287.0 238.0 L 285.0 239.0 L 285.0 241.0 L 284.0 241.0 L 283.0 243.0 L 281.0 243.0 L 281.0 244.0 L 280.0 244.0 L 279.0 246.0 L 274.0 246.0 L 274.0 247.0 L 272.0 247.0 L 272.0 248.0 L 262.0 248.0 L 262.0 249.0 L 244.0 249.0 L 244.0 248.0 L 242.0 248.0 L 242.0 249.0 L 234.0 249.0 L 234.0 248.0 L 213.0 248.0 L 213.0 247.0 L 210.0 247.0 L 210.0 246.0 L 203.0 246.0 L 203.0 245.0 L 199.0 245.0 L 199.0 244.0 L 197.0 244.0 L 197.0 243.0 L 194.0 243.0 L 194.0 242.0 L 192.0 242.0 L 192.0 241.0 L 185.0 241.0 L 185.0 242.0 L 179.0 242.0 L 179.0 243.0 L 174.0 243.0 L 174.0 244.0 L 165.0 244.0 L 165.0 245.0 L 157.0 245.0 L 157.0 246.0 L 119.0 246.0 L 119.0 245.0 L 109.0 245.0 L 109.0 244.0 L 98.0 244.0 L 98.0 243.0 L 48.0 243.0 L 48.0 244.0 L 36.0 244.0 L 36.0 245.0 L 24.0 245.0 L 24.0 246.0 L 3.0 246.0 L 3.0 245.0 L 2.0 245.0 L 2.0 244.0 L 0.0 243.0 L 0.0 240.0 L 1.0 240.0 L 1.0 239.0 L 2.0 239.0 L 2.0 238.0 L 3.0 238.0 L 4.0 236.0 L 7.0 236.0 L 7.0 235.0 L 9.0 235.0 L 9.0 234.0 L 10.0 234.0 L 11.0 232.0 L 13.0 232.0 L 13.0 231.0 L 15.0 231.0 L 15.0 230.0 L 18.0 230.0 L 18.0 229.0 L 21.0 229.0 L 21.0 228.0 L 23.0 228.0 L 23.0 227.0 L 24.0 227.0 L 24.0 226.0 L 25.0 226.0 L 25.0 225.0 L 26.0 225.0 L 26.0 224.0 L 27.0 224.0 L 27.0 223.0 L 28.0 223.0 L 28.0 222.0 L 29.0 222.0 L 30.0 220.0 L 32.0 220.0 L 32.0 219.0 L 40.0 219.0 L 40.0 220.0 L 41.0 220.0 L 42.0 222.0 L 45.0 222.0 L 46.0 224.0 L 55.0 224.0 L 55.0 223.0 L 61.0 223.0 L 61.0 222.0 L 68.0 222.0 L 68.0 221.0 L 76.0 221.0 L 76.0 220.0 L 82.0 220.0 L 82.0 219.0 L 95.0 219.0 L 95.0 220.0 L 111.0 220.0 L 111.0 221.0 L 121.0 221.0 L 121.0 220.0 L 130.0 220.0 L 130.0 219.0 L 140.0 218.0 L 140.0 217.0 L 148.0 216.0 L 148.0 215.0 L 151.0 215.0 L 151.0 214.0 L 155.0 214.0 L 155.0 213.0 L 158.0 213.0 L 158.0 212.0 L 162.0 212.0 L 162.0 211.0 L 164.0 211.0 L 164.0 210.0 L 167.0 210.0 L 168.0 208.0 L 171.0 208.0 L 171.0 207.0 L 173.0 206.0 L 174.0 202.0 L 175.0 202.0 L 175.0 201.0 L 176.0 201.0 L 177.0 199.0 L 180.0 199.0 L 180.0 198.0 L 181.0 198.0 L 182.0 196.0 L 184.0 196.0 L 185.0 194.0 L 188.0 194.0 L 188.0 193.0 L 190.0 193.0 L 190.0 192.0 L 194.0 192.0 L 194.0 191.0 L 196.0 191.0 L 196.0 190.0 L 199.0 190.0 L 199.0 189.0 L 201.0 189.0 L 202.0 187.0 L 205.0 187.0 L 205.0 186.0 L 206.0 186.0 L 206.0 185.0 L 207.0 185.0 L 207.0 184.0 L 208.0 184.0 L 208.0 183.0 L 209.0 183.0 L 209.0 182.0 L 211.0 181.0 L 211.0 178.0 L 212.0 178.0 L 212.0 176.0 L 213.0 176.0 L 213.0 174.0 L 214.0 174.0 L 214.0 169.0 L 215.0 169.0 L 215.0 155.0 L 214.0 155.0 L 214.0 135.0 L 215.0 135.0 L 215.0 132.0 L 216.0 132.0 L 216.0 127.0 L 217.0 127.0 L 217.0 124.0 L 216.0 124.0 L 216.0 123.0 L 218.0 122.0 L 218.0 120.0 L 217.0 120.0 L 217.0 119.0 L 213.0 119.0 L 213.0 118.0 L 209.0 118.0 L 208.0 116.0 L 206.0 116.0 L 206.0 115.0 L 205.0 115.0 L 205.0 114.0 L 204.0 114.0 L 204.0 113.0 L 203.0 113.0 L 203.0 112.0 L 202.0 112.0 L 202.0 111.0 L 200.0 110.0 L 200.0 108.0 L 199.0 108.0 L 199.0 107.0 L 197.0 107.0 L 197.0 108.0 L 198.0 108.0 L 198.0 116.0 L 199.0 116.0 L 199.0 121.0 L 200.0 121.0 L 200.0 124.0 L 201.0 124.0 L 201.0 128.0 L 202.0 128.0 L 202.0 131.0 L 203.0 131.0 L 203.0 134.0 L 204.0 134.0 L 204.0 151.0 L 203.0 151.0 L 203.0 155.0 L 202.0 155.0 L 202.0 156.0 L 201.0 156.0 L 200.0 158.0 L 198.0 157.0 L 198.0 158.0 L 197.0 158.0 L 196.0 160.0 L 194.0 160.0 L 194.0 161.0 L 193.0 161.0 L 193.0 162.0 L 192.0 162.0 L 191.0 164.0 L 189.0 164.0 L 189.0 165.0 L 186.0 165.0 L 186.0 164.0 L 184.0 163.0 L 184.0 161.0 L 185.0 161.0 L 185.0 156.0 L 186.0 156.0 L 186.0 146.0 L 185.0 146.0 L 185.0 138.0 L 184.0 138.0 L 184.0 128.0 L 183.0 128.0 L 183.0 116.0 L 184.0 116.0 L 184.0 110.0 L 185.0 110.0 L 185.0 108.0 L 184.0 108.0 L 184.0 107.0 L 186.0 106.0 L 186.0 103.0 L 188.0 102.0 L 188.0 100.0 L 189.0 100.0 L 189.0 99.0 L 190.0 99.0 L 190.0 98.0 L 191.0 98.0 L 192.0 96.0 L 196.0 95.0 L 196.0 93.0 L 197.0 93.0 L 197.0 89.0 L 198.0 89.0 L 199.0 85.0 L 200.0 85.0 L 200.0 84.0 L 201.0 84.0 L 201.0 83.0 L 202.0 83.0 L 202.0 82.0 L 203.0 82.0 L 203.0 81.0 L 204.0 81.0 L 205.0 79.0 L 207.0 79.0 L 208.0 77.0 L 210.0 77.0 L 210.0 76.0 L 212.0 76.0 L 212.0 75.0 L 217.0 75.0 L 217.0 74.0 L 218.0 74.0 L 218.0 75.0 L 222.0 75.0 L 222.0 76.0 L 224.0 76.0 L 224.0 77.0 L 225.0 77.0 L 226.0 79.0 L 227.0 79.0 L 227.0 78.0 L 231.0 78.0 L 231.0 77.0 L 233.0 77.0 L 233.0 78.0 L 235.0 79.0 L 235.0 81.0 L 236.0 81.0 L 236.0 78.0 L 237.0 78.0 L 237.0 72.0 L 236.0 72.0 L 236.0 39.0 L 235.0 39.0 L 235.0 34.0 L 234.0 34.0 L 234.0 33.0 L 233.0 33.0 L 233.0 32.0 L 232.0 32.0 L 232.0 31.0 L 231.0 31.0 L 231.0 30.0 L 230.0 30.0 L 230.0 29.0 L 229.0 29.0 L 229.0 28.0 L 227.0 27.0 L 227.0 25.0 L 226.0 25.0 L 226.0 24.0 L 225.0 24.0 L 225.0 22.0 L 224.0 22.0 L 224.0 18.0 L 225.0 18.0 L 226.0 16.0 L 229.0 16.0 L 229.0 14.0 L 227.0 14.0 L 227.0 13.0 L 225.0 12.0 L 225.0 11.0 L 226.0 11.0 L 226.0 7.0 L 228.0 6.0 L 228.0 4.0 L 229.0 4.0 L 230.0 2.0 L 233.0 2.0 L 234.0 0.0 Z M 190.0 276.0 L 195.0 276.0 L 195.0 277.0 L 215.0 277.0 L 215.0 278.0 L 224.0 278.0 L 224.0 279.0 L 233.0 279.0 L 233.0 280.0 L 244.0 280.0 L 244.0 281.0 L 250.0 281.0 L 250.0 282.0 L 257.0 282.0 L 257.0 283.0 L 269.0 283.0 L 269.0 284.0 L 290.0 284.0 L 290.0 283.0 L 296.0 283.0 L 296.0 282.0 L 297.0 282.0 L 298.0 280.0 L 299.0 280.0 L 299.0 281.0 L 302.0 281.0 L 302.0 279.0 L 303.0 279.0 L 304.0 277.0 L 306.0 277.0 L 306.0 278.0 L 307.0 278.0 L 307.0 279.0 L 308.0 279.0 L 308.0 280.0 L 310.0 281.0 L 310.0 283.0 L 309.0 283.0 L 309.0 284.0 L 308.0 284.0 L 307.0 286.0 L 305.0 286.0 L 306.0 288.0 L 305.0 288.0 L 304.0 290.0 L 300.0 290.0 L 299.0 292.0 L 297.0 292.0 L 297.0 291.0 L 292.0 291.0 L 292.0 292.0 L 289.0 292.0 L 289.0 293.0 L 284.0 293.0 L 284.0 294.0 L 265.0 294.0 L 265.0 293.0 L 249.0 292.0 L 249.0 291.0 L 243.0 291.0 L 243.0 290.0 L 237.0 290.0 L 237.0 289.0 L 230.0 289.0 L 230.0 288.0 L 224.0 288.0 L 224.0 287.0 L 218.0 287.0 L 218.0 286.0 L 206.0 286.0 L 206.0 285.0 L 177.0 285.0 L 177.0 286.0 L 167.0 286.0 L 167.0 287.0 L 163.0 287.0 L 163.0 288.0 L 161.0 287.0 L 161.0 288.0 L 159.0 288.0 L 159.0 289.0 L 156.0 289.0 L 156.0 290.0 L 155.0 290.0 L 154.0 292.0 L 151.0 292.0 L 151.0 293.0 L 147.0 293.0 L 147.0 292.0 L 144.0 292.0 L 144.0 293.0 L 138.0 294.0 L 137.0 296.0 L 133.0 297.0 L 132.0 299.0 L 130.0 299.0 L 130.0 300.0 L 126.0 301.0 L 126.0 302.0 L 125.0 302.0 L 125.0 304.0 L 124.0 304.0 L 124.0 305.0 L 123.0 305.0 L 123.0 306.0 L 122.0 306.0 L 122.0 307.0 L 121.0 307.0 L 121.0 308.0 L 120.0 308.0 L 119.0 310.0 L 118.0 310.0 L 118.0 309.0 L 116.0 309.0 L 116.0 310.0 L 115.0 310.0 L 115.0 311.0 L 116.0 311.0 L 116.0 313.0 L 115.0 313.0 L 115.0 315.0 L 116.0 315.0 L 116.0 316.0 L 115.0 316.0 L 115.0 317.0 L 114.0 317.0 L 113.0 319.0 L 111.0 319.0 L 111.0 318.0 L 109.0 317.0 L 109.0 318.0 L 107.0 319.0 L 107.0 321.0 L 105.0 322.0 L 104.0 326.0 L 102.0 327.0 L 102.0 330.0 L 100.0 331.0 L 100.0 334.0 L 99.0 334.0 L 99.0 337.0 L 98.0 337.0 L 98.0 343.0 L 97.0 343.0 L 97.0 356.0 L 98.0 356.0 L 98.0 360.0 L 99.0 360.0 L 99.0 362.0 L 100.0 362.0 L 100.0 364.0 L 101.0 364.0 L 102.0 368.0 L 103.0 368.0 L 103.0 369.0 L 104.0 369.0 L 105.0 371.0 L 107.0 370.0 L 107.0 371.0 L 109.0 372.0 L 109.0 373.0 L 108.0 373.0 L 109.0 375.0 L 111.0 375.0 L 111.0 376.0 L 114.0 376.0 L 114.0 377.0 L 116.0 377.0 L 116.0 378.0 L 118.0 378.0 L 118.0 377.0 L 122.0 377.0 L 123.0 379.0 L 127.0 379.0 L 128.0 381.0 L 135.0 381.0 L 135.0 380.0 L 141.0 381.0 L 142.0 379.0 L 146.0 380.0 L 147.0 378.0 L 148.0 378.0 L 148.0 379.0 L 154.0 378.0 L 154.0 377.0 L 156.0 377.0 L 156.0 376.0 L 159.0 376.0 L 159.0 375.0 L 161.0 375.0 L 161.0 374.0 L 162.0 374.0 L 162.0 373.0 L 164.0 373.0 L 165.0 371.0 L 167.0 371.0 L 167.0 370.0 L 168.0 370.0 L 168.0 369.0 L 169.0 369.0 L 169.0 368.0 L 170.0 368.0 L 171.0 366.0 L 174.0 366.0 L 174.0 367.0 L 175.0 367.0 L 175.0 368.0 L 176.0 368.0 L 177.0 370.0 L 176.0 370.0 L 176.0 372.0 L 175.0 372.0 L 175.0 373.0 L 174.0 373.0 L 174.0 374.0 L 173.0 374.0 L 172.0 376.0 L 170.0 376.0 L 170.0 378.0 L 171.0 378.0 L 171.0 379.0 L 170.0 379.0 L 169.0 381.0 L 165.0 380.0 L 164.0 382.0 L 162.0 382.0 L 162.0 383.0 L 161.0 383.0 L 161.0 385.0 L 160.0 385.0 L 159.0 387.0 L 157.0 387.0 L 157.0 386.0 L 155.0 385.0 L 155.0 386.0 L 152.0 386.0 L 152.0 387.0 L 148.0 387.0 L 148.0 388.0 L 143.0 388.0 L 143.0 389.0 L 125.0 389.0 L 125.0 388.0 L 119.0 388.0 L 119.0 387.0 L 116.0 387.0 L 116.0 386.0 L 114.0 386.0 L 114.0 385.0 L 111.0 385.0 L 111.0 384.0 L 109.0 384.0 L 108.0 382.0 L 104.0 381.0 L 104.0 380.0 L 103.0 380.0 L 103.0 379.0 L 102.0 379.0 L 102.0 378.0 L 101.0 378.0 L 101.0 377.0 L 100.0 377.0 L 100.0 376.0 L 99.0 376.0 L 99.0 375.0 L 98.0 375.0 L 98.0 374.0 L 97.0 374.0 L 97.0 373.0 L 95.0 372.0 L 95.0 370.0 L 93.0 369.0 L 93.0 367.0 L 92.0 367.0 L 92.0 366.0 L 90.0 367.0 L 90.0 366.0 L 88.0 365.0 L 88.0 364.0 L 90.0 363.0 L 90.0 358.0 L 89.0 358.0 L 89.0 342.0 L 90.0 342.0 L 90.0 340.0 L 89.0 340.0 L 89.0 339.0 L 90.0 339.0 L 90.0 336.0 L 91.0 336.0 L 91.0 334.0 L 92.0 334.0 L 93.0 328.0 L 94.0 328.0 L 94.0 326.0 L 95.0 326.0 L 95.0 324.0 L 96.0 324.0 L 96.0 322.0 L 97.0 322.0 L 97.0 321.0 L 96.0 321.0 L 96.0 319.0 L 97.0 319.0 L 98.0 317.0 L 100.0 317.0 L 100.0 316.0 L 101.0 316.0 L 101.0 314.0 L 102.0 314.0 L 102.0 313.0 L 103.0 313.0 L 103.0 312.0 L 104.0 312.0 L 104.0 311.0 L 106.0 310.0 L 106.0 308.0 L 107.0 308.0 L 107.0 307.0 L 108.0 307.0 L 108.0 306.0 L 109.0 306.0 L 109.0 305.0 L 110.0 305.0 L 110.0 304.0 L 111.0 304.0 L 112.0 302.0 L 114.0 302.0 L 113.0 300.0 L 114.0 300.0 L 115.0 298.0 L 116.0 298.0 L 116.0 299.0 L 118.0 299.0 L 118.0 298.0 L 119.0 298.0 L 120.0 296.0 L 122.0 296.0 L 123.0 294.0 L 127.0 293.0 L 127.0 292.0 L 128.0 292.0 L 128.0 291.0 L 130.0 291.0 L 131.0 289.0 L 134.0 289.0 L 134.0 288.0 L 136.0 288.0 L 136.0 287.0 L 139.0 287.0 L 139.0 286.0 L 141.0 286.0 L 141.0 285.0 L 144.0 285.0 L 144.0 284.0 L 147.0 284.0 L 147.0 283.0 L 150.0 283.0 L 150.0 282.0 L 154.0 282.0 L 154.0 281.0 L 157.0 281.0 L 157.0 280.0 L 162.0 280.0 L 162.0 279.0 L 168.0 279.0 L 168.0 278.0 L 176.0 278.0 L 176.0 277.0 L 190.0 277.0 L 190.0 276.0 Z" />
  <path fill="#745742" fill-rule="evenodd" stroke="none" d="M 535.0 54.0 L 537.0 54.0 L 537.0 57.0 L 536.0 57.0 L 536.0 60.0 L 535.0 60.0 L 535.0 63.0 L 534.0 63.0 L 534.0 66.0 L 533.0 66.0 L 533.0 69.0 L 532.0 69.0 L 532.0 72.0 L 531.0 72.0 L 531.0 75.0 L 530.0 75.0 L 529.0 81.0 L 528.0 81.0 L 528.0 83.0 L 527.0 83.0 L 527.0 86.0 L 526.0 86.0 L 525.0 92.0 L 524.0 92.0 L 524.0 94.0 L 523.0 94.0 L 523.0 101.0 L 525.0 101.0 L 525.0 102.0 L 520.0 102.0 L 520.0 101.0 L 519.0 101.0 L 519.0 99.0 L 518.0 99.0 L 518.0 97.0 L 519.0 97.0 L 519.0 94.0 L 518.0 94.0 L 518.0 93.0 L 519.0 93.0 L 519.0 91.0 L 520.0 91.0 L 520.0 89.0 L 521.0 89.0 L 521.0 86.0 L 522.0 86.0 L 522.0 84.0 L 523.0 84.0 L 523.0 81.0 L 524.0 81.0 L 524.0 76.0 L 526.0 76.0 L 526.0 73.0 L 527.0 73.0 L 527.0 70.0 L 528.0 70.0 L 528.0 67.0 L 529.0 67.0 L 529.0 64.0 L 530.0 64.0 L 530.0 60.0 L 531.0 60.0 L 531.0 55.0 L 535.0 55.0 L 535.0 54.0 Z M 387.0 55.0 L 390.0 55.0 L 390.0 56.0 L 389.0 56.0 L 389.0 57.0 L 387.0 58.0 L 387.0 60.0 L 386.0 60.0 L 386.0 67.0 L 387.0 67.0 L 387.0 70.0 L 388.0 70.0 L 388.0 71.0 L 389.0 71.0 L 389.0 72.0 L 390.0 72.0 L 390.0 73.0 L 391.0 73.0 L 391.0 74.0 L 392.0 74.0 L 392.0 75.0 L 393.0 75.0 L 393.0 76.0 L 394.0 76.0 L 394.0 77.0 L 396.0 78.0 L 396.0 80.0 L 398.0 81.0 L 398.0 83.0 L 399.0 83.0 L 399.0 85.0 L 400.0 85.0 L 400.0 92.0 L 399.0 92.0 L 398.0 96.0 L 396.0 97.0 L 396.0 99.0 L 394.0 99.0 L 393.0 101.0 L 390.0 101.0 L 390.0 100.0 L 391.0 100.0 L 391.0 99.0 L 392.0 99.0 L 392.0 98.0 L 394.0 97.0 L 394.0 95.0 L 395.0 95.0 L 395.0 87.0 L 394.0 87.0 L 394.0 86.0 L 393.0 86.0 L 393.0 84.0 L 392.0 84.0 L 392.0 83.0 L 391.0 83.0 L 391.0 82.0 L 390.0 82.0 L 390.0 81.0 L 389.0 81.0 L 389.0 80.0 L 388.0 80.0 L 388.0 79.0 L 386.0 78.0 L 386.0 76.0 L 385.0 76.0 L 385.0 75.0 L 383.0 74.0 L 383.0 72.0 L 382.0 72.0 L 382.0 70.0 L 381.0 70.0 L 381.0 63.0 L 382.0 63.0 L 383.0 59.0 L 384.0 59.0 L 384.0 58.0 L 385.0 58.0 L 385.0 57.0 L 386.0 57.0 L 387.0 55.0 Z M 398.0 55.0 L 400.0 55.0 L 400.0 56.0 L 402.0 56.0 L 402.0 57.0 L 406.0 57.0 L 404.0 65.0 L 403.0 65.0 L 403.0 61.0 L 402.0 61.0 L 402.0 59.0 L 401.0 59.0 L 401.0 58.0 L 400.0 58.0 L 400.0 57.0 L 399.0 57.0 L 398.0 55.0 Z M 561.0 58.0 L 565.0 58.0 L 565.0 59.0 L 566.0 59.0 L 566.0 62.0 L 565.0 62.0 L 565.0 63.0 L 561.0 63.0 L 561.0 62.0 L 560.0 62.0 L 561.0 58.0 Z M 433.0 64.0 L 435.0 65.0 L 435.0 66.0 L 434.0 66.0 L 434.0 69.0 L 433.0 69.0 L 433.0 73.0 L 431.0 74.0 L 431.0 77.0 L 430.0 77.0 L 430.0 80.0 L 429.0 80.0 L 428.0 86.0 L 427.0 86.0 L 427.0 88.0 L 426.0 88.0 L 426.0 91.0 L 425.0 91.0 L 425.0 94.0 L 424.0 94.0 L 424.0 97.0 L 423.0 97.0 L 423.0 100.0 L 424.0 100.0 L 425.0 102.0 L 420.0 102.0 L 420.0 100.0 L 419.0 100.0 L 419.0 94.0 L 420.0 94.0 L 420.0 92.0 L 421.0 92.0 L 421.0 89.0 L 422.0 89.0 L 422.0 86.0 L 423.0 86.0 L 423.0 84.0 L 424.0 84.0 L 424.0 81.0 L 425.0 81.0 L 425.0 78.0 L 426.0 78.0 L 427.0 72.0 L 428.0 72.0 L 428.0 70.0 L 429.0 70.0 L 429.0 67.0 L 430.0 67.0 L 430.0 65.0 L 433.0 65.0 L 433.0 64.0 Z M 458.0 72.0 L 463.0 72.0 L 463.0 73.0 L 464.0 73.0 L 464.0 75.0 L 465.0 75.0 L 465.0 77.0 L 464.0 77.0 L 464.0 81.0 L 463.0 81.0 L 463.0 83.0 L 462.0 83.0 L 461.0 89.0 L 460.0 89.0 L 460.0 91.0 L 459.0 91.0 L 459.0 94.0 L 458.0 94.0 L 458.0 100.0 L 459.0 100.0 L 459.0 101.0 L 462.0 101.0 L 462.0 102.0 L 456.0 102.0 L 456.0 101.0 L 454.0 101.0 L 454.0 99.0 L 453.0 99.0 L 453.0 94.0 L 454.0 94.0 L 454.0 91.0 L 455.0 91.0 L 455.0 89.0 L 456.0 89.0 L 456.0 86.0 L 457.0 86.0 L 457.0 84.0 L 458.0 84.0 L 458.0 81.0 L 459.0 81.0 L 459.0 78.0 L 460.0 78.0 L 460.0 73.0 L 458.0 73.0 L 458.0 72.0 Z M 478.0 72.0 L 482.0 72.0 L 483.0 74.0 L 482.0 74.0 L 481.0 80.0 L 480.0 80.0 L 480.0 82.0 L 479.0 82.0 L 479.0 86.0 L 478.0 86.0 L 478.0 89.0 L 477.0 89.0 L 477.0 91.0 L 476.0 91.0 L 476.0 94.0 L 475.0 94.0 L 475.0 101.0 L 477.0 101.0 L 477.0 102.0 L 471.0 102.0 L 471.0 100.0 L 470.0 100.0 L 470.0 95.0 L 471.0 95.0 L 471.0 89.0 L 472.0 89.0 L 472.0 87.0 L 473.0 87.0 L 473.0 85.0 L 474.0 85.0 L 474.0 83.0 L 475.0 83.0 L 475.0 80.0 L 476.0 80.0 L 476.0 78.0 L 477.0 78.0 L 478.0 72.0 Z M 514.0 72.0 L 518.0 72.0 L 518.0 73.0 L 516.0 73.0 L 516.0 74.0 L 515.0 74.0 L 514.0 76.0 L 512.0 76.0 L 512.0 78.0 L 510.0 79.0 L 510.0 81.0 L 509.0 81.0 L 509.0 83.0 L 508.0 83.0 L 508.0 86.0 L 507.0 86.0 L 507.0 88.0 L 506.0 88.0 L 506.0 92.0 L 505.0 92.0 L 505.0 98.0 L 506.0 98.0 L 506.0 100.0 L 507.0 100.0 L 507.0 101.0 L 509.0 101.0 L 509.0 102.0 L 505.0 102.0 L 505.0 101.0 L 504.0 101.0 L 504.0 100.0 L 502.0 99.0 L 502.0 97.0 L 501.0 97.0 L 501.0 94.0 L 500.0 94.0 L 500.0 92.0 L 501.0 92.0 L 501.0 87.0 L 502.0 87.0 L 502.0 85.0 L 503.0 85.0 L 504.0 81.0 L 506.0 80.0 L 506.0 78.0 L 507.0 78.0 L 507.0 77.0 L 508.0 77.0 L 509.0 75.0 L 511.0 75.0 L 512.0 73.0 L 514.0 73.0 L 514.0 72.0 Z M 556.0 72.0 L 561.0 72.0 L 561.0 75.0 L 562.0 75.0 L 562.0 76.0 L 561.0 76.0 L 561.0 80.0 L 560.0 80.0 L 560.0 82.0 L 559.0 82.0 L 559.0 85.0 L 558.0 85.0 L 558.0 88.0 L 557.0 88.0 L 556.0 94.0 L 555.0 94.0 L 555.0 96.0 L 554.0 96.0 L 554.0 100.0 L 555.0 100.0 L 556.0 102.0 L 551.0 102.0 L 551.0 101.0 L 550.0 101.0 L 550.0 99.0 L 549.0 99.0 L 549.0 97.0 L 550.0 97.0 L 550.0 94.0 L 551.0 94.0 L 552.0 88.0 L 553.0 88.0 L 553.0 86.0 L 554.0 86.0 L 555.0 80.0 L 556.0 80.0 L 556.0 78.0 L 557.0 78.0 L 557.0 74.0 L 556.0 74.0 L 556.0 72.0 Z M 592.0 72.0 L 595.0 72.0 L 595.0 73.0 L 594.0 73.0 L 594.0 74.0 L 593.0 74.0 L 593.0 75.0 L 592.0 75.0 L 592.0 76.0 L 591.0 76.0 L 591.0 77.0 L 589.0 78.0 L 589.0 80.0 L 588.0 80.0 L 588.0 82.0 L 587.0 82.0 L 587.0 85.0 L 586.0 85.0 L 586.0 89.0 L 585.0 89.0 L 585.0 99.0 L 586.0 99.0 L 586.0 100.0 L 588.0 101.0 L 588.0 102.0 L 586.0 102.0 L 586.0 101.0 L 584.0 101.0 L 584.0 100.0 L 582.0 99.0 L 582.0 97.0 L 581.0 97.0 L 581.0 94.0 L 580.0 94.0 L 580.0 88.0 L 581.0 88.0 L 581.0 84.0 L 582.0 84.0 L 582.0 82.0 L 583.0 82.0 L 584.0 78.0 L 586.0 78.0 L 586.0 76.0 L 587.0 76.0 L 587.0 75.0 L 589.0 75.0 L 589.0 74.0 L 590.0 74.0 L 590.0 73.0 L 592.0 73.0 L 592.0 72.0 Z M 601.0 73.0 L 602.0 73.0 L 602.0 74.0 L 604.0 74.0 L 604.0 76.0 L 606.0 77.0 L 606.0 81.0 L 607.0 81.0 L 607.0 86.0 L 606.0 86.0 L 606.0 90.0 L 605.0 90.0 L 604.0 94.0 L 603.0 94.0 L 603.0 95.0 L 602.0 95.0 L 602.0 96.0 L 601.0 96.0 L 601.0 97.0 L 600.0 97.0 L 600.0 98.0 L 599.0 98.0 L 598.0 100.0 L 596.0 100.0 L 596.0 101.0 L 592.0 102.0 L 592.0 101.0 L 593.0 101.0 L 593.0 100.0 L 594.0 100.0 L 594.0 99.0 L 595.0 99.0 L 595.0 98.0 L 597.0 97.0 L 597.0 95.0 L 599.0 94.0 L 599.0 91.0 L 600.0 91.0 L 600.0 88.0 L 601.0 88.0 L 601.0 85.0 L 602.0 85.0 L 602.0 75.0 L 601.0 75.0 L 601.0 73.0 Z M 373.0 88.0 L 374.0 88.0 L 374.0 94.0 L 375.0 94.0 L 375.0 96.0 L 376.0 96.0 L 376.0 97.0 L 377.0 97.0 L 377.0 98.0 L 378.0 98.0 L 378.0 99.0 L 379.0 99.0 L 380.0 101.0 L 378.0 101.0 L 378.0 100.0 L 376.0 100.0 L 376.0 99.0 L 374.0 99.0 L 374.0 98.0 L 373.0 98.0 L 373.0 99.0 L 370.0 99.0 L 370.0 98.0 L 371.0 98.0 L 371.0 95.0 L 372.0 95.0 L 372.0 91.0 L 373.0 91.0 L 373.0 88.0 Z M 390.0 101.0 L 390.0 102.0 L 383.0 102.0 L 383.0 101.0 L 390.0 101.0 Z M 1093.0 146.0 L 1104.0 146.0 L 1104.0 147.0 L 1107.0 147.0 L 1108.0 149.0 L 1104.0 149.0 L 1104.0 148.0 L 1096.0 147.0 L 1096.0 148.0 L 1091.0 148.0 L 1091.0 149.0 L 1088.0 149.0 L 1088.0 150.0 L 1086.0 150.0 L 1086.0 151.0 L 1084.0 151.0 L 1084.0 152.0 L 1080.0 153.0 L 1080.0 154.0 L 1079.0 154.0 L 1079.0 155.0 L 1077.0 155.0 L 1077.0 156.0 L 1076.0 156.0 L 1076.0 157.0 L 1075.0 157.0 L 1075.0 158.0 L 1074.0 158.0 L 1074.0 159.0 L 1073.0 159.0 L 1073.0 160.0 L 1072.0 160.0 L 1072.0 161.0 L 1071.0 161.0 L 1071.0 162.0 L 1070.0 162.0 L 1070.0 163.0 L 1069.0 163.0 L 1069.0 164.0 L 1068.0 164.0 L 1068.0 165.0 L 1067.0 165.0 L 1067.0 166.0 L 1065.0 167.0 L 1065.0 169.0 L 1064.0 169.0 L 1064.0 170.0 L 1063.0 170.0 L 1063.0 171.0 L 1062.0 171.0 L 1062.0 172.0 L 1061.0 172.0 L 1061.0 173.0 L 1059.0 174.0 L 1059.0 176.0 L 1058.0 176.0 L 1058.0 177.0 L 1056.0 178.0 L 1056.0 180.0 L 1054.0 181.0 L 1054.0 183.0 L 1053.0 183.0 L 1053.0 184.0 L 1051.0 185.0 L 1051.0 187.0 L 1049.0 188.0 L 1049.0 190.0 L 1047.0 191.0 L 1047.0 193.0 L 1046.0 193.0 L 1046.0 194.0 L 1045.0 194.0 L 1045.0 196.0 L 1044.0 196.0 L 1044.0 197.0 L 1042.0 198.0 L 1041.0 202.0 L 1039.0 203.0 L 1039.0 205.0 L 1037.0 206.0 L 1037.0 208.0 L 1036.0 208.0 L 1036.0 209.0 L 1035.0 209.0 L 1035.0 211.0 L 1033.0 212.0 L 1032.0 216.0 L 1030.0 217.0 L 1030.0 219.0 L 1029.0 219.0 L 1029.0 220.0 L 1028.0 220.0 L 1028.0 222.0 L 1026.0 223.0 L 1025.0 227.0 L 1023.0 228.0 L 1023.0 230.0 L 1022.0 230.0 L 1022.0 232.0 L 1020.0 233.0 L 1019.0 237.0 L 1017.0 238.0 L 1016.0 242.0 L 1015.0 242.0 L 1015.0 243.0 L 1014.0 243.0 L 1014.0 245.0 L 1012.0 246.0 L 1012.0 248.0 L 1011.0 248.0 L 1011.0 250.0 L 1010.0 250.0 L 1009.0 254.0 L 1008.0 254.0 L 1008.0 255.0 L 1006.0 256.0 L 1006.0 258.0 L 1005.0 258.0 L 1004.0 262.0 L 1002.0 263.0 L 1001.0 267.0 L 999.0 268.0 L 998.0 272.0 L 996.0 273.0 L 995.0 277.0 L 993.0 278.0 L 993.0 280.0 L 992.0 280.0 L 991.0 284.0 L 989.0 285.0 L 988.0 289.0 L 986.0 290.0 L 985.0 294.0 L 983.0 295.0 L 983.0 297.0 L 982.0 297.0 L 982.0 299.0 L 981.0 299.0 L 981.0 301.0 L 980.0 301.0 L 979.0 305.0 L 977.0 306.0 L 977.0 309.0 L 975.0 310.0 L 975.0 312.0 L 974.0 312.0 L 974.0 314.0 L 973.0 314.0 L 973.0 317.0 L 972.0 317.0 L 972.0 319.0 L 971.0 319.0 L 971.0 322.0 L 970.0 322.0 L 970.0 326.0 L 971.0 326.0 L 971.0 328.0 L 973.0 328.0 L 973.0 329.0 L 975.0 329.0 L 975.0 328.0 L 978.0 328.0 L 978.0 327.0 L 980.0 327.0 L 980.0 326.0 L 984.0 325.0 L 984.0 324.0 L 985.0 324.0 L 985.0 323.0 L 986.0 323.0 L 986.0 322.0 L 987.0 322.0 L 987.0 321.0 L 988.0 321.0 L 988.0 320.0 L 989.0 320.0 L 990.0 318.0 L 992.0 318.0 L 992.0 316.0 L 993.0 316.0 L 993.0 315.0 L 994.0 315.0 L 994.0 314.0 L 995.0 314.0 L 995.0 313.0 L 996.0 313.0 L 996.0 312.0 L 997.0 312.0 L 997.0 311.0 L 998.0 311.0 L 998.0 310.0 L 999.0 310.0 L 999.0 309.0 L 1000.0 309.0 L 1000.0 308.0 L 1002.0 307.0 L 1002.0 305.0 L 1003.0 305.0 L 1003.0 304.0 L 1004.0 304.0 L 1004.0 303.0 L 1005.0 303.0 L 1005.0 302.0 L 1007.0 301.0 L 1007.0 299.0 L 1008.0 299.0 L 1008.0 298.0 L 1010.0 297.0 L 1010.0 295.0 L 1011.0 295.0 L 1011.0 294.0 L 1013.0 293.0 L 1013.0 291.0 L 1014.0 291.0 L 1014.0 290.0 L 1016.0 289.0 L 1016.0 287.0 L 1018.0 286.0 L 1018.0 284.0 L 1019.0 284.0 L 1019.0 283.0 L 1021.0 282.0 L 1021.0 280.0 L 1022.0 280.0 L 1022.0 279.0 L 1024.0 278.0 L 1024.0 276.0 L 1025.0 276.0 L 1025.0 274.0 L 1026.0 274.0 L 1027.0 270.0 L 1029.0 269.0 L 1029.0 267.0 L 1031.0 266.0 L 1031.0 264.0 L 1032.0 264.0 L 1032.0 263.0 L 1034.0 262.0 L 1034.0 260.0 L 1035.0 260.0 L 1035.0 259.0 L 1037.0 258.0 L 1037.0 256.0 L 1038.0 256.0 L 1038.0 255.0 L 1039.0 255.0 L 1039.0 254.0 L 1040.0 254.0 L 1040.0 253.0 L 1041.0 253.0 L 1041.0 252.0 L 1042.0 252.0 L 1042.0 251.0 L 1043.0 251.0 L 1043.0 250.0 L 1044.0 250.0 L 1044.0 249.0 L 1045.0 249.0 L 1045.0 248.0 L 1046.0 248.0 L 1047.0 246.0 L 1049.0 246.0 L 1049.0 245.0 L 1050.0 245.0 L 1051.0 243.0 L 1053.0 243.0 L 1053.0 242.0 L 1054.0 242.0 L 1054.0 241.0 L 1056.0 241.0 L 1057.0 239.0 L 1059.0 239.0 L 1059.0 238.0 L 1061.0 238.0 L 1061.0 237.0 L 1063.0 237.0 L 1063.0 236.0 L 1065.0 236.0 L 1065.0 235.0 L 1068.0 235.0 L 1068.0 234.0 L 1070.0 234.0 L 1070.0 233.0 L 1075.0 233.0 L 1075.0 232.0 L 1086.0 232.0 L 1086.0 233.0 L 1077.0 233.0 L 1077.0 234.0 L 1071.0 235.0 L 1071.0 236.0 L 1069.0 236.0 L 1068.0 238.0 L 1066.0 238.0 L 1066.0 239.0 L 1065.0 239.0 L 1064.0 241.0 L 1062.0 241.0 L 1062.0 242.0 L 1061.0 242.0 L 1061.0 243.0 L 1060.0 243.0 L 1060.0 244.0 L 1059.0 244.0 L 1059.0 245.0 L 1058.0 245.0 L 1058.0 246.0 L 1057.0 246.0 L 1057.0 247.0 L 1055.0 248.0 L 1055.0 250.0 L 1054.0 250.0 L 1054.0 251.0 L 1053.0 251.0 L 1053.0 252.0 L 1051.0 253.0 L 1051.0 255.0 L 1050.0 255.0 L 1050.0 256.0 L 1048.0 257.0 L 1048.0 259.0 L 1046.0 260.0 L 1046.0 262.0 L 1045.0 262.0 L 1045.0 263.0 L 1044.0 263.0 L 1044.0 265.0 L 1042.0 266.0 L 1042.0 268.0 L 1041.0 268.0 L 1041.0 270.0 L 1040.0 270.0 L 1040.0 272.0 L 1039.0 272.0 L 1039.0 274.0 L 1038.0 274.0 L 1038.0 276.0 L 1037.0 276.0 L 1037.0 278.0 L 1036.0 278.0 L 1036.0 280.0 L 1035.0 280.0 L 1035.0 282.0 L 1034.0 282.0 L 1034.0 284.0 L 1033.0 284.0 L 1033.0 287.0 L 1032.0 287.0 L 1032.0 289.0 L 1031.0 289.0 L 1031.0 292.0 L 1030.0 292.0 L 1030.0 296.0 L 1029.0 296.0 L 1029.0 299.0 L 1028.0 299.0 L 1028.0 304.0 L 1027.0 304.0 L 1027.0 311.0 L 1026.0 311.0 L 1026.0 315.0 L 1027.0 315.0 L 1027.0 321.0 L 1028.0 321.0 L 1029.0 325.0 L 1030.0 325.0 L 1030.0 326.0 L 1031.0 326.0 L 1032.0 328.0 L 1034.0 328.0 L 1034.0 329.0 L 1045.0 329.0 L 1045.0 328.0 L 1049.0 328.0 L 1050.0 326.0 L 1052.0 326.0 L 1052.0 325.0 L 1054.0 325.0 L 1054.0 324.0 L 1055.0 324.0 L 1056.0 322.0 L 1058.0 322.0 L 1058.0 321.0 L 1059.0 321.0 L 1059.0 320.0 L 1060.0 320.0 L 1060.0 319.0 L 1061.0 319.0 L 1061.0 318.0 L 1062.0 318.0 L 1062.0 317.0 L 1064.0 316.0 L 1064.0 314.0 L 1065.0 314.0 L 1065.0 313.0 L 1066.0 313.0 L 1066.0 312.0 L 1067.0 312.0 L 1067.0 311.0 L 1068.0 311.0 L 1068.0 310.0 L 1070.0 309.0 L 1070.0 307.0 L 1072.0 306.0 L 1072.0 304.0 L 1073.0 304.0 L 1073.0 303.0 L 1074.0 303.0 L 1074.0 301.0 L 1076.0 300.0 L 1077.0 296.0 L 1079.0 295.0 L 1079.0 293.0 L 1080.0 293.0 L 1080.0 291.0 L 1081.0 291.0 L 1081.0 289.0 L 1082.0 289.0 L 1082.0 287.0 L 1083.0 287.0 L 1083.0 285.0 L 1084.0 285.0 L 1084.0 283.0 L 1085.0 283.0 L 1085.0 281.0 L 1086.0 281.0 L 1086.0 279.0 L 1087.0 279.0 L 1087.0 276.0 L 1088.0 276.0 L 1088.0 274.0 L 1089.0 274.0 L 1089.0 272.0 L 1090.0 272.0 L 1091.0 264.0 L 1092.0 264.0 L 1092.0 261.0 L 1093.0 261.0 L 1093.0 256.0 L 1094.0 256.0 L 1094.0 242.0 L 1093.0 242.0 L 1093.0 239.0 L 1092.0 239.0 L 1092.0 238.0 L 1090.0 237.0 L 1090.0 235.0 L 1088.0 235.0 L 1088.0 234.0 L 1086.0 234.0 L 1086.0 233.0 L 1090.0 233.0 L 1090.0 234.0 L 1094.0 235.0 L 1094.0 236.0 L 1095.0 236.0 L 1095.0 237.0 L 1096.0 237.0 L 1096.0 238.0 L 1097.0 238.0 L 1097.0 239.0 L 1099.0 240.0 L 1099.0 242.0 L 1101.0 243.0 L 1101.0 246.0 L 1102.0 246.0 L 1102.0 249.0 L 1103.0 249.0 L 1103.0 267.0 L 1102.0 267.0 L 1101.0 275.0 L 1100.0 275.0 L 1100.0 278.0 L 1099.0 278.0 L 1099.0 280.0 L 1098.0 280.0 L 1098.0 282.0 L 1097.0 282.0 L 1097.0 285.0 L 1095.0 286.0 L 1095.0 289.0 L 1093.0 290.0 L 1093.0 292.0 L 1092.0 292.0 L 1092.0 294.0 L 1090.0 295.0 L 1090.0 297.0 L 1088.0 298.0 L 1088.0 300.0 L 1087.0 300.0 L 1087.0 301.0 L 1086.0 301.0 L 1086.0 302.0 L 1085.0 302.0 L 1085.0 303.0 L 1083.0 304.0 L 1083.0 306.0 L 1082.0 306.0 L 1082.0 307.0 L 1081.0 307.0 L 1081.0 308.0 L 1080.0 308.0 L 1080.0 309.0 L 1079.0 309.0 L 1079.0 310.0 L 1078.0 310.0 L 1078.0 311.0 L 1077.0 311.0 L 1077.0 312.0 L 1076.0 312.0 L 1076.0 313.0 L 1075.0 313.0 L 1075.0 314.0 L 1074.0 314.0 L 1074.0 315.0 L 1073.0 315.0 L 1073.0 316.0 L 1072.0 316.0 L 1071.0 318.0 L 1069.0 318.0 L 1068.0 320.0 L 1066.0 320.0 L 1066.0 321.0 L 1065.0 321.0 L 1065.0 322.0 L 1063.0 322.0 L 1062.0 324.0 L 1060.0 324.0 L 1060.0 325.0 L 1058.0 325.0 L 1058.0 326.0 L 1056.0 326.0 L 1056.0 327.0 L 1054.0 327.0 L 1054.0 328.0 L 1052.0 328.0 L 1052.0 329.0 L 1048.0 329.0 L 1048.0 330.0 L 1044.0 330.0 L 1044.0 331.0 L 1037.0 331.0 L 1037.0 330.0 L 1031.0 330.0 L 1031.0 329.0 L 1029.0 329.0 L 1028.0 327.0 L 1026.0 327.0 L 1026.0 326.0 L 1025.0 326.0 L 1025.0 325.0 L 1024.0 325.0 L 1024.0 324.0 L 1023.0 324.0 L 1023.0 323.0 L 1021.0 322.0 L 1021.0 320.0 L 1020.0 320.0 L 1020.0 318.0 L 1019.0 318.0 L 1019.0 316.0 L 1018.0 316.0 L 1018.0 312.0 L 1017.0 312.0 L 1017.0 298.0 L 1018.0 298.0 L 1018.0 297.0 L 1017.0 297.0 L 1017.0 296.0 L 1018.0 296.0 L 1018.0 293.0 L 1019.0 293.0 L 1019.0 289.0 L 1020.0 289.0 L 1020.0 286.0 L 1019.0 286.0 L 1019.0 287.0 L 1018.0 287.0 L 1018.0 289.0 L 1017.0 289.0 L 1017.0 290.0 L 1015.0 291.0 L 1015.0 293.0 L 1014.0 293.0 L 1014.0 294.0 L 1012.0 295.0 L 1012.0 297.0 L 1011.0 297.0 L 1011.0 298.0 L 1009.0 299.0 L 1009.0 301.0 L 1008.0 301.0 L 1008.0 302.0 L 1007.0 302.0 L 1007.0 303.0 L 1006.0 303.0 L 1006.0 304.0 L 1004.0 305.0 L 1004.0 307.0 L 1003.0 307.0 L 1003.0 308.0 L 1002.0 308.0 L 1002.0 309.0 L 1001.0 309.0 L 1001.0 310.0 L 1000.0 310.0 L 1000.0 311.0 L 998.0 312.0 L 998.0 314.0 L 997.0 314.0 L 997.0 315.0 L 996.0 315.0 L 996.0 316.0 L 995.0 316.0 L 995.0 317.0 L 994.0 317.0 L 994.0 318.0 L 993.0 318.0 L 993.0 319.0 L 992.0 319.0 L 992.0 320.0 L 991.0 320.0 L 990.0 322.0 L 988.0 322.0 L 988.0 323.0 L 987.0 323.0 L 987.0 324.0 L 986.0 324.0 L 985.0 326.0 L 983.0 326.0 L 982.0 328.0 L 980.0 328.0 L 980.0 329.0 L 978.0 329.0 L 978.0 330.0 L 975.0 330.0 L 975.0 331.0 L 969.0 331.0 L 969.0 330.0 L 966.0 330.0 L 966.0 329.0 L 964.0 328.0 L 964.0 326.0 L 963.0 326.0 L 963.0 323.0 L 962.0 323.0 L 962.0 317.0 L 963.0 317.0 L 963.0 312.0 L 964.0 312.0 L 964.0 310.0 L 965.0 310.0 L 965.0 307.0 L 966.0 307.0 L 966.0 305.0 L 967.0 305.0 L 967.0 302.0 L 968.0 302.0 L 968.0 300.0 L 970.0 299.0 L 970.0 296.0 L 971.0 296.0 L 971.0 294.0 L 973.0 293.0 L 974.0 289.0 L 976.0 288.0 L 976.0 286.0 L 977.0 286.0 L 978.0 282.0 L 980.0 281.0 L 980.0 279.0 L 981.0 279.0 L 981.0 277.0 L 983.0 276.0 L 984.0 272.0 L 986.0 271.0 L 987.0 267.0 L 989.0 266.0 L 989.0 264.0 L 990.0 264.0 L 991.0 260.0 L 992.0 260.0 L 992.0 259.0 L 993.0 259.0 L 993.0 257.0 L 995.0 256.0 L 996.0 252.0 L 998.0 251.0 L 998.0 249.0 L 999.0 249.0 L 999.0 247.0 L 1001.0 246.0 L 1002.0 242.0 L 1004.0 241.0 L 1005.0 237.0 L 1007.0 236.0 L 1007.0 234.0 L 1009.0 233.0 L 1010.0 229.0 L 1012.0 228.0 L 1013.0 224.0 L 1014.0 224.0 L 1014.0 223.0 L 1015.0 223.0 L 1015.0 221.0 L 1017.0 220.0 L 1018.0 216.0 L 1019.0 216.0 L 1019.0 215.0 L 1021.0 214.0 L 1021.0 212.0 L 1022.0 212.0 L 1023.0 208.0 L 1024.0 208.0 L 1024.0 207.0 L 1026.0 206.0 L 1027.0 202.0 L 1028.0 202.0 L 1028.0 201.0 L 1030.0 200.0 L 1031.0 196.0 L 1032.0 196.0 L 1032.0 195.0 L 1034.0 194.0 L 1034.0 192.0 L 1035.0 192.0 L 1035.0 191.0 L 1037.0 190.0 L 1037.0 188.0 L 1038.0 188.0 L 1038.0 187.0 L 1040.0 186.0 L 1040.0 184.0 L 1041.0 184.0 L 1041.0 183.0 L 1042.0 183.0 L 1042.0 182.0 L 1044.0 181.0 L 1044.0 179.0 L 1045.0 179.0 L 1045.0 178.0 L 1046.0 178.0 L 1046.0 177.0 L 1048.0 176.0 L 1048.0 174.0 L 1050.0 174.0 L 1050.0 172.0 L 1051.0 172.0 L 1051.0 171.0 L 1052.0 171.0 L 1052.0 170.0 L 1053.0 170.0 L 1053.0 169.0 L 1054.0 169.0 L 1054.0 168.0 L 1055.0 168.0 L 1056.0 166.0 L 1058.0 166.0 L 1058.0 165.0 L 1059.0 165.0 L 1059.0 164.0 L 1060.0 164.0 L 1060.0 163.0 L 1061.0 163.0 L 1062.0 161.0 L 1064.0 161.0 L 1064.0 160.0 L 1065.0 160.0 L 1066.0 158.0 L 1068.0 158.0 L 1068.0 157.0 L 1069.0 157.0 L 1069.0 156.0 L 1071.0 156.0 L 1072.0 154.0 L 1074.0 154.0 L 1074.0 153.0 L 1076.0 153.0 L 1076.0 152.0 L 1078.0 152.0 L 1078.0 151.0 L 1080.0 151.0 L 1080.0 150.0 L 1082.0 150.0 L 1082.0 149.0 L 1085.0 149.0 L 1085.0 148.0 L 1088.0 148.0 L 1088.0 147.0 L 1093.0 147.0 L 1093.0 146.0 Z M 370.0 152.0 L 474.0 152.0 L 474.0 168.0 L 475.0 168.0 L 475.0 178.0 L 474.0 178.0 L 474.0 174.0 L 473.0 174.0 L 472.0 168.0 L 471.0 168.0 L 471.0 166.0 L 469.0 165.0 L 469.0 163.0 L 468.0 163.0 L 468.0 162.0 L 467.0 162.0 L 466.0 160.0 L 464.0 160.0 L 463.0 158.0 L 461.0 158.0 L 461.0 157.0 L 458.0 157.0 L 458.0 156.0 L 456.0 156.0 L 456.0 155.0 L 450.0 155.0 L 450.0 154.0 L 400.0 154.0 L 400.0 157.0 L 399.0 157.0 L 399.0 238.0 L 439.0 238.0 L 439.0 237.0 L 442.0 237.0 L 442.0 236.0 L 446.0 235.0 L 446.0 234.0 L 447.0 234.0 L 447.0 233.0 L 448.0 233.0 L 448.0 232.0 L 450.0 231.0 L 450.0 229.0 L 451.0 229.0 L 451.0 226.0 L 452.0 226.0 L 452.0 220.0 L 453.0 220.0 L 453.0 218.0 L 454.0 218.0 L 454.0 262.0 L 453.0 262.0 L 453.0 259.0 L 452.0 259.0 L 452.0 254.0 L 451.0 254.0 L 451.0 250.0 L 450.0 250.0 L 450.0 248.0 L 449.0 248.0 L 449.0 247.0 L 448.0 247.0 L 448.0 246.0 L 447.0 246.0 L 446.0 244.0 L 444.0 244.0 L 444.0 243.0 L 442.0 243.0 L 442.0 242.0 L 439.0 242.0 L 439.0 241.0 L 399.0 241.0 L 399.0 312.0 L 400.0 312.0 L 400.0 318.0 L 401.0 318.0 L 401.0 319.0 L 402.0 319.0 L 402.0 321.0 L 404.0 321.0 L 405.0 323.0 L 407.0 323.0 L 407.0 324.0 L 414.0 324.0 L 414.0 326.0 L 370.0 326.0 L 370.0 324.0 L 378.0 324.0 L 378.0 323.0 L 382.0 322.0 L 382.0 321.0 L 384.0 320.0 L 384.0 318.0 L 385.0 318.0 L 385.0 313.0 L 386.0 313.0 L 386.0 165.0 L 385.0 165.0 L 385.0 161.0 L 384.0 161.0 L 384.0 158.0 L 383.0 158.0 L 383.0 157.0 L 382.0 157.0 L 381.0 155.0 L 379.0 155.0 L 379.0 154.0 L 375.0 154.0 L 375.0 153.0 L 370.0 153.0 L 370.0 152.0 Z M 992.0 165.0 L 996.0 165.0 L 996.0 166.0 L 994.0 166.0 L 994.0 167.0 L 992.0 167.0 L 992.0 168.0 L 988.0 169.0 L 988.0 170.0 L 987.0 170.0 L 987.0 171.0 L 986.0 171.0 L 986.0 172.0 L 985.0 172.0 L 985.0 173.0 L 984.0 173.0 L 984.0 174.0 L 983.0 174.0 L 983.0 175.0 L 982.0 175.0 L 982.0 176.0 L 981.0 176.0 L 981.0 177.0 L 980.0 177.0 L 980.0 178.0 L 979.0 178.0 L 979.0 179.0 L 978.0 179.0 L 978.0 180.0 L 976.0 181.0 L 976.0 183.0 L 975.0 183.0 L 975.0 184.0 L 973.0 185.0 L 973.0 187.0 L 971.0 188.0 L 971.0 190.0 L 969.0 191.0 L 969.0 193.0 L 968.0 193.0 L 968.0 194.0 L 967.0 194.0 L 967.0 196.0 L 965.0 197.0 L 964.0 201.0 L 962.0 202.0 L 961.0 206.0 L 959.0 207.0 L 958.0 211.0 L 957.0 211.0 L 957.0 212.0 L 956.0 212.0 L 956.0 214.0 L 954.0 215.0 L 954.0 217.0 L 953.0 217.0 L 952.0 221.0 L 950.0 222.0 L 949.0 226.0 L 947.0 227.0 L 947.0 229.0 L 946.0 229.0 L 945.0 233.0 L 943.0 234.0 L 942.0 238.0 L 940.0 239.0 L 940.0 241.0 L 956.0 241.0 L 956.0 242.0 L 966.0 242.0 L 966.0 241.0 L 972.0 241.0 L 972.0 240.0 L 975.0 240.0 L 975.0 239.0 L 976.0 239.0 L 976.0 241.0 L 974.0 241.0 L 974.0 242.0 L 973.0 242.0 L 972.0 244.0 L 970.0 244.0 L 970.0 245.0 L 968.0 245.0 L 968.0 246.0 L 966.0 246.0 L 966.0 247.0 L 964.0 247.0 L 964.0 246.0 L 956.0 246.0 L 956.0 245.0 L 950.0 245.0 L 950.0 244.0 L 938.0 244.0 L 938.0 245.0 L 936.0 246.0 L 936.0 248.0 L 935.0 248.0 L 934.0 252.0 L 932.0 253.0 L 932.0 255.0 L 931.0 255.0 L 930.0 259.0 L 928.0 260.0 L 928.0 262.0 L 926.0 263.0 L 925.0 267.0 L 923.0 268.0 L 922.0 272.0 L 921.0 272.0 L 921.0 273.0 L 920.0 273.0 L 920.0 275.0 L 919.0 275.0 L 919.0 276.0 L 917.0 277.0 L 917.0 279.0 L 915.0 280.0 L 915.0 282.0 L 914.0 282.0 L 914.0 283.0 L 912.0 284.0 L 912.0 286.0 L 910.0 287.0 L 910.0 289.0 L 909.0 289.0 L 909.0 290.0 L 908.0 290.0 L 908.0 291.0 L 906.0 292.0 L 906.0 294.0 L 905.0 294.0 L 905.0 295.0 L 904.0 295.0 L 904.0 296.0 L 903.0 296.0 L 903.0 297.0 L 901.0 298.0 L 901.0 300.0 L 900.0 300.0 L 900.0 301.0 L 899.0 301.0 L 899.0 302.0 L 898.0 302.0 L 898.0 303.0 L 897.0 303.0 L 897.0 304.0 L 896.0 304.0 L 896.0 305.0 L 895.0 305.0 L 895.0 306.0 L 894.0 306.0 L 894.0 307.0 L 893.0 307.0 L 893.0 308.0 L 892.0 308.0 L 892.0 309.0 L 891.0 309.0 L 891.0 310.0 L 890.0 310.0 L 890.0 311.0 L 889.0 311.0 L 889.0 312.0 L 888.0 312.0 L 887.0 314.0 L 885.0 314.0 L 885.0 315.0 L 884.0 315.0 L 884.0 316.0 L 883.0 316.0 L 882.0 318.0 L 880.0 318.0 L 880.0 319.0 L 879.0 319.0 L 878.0 321.0 L 876.0 321.0 L 875.0 323.0 L 873.0 323.0 L 872.0 325.0 L 870.0 325.0 L 870.0 326.0 L 868.0 326.0 L 868.0 327.0 L 866.0 327.0 L 866.0 328.0 L 864.0 328.0 L 864.0 329.0 L 861.0 329.0 L 861.0 330.0 L 859.0 330.0 L 859.0 331.0 L 856.0 331.0 L 856.0 332.0 L 853.0 332.0 L 853.0 333.0 L 850.0 333.0 L 850.0 334.0 L 845.0 334.0 L 845.0 335.0 L 836.0 335.0 L 836.0 336.0 L 826.0 336.0 L 826.0 335.0 L 820.0 335.0 L 820.0 334.0 L 815.0 334.0 L 815.0 333.0 L 812.0 333.0 L 812.0 332.0 L 810.0 332.0 L 810.0 331.0 L 806.0 330.0 L 805.0 328.0 L 803.0 328.0 L 803.0 327.0 L 802.0 327.0 L 802.0 326.0 L 801.0 326.0 L 801.0 325.0 L 800.0 325.0 L 800.0 324.0 L 799.0 324.0 L 799.0 323.0 L 797.0 322.0 L 797.0 320.0 L 795.0 319.0 L 795.0 317.0 L 794.0 317.0 L 794.0 315.0 L 793.0 315.0 L 793.0 311.0 L 792.0 311.0 L 792.0 298.0 L 793.0 298.0 L 793.0 295.0 L 794.0 295.0 L 795.0 293.0 L 797.0 293.0 L 797.0 297.0 L 796.0 297.0 L 796.0 301.0 L 795.0 301.0 L 795.0 312.0 L 796.0 312.0 L 797.0 318.0 L 799.0 319.0 L 799.0 321.0 L 800.0 321.0 L 800.0 322.0 L 801.0 322.0 L 801.0 323.0 L 802.0 323.0 L 802.0 324.0 L 803.0 324.0 L 803.0 325.0 L 804.0 325.0 L 805.0 327.0 L 807.0 327.0 L 808.0 329.0 L 810.0 329.0 L 810.0 330.0 L 812.0 330.0 L 812.0 331.0 L 815.0 331.0 L 815.0 332.0 L 818.0 332.0 L 818.0 333.0 L 822.0 333.0 L 822.0 334.0 L 840.0 334.0 L 840.0 333.0 L 845.0 333.0 L 845.0 332.0 L 848.0 332.0 L 848.0 331.0 L 854.0 330.0 L 854.0 329.0 L 856.0 329.0 L 856.0 328.0 L 858.0 328.0 L 858.0 327.0 L 862.0 326.0 L 862.0 325.0 L 863.0 325.0 L 864.0 323.0 L 866.0 323.0 L 866.0 322.0 L 867.0 322.0 L 868.0 320.0 L 870.0 320.0 L 870.0 319.0 L 871.0 319.0 L 871.0 318.0 L 872.0 318.0 L 872.0 317.0 L 873.0 317.0 L 874.0 315.0 L 876.0 315.0 L 876.0 313.0 L 877.0 313.0 L 877.0 312.0 L 878.0 312.0 L 879.0 310.0 L 881.0 310.0 L 881.0 309.0 L 882.0 309.0 L 882.0 307.0 L 883.0 307.0 L 883.0 306.0 L 884.0 306.0 L 884.0 305.0 L 885.0 305.0 L 885.0 304.0 L 887.0 303.0 L 887.0 301.0 L 888.0 301.0 L 888.0 300.0 L 890.0 299.0 L 890.0 297.0 L 891.0 297.0 L 891.0 296.0 L 892.0 296.0 L 892.0 295.0 L 894.0 294.0 L 894.0 292.0 L 896.0 291.0 L 896.0 289.0 L 897.0 289.0 L 897.0 288.0 L 898.0 288.0 L 898.0 287.0 L 900.0 286.0 L 901.0 282.0 L 903.0 281.0 L 903.0 279.0 L 904.0 279.0 L 904.0 278.0 L 905.0 278.0 L 905.0 276.0 L 907.0 275.0 L 908.0 271.0 L 910.0 270.0 L 910.0 268.0 L 911.0 268.0 L 911.0 267.0 L 912.0 267.0 L 912.0 265.0 L 914.0 264.0 L 914.0 262.0 L 915.0 262.0 L 915.0 260.0 L 917.0 259.0 L 918.0 255.0 L 920.0 254.0 L 920.0 252.0 L 921.0 252.0 L 921.0 250.0 L 922.0 250.0 L 923.0 246.0 L 925.0 245.0 L 925.0 244.0 L 916.0 244.0 L 916.0 245.0 L 912.0 245.0 L 912.0 244.0 L 914.0 244.0 L 914.0 243.0 L 916.0 243.0 L 916.0 242.0 L 924.0 242.0 L 924.0 241.0 L 927.0 241.0 L 927.0 239.0 L 928.0 239.0 L 928.0 238.0 L 929.0 238.0 L 929.0 236.0 L 931.0 235.0 L 932.0 231.0 L 934.0 230.0 L 935.0 226.0 L 937.0 225.0 L 938.0 221.0 L 940.0 220.0 L 940.0 218.0 L 941.0 218.0 L 942.0 214.0 L 943.0 214.0 L 943.0 213.0 L 944.0 213.0 L 944.0 211.0 L 946.0 210.0 L 947.0 206.0 L 948.0 206.0 L 948.0 205.0 L 950.0 204.0 L 951.0 200.0 L 952.0 200.0 L 952.0 199.0 L 954.0 198.0 L 954.0 196.0 L 955.0 196.0 L 955.0 195.0 L 957.0 194.0 L 957.0 192.0 L 958.0 192.0 L 958.0 191.0 L 959.0 191.0 L 959.0 190.0 L 960.0 190.0 L 960.0 189.0 L 962.0 188.0 L 962.0 186.0 L 963.0 186.0 L 963.0 185.0 L 964.0 185.0 L 964.0 184.0 L 965.0 184.0 L 965.0 183.0 L 966.0 183.0 L 966.0 182.0 L 967.0 182.0 L 968.0 180.0 L 970.0 180.0 L 970.0 179.0 L 971.0 179.0 L 971.0 178.0 L 972.0 178.0 L 972.0 177.0 L 973.0 177.0 L 973.0 176.0 L 974.0 176.0 L 975.0 174.0 L 977.0 174.0 L 978.0 172.0 L 980.0 172.0 L 980.0 171.0 L 982.0 171.0 L 982.0 170.0 L 984.0 170.0 L 984.0 169.0 L 986.0 169.0 L 987.0 167.0 L 989.0 167.0 L 989.0 166.0 L 992.0 166.0 L 992.0 165.0 Z M 506.0 178.0 L 514.0 178.0 L 514.0 179.0 L 515.0 179.0 L 515.0 180.0 L 516.0 180.0 L 516.0 181.0 L 518.0 182.0 L 518.0 190.0 L 517.0 190.0 L 517.0 191.0 L 516.0 191.0 L 515.0 193.0 L 512.0 193.0 L 512.0 194.0 L 508.0 194.0 L 508.0 193.0 L 504.0 192.0 L 504.0 190.0 L 502.0 189.0 L 502.0 183.0 L 503.0 183.0 L 503.0 181.0 L 504.0 181.0 L 504.0 180.0 L 505.0 180.0 L 506.0 178.0 Z M 748.0 198.0 L 750.0 198.0 L 750.0 222.0 L 777.0 222.0 L 777.0 224.0 L 776.0 224.0 L 776.0 225.0 L 775.0 225.0 L 775.0 224.0 L 771.0 224.0 L 771.0 225.0 L 770.0 225.0 L 770.0 224.0 L 753.0 224.0 L 753.0 225.0 L 752.0 225.0 L 752.0 224.0 L 750.0 224.0 L 750.0 311.0 L 751.0 311.0 L 752.0 317.0 L 754.0 318.0 L 754.0 320.0 L 756.0 320.0 L 756.0 321.0 L 757.0 321.0 L 757.0 322.0 L 759.0 322.0 L 759.0 323.0 L 762.0 323.0 L 762.0 324.0 L 767.0 324.0 L 767.0 323.0 L 771.0 323.0 L 771.0 322.0 L 773.0 322.0 L 774.0 320.0 L 776.0 320.0 L 776.0 319.0 L 778.0 318.0 L 778.0 316.0 L 779.0 316.0 L 779.0 315.0 L 781.0 314.0 L 780.0 318.0 L 779.0 318.0 L 779.0 319.0 L 778.0 319.0 L 778.0 320.0 L 777.0 320.0 L 777.0 321.0 L 776.0 321.0 L 776.0 322.0 L 775.0 322.0 L 774.0 324.0 L 772.0 324.0 L 771.0 326.0 L 768.0 326.0 L 768.0 327.0 L 764.0 327.0 L 764.0 328.0 L 754.0 328.0 L 754.0 327.0 L 748.0 326.0 L 748.0 325.0 L 746.0 325.0 L 746.0 324.0 L 745.0 324.0 L 745.0 323.0 L 744.0 323.0 L 744.0 322.0 L 743.0 322.0 L 743.0 321.0 L 741.0 320.0 L 741.0 318.0 L 740.0 318.0 L 740.0 316.0 L 739.0 316.0 L 739.0 312.0 L 738.0 312.0 L 738.0 225.0 L 737.0 225.0 L 737.0 224.0 L 723.0 224.0 L 724.0 222.0 L 732.0 221.0 L 733.0 219.0 L 735.0 219.0 L 736.0 217.0 L 738.0 217.0 L 738.0 216.0 L 739.0 216.0 L 739.0 215.0 L 740.0 215.0 L 740.0 214.0 L 741.0 214.0 L 741.0 213.0 L 742.0 213.0 L 742.0 212.0 L 744.0 211.0 L 744.0 209.0 L 745.0 209.0 L 745.0 208.0 L 746.0 208.0 L 746.0 206.0 L 747.0 206.0 L 748.0 198.0 Z M 602.0 220.0 L 612.0 221.0 L 612.0 222.0 L 615.0 222.0 L 616.0 224.0 L 618.0 224.0 L 618.0 225.0 L 620.0 226.0 L 620.0 228.0 L 621.0 228.0 L 621.0 236.0 L 620.0 236.0 L 620.0 237.0 L 619.0 237.0 L 618.0 239.0 L 611.0 239.0 L 611.0 238.0 L 609.0 237.0 L 609.0 233.0 L 608.0 233.0 L 608.0 230.0 L 607.0 230.0 L 606.0 228.0 L 604.0 228.0 L 604.0 227.0 L 602.0 227.0 L 602.0 226.0 L 593.0 226.0 L 593.0 227.0 L 590.0 227.0 L 589.0 229.0 L 585.0 230.0 L 585.0 231.0 L 584.0 231.0 L 584.0 232.0 L 582.0 233.0 L 582.0 235.0 L 581.0 235.0 L 581.0 236.0 L 579.0 237.0 L 579.0 239.0 L 578.0 239.0 L 578.0 241.0 L 577.0 241.0 L 577.0 243.0 L 576.0 243.0 L 576.0 246.0 L 575.0 246.0 L 575.0 248.0 L 574.0 248.0 L 574.0 312.0 L 575.0 312.0 L 575.0 318.0 L 576.0 318.0 L 576.0 320.0 L 577.0 320.0 L 577.0 322.0 L 578.0 322.0 L 578.0 323.0 L 580.0 323.0 L 580.0 324.0 L 587.0 324.0 L 588.0 326.0 L 548.0 326.0 L 549.0 324.0 L 556.0 324.0 L 556.0 323.0 L 558.0 323.0 L 558.0 322.0 L 560.0 321.0 L 560.0 319.0 L 561.0 319.0 L 561.0 314.0 L 562.0 314.0 L 562.0 235.0 L 561.0 235.0 L 561.0 231.0 L 560.0 231.0 L 560.0 230.0 L 559.0 230.0 L 558.0 228.0 L 556.0 228.0 L 556.0 227.0 L 550.0 227.0 L 549.0 225.0 L 556.0 225.0 L 556.0 224.0 L 562.0 224.0 L 562.0 223.0 L 567.0 223.0 L 567.0 222.0 L 572.0 222.0 L 572.0 221.0 L 573.0 221.0 L 573.0 222.0 L 574.0 222.0 L 574.0 243.0 L 575.0 243.0 L 576.0 239.0 L 578.0 238.0 L 579.0 234.0 L 581.0 233.0 L 581.0 231.0 L 582.0 231.0 L 583.0 229.0 L 585.0 229.0 L 585.0 228.0 L 586.0 228.0 L 586.0 227.0 L 587.0 227.0 L 588.0 225.0 L 590.0 225.0 L 590.0 224.0 L 592.0 224.0 L 592.0 223.0 L 594.0 223.0 L 594.0 222.0 L 597.0 222.0 L 597.0 221.0 L 602.0 221.0 L 602.0 220.0 Z M 668.0 220.0 L 677.0 220.0 L 677.0 221.0 L 684.0 221.0 L 684.0 222.0 L 688.0 222.0 L 688.0 223.0 L 692.0 223.0 L 692.0 224.0 L 695.0 224.0 L 695.0 225.0 L 698.0 225.0 L 698.0 226.0 L 700.0 226.0 L 700.0 240.0 L 701.0 240.0 L 701.0 247.0 L 699.0 246.0 L 699.0 241.0 L 698.0 241.0 L 698.0 238.0 L 697.0 238.0 L 697.0 236.0 L 695.0 235.0 L 695.0 233.0 L 694.0 233.0 L 694.0 232.0 L 693.0 232.0 L 693.0 231.0 L 692.0 231.0 L 692.0 230.0 L 691.0 230.0 L 691.0 229.0 L 690.0 229.0 L 690.0 228.0 L 689.0 228.0 L 689.0 227.0 L 688.0 227.0 L 687.0 225.0 L 684.0 225.0 L 684.0 224.0 L 682.0 224.0 L 682.0 223.0 L 678.0 223.0 L 678.0 222.0 L 665.0 222.0 L 665.0 223.0 L 659.0 224.0 L 659.0 225.0 L 655.0 226.0 L 655.0 227.0 L 654.0 227.0 L 654.0 228.0 L 653.0 228.0 L 653.0 229.0 L 651.0 230.0 L 651.0 232.0 L 649.0 233.0 L 649.0 236.0 L 648.0 236.0 L 648.0 247.0 L 649.0 247.0 L 649.0 250.0 L 650.0 250.0 L 650.0 252.0 L 651.0 252.0 L 651.0 253.0 L 652.0 253.0 L 652.0 254.0 L 653.0 254.0 L 653.0 255.0 L 654.0 255.0 L 654.0 256.0 L 655.0 256.0 L 656.0 258.0 L 660.0 259.0 L 660.0 260.0 L 661.0 260.0 L 661.0 261.0 L 663.0 261.0 L 663.0 262.0 L 666.0 262.0 L 666.0 263.0 L 668.0 263.0 L 668.0 264.0 L 670.0 264.0 L 670.0 265.0 L 676.0 266.0 L 676.0 267.0 L 678.0 267.0 L 678.0 268.0 L 680.0 268.0 L 680.0 269.0 L 682.0 269.0 L 682.0 270.0 L 685.0 270.0 L 685.0 271.0 L 687.0 271.0 L 687.0 272.0 L 689.0 272.0 L 689.0 273.0 L 693.0 274.0 L 694.0 276.0 L 696.0 276.0 L 696.0 277.0 L 697.0 277.0 L 697.0 278.0 L 698.0 278.0 L 698.0 279.0 L 699.0 279.0 L 699.0 280.0 L 700.0 280.0 L 700.0 281.0 L 701.0 281.0 L 701.0 282.0 L 702.0 282.0 L 702.0 283.0 L 704.0 284.0 L 704.0 286.0 L 705.0 286.0 L 705.0 288.0 L 706.0 288.0 L 706.0 292.0 L 707.0 292.0 L 707.0 305.0 L 706.0 305.0 L 706.0 309.0 L 705.0 309.0 L 705.0 311.0 L 703.0 312.0 L 703.0 314.0 L 701.0 315.0 L 701.0 317.0 L 700.0 317.0 L 700.0 318.0 L 699.0 318.0 L 699.0 319.0 L 698.0 319.0 L 697.0 321.0 L 695.0 321.0 L 694.0 323.0 L 692.0 323.0 L 692.0 324.0 L 690.0 324.0 L 690.0 325.0 L 688.0 325.0 L 688.0 326.0 L 685.0 326.0 L 685.0 327.0 L 681.0 327.0 L 681.0 328.0 L 661.0 328.0 L 661.0 327.0 L 656.0 327.0 L 656.0 326.0 L 648.0 325.0 L 648.0 324.0 L 645.0 324.0 L 645.0 323.0 L 642.0 323.0 L 642.0 322.0 L 639.0 322.0 L 639.0 321.0 L 638.0 321.0 L 638.0 302.0 L 637.0 302.0 L 637.0 298.0 L 639.0 299.0 L 639.0 303.0 L 640.0 303.0 L 640.0 306.0 L 641.0 306.0 L 641.0 308.0 L 642.0 308.0 L 642.0 311.0 L 644.0 312.0 L 644.0 314.0 L 645.0 314.0 L 645.0 315.0 L 646.0 315.0 L 646.0 316.0 L 647.0 316.0 L 647.0 317.0 L 648.0 317.0 L 648.0 318.0 L 649.0 318.0 L 649.0 319.0 L 650.0 319.0 L 651.0 321.0 L 653.0 321.0 L 654.0 323.0 L 656.0 323.0 L 656.0 324.0 L 658.0 324.0 L 658.0 325.0 L 662.0 325.0 L 662.0 326.0 L 670.0 326.0 L 670.0 327.0 L 673.0 327.0 L 673.0 326.0 L 681.0 326.0 L 681.0 325.0 L 684.0 325.0 L 684.0 324.0 L 686.0 324.0 L 686.0 323.0 L 690.0 322.0 L 690.0 321.0 L 691.0 321.0 L 691.0 320.0 L 692.0 320.0 L 692.0 319.0 L 694.0 318.0 L 694.0 316.0 L 696.0 315.0 L 696.0 313.0 L 697.0 313.0 L 697.0 310.0 L 698.0 310.0 L 698.0 298.0 L 697.0 298.0 L 697.0 296.0 L 696.0 296.0 L 695.0 292.0 L 694.0 292.0 L 694.0 291.0 L 693.0 291.0 L 693.0 290.0 L 692.0 290.0 L 692.0 289.0 L 691.0 289.0 L 691.0 288.0 L 690.0 288.0 L 689.0 286.0 L 687.0 286.0 L 686.0 284.0 L 684.0 284.0 L 684.0 283.0 L 682.0 283.0 L 682.0 282.0 L 680.0 282.0 L 680.0 281.0 L 678.0 281.0 L 678.0 280.0 L 675.0 280.0 L 675.0 279.0 L 673.0 279.0 L 673.0 278.0 L 670.0 278.0 L 670.0 277.0 L 668.0 277.0 L 668.0 276.0 L 666.0 276.0 L 666.0 275.0 L 663.0 275.0 L 663.0 274.0 L 661.0 274.0 L 661.0 273.0 L 658.0 273.0 L 658.0 272.0 L 656.0 272.0 L 655.0 270.0 L 651.0 269.0 L 651.0 268.0 L 650.0 268.0 L 650.0 267.0 L 649.0 267.0 L 649.0 266.0 L 648.0 266.0 L 648.0 265.0 L 647.0 265.0 L 647.0 264.0 L 646.0 264.0 L 646.0 263.0 L 645.0 263.0 L 645.0 262.0 L 644.0 262.0 L 644.0 261.0 L 642.0 260.0 L 642.0 257.0 L 641.0 257.0 L 641.0 254.0 L 640.0 254.0 L 640.0 250.0 L 639.0 250.0 L 639.0 244.0 L 640.0 244.0 L 640.0 240.0 L 641.0 240.0 L 641.0 238.0 L 642.0 238.0 L 642.0 235.0 L 644.0 234.0 L 644.0 232.0 L 645.0 232.0 L 645.0 231.0 L 646.0 231.0 L 646.0 230.0 L 647.0 230.0 L 647.0 229.0 L 648.0 229.0 L 649.0 227.0 L 651.0 227.0 L 651.0 226.0 L 652.0 226.0 L 652.0 225.0 L 654.0 225.0 L 655.0 223.0 L 658.0 223.0 L 658.0 222.0 L 662.0 222.0 L 662.0 221.0 L 668.0 221.0 L 668.0 220.0 Z M 510.0 222.0 L 517.0 222.0 L 517.0 318.0 L 519.0 319.0 L 519.0 321.0 L 520.0 321.0 L 520.0 322.0 L 521.0 322.0 L 522.0 324.0 L 530.0 324.0 L 530.0 326.0 L 490.0 326.0 L 490.0 325.0 L 492.0 325.0 L 492.0 324.0 L 498.0 324.0 L 498.0 323.0 L 500.0 323.0 L 500.0 322.0 L 501.0 322.0 L 501.0 321.0 L 503.0 320.0 L 503.0 318.0 L 504.0 318.0 L 504.0 310.0 L 505.0 310.0 L 505.0 238.0 L 504.0 238.0 L 504.0 233.0 L 503.0 233.0 L 503.0 230.0 L 502.0 230.0 L 501.0 228.0 L 499.0 228.0 L 499.0 227.0 L 492.0 227.0 L 492.0 225.0 L 498.0 225.0 L 498.0 224.0 L 504.0 224.0 L 504.0 223.0 L 510.0 223.0 L 510.0 222.0 Z M 1275.0 230.0 L 1278.0 230.0 L 1278.0 231.0 L 1283.0 231.0 L 1283.0 232.0 L 1285.0 232.0 L 1286.0 234.0 L 1288.0 234.0 L 1288.0 236.0 L 1290.0 237.0 L 1290.0 239.0 L 1291.0 239.0 L 1291.0 241.0 L 1292.0 241.0 L 1292.0 254.0 L 1291.0 254.0 L 1290.0 260.0 L 1289.0 260.0 L 1289.0 261.0 L 1287.0 262.0 L 1287.0 264.0 L 1286.0 264.0 L 1285.0 266.0 L 1281.0 267.0 L 1281.0 268.0 L 1275.0 268.0 L 1275.0 265.0 L 1276.0 265.0 L 1276.0 264.0 L 1278.0 264.0 L 1278.0 263.0 L 1280.0 262.0 L 1280.0 260.0 L 1282.0 259.0 L 1282.0 257.0 L 1284.0 256.0 L 1284.0 254.0 L 1285.0 254.0 L 1285.0 251.0 L 1286.0 251.0 L 1286.0 246.0 L 1287.0 246.0 L 1287.0 242.0 L 1286.0 242.0 L 1286.0 238.0 L 1285.0 238.0 L 1285.0 236.0 L 1284.0 236.0 L 1284.0 235.0 L 1282.0 235.0 L 1281.0 233.0 L 1278.0 233.0 L 1278.0 232.0 L 1274.0 232.0 L 1274.0 233.0 L 1270.0 233.0 L 1270.0 234.0 L 1267.0 234.0 L 1267.0 235.0 L 1265.0 235.0 L 1264.0 237.0 L 1262.0 237.0 L 1262.0 238.0 L 1261.0 238.0 L 1261.0 239.0 L 1260.0 239.0 L 1259.0 241.0 L 1257.0 241.0 L 1257.0 243.0 L 1255.0 243.0 L 1255.0 245.0 L 1254.0 245.0 L 1254.0 246.0 L 1252.0 246.0 L 1252.0 248.0 L 1250.0 249.0 L 1250.0 251.0 L 1249.0 251.0 L 1249.0 252.0 L 1248.0 252.0 L 1248.0 253.0 L 1246.0 254.0 L 1246.0 256.0 L 1245.0 256.0 L 1245.0 257.0 L 1243.0 258.0 L 1242.0 262.0 L 1241.0 262.0 L 1241.0 263.0 L 1239.0 264.0 L 1238.0 268.0 L 1237.0 268.0 L 1237.0 269.0 L 1236.0 269.0 L 1236.0 271.0 L 1234.0 272.0 L 1233.0 276.0 L 1231.0 277.0 L 1230.0 281.0 L 1228.0 282.0 L 1227.0 286.0 L 1225.0 287.0 L 1225.0 289.0 L 1223.0 290.0 L 1223.0 292.0 L 1222.0 292.0 L 1221.0 296.0 L 1219.0 297.0 L 1218.0 301.0 L 1216.0 302.0 L 1216.0 304.0 L 1215.0 304.0 L 1215.0 306.0 L 1214.0 306.0 L 1213.0 310.0 L 1211.0 311.0 L 1211.0 313.0 L 1210.0 313.0 L 1209.0 317.0 L 1207.0 318.0 L 1207.0 320.0 L 1206.0 320.0 L 1206.0 322.0 L 1205.0 322.0 L 1204.0 326.0 L 1202.0 326.0 L 1202.0 329.0 L 1194.0 329.0 L 1194.0 330.0 L 1193.0 330.0 L 1193.0 329.0 L 1191.0 329.0 L 1191.0 330.0 L 1190.0 330.0 L 1190.0 329.0 L 1189.0 329.0 L 1189.0 327.0 L 1191.0 326.0 L 1192.0 322.0 L 1194.0 321.0 L 1194.0 319.0 L 1195.0 319.0 L 1196.0 315.0 L 1198.0 314.0 L 1198.0 312.0 L 1199.0 312.0 L 1200.0 308.0 L 1202.0 307.0 L 1202.0 305.0 L 1203.0 305.0 L 1204.0 301.0 L 1206.0 300.0 L 1206.0 298.0 L 1207.0 298.0 L 1208.0 294.0 L 1210.0 293.0 L 1210.0 291.0 L 1211.0 291.0 L 1212.0 287.0 L 1214.0 286.0 L 1214.0 284.0 L 1215.0 284.0 L 1216.0 280.0 L 1218.0 279.0 L 1218.0 277.0 L 1219.0 277.0 L 1220.0 273.0 L 1222.0 272.0 L 1222.0 270.0 L 1223.0 270.0 L 1224.0 266.0 L 1226.0 265.0 L 1226.0 263.0 L 1227.0 263.0 L 1227.0 261.0 L 1228.0 261.0 L 1229.0 257.0 L 1231.0 256.0 L 1231.0 254.0 L 1232.0 254.0 L 1232.0 252.0 L 1233.0 252.0 L 1233.0 250.0 L 1234.0 250.0 L 1234.0 248.0 L 1235.0 248.0 L 1235.0 246.0 L 1236.0 246.0 L 1236.0 244.0 L 1237.0 244.0 L 1237.0 241.0 L 1238.0 241.0 L 1238.0 235.0 L 1237.0 235.0 L 1237.0 234.0 L 1234.0 234.0 L 1234.0 235.0 L 1231.0 235.0 L 1230.0 237.0 L 1228.0 237.0 L 1228.0 238.0 L 1227.0 238.0 L 1227.0 239.0 L 1226.0 239.0 L 1226.0 240.0 L 1225.0 240.0 L 1225.0 241.0 L 1224.0 241.0 L 1224.0 242.0 L 1223.0 242.0 L 1223.0 243.0 L 1221.0 244.0 L 1221.0 246.0 L 1219.0 246.0 L 1219.0 248.0 L 1218.0 248.0 L 1218.0 249.0 L 1216.0 250.0 L 1216.0 252.0 L 1215.0 252.0 L 1215.0 253.0 L 1213.0 254.0 L 1213.0 256.0 L 1212.0 256.0 L 1212.0 257.0 L 1210.0 258.0 L 1210.0 260.0 L 1208.0 261.0 L 1208.0 263.0 L 1206.0 264.0 L 1206.0 266.0 L 1204.0 267.0 L 1204.0 269.0 L 1202.0 270.0 L 1202.0 272.0 L 1201.0 272.0 L 1201.0 273.0 L 1199.0 273.0 L 1199.0 272.0 L 1200.0 272.0 L 1200.0 270.0 L 1202.0 269.0 L 1202.0 267.0 L 1203.0 267.0 L 1203.0 265.0 L 1204.0 265.0 L 1204.0 264.0 L 1206.0 263.0 L 1206.0 261.0 L 1207.0 261.0 L 1207.0 260.0 L 1209.0 259.0 L 1210.0 255.0 L 1211.0 255.0 L 1211.0 254.0 L 1212.0 254.0 L 1212.0 253.0 L 1214.0 252.0 L 1214.0 250.0 L 1215.0 250.0 L 1215.0 249.0 L 1217.0 248.0 L 1217.0 246.0 L 1218.0 246.0 L 1218.0 245.0 L 1219.0 245.0 L 1219.0 244.0 L 1220.0 244.0 L 1220.0 243.0 L 1221.0 243.0 L 1221.0 242.0 L 1222.0 242.0 L 1222.0 241.0 L 1223.0 241.0 L 1223.0 240.0 L 1224.0 240.0 L 1224.0 239.0 L 1225.0 239.0 L 1225.0 238.0 L 1226.0 238.0 L 1226.0 237.0 L 1227.0 237.0 L 1228.0 235.0 L 1230.0 235.0 L 1231.0 233.0 L 1234.0 233.0 L 1234.0 232.0 L 1241.0 232.0 L 1241.0 233.0 L 1242.0 233.0 L 1242.0 234.0 L 1243.0 234.0 L 1243.0 235.0 L 1245.0 236.0 L 1245.0 240.0 L 1246.0 240.0 L 1246.0 244.0 L 1245.0 244.0 L 1245.0 249.0 L 1244.0 249.0 L 1244.0 251.0 L 1243.0 251.0 L 1243.0 254.0 L 1242.0 254.0 L 1242.0 256.0 L 1241.0 256.0 L 1241.0 258.0 L 1240.0 258.0 L 1240.0 260.0 L 1241.0 260.0 L 1241.0 259.0 L 1242.0 259.0 L 1242.0 257.0 L 1244.0 256.0 L 1244.0 254.0 L 1245.0 254.0 L 1245.0 253.0 L 1247.0 252.0 L 1247.0 250.0 L 1248.0 250.0 L 1248.0 249.0 L 1250.0 248.0 L 1250.0 246.0 L 1251.0 246.0 L 1251.0 245.0 L 1252.0 245.0 L 1252.0 244.0 L 1253.0 244.0 L 1253.0 243.0 L 1254.0 243.0 L 1254.0 242.0 L 1255.0 242.0 L 1255.0 241.0 L 1256.0 241.0 L 1256.0 240.0 L 1257.0 240.0 L 1257.0 239.0 L 1258.0 239.0 L 1258.0 238.0 L 1259.0 238.0 L 1260.0 236.0 L 1262.0 236.0 L 1263.0 234.0 L 1265.0 234.0 L 1265.0 233.0 L 1267.0 233.0 L 1267.0 232.0 L 1270.0 232.0 L 1270.0 231.0 L 1275.0 231.0 L 1275.0 230.0 Z M 1164.0 232.0 L 1178.0 232.0 L 1178.0 233.0 L 1181.0 233.0 L 1182.0 235.0 L 1186.0 236.0 L 1186.0 238.0 L 1188.0 238.0 L 1188.0 240.0 L 1190.0 241.0 L 1190.0 243.0 L 1191.0 243.0 L 1191.0 245.0 L 1192.0 245.0 L 1192.0 249.0 L 1193.0 249.0 L 1193.0 268.0 L 1192.0 268.0 L 1192.0 272.0 L 1191.0 272.0 L 1191.0 275.0 L 1190.0 275.0 L 1189.0 281.0 L 1188.0 281.0 L 1188.0 283.0 L 1187.0 283.0 L 1187.0 285.0 L 1186.0 285.0 L 1186.0 287.0 L 1185.0 287.0 L 1184.0 291.0 L 1182.0 292.0 L 1182.0 294.0 L 1181.0 294.0 L 1181.0 295.0 L 1180.0 295.0 L 1180.0 297.0 L 1178.0 298.0 L 1178.0 300.0 L 1177.0 300.0 L 1177.0 301.0 L 1176.0 301.0 L 1176.0 302.0 L 1174.0 303.0 L 1174.0 305.0 L 1173.0 305.0 L 1173.0 306.0 L 1172.0 306.0 L 1172.0 307.0 L 1171.0 307.0 L 1171.0 308.0 L 1170.0 308.0 L 1170.0 309.0 L 1169.0 309.0 L 1169.0 310.0 L 1168.0 310.0 L 1168.0 311.0 L 1167.0 311.0 L 1167.0 312.0 L 1166.0 312.0 L 1166.0 313.0 L 1165.0 313.0 L 1165.0 314.0 L 1164.0 314.0 L 1164.0 315.0 L 1163.0 315.0 L 1163.0 316.0 L 1162.0 316.0 L 1161.0 318.0 L 1159.0 318.0 L 1159.0 319.0 L 1158.0 319.0 L 1157.0 321.0 L 1155.0 321.0 L 1154.0 323.0 L 1152.0 323.0 L 1152.0 324.0 L 1150.0 324.0 L 1150.0 325.0 L 1148.0 325.0 L 1148.0 326.0 L 1146.0 326.0 L 1146.0 327.0 L 1144.0 327.0 L 1144.0 328.0 L 1138.0 329.0 L 1138.0 330.0 L 1132.0 330.0 L 1132.0 331.0 L 1128.0 331.0 L 1128.0 330.0 L 1122.0 330.0 L 1122.0 329.0 L 1118.0 328.0 L 1117.0 326.0 L 1115.0 326.0 L 1115.0 325.0 L 1114.0 325.0 L 1114.0 324.0 L 1112.0 323.0 L 1112.0 321.0 L 1111.0 321.0 L 1111.0 320.0 L 1110.0 320.0 L 1110.0 318.0 L 1109.0 318.0 L 1109.0 315.0 L 1108.0 315.0 L 1108.0 311.0 L 1107.0 311.0 L 1107.0 297.0 L 1108.0 297.0 L 1108.0 292.0 L 1109.0 292.0 L 1109.0 289.0 L 1110.0 289.0 L 1111.0 283.0 L 1112.0 283.0 L 1112.0 281.0 L 1113.0 281.0 L 1113.0 278.0 L 1114.0 278.0 L 1115.0 274.0 L 1117.0 273.0 L 1118.0 269.0 L 1120.0 268.0 L 1121.0 264.0 L 1122.0 264.0 L 1122.0 263.0 L 1124.0 262.0 L 1124.0 260.0 L 1125.0 260.0 L 1125.0 259.0 L 1127.0 258.0 L 1127.0 256.0 L 1128.0 256.0 L 1128.0 255.0 L 1129.0 255.0 L 1129.0 254.0 L 1130.0 254.0 L 1130.0 253.0 L 1131.0 253.0 L 1131.0 252.0 L 1132.0 252.0 L 1132.0 251.0 L 1133.0 251.0 L 1133.0 250.0 L 1134.0 250.0 L 1134.0 249.0 L 1135.0 249.0 L 1135.0 248.0 L 1136.0 248.0 L 1137.0 246.0 L 1139.0 246.0 L 1139.0 245.0 L 1140.0 245.0 L 1141.0 243.0 L 1143.0 243.0 L 1143.0 242.0 L 1144.0 242.0 L 1145.0 240.0 L 1147.0 240.0 L 1147.0 239.0 L 1151.0 238.0 L 1152.0 236.0 L 1155.0 236.0 L 1155.0 235.0 L 1157.0 235.0 L 1157.0 234.0 L 1160.0 234.0 L 1160.0 233.0 L 1164.0 233.0 L 1164.0 232.0 Z M 1169.0 233.0 L 1168.0 233.0 L 1168.0 234.0 L 1164.0 234.0 L 1164.0 235.0 L 1162.0 235.0 L 1162.0 236.0 L 1159.0 236.0 L 1158.0 238.0 L 1156.0 238.0 L 1156.0 239.0 L 1155.0 239.0 L 1154.0 241.0 L 1152.0 241.0 L 1152.0 242.0 L 1151.0 242.0 L 1151.0 243.0 L 1150.0 243.0 L 1150.0 244.0 L 1149.0 244.0 L 1149.0 245.0 L 1148.0 245.0 L 1148.0 246.0 L 1146.0 247.0 L 1146.0 249.0 L 1145.0 249.0 L 1145.0 250.0 L 1144.0 250.0 L 1144.0 251.0 L 1143.0 251.0 L 1143.0 252.0 L 1141.0 253.0 L 1141.0 255.0 L 1140.0 255.0 L 1140.0 256.0 L 1138.0 257.0 L 1138.0 259.0 L 1136.0 260.0 L 1135.0 264.0 L 1134.0 264.0 L 1134.0 265.0 L 1133.0 265.0 L 1133.0 267.0 L 1131.0 268.0 L 1131.0 270.0 L 1130.0 270.0 L 1130.0 272.0 L 1129.0 272.0 L 1129.0 274.0 L 1128.0 274.0 L 1128.0 276.0 L 1127.0 276.0 L 1127.0 278.0 L 1126.0 278.0 L 1126.0 280.0 L 1125.0 280.0 L 1125.0 282.0 L 1124.0 282.0 L 1124.0 284.0 L 1123.0 284.0 L 1123.0 286.0 L 1122.0 286.0 L 1122.0 289.0 L 1121.0 289.0 L 1121.0 293.0 L 1120.0 293.0 L 1120.0 296.0 L 1119.0 296.0 L 1119.0 300.0 L 1118.0 300.0 L 1118.0 305.0 L 1117.0 305.0 L 1117.0 319.0 L 1118.0 319.0 L 1118.0 323.0 L 1119.0 323.0 L 1119.0 325.0 L 1120.0 325.0 L 1120.0 326.0 L 1122.0 326.0 L 1122.0 328.0 L 1125.0 328.0 L 1125.0 329.0 L 1135.0 329.0 L 1135.0 328.0 L 1138.0 328.0 L 1138.0 327.0 L 1140.0 327.0 L 1140.0 326.0 L 1144.0 325.0 L 1144.0 324.0 L 1145.0 324.0 L 1145.0 323.0 L 1146.0 323.0 L 1147.0 321.0 L 1149.0 321.0 L 1149.0 320.0 L 1150.0 320.0 L 1150.0 319.0 L 1151.0 319.0 L 1151.0 318.0 L 1152.0 318.0 L 1152.0 317.0 L 1154.0 316.0 L 1154.0 314.0 L 1155.0 314.0 L 1155.0 313.0 L 1156.0 313.0 L 1156.0 312.0 L 1157.0 312.0 L 1157.0 311.0 L 1159.0 310.0 L 1159.0 308.0 L 1160.0 308.0 L 1160.0 307.0 L 1162.0 306.0 L 1162.0 304.0 L 1163.0 304.0 L 1163.0 303.0 L 1165.0 302.0 L 1165.0 300.0 L 1166.0 300.0 L 1167.0 296.0 L 1169.0 295.0 L 1169.0 293.0 L 1170.0 293.0 L 1170.0 291.0 L 1171.0 291.0 L 1171.0 289.0 L 1172.0 289.0 L 1172.0 287.0 L 1173.0 287.0 L 1173.0 285.0 L 1174.0 285.0 L 1174.0 283.0 L 1175.0 283.0 L 1175.0 281.0 L 1176.0 281.0 L 1176.0 279.0 L 1177.0 279.0 L 1177.0 277.0 L 1178.0 277.0 L 1178.0 274.0 L 1179.0 274.0 L 1179.0 271.0 L 1180.0 271.0 L 1180.0 268.0 L 1181.0 268.0 L 1181.0 265.0 L 1182.0 265.0 L 1182.0 262.0 L 1183.0 262.0 L 1183.0 257.0 L 1184.0 257.0 L 1184.0 242.0 L 1183.0 242.0 L 1183.0 239.0 L 1182.0 239.0 L 1182.0 237.0 L 1181.0 237.0 L 1180.0 235.0 L 1178.0 235.0 L 1178.0 234.0 L 1176.0 234.0 L 1176.0 233.0 L 1169.0 233.0 Z" />
</svg>
