<?xml version="1.0" encoding="UTF-8" standalone="no"?>
<svg xmlns="http://www.w3.org/2000/svg" viewBox="164 256 962 596" width="962" height="596">
  <path fill="#FFFFFF" fill-rule="evenodd" stroke="none" opacity="0.4" d="M 784.0 276.0 L 786.0 276.0 L 787.0 278.0 L 789.0 278.0 L 789.0 279.0 L 790.0 279.0 L 790.0 280.0 L 791.0 280.0 L 791.0 281.0 L 792.0 281.0 L 792.0 282.0 L 794.0 283.0 L 794.0 285.0 L 795.0 285.0 L 795.0 286.0 L 796.0 286.0 L 796.0 288.0 L 797.0 288.0 L 797.0 291.0 L 798.0 291.0 L 798.0 304.0 L 799.0 304.0 L 799.0 310.0 L 800.0 310.0 L 800.0 315.0 L 801.0 315.0 L 801.0 320.0 L 802.0 320.0 L 802.0 324.0 L 804.0 325.0 L 804.0 333.0 L 805.0 333.0 L 805.0 336.0 L 806.0 336.0 L 806.0 352.0 L 805.0 352.0 L 805.0 360.0 L 804.0 360.0 L 804.0 369.0 L 803.0 369.0 L 803.0 373.0 L 802.0 373.0 L 802.0 375.0 L 801.0 375.0 L 801.0 379.0 L 800.0 379.0 L 800.0 381.0 L 799.0 381.0 L 799.0 384.0 L 798.0 384.0 L 798.0 388.0 L 797.0 388.0 L 797.0 390.0 L 796.0 390.0 L 796.0 398.0 L 797.0 398.0 L 797.0 401.0 L 798.0 401.0 L 798.0 403.0 L 800.0 404.0 L 800.0 406.0 L 801.0 406.0 L 801.0 407.0 L 802.0 407.0 L 802.0 408.0 L 804.0 409.0 L 804.0 411.0 L 805.0 411.0 L 805.0 412.0 L 806.0 412.0 L 806.0 413.0 L 807.0 413.0 L 807.0 414.0 L 809.0 415.0 L 809.0 417.0 L 811.0 418.0 L 811.0 421.0 L 812.0 421.0 L 812.0 425.0 L 811.0 425.0 L 811.0 427.0 L 810.0 427.0 L 810.0 430.0 L 809.0 430.0 L 809.0 432.0 L 808.0 432.0 L 807.0 448.0 L 806.0 448.0 L 806.0 453.0 L 805.0 453.0 L 804.0 459.0 L 803.0 459.0 L 803.0 461.0 L 802.0 461.0 L 802.0 463.0 L 801.0 463.0 L 801.0 467.0 L 800.0 467.0 L 800.0 469.0 L 799.0 469.0 L 799.0 471.0 L 798.0 471.0 L 798.0 473.0 L 797.0 473.0 L 796.0 477.0 L 794.0 478.0 L 793.0 482.0 L 791.0 483.0 L 791.0 485.0 L 789.0 486.0 L 789.0 488.0 L 788.0 488.0 L 787.0 490.0 L 803.0 490.0 L 803.0 491.0 L 816.0 491.0 L 816.0 492.0 L 822.0 492.0 L 822.0 493.0 L 824.0 493.0 L 824.0 494.0 L 828.0 494.0 L 828.0 495.0 L 832.0 496.0 L 832.0 497.0 L 834.0 498.0 L 834.0 500.0 L 836.0 501.0 L 836.0 503.0 L 837.0 503.0 L 837.0 514.0 L 835.0 515.0 L 835.0 517.0 L 834.0 517.0 L 833.0 519.0 L 831.0 519.0 L 831.0 520.0 L 830.0 520.0 L 829.0 522.0 L 824.0 522.0 L 824.0 523.0 L 822.0 523.0 L 822.0 524.0 L 812.0 524.0 L 812.0 525.0 L 794.0 525.0 L 794.0 524.0 L 792.0 524.0 L 792.0 525.0 L 784.0 525.0 L 784.0 524.0 L 763.0 524.0 L 763.0 523.0 L 760.0 523.0 L 760.0 522.0 L 753.0 522.0 L 753.0 521.0 L 749.0 521.0 L 749.0 520.0 L 747.0 520.0 L 747.0 519.0 L 744.0 519.0 L 744.0 518.0 L 742.0 518.0 L 742.0 517.0 L 735.0 517.0 L 735.0 518.0 L 729.0 518.0 L 729.0 519.0 L 724.0 519.0 L 724.0 520.0 L 715.0 520.0 L 715.0 521.0 L 707.0 521.0 L 707.0 522.0 L 669.0 522.0 L 669.0 521.0 L 659.0 521.0 L 659.0 520.0 L 648.0 520.0 L 648.0 519.0 L 598.0 519.0 L 598.0 520.0 L 586.0 520.0 L 586.0 521.0 L 574.0 521.0 L 574.0 522.0 L 553.0 522.0 L 553.0 521.0 L 552.0 521.0 L 552.0 520.0 L 550.0 519.0 L 550.0 516.0 L 551.0 516.0 L 551.0 515.0 L 552.0 515.0 L 552.0 514.0 L 553.0 514.0 L 554.0 512.0 L 557.0 512.0 L 557.0 511.0 L 559.0 511.0 L 559.0 510.0 L 560.0 510.0 L 561.0 508.0 L 563.0 508.0 L 563.0 507.0 L 565.0 507.0 L 565.0 506.0 L 568.0 506.0 L 568.0 505.0 L 571.0 505.0 L 571.0 504.0 L 573.0 504.0 L 573.0 503.0 L 574.0 503.0 L 574.0 502.0 L 575.0 502.0 L 575.0 501.0 L 576.0 501.0 L 576.0 500.0 L 577.0 500.0 L 577.0 499.0 L 578.0 499.0 L 578.0 498.0 L 579.0 498.0 L 580.0 496.0 L 582.0 496.0 L 582.0 495.0 L 590.0 495.0 L 590.0 496.0 L 591.0 496.0 L 592.0 498.0 L 595.0 498.0 L 596.0 500.0 L 605.0 500.0 L 605.0 499.0 L 611.0 499.0 L 611.0 498.0 L 618.0 498.0 L 618.0 497.0 L 626.0 497.0 L 626.0 496.0 L 632.0 496.0 L 632.0 495.0 L 645.0 495.0 L 645.0 496.0 L 661.0 496.0 L 661.0 497.0 L 671.0 497.0 L 671.0 496.0 L 680.0 496.0 L 680.0 495.0 L 690.0 494.0 L 690.0 493.0 L 698.0 492.0 L 698.0 491.0 L 701.0 491.0 L 701.0 490.0 L 705.0 490.0 L 705.0 489.0 L 708.0 489.0 L 708.0 488.0 L 712.0 488.0 L 712.0 487.0 L 714.0 487.0 L 714.0 486.0 L 717.0 486.0 L 718.0 484.0 L 721.0 484.0 L 721.0 483.0 L 723.0 482.0 L 724.0 478.0 L 725.0 478.0 L 725.0 477.0 L 726.0 477.0 L 727.0 475.0 L 730.0 475.0 L 730.0 474.0 L 731.0 474.0 L 732.0 472.0 L 734.0 472.0 L 735.0 470.0 L 738.0 470.0 L 738.0 469.0 L 740.0 469.0 L 740.0 468.0 L 744.0 468.0 L 744.0 467.0 L 746.0 467.0 L 746.0 466.0 L 749.0 466.0 L 749.0 465.0 L 751.0 465.0 L 752.0 463.0 L 755.0 463.0 L 755.0 462.0 L 756.0 462.0 L 756.0 461.0 L 757.0 461.0 L 757.0 460.0 L 758.0 460.0 L 758.0 459.0 L 759.0 459.0 L 759.0 458.0 L 761.0 457.0 L 761.0 454.0 L 762.0 454.0 L 762.0 452.0 L 763.0 452.0 L 763.0 450.0 L 764.0 450.0 L 764.0 445.0 L 765.0 445.0 L 765.0 431.0 L 764.0 431.0 L 764.0 411.0 L 765.0 411.0 L 765.0 408.0 L 766.0 408.0 L 766.0 403.0 L 767.0 403.0 L 767.0 400.0 L 766.0 400.0 L 766.0 399.0 L 768.0 398.0 L 768.0 396.0 L 767.0 396.0 L 767.0 395.0 L 763.0 395.0 L 763.0 394.0 L 759.0 394.0 L 758.0 392.0 L 756.0 392.0 L 756.0 391.0 L 755.0 391.0 L 755.0 390.0 L 754.0 390.0 L 754.0 389.0 L 753.0 389.0 L 753.0 388.0 L 752.0 388.0 L 752.0 387.0 L 750.0 386.0 L 750.0 384.0 L 749.0 384.0 L 749.0 383.0 L 747.0 383.0 L 747.0 384.0 L 748.0 384.0 L 748.0 392.0 L 749.0 392.0 L 749.0 397.0 L 750.0 397.0 L 750.0 400.0 L 751.0 400.0 L 751.0 404.0 L 752.0 404.0 L 752.0 407.0 L 753.0 407.0 L 753.0 410.0 L 754.0 410.0 L 754.0 427.0 L 753.0 427.0 L 753.0 431.0 L 752.0 431.0 L 752.0 432.0 L 751.0 432.0 L 750.0 434.0 L 748.0 433.0 L 748.0 434.0 L 747.0 434.0 L 746.0 436.0 L 744.0 436.0 L 744.0 437.0 L 743.0 437.0 L 743.0 438.0 L 742.0 438.0 L 741.0 440.0 L 739.0 440.0 L 739.0 441.0 L 736.0 441.0 L 736.0 440.0 L 734.0 439.0 L 734.0 437.0 L 735.0 437.0 L 735.0 432.0 L 736.0 432.0 L 736.0 422.0 L 735.0 422.0 L 735.0 414.0 L 734.0 414.0 L 734.0 404.0 L 733.0 404.0 L 733.0 392.0 L 734.0 392.0 L 734.0 386.0 L 735.0 386.0 L 735.0 384.0 L 734.0 384.0 L 734.0 383.0 L 736.0 382.0 L 736.0 379.0 L 738.0 378.0 L 738.0 376.0 L 739.0 376.0 L 739.0 375.0 L 740.0 375.0 L 740.0 374.0 L 741.0 374.0 L 742.0 372.0 L 746.0 371.0 L 746.0 369.0 L 747.0 369.0 L 747.0 365.0 L 748.0 365.0 L 749.0 361.0 L 750.0 361.0 L 750.0 360.0 L 751.0 360.0 L 751.0 359.0 L 752.0 359.0 L 752.0 358.0 L 753.0 358.0 L 753.0 357.0 L 754.0 357.0 L 755.0 355.0 L 757.0 355.0 L 758.0 353.0 L 760.0 353.0 L 760.0 352.0 L 762.0 352.0 L 762.0 351.0 L 767.0 351.0 L 767.0 350.0 L 768.0 350.0 L 768.0 351.0 L 772.0 351.0 L 772.0 352.0 L 774.0 352.0 L 774.0 353.0 L 775.0 353.0 L 776.0 355.0 L 777.0 355.0 L 777.0 354.0 L 781.0 354.0 L 781.0 353.0 L 783.0 353.0 L 783.0 354.0 L 785.0 355.0 L 785.0 357.0 L 786.0 357.0 L 786.0 354.0 L 787.0 354.0 L 787.0 348.0 L 786.0 348.0 L 786.0 315.0 L 785.0 315.0 L 785.0 310.0 L 784.0 310.0 L 784.0 309.0 L 783.0 309.0 L 783.0 308.0 L 782.0 308.0 L 782.0 307.0 L 781.0 307.0 L 781.0 306.0 L 780.0 306.0 L 780.0 305.0 L 779.0 305.0 L 779.0 304.0 L 777.0 303.0 L 777.0 301.0 L 776.0 301.0 L 776.0 300.0 L 775.0 300.0 L 775.0 298.0 L 774.0 298.0 L 774.0 294.0 L 775.0 294.0 L 776.0 292.0 L 779.0 292.0 L 779.0 290.0 L 777.0 290.0 L 777.0 289.0 L 775.0 288.0 L 775.0 287.0 L 776.0 287.0 L 776.0 283.0 L 778.0 282.0 L 778.0 280.0 L 779.0 280.0 L 780.0 278.0 L 783.0 278.0 L 784.0 276.0 Z M 740.0 552.0 L 745.0 552.0 L 745.0 553.0 L 765.0 553.0 L 765.0 554.0 L 774.0 554.0 L 774.0 555.0 L 783.0 555.0 L 783.0 556.0 L 794.0 556.0 L 794.0 557.0 L 800.0 557.0 L 800.0 558.0 L 807.0 558.0 L 807.0 559.0 L 819.0 559.0 L 819.0 560.0 L 840.0 560.0 L 840.0 559.0 L 846.0 559.0 L 846.0 558.0 L 847.0 558.0 L 848.0 556.0 L 849.0 556.0 L 849.0 557.0 L 852.0 557.0 L 852.0 555.0 L 853.0 555.0 L 854.0 553.0 L 856.0 553.0 L 856.0 554.0 L 857.0 554.0 L 857.0 555.0 L 858.0 555.0 L 858.0 556.0 L 860.0 557.0 L 860.0 559.0 L 859.0 559.0 L 859.0 560.0 L 858.0 560.0 L 857.0 562.0 L 855.0 562.0 L 856.0 564.0 L 855.0 564.0 L 854.0 566.0 L 850.0 566.0 L 849.0 568.0 L 847.0 568.0 L 847.0 567.0 L 842.0 567.0 L 842.0 568.0 L 839.0 568.0 L 839.0 569.0 L 834.0 569.0 L 834.0 570.0 L 815.0 570.0 L 815.0 569.0 L 799.0 568.0 L 799.0 567.0 L 793.0 567.0 L 793.0 566.0 L 787.0 566.0 L 787.0 565.0 L 780.0 565.0 L 780.0 564.0 L 774.0 564.0 L 774.0 563.0 L 768.0 563.0 L 768.0 562.0 L 756.0 562.0 L 756.0 561.0 L 727.0 561.0 L 727.0 562.0 L 717.0 562.0 L 717.0 563.0 L 713.0 563.0 L 713.0 564.0 L 711.0 563.0 L 711.0 564.0 L 709.0 564.0 L 709.0 565.0 L 706.0 565.0 L 706.0 566.0 L 705.0 566.0 L 704.0 568.0 L 701.0 568.0 L 701.0 569.0 L 697.0 569.0 L 697.0 568.0 L 694.0 568.0 L 694.0 569.0 L 688.0 570.0 L 687.0 572.0 L 683.0 573.0 L 682.0 575.0 L 680.0 575.0 L 680.0 576.0 L 676.0 577.0 L 676.0 578.0 L 675.0 578.0 L 675.0 580.0 L 674.0 580.0 L 674.0 581.0 L 673.0 581.0 L 673.0 582.0 L 672.0 582.0 L 672.0 583.0 L 671.0 583.0 L 671.0 584.0 L 670.0 584.0 L 669.0 586.0 L 668.0 586.0 L 668.0 585.0 L 666.0 585.0 L 666.0 586.0 L 665.0 586.0 L 665.0 587.0 L 666.0 587.0 L 666.0 589.0 L 665.0 589.0 L 665.0 591.0 L 666.0 591.0 L 666.0 592.0 L 665.0 592.0 L 665.0 593.0 L 664.0 593.0 L 663.0 595.0 L 661.0 595.0 L 661.0 594.0 L 659.0 593.0 L 659.0 594.0 L 657.0 595.0 L 657.0 597.0 L 655.0 598.0 L 654.0 602.0 L 652.0 603.0 L 652.0 606.0 L 650.0 607.0 L 650.0 610.0 L 649.0 610.0 L 649.0 613.0 L 648.0 613.0 L 648.0 619.0 L 647.0 619.0 L 647.0 632.0 L 648.0 632.0 L 648.0 636.0 L 649.0 636.0 L 649.0 638.0 L 650.0 638.0 L 650.0 640.0 L 651.0 640.0 L 652.0 644.0 L 653.0 644.0 L 653.0 645.0 L 654.0 645.0 L 655.0 647.0 L 657.0 646.0 L 657.0 647.0 L 659.0 648.0 L 659.0 649.0 L 658.0 649.0 L 659.0 651.0 L 661.0 651.0 L 661.0 652.0 L 664.0 652.0 L 664.0 653.0 L 666.0 653.0 L 666.0 654.0 L 668.0 654.0 L 668.0 653.0 L 672.0 653.0 L 673.0 655.0 L 677.0 655.0 L 678.0 657.0 L 685.0 657.0 L 685.0 656.0 L 691.0 657.0 L 692.0 655.0 L 696.0 656.0 L 697.0 654.0 L 698.0 654.0 L 698.0 655.0 L 704.0 654.0 L 704.0 653.0 L 706.0 653.0 L 706.0 652.0 L 709.0 652.0 L 709.0 651.0 L 711.0 651.0 L 711.0 650.0 L 712.0 650.0 L 712.0 649.0 L 714.0 649.0 L 715.0 647.0 L 717.0 647.0 L 717.0 646.0 L 718.0 646.0 L 718.0 645.0 L 719.0 645.0 L 719.0 644.0 L 720.0 644.0 L 721.0 642.0 L 724.0 642.0 L 724.0 643.0 L 725.0 643.0 L 725.0 644.0 L 726.0 644.0 L 727.0 646.0 L 726.0 646.0 L 726.0 648.0 L 725.0 648.0 L 725.0 649.0 L 724.0 649.0 L 724.0 650.0 L 723.0 650.0 L 722.0 652.0 L 720.0 652.0 L 720.0 654.0 L 721.0 654.0 L 721.0 655.0 L 720.0 655.0 L 719.0 657.0 L 715.0 656.0 L 714.0 658.0 L 712.0 658.0 L 712.0 659.0 L 711.0 659.0 L 711.0 661.0 L 710.0 661.0 L 709.0 663.0 L 707.0 663.0 L 707.0 662.0 L 705.0 661.0 L 705.0 662.0 L 702.0 662.0 L 702.0 663.0 L 698.0 663.0 L 698.0 664.0 L 693.0 664.0 L 693.0 665.0 L 675.0 665.0 L 675.0 664.0 L 669.0 664.0 L 669.0 663.0 L 666.0 663.0 L 666.0 662.0 L 664.0 662.0 L 664.0 661.0 L 661.0 661.0 L 661.0 660.0 L 659.0 660.0 L 658.0 658.0 L 654.0 657.0 L 654.0 656.0 L 653.0 656.0 L 653.0 655.0 L 652.0 655.0 L 652.0 654.0 L 651.0 654.0 L 651.0 653.0 L 650.0 653.0 L 650.0 652.0 L 649.0 652.0 L 649.0 651.0 L 648.0 651.0 L 648.0 650.0 L 647.0 650.0 L 647.0 649.0 L 645.0 648.0 L 645.0 646.0 L 643.0 645.0 L 643.0 643.0 L 642.0 643.0 L 642.0 642.0 L 640.0 643.0 L 640.0 642.0 L 638.0 641.0 L 638.0 640.0 L 640.0 639.0 L 640.0 634.0 L 639.0 634.0 L 639.0 618.0 L 640.0 618.0 L 640.0 616.0 L 639.0 616.0 L 639.0 615.0 L 640.0 615.0 L 640.0 612.0 L 641.0 612.0 L 641.0 610.0 L 642.0 610.0 L 643.0 604.0 L 644.0 604.0 L 644.0 602.0 L 645.0 602.0 L 645.0 600.0 L 646.0 600.0 L 646.0 598.0 L 647.0 598.0 L 647.0 597.0 L 646.0 597.0 L 646.0 595.0 L 647.0 595.0 L 648.0 593.0 L 650.0 593.0 L 650.0 592.0 L 651.0 592.0 L 651.0 590.0 L 652.0 590.0 L 652.0 589.0 L 653.0 589.0 L 653.0 588.0 L 654.0 588.0 L 654.0 587.0 L 656.0 586.0 L 656.0 584.0 L 657.0 584.0 L 657.0 583.0 L 658.0 583.0 L 658.0 582.0 L 659.0 582.0 L 659.0 581.0 L 660.0 581.0 L 660.0 580.0 L 661.0 580.0 L 662.0 578.0 L 664.0 578.0 L 663.0 576.0 L 664.0 576.0 L 665.0 574.0 L 666.0 574.0 L 666.0 575.0 L 668.0 575.0 L 668.0 574.0 L 669.0 574.0 L 670.0 572.0 L 672.0 572.0 L 673.0 570.0 L 677.0 569.0 L 677.0 568.0 L 678.0 568.0 L 678.0 567.0 L 680.0 567.0 L 681.0 565.0 L 684.0 565.0 L 684.0 564.0 L 686.0 564.0 L 686.0 563.0 L 689.0 563.0 L 689.0 562.0 L 691.0 562.0 L 691.0 561.0 L 694.0 561.0 L 694.0 560.0 L 697.0 560.0 L 697.0 559.0 L 700.0 559.0 L 700.0 558.0 L 704.0 558.0 L 704.0 557.0 L 707.0 557.0 L 707.0 556.0 L 712.0 556.0 L 712.0 555.0 L 718.0 555.0 L 718.0 554.0 L 726.0 554.0 L 726.0 553.0 L 740.0 553.0 L 740.0 552.0 Z" />
  <path fill="#FFFFFF" fill-rule="evenodd" stroke="none" d="M 441.0 464.0 L 443.0 464.0 L 443.0 467.0 L 442.0 467.0 L 442.0 470.0 L 441.0 470.0 L 441.0 473.0 L 440.0 473.0 L 440.0 476.0 L 439.0 476.0 L 439.0 479.0 L 438.0 479.0 L 438.0 482.0 L 437.0 482.0 L 437.0 485.0 L 436.0 485.0 L 435.0 491.0 L 434.0 491.0 L 434.0 493.0 L 433.0 493.0 L 433.0 496.0 L 432.0 496.0 L 431.0 502.0 L 430.0 502.0 L 430.0 504.0 L 429.0 504.0 L 429.0 511.0 L 431.0 511.0 L 431.0 512.0 L 426.0 512.0 L 426.0 511.0 L 425.0 511.0 L 425.0 509.0 L 424.0 509.0 L 424.0 507.0 L 425.0 507.0 L 425.0 504.0 L 424.0 504.0 L 424.0 503.0 L 425.0 503.0 L 425.0 501.0 L 426.0 501.0 L 426.0 499.0 L 427.0 499.0 L 427.0 496.0 L 428.0 496.0 L 428.0 494.0 L 429.0 494.0 L 429.0 491.0 L 430.0 491.0 L 430.0 486.0 L 432.0 486.0 L 432.0 483.0 L 433.0 483.0 L 433.0 480.0 L 434.0 480.0 L 434.0 477.0 L 435.0 477.0 L 435.0 474.0 L 436.0 474.0 L 436.0 470.0 L 437.0 470.0 L 437.0 465.0 L 441.0 465.0 L 441.0 464.0 Z M 293.0 465.0 L 296.0 465.0 L 296.0 466.0 L 295.0 466.0 L 295.0 467.0 L 293.0 468.0 L 293.0 470.0 L 292.0 470.0 L 292.0 477.0 L 293.0 477.0 L 293.0 480.0 L 294.0 480.0 L 294.0 481.0 L 295.0 481.0 L 295.0 482.0 L 296.0 482.0 L 296.0 483.0 L 297.0 483.0 L 297.0 484.0 L 298.0 484.0 L 298.0 485.0 L 299.0 485.0 L 299.0 486.0 L 300.0 486.0 L 300.0 487.0 L 302.0 488.0 L 302.0 490.0 L 304.0 491.0 L 304.0 493.0 L 305.0 493.0 L 305.0 495.0 L 306.0 495.0 L 306.0 502.0 L 305.0 502.0 L 304.0 506.0 L 302.0 507.0 L 302.0 509.0 L 300.0 509.0 L 299.0 511.0 L 296.0 511.0 L 296.0 510.0 L 297.0 510.0 L 297.0 509.0 L 298.0 509.0 L 298.0 508.0 L 300.0 507.0 L 300.0 505.0 L 301.0 505.0 L 301.0 497.0 L 300.0 497.0 L 300.0 496.0 L 299.0 496.0 L 299.0 494.0 L 298.0 494.0 L 298.0 493.0 L 297.0 493.0 L 297.0 492.0 L 296.0 492.0 L 296.0 491.0 L 295.0 491.0 L 295.0 490.0 L 294.0 490.0 L 294.0 489.0 L 292.0 488.0 L 292.0 486.0 L 291.0 486.0 L 291.0 485.0 L 289.0 484.0 L 289.0 482.0 L 288.0 482.0 L 288.0 480.0 L 287.0 480.0 L 287.0 473.0 L 288.0 473.0 L 289.0 469.0 L 290.0 469.0 L 290.0 468.0 L 291.0 468.0 L 291.0 467.0 L 292.0 467.0 L 293.0 465.0 Z M 304.0 465.0 L 306.0 465.0 L 306.0 466.0 L 308.0 466.0 L 308.0 467.0 L 312.0 467.0 L 310.0 475.0 L 309.0 475.0 L 309.0 471.0 L 308.0 471.0 L 308.0 469.0 L 307.0 469.0 L 307.0 468.0 L 306.0 468.0 L 306.0 467.0 L 305.0 467.0 L 304.0 465.0 Z M 467.0 468.0 L 471.0 468.0 L 471.0 469.0 L 472.0 469.0 L 472.0 472.0 L 471.0 472.0 L 471.0 473.0 L 467.0 473.0 L 467.0 472.0 L 466.0 472.0 L 467.0 468.0 Z M 339.0 474.0 L 341.0 475.0 L 341.0 476.0 L 340.0 476.0 L 340.0 479.0 L 339.0 479.0 L 339.0 483.0 L 337.0 484.0 L 337.0 487.0 L 336.0 487.0 L 336.0 490.0 L 335.0 490.0 L 334.0 496.0 L 333.0 496.0 L 333.0 498.0 L 332.0 498.0 L 332.0 501.0 L 331.0 501.0 L 331.0 504.0 L 330.0 504.0 L 330.0 507.0 L 329.0 507.0 L 329.0 510.0 L 330.0 510.0 L 331.0 512.0 L 326.0 512.0 L 326.0 510.0 L 325.0 510.0 L 325.0 504.0 L 326.0 504.0 L 326.0 502.0 L 327.0 502.0 L 327.0 499.0 L 328.0 499.0 L 328.0 496.0 L 329.0 496.0 L 329.0 494.0 L 330.0 494.0 L 330.0 491.0 L 331.0 491.0 L 331.0 488.0 L 332.0 488.0 L 333.0 482.0 L 334.0 482.0 L 334.0 480.0 L 335.0 480.0 L 335.0 477.0 L 336.0 477.0 L 336.0 475.0 L 339.0 475.0 L 339.0 474.0 Z M 364.0 482.0 L 369.0 482.0 L 369.0 483.0 L 370.0 483.0 L 370.0 485.0 L 371.0 485.0 L 371.0 487.0 L 370.0 487.0 L 370.0 491.0 L 369.0 491.0 L 369.0 493.0 L 368.0 493.0 L 367.0 499.0 L 366.0 499.0 L 366.0 501.0 L 365.0 501.0 L 365.0 504.0 L 364.0 504.0 L 364.0 510.0 L 365.0 510.0 L 365.0 511.0 L 368.0 511.0 L 368.0 512.0 L 362.0 512.0 L 362.0 511.0 L 360.0 511.0 L 360.0 509.0 L 359.0 509.0 L 359.0 504.0 L 360.0 504.0 L 360.0 501.0 L 361.0 501.0 L 361.0 499.0 L 362.0 499.0 L 362.0 496.0 L 363.0 496.0 L 363.0 494.0 L 364.0 494.0 L 364.0 491.0 L 365.0 491.0 L 365.0 488.0 L 366.0 488.0 L 366.0 483.0 L 364.0 483.0 L 364.0 482.0 Z M 384.0 482.0 L 388.0 482.0 L 389.0 484.0 L 388.0 484.0 L 387.0 490.0 L 386.0 490.0 L 386.0 492.0 L 385.0 492.0 L 385.0 496.0 L 384.0 496.0 L 384.0 499.0 L 383.0 499.0 L 383.0 501.0 L 382.0 501.0 L 382.0 504.0 L 381.0 504.0 L 381.0 511.0 L 383.0 511.0 L 383.0 512.0 L 377.0 512.0 L 377.0 510.0 L 376.0 510.0 L 376.0 505.0 L 377.0 505.0 L 377.0 499.0 L 378.0 499.0 L 378.0 497.0 L 379.0 497.0 L 379.0 495.0 L 380.0 495.0 L 380.0 493.0 L 381.0 493.0 L 381.0 490.0 L 382.0 490.0 L 382.0 488.0 L 383.0 488.0 L 384.0 482.0 Z M 420.0 482.0 L 424.0 482.0 L 424.0 483.0 L 422.0 483.0 L 422.0 484.0 L 421.0 484.0 L 420.0 486.0 L 418.0 486.0 L 418.0 488.0 L 416.0 489.0 L 416.0 491.0 L 415.0 491.0 L 415.0 493.0 L 414.0 493.0 L 414.0 496.0 L 413.0 496.0 L 413.0 498.0 L 412.0 498.0 L 412.0 502.0 L 411.0 502.0 L 411.0 508.0 L 412.0 508.0 L 412.0 510.0 L 413.0 510.0 L 413.0 511.0 L 415.0 511.0 L 415.0 512.0 L 411.0 512.0 L 411.0 511.0 L 410.0 511.0 L 410.0 510.0 L 408.0 509.0 L 408.0 507.0 L 407.0 507.0 L 407.0 504.0 L 406.0 504.0 L 406.0 502.0 L 407.0 502.0 L 407.0 497.0 L 408.0 497.0 L 408.0 495.0 L 409.0 495.0 L 410.0 491.0 L 412.0 490.0 L 412.0 488.0 L 413.0 488.0 L 413.0 487.0 L 414.0 487.0 L 415.0 485.0 L 417.0 485.0 L 418.0 483.0 L 420.0 483.0 L 420.0 482.0 Z M 462.0 482.0 L 467.0 482.0 L 467.0 485.0 L 468.0 485.0 L 468.0 486.0 L 467.0 486.0 L 467.0 490.0 L 466.0 490.0 L 466.0 492.0 L 465.0 492.0 L 465.0 495.0 L 464.0 495.0 L 464.0 498.0 L 463.0 498.0 L 462.0 504.0 L 461.0 504.0 L 461.0 506.0 L 460.0 506.0 L 460.0 510.0 L 461.0 510.0 L 462.0 512.0 L 457.0 512.0 L 457.0 511.0 L 456.0 511.0 L 456.0 509.0 L 455.0 509.0 L 455.0 507.0 L 456.0 507.0 L 456.0 504.0 L 457.0 504.0 L 458.0 498.0 L 459.0 498.0 L 459.0 496.0 L 460.0 496.0 L 461.0 490.0 L 462.0 490.0 L 462.0 488.0 L 463.0 488.0 L 463.0 484.0 L 462.0 484.0 L 462.0 482.0 Z M 498.0 482.0 L 501.0 482.0 L 501.0 483.0 L 500.0 483.0 L 500.0 484.0 L 499.0 484.0 L 499.0 485.0 L 498.0 485.0 L 498.0 486.0 L 497.0 486.0 L 497.0 487.0 L 495.0 488.0 L 495.0 490.0 L 494.0 490.0 L 494.0 492.0 L 493.0 492.0 L 493.0 495.0 L 492.0 495.0 L 492.0 499.0 L 491.0 499.0 L 491.0 509.0 L 492.0 509.0 L 492.0 510.0 L 494.0 511.0 L 494.0 512.0 L 492.0 512.0 L 492.0 511.0 L 490.0 511.0 L 490.0 510.0 L 488.0 509.0 L 488.0 507.0 L 487.0 507.0 L 487.0 504.0 L 486.0 504.0 L 486.0 498.0 L 487.0 498.0 L 487.0 494.0 L 488.0 494.0 L 488.0 492.0 L 489.0 492.0 L 490.0 488.0 L 492.0 488.0 L 492.0 486.0 L 493.0 486.0 L 493.0 485.0 L 495.0 485.0 L 495.0 484.0 L 496.0 484.0 L 496.0 483.0 L 498.0 483.0 L 498.0 482.0 Z M 507.0 483.0 L 508.0 483.0 L 508.0 484.0 L 510.0 484.0 L 510.0 486.0 L 512.0 487.0 L 512.0 491.0 L 513.0 491.0 L 513.0 496.0 L 512.0 496.0 L 512.0 500.0 L 511.0 500.0 L 510.0 504.0 L 509.0 504.0 L 509.0 505.0 L 508.0 505.0 L 508.0 506.0 L 507.0 506.0 L 507.0 507.0 L 506.0 507.0 L 506.0 508.0 L 505.0 508.0 L 504.0 510.0 L 502.0 510.0 L 502.0 511.0 L 498.0 512.0 L 498.0 511.0 L 499.0 511.0 L 499.0 510.0 L 500.0 510.0 L 500.0 509.0 L 501.0 509.0 L 501.0 508.0 L 503.0 507.0 L 503.0 505.0 L 505.0 504.0 L 505.0 501.0 L 506.0 501.0 L 506.0 498.0 L 507.0 498.0 L 507.0 495.0 L 508.0 495.0 L 508.0 485.0 L 507.0 485.0 L 507.0 483.0 Z M 279.0 498.0 L 280.0 498.0 L 280.0 504.0 L 281.0 504.0 L 281.0 506.0 L 282.0 506.0 L 282.0 507.0 L 283.0 507.0 L 283.0 508.0 L 284.0 508.0 L 284.0 509.0 L 285.0 509.0 L 286.0 511.0 L 284.0 511.0 L 284.0 510.0 L 282.0 510.0 L 282.0 509.0 L 280.0 509.0 L 280.0 508.0 L 279.0 508.0 L 279.0 509.0 L 276.0 509.0 L 276.0 508.0 L 277.0 508.0 L 277.0 505.0 L 278.0 505.0 L 278.0 501.0 L 279.0 501.0 L 279.0 498.0 Z M 296.0 511.0 L 296.0 512.0 L 289.0 512.0 L 289.0 511.0 L 296.0 511.0 Z M 907.0 556.0 L 918.0 556.0 L 918.0 557.0 L 921.0 557.0 L 922.0 559.0 L 918.0 559.0 L 918.0 558.0 L 910.0 557.0 L 910.0 558.0 L 905.0 558.0 L 905.0 559.0 L 902.0 559.0 L 902.0 560.0 L 900.0 560.0 L 900.0 561.0 L 898.0 561.0 L 898.0 562.0 L 894.0 563.0 L 894.0 564.0 L 893.0 564.0 L 893.0 565.0 L 891.0 565.0 L 891.0 566.0 L 890.0 566.0 L 890.0 567.0 L 889.0 567.0 L 889.0 568.0 L 888.0 568.0 L 888.0 569.0 L 887.0 569.0 L 887.0 570.0 L 886.0 570.0 L 886.0 571.0 L 885.0 571.0 L 885.0 572.0 L 884.0 572.0 L 884.0 573.0 L 883.0 573.0 L 883.0 574.0 L 882.0 574.0 L 882.0 575.0 L 881.0 575.0 L 881.0 576.0 L 879.0 577.0 L 879.0 579.0 L 878.0 579.0 L 878.0 580.0 L 877.0 580.0 L 877.0 581.0 L 876.0 581.0 L 876.0 582.0 L 875.0 582.0 L 875.0 583.0 L 873.0 584.0 L 873.0 586.0 L 872.0 586.0 L 872.0 587.0 L 870.0 588.0 L 870.0 590.0 L 868.0 591.0 L 868.0 593.0 L 867.0 593.0 L 867.0 594.0 L 865.0 595.0 L 865.0 597.0 L 863.0 598.0 L 863.0 600.0 L 861.0 601.0 L 861.0 603.0 L 860.0 603.0 L 860.0 604.0 L 859.0 604.0 L 859.0 606.0 L 858.0 606.0 L 858.0 607.0 L 856.0 608.0 L 855.0 612.0 L 853.0 613.0 L 853.0 615.0 L 851.0 616.0 L 851.0 618.0 L 850.0 618.0 L 850.0 619.0 L 849.0 619.0 L 849.0 621.0 L 847.0 622.0 L 846.0 626.0 L 844.0 627.0 L 844.0 629.0 L 843.0 629.0 L 843.0 630.0 L 842.0 630.0 L 842.0 632.0 L 840.0 633.0 L 839.0 637.0 L 837.0 638.0 L 837.0 640.0 L 836.0 640.0 L 836.0 642.0 L 834.0 643.0 L 833.0 647.0 L 831.0 648.0 L 830.0 652.0 L 829.0 652.0 L 829.0 653.0 L 828.0 653.0 L 828.0 655.0 L 826.0 656.0 L 826.0 658.0 L 825.0 658.0 L 825.0 660.0 L 824.0 660.0 L 823.0 664.0 L 822.0 664.0 L 822.0 665.0 L 820.0 666.0 L 820.0 668.0 L 819.0 668.0 L 818.0 672.0 L 816.0 673.0 L 815.0 677.0 L 813.0 678.0 L 812.0 682.0 L 810.0 683.0 L 809.0 687.0 L 807.0 688.0 L 807.0 690.0 L 806.0 690.0 L 805.0 694.0 L 803.0 695.0 L 802.0 699.0 L 800.0 700.0 L 799.0 704.0 L 797.0 705.0 L 797.0 707.0 L 796.0 707.0 L 796.0 709.0 L 795.0 709.0 L 795.0 711.0 L 794.0 711.0 L 793.0 715.0 L 791.0 716.0 L 791.0 719.0 L 789.0 720.0 L 789.0 722.0 L 788.0 722.0 L 788.0 724.0 L 787.0 724.0 L 787.0 727.0 L 786.0 727.0 L 786.0 729.0 L 785.0 729.0 L 785.0 732.0 L 784.0 732.0 L 784.0 736.0 L 785.0 736.0 L 785.0 738.0 L 787.0 738.0 L 787.0 739.0 L 789.0 739.0 L 789.0 738.0 L 792.0 738.0 L 792.0 737.0 L 794.0 737.0 L 794.0 736.0 L 798.0 735.0 L 798.0 734.0 L 799.0 734.0 L 799.0 733.0 L 800.0 733.0 L 800.0 732.0 L 801.0 732.0 L 801.0 731.0 L 802.0 731.0 L 802.0 730.0 L 803.0 730.0 L 804.0 728.0 L 806.0 728.0 L 806.0 726.0 L 807.0 726.0 L 807.0 725.0 L 808.0 725.0 L 808.0 724.0 L 809.0 724.0 L 809.0 723.0 L 810.0 723.0 L 810.0 722.0 L 811.0 722.0 L 811.0 721.0 L 812.0 721.0 L 812.0 720.0 L 813.0 720.0 L 813.0 719.0 L 814.0 719.0 L 814.0 718.0 L 816.0 717.0 L 816.0 715.0 L 817.0 715.0 L 817.0 714.0 L 818.0 714.0 L 818.0 713.0 L 819.0 713.0 L 819.0 712.0 L 821.0 711.0 L 821.0 709.0 L 822.0 709.0 L 822.0 708.0 L 824.0 707.0 L 824.0 705.0 L 825.0 705.0 L 825.0 704.0 L 827.0 703.0 L 827.0 701.0 L 828.0 701.0 L 828.0 700.0 L 830.0 699.0 L 830.0 697.0 L 832.0 696.0 L 832.0 694.0 L 833.0 694.0 L 833.0 693.0 L 835.0 692.0 L 835.0 690.0 L 836.0 690.0 L 836.0 689.0 L 838.0 688.0 L 838.0 686.0 L 839.0 686.0 L 839.0 684.0 L 840.0 684.0 L 841.0 680.0 L 843.0 679.0 L 843.0 677.0 L 845.0 676.0 L 845.0 674.0 L 846.0 674.0 L 846.0 673.0 L 848.0 672.0 L 848.0 670.0 L 849.0 670.0 L 849.0 669.0 L 851.0 668.0 L 851.0 666.0 L 852.0 666.0 L 852.0 665.0 L 853.0 665.0 L 853.0 664.0 L 854.0 664.0 L 854.0 663.0 L 855.0 663.0 L 855.0 662.0 L 856.0 662.0 L 856.0 661.0 L 857.0 661.0 L 857.0 660.0 L 858.0 660.0 L 858.0 659.0 L 859.0 659.0 L 859.0 658.0 L 860.0 658.0 L 861.0 656.0 L 863.0 656.0 L 863.0 655.0 L 864.0 655.0 L 865.0 653.0 L 867.0 653.0 L 867.0 652.0 L 868.0 652.0 L 868.0 651.0 L 870.0 651.0 L 871.0 649.0 L 873.0 649.0 L 873.0 648.0 L 875.0 648.0 L 875.0 647.0 L 877.0 647.0 L 877.0 646.0 L 879.0 646.0 L 879.0 645.0 L 882.0 645.0 L 882.0 644.0 L 884.0 644.0 L 884.0 643.0 L 889.0 643.0 L 889.0 642.0 L 900.0 642.0 L 900.0 643.0 L 891.0 643.0 L 891.0 644.0 L 885.0 645.0 L 885.0 646.0 L 883.0 646.0 L 882.0 648.0 L 880.0 648.0 L 880.0 649.0 L 879.0 649.0 L 878.0 651.0 L 876.0 651.0 L 876.0 652.0 L 875.0 652.0 L 875.0 653.0 L 874.0 653.0 L 874.0 654.0 L 873.0 654.0 L 873.0 655.0 L 872.0 655.0 L 872.0 656.0 L 871.0 656.0 L 871.0 657.0 L 869.0 658.0 L 869.0 660.0 L 868.0 660.0 L 868.0 661.0 L 867.0 661.0 L 867.0 662.0 L 865.0 663.0 L 865.0 665.0 L 864.0 665.0 L 864.0 666.0 L 862.0 667.0 L 862.0 669.0 L 860.0 670.0 L 860.0 672.0 L 859.0 672.0 L 859.0 673.0 L 858.0 673.0 L 858.0 675.0 L 856.0 676.0 L 856.0 678.0 L 855.0 678.0 L 855.0 680.0 L 854.0 680.0 L 854.0 682.0 L 853.0 682.0 L 853.0 684.0 L 852.0 684.0 L 852.0 686.0 L 851.0 686.0 L 851.0 688.0 L 850.0 688.0 L 850.0 690.0 L 849.0 690.0 L 849.0 692.0 L 848.0 692.0 L 848.0 694.0 L 847.0 694.0 L 847.0 697.0 L 846.0 697.0 L 846.0 699.0 L 845.0 699.0 L 845.0 702.0 L 844.0 702.0 L 844.0 706.0 L 843.0 706.0 L 843.0 709.0 L 842.0 709.0 L 842.0 714.0 L 841.0 714.0 L 841.0 721.0 L 840.0 721.0 L 840.0 725.0 L 841.0 725.0 L 841.0 731.0 L 842.0 731.0 L 843.0 735.0 L 844.0 735.0 L 844.0 736.0 L 845.0 736.0 L 846.0 738.0 L 848.0 738.0 L 848.0 739.0 L 859.0 739.0 L 859.0 738.0 L 863.0 738.0 L 864.0 736.0 L 866.0 736.0 L 866.0 735.0 L 868.0 735.0 L 868.0 734.0 L 869.0 734.0 L 870.0 732.0 L 872.0 732.0 L 872.0 731.0 L 873.0 731.0 L 873.0 730.0 L 874.0 730.0 L 874.0 729.0 L 875.0 729.0 L 875.0 728.0 L 876.0 728.0 L 876.0 727.0 L 878.0 726.0 L 878.0 724.0 L 879.0 724.0 L 879.0 723.0 L 880.0 723.0 L 880.0 722.0 L 881.0 722.0 L 881.0 721.0 L 882.0 721.0 L 882.0 720.0 L 884.0 719.0 L 884.0 717.0 L 886.0 716.0 L 886.0 714.0 L 887.0 714.0 L 887.0 713.0 L 888.0 713.0 L 888.0 711.0 L 890.0 710.0 L 891.0 706.0 L 893.0 705.0 L 893.0 703.0 L 894.0 703.0 L 894.0 701.0 L 895.0 701.0 L 895.0 699.0 L 896.0 699.0 L 896.0 697.0 L 897.0 697.0 L 897.0 695.0 L 898.0 695.0 L 898.0 693.0 L 899.0 693.0 L 899.0 691.0 L 900.0 691.0 L 900.0 689.0 L 901.0 689.0 L 901.0 686.0 L 902.0 686.0 L 902.0 684.0 L 903.0 684.0 L 903.0 682.0 L 904.0 682.0 L 905.0 674.0 L 906.0 674.0 L 906.0 671.0 L 907.0 671.0 L 907.0 666.0 L 908.0 666.0 L 908.0 652.0 L 907.0 652.0 L 907.0 649.0 L 906.0 649.0 L 906.0 648.0 L 904.0 647.0 L 904.0 645.0 L 902.0 645.0 L 902.0 644.0 L 900.0 644.0 L 900.0 643.0 L 904.0 643.0 L 904.0 644.0 L 908.0 645.0 L 908.0 646.0 L 909.0 646.0 L 909.0 647.0 L 910.0 647.0 L 910.0 648.0 L 911.0 648.0 L 911.0 649.0 L 913.0 650.0 L 913.0 652.0 L 915.0 653.0 L 915.0 656.0 L 916.0 656.0 L 916.0 659.0 L 917.0 659.0 L 917.0 677.0 L 916.0 677.0 L 915.0 685.0 L 914.0 685.0 L 914.0 688.0 L 913.0 688.0 L 913.0 690.0 L 912.0 690.0 L 912.0 692.0 L 911.0 692.0 L 911.0 695.0 L 909.0 696.0 L 909.0 699.0 L 907.0 700.0 L 907.0 702.0 L 906.0 702.0 L 906.0 704.0 L 904.0 705.0 L 904.0 707.0 L 902.0 708.0 L 902.0 710.0 L 901.0 710.0 L 901.0 711.0 L 900.0 711.0 L 900.0 712.0 L 899.0 712.0 L 899.0 713.0 L 897.0 714.0 L 897.0 716.0 L 896.0 716.0 L 896.0 717.0 L 895.0 717.0 L 895.0 718.0 L 894.0 718.0 L 894.0 719.0 L 893.0 719.0 L 893.0 720.0 L 892.0 720.0 L 892.0 721.0 L 891.0 721.0 L 891.0 722.0 L 890.0 722.0 L 890.0 723.0 L 889.0 723.0 L 889.0 724.0 L 888.0 724.0 L 888.0 725.0 L 887.0 725.0 L 887.0 726.0 L 886.0 726.0 L 885.0 728.0 L 883.0 728.0 L 882.0 730.0 L 880.0 730.0 L 880.0 731.0 L 879.0 731.0 L 879.0 732.0 L 877.0 732.0 L 876.0 734.0 L 874.0 734.0 L 874.0 735.0 L 872.0 735.0 L 872.0 736.0 L 870.0 736.0 L 870.0 737.0 L 868.0 737.0 L 868.0 738.0 L 866.0 738.0 L 866.0 739.0 L 862.0 739.0 L 862.0 740.0 L 858.0 740.0 L 858.0 741.0 L 851.0 741.0 L 851.0 740.0 L 845.0 740.0 L 845.0 739.0 L 843.0 739.0 L 842.0 737.0 L 840.0 737.0 L 840.0 736.0 L 839.0 736.0 L 839.0 735.0 L 838.0 735.0 L 838.0 734.0 L 837.0 734.0 L 837.0 733.0 L 835.0 732.0 L 835.0 730.0 L 834.0 730.0 L 834.0 728.0 L 833.0 728.0 L 833.0 726.0 L 832.0 726.0 L 832.0 722.0 L 831.0 722.0 L 831.0 708.0 L 832.0 708.0 L 832.0 707.0 L 831.0 707.0 L 831.0 706.0 L 832.0 706.0 L 832.0 703.0 L 833.0 703.0 L 833.0 699.0 L 834.0 699.0 L 834.0 696.0 L 833.0 696.0 L 833.0 697.0 L 832.0 697.0 L 832.0 699.0 L 831.0 699.0 L 831.0 700.0 L 829.0 701.0 L 829.0 703.0 L 828.0 703.0 L 828.0 704.0 L 826.0 705.0 L 826.0 707.0 L 825.0 707.0 L 825.0 708.0 L 823.0 709.0 L 823.0 711.0 L 822.0 711.0 L 822.0 712.0 L 821.0 712.0 L 821.0 713.0 L 820.0 713.0 L 820.0 714.0 L 818.0 715.0 L 818.0 717.0 L 817.0 717.0 L 817.0 718.0 L 816.0 718.0 L 816.0 719.0 L 815.0 719.0 L 815.0 720.0 L 814.0 720.0 L 814.0 721.0 L 812.0 722.0 L 812.0 724.0 L 811.0 724.0 L 811.0 725.0 L 810.0 725.0 L 810.0 726.0 L 809.0 726.0 L 809.0 727.0 L 808.0 727.0 L 808.0 728.0 L 807.0 728.0 L 807.0 729.0 L 806.0 729.0 L 806.0 730.0 L 805.0 730.0 L 804.0 732.0 L 802.0 732.0 L 802.0 733.0 L 801.0 733.0 L 801.0 734.0 L 800.0 734.0 L 799.0 736.0 L 797.0 736.0 L 796.0 738.0 L 794.0 738.0 L 794.0 739.0 L 792.0 739.0 L 792.0 740.0 L 789.0 740.0 L 789.0 741.0 L 783.0 741.0 L 783.0 740.0 L 780.0 740.0 L 780.0 739.0 L 778.0 738.0 L 778.0 736.0 L 777.0 736.0 L 777.0 733.0 L 776.0 733.0 L 776.0 727.0 L 777.0 727.0 L 777.0 722.0 L 778.0 722.0 L 778.0 720.0 L 779.0 720.0 L 779.0 717.0 L 780.0 717.0 L 780.0 715.0 L 781.0 715.0 L 781.0 712.0 L 782.0 712.0 L 782.0 710.0 L 784.0 709.0 L 784.0 706.0 L 785.0 706.0 L 785.0 704.0 L 787.0 703.0 L 788.0 699.0 L 790.0 698.0 L 790.0 696.0 L 791.0 696.0 L 792.0 692.0 L 794.0 691.0 L 794.0 689.0 L 795.0 689.0 L 795.0 687.0 L 797.0 686.0 L 798.0 682.0 L 800.0 681.0 L 801.0 677.0 L 803.0 676.0 L 803.0 674.0 L 804.0 674.0 L 805.0 670.0 L 806.0 670.0 L 806.0 669.0 L 807.0 669.0 L 807.0 667.0 L 809.0 666.0 L 810.0 662.0 L 812.0 661.0 L 812.0 659.0 L 813.0 659.0 L 813.0 657.0 L 815.0 656.0 L 816.0 652.0 L 818.0 651.0 L 819.0 647.0 L 821.0 646.0 L 821.0 644.0 L 823.0 643.0 L 824.0 639.0 L 826.0 638.0 L 827.0 634.0 L 828.0 634.0 L 828.0 633.0 L 829.0 633.0 L 829.0 631.0 L 831.0 630.0 L 832.0 626.0 L 833.0 626.0 L 833.0 625.0 L 835.0 624.0 L 835.0 622.0 L 836.0 622.0 L 837.0 618.0 L 838.0 618.0 L 838.0 617.0 L 840.0 616.0 L 841.0 612.0 L 842.0 612.0 L 842.0 611.0 L 844.0 610.0 L 845.0 606.0 L 846.0 606.0 L 846.0 605.0 L 848.0 604.0 L 848.0 602.0 L 849.0 602.0 L 849.0 601.0 L 851.0 600.0 L 851.0 598.0 L 852.0 598.0 L 852.0 597.0 L 854.0 596.0 L 854.0 594.0 L 855.0 594.0 L 855.0 593.0 L 856.0 593.0 L 856.0 592.0 L 858.0 591.0 L 858.0 589.0 L 859.0 589.0 L 859.0 588.0 L 860.0 588.0 L 860.0 587.0 L 862.0 586.0 L 862.0 584.0 L 864.0 584.0 L 864.0 582.0 L 865.0 582.0 L 865.0 581.0 L 866.0 581.0 L 866.0 580.0 L 867.0 580.0 L 867.0 579.0 L 868.0 579.0 L 868.0 578.0 L 869.0 578.0 L 870.0 576.0 L 872.0 576.0 L 872.0 575.0 L 873.0 575.0 L 873.0 574.0 L 874.0 574.0 L 874.0 573.0 L 875.0 573.0 L 876.0 571.0 L 878.0 571.0 L 878.0 570.0 L 879.0 570.0 L 880.0 568.0 L 882.0 568.0 L 882.0 567.0 L 883.0 567.0 L 883.0 566.0 L 885.0 566.0 L 886.0 564.0 L 888.0 564.0 L 888.0 563.0 L 890.0 563.0 L 890.0 562.0 L 892.0 562.0 L 892.0 561.0 L 894.0 561.0 L 894.0 560.0 L 896.0 560.0 L 896.0 559.0 L 899.0 559.0 L 899.0 558.0 L 902.0 558.0 L 902.0 557.0 L 907.0 557.0 L 907.0 556.0 Z M 184.0 562.0 L 288.0 562.0 L 288.0 578.0 L 289.0 578.0 L 289.0 588.0 L 288.0 588.0 L 288.0 584.0 L 287.0 584.0 L 286.0 578.0 L 285.0 578.0 L 285.0 576.0 L 283.0 575.0 L 283.0 573.0 L 282.0 573.0 L 282.0 572.0 L 281.0 572.0 L 280.0 570.0 L 278.0 570.0 L 277.0 568.0 L 275.0 568.0 L 275.0 567.0 L 272.0 567.0 L 272.0 566.0 L 270.0 566.0 L 270.0 565.0 L 264.0 565.0 L 264.0 564.0 L 214.0 564.0 L 214.0 567.0 L 213.0 567.0 L 213.0 648.0 L 253.0 648.0 L 253.0 647.0 L 256.0 647.0 L 256.0 646.0 L 260.0 645.0 L 260.0 644.0 L 261.0 644.0 L 261.0 643.0 L 262.0 643.0 L 262.0 642.0 L 264.0 641.0 L 264.0 639.0 L 265.0 639.0 L 265.0 636.0 L 266.0 636.0 L 266.0 630.0 L 267.0 630.0 L 267.0 628.0 L 268.0 628.0 L 268.0 672.0 L 267.0 672.0 L 267.0 669.0 L 266.0 669.0 L 266.0 664.0 L 265.0 664.0 L 265.0 660.0 L 264.0 660.0 L 264.0 658.0 L 263.0 658.0 L 263.0 657.0 L 262.0 657.0 L 262.0 656.0 L 261.0 656.0 L 260.0 654.0 L 258.0 654.0 L 258.0 653.0 L 256.0 653.0 L 256.0 652.0 L 253.0 652.0 L 253.0 651.0 L 213.0 651.0 L 213.0 722.0 L 214.0 722.0 L 214.0 728.0 L 215.0 728.0 L 215.0 729.0 L 216.0 729.0 L 216.0 731.0 L 218.0 731.0 L 219.0 733.0 L 221.0 733.0 L 221.0 734.0 L 228.0 734.0 L 228.0 736.0 L 184.0 736.0 L 184.0 734.0 L 192.0 734.0 L 192.0 733.0 L 196.0 732.0 L 196.0 731.0 L 198.0 730.0 L 198.0 728.0 L 199.0 728.0 L 199.0 723.0 L 200.0 723.0 L 200.0 575.0 L 199.0 575.0 L 199.0 571.0 L 198.0 571.0 L 198.0 568.0 L 197.0 568.0 L 197.0 567.0 L 196.0 567.0 L 195.0 565.0 L 193.0 565.0 L 193.0 564.0 L 189.0 564.0 L 189.0 563.0 L 184.0 563.0 L 184.0 562.0 Z M 806.0 575.0 L 810.0 575.0 L 810.0 576.0 L 808.0 576.0 L 808.0 577.0 L 806.0 577.0 L 806.0 578.0 L 802.0 579.0 L 802.0 580.0 L 801.0 580.0 L 801.0 581.0 L 800.0 581.0 L 800.0 582.0 L 799.0 582.0 L 799.0 583.0 L 798.0 583.0 L 798.0 584.0 L 797.0 584.0 L 797.0 585.0 L 796.0 585.0 L 796.0 586.0 L 795.0 586.0 L 795.0 587.0 L 794.0 587.0 L 794.0 588.0 L 793.0 588.0 L 793.0 589.0 L 792.0 589.0 L 792.0 590.0 L 790.0 591.0 L 790.0 593.0 L 789.0 593.0 L 789.0 594.0 L 787.0 595.0 L 787.0 597.0 L 785.0 598.0 L 785.0 600.0 L 783.0 601.0 L 783.0 603.0 L 782.0 603.0 L 782.0 604.0 L 781.0 604.0 L 781.0 606.0 L 779.0 607.0 L 778.0 611.0 L 776.0 612.0 L 775.0 616.0 L 773.0 617.0 L 772.0 621.0 L 771.0 621.0 L 771.0 622.0 L 770.0 622.0 L 770.0 624.0 L 768.0 625.0 L 768.0 627.0 L 767.0 627.0 L 766.0 631.0 L 764.0 632.0 L 763.0 636.0 L 761.0 637.0 L 761.0 639.0 L 760.0 639.0 L 759.0 643.0 L 757.0 644.0 L 756.0 648.0 L 754.0 649.0 L 754.0 651.0 L 770.0 651.0 L 770.0 652.0 L 780.0 652.0 L 780.0 651.0 L 786.0 651.0 L 786.0 650.0 L 789.0 650.0 L 789.0 649.0 L 790.0 649.0 L 790.0 651.0 L 788.0 651.0 L 788.0 652.0 L 787.0 652.0 L 786.0 654.0 L 784.0 654.0 L 784.0 655.0 L 782.0 655.0 L 782.0 656.0 L 780.0 656.0 L 780.0 657.0 L 778.0 657.0 L 778.0 656.0 L 770.0 656.0 L 770.0 655.0 L 764.0 655.0 L 764.0 654.0 L 752.0 654.0 L 752.0 655.0 L 750.0 656.0 L 750.0 658.0 L 749.0 658.0 L 748.0 662.0 L 746.0 663.0 L 746.0 665.0 L 745.0 665.0 L 744.0 669.0 L 742.0 670.0 L 742.0 672.0 L 740.0 673.0 L 739.0 677.0 L 737.0 678.0 L 736.0 682.0 L 735.0 682.0 L 735.0 683.0 L 734.0 683.0 L 734.0 685.0 L 733.0 685.0 L 733.0 686.0 L 731.0 687.0 L 731.0 689.0 L 729.0 690.0 L 729.0 692.0 L 728.0 692.0 L 728.0 693.0 L 726.0 694.0 L 726.0 696.0 L 724.0 697.0 L 724.0 699.0 L 723.0 699.0 L 723.0 700.0 L 722.0 700.0 L 722.0 701.0 L 720.0 702.0 L 720.0 704.0 L 719.0 704.0 L 719.0 705.0 L 718.0 705.0 L 718.0 706.0 L 717.0 706.0 L 717.0 707.0 L 715.0 708.0 L 715.0 710.0 L 714.0 710.0 L 714.0 711.0 L 713.0 711.0 L 713.0 712.0 L 712.0 712.0 L 712.0 713.0 L 711.0 713.0 L 711.0 714.0 L 710.0 714.0 L 710.0 715.0 L 709.0 715.0 L 709.0 716.0 L 708.0 716.0 L 708.0 717.0 L 707.0 717.0 L 707.0 718.0 L 706.0 718.0 L 706.0 719.0 L 705.0 719.0 L 705.0 720.0 L 704.0 720.0 L 704.0 721.0 L 703.0 721.0 L 703.0 722.0 L 702.0 722.0 L 701.0 724.0 L 699.0 724.0 L 699.0 725.0 L 698.0 725.0 L 698.0 726.0 L 697.0 726.0 L 696.0 728.0 L 694.0 728.0 L 694.0 729.0 L 693.0 729.0 L 692.0 731.0 L 690.0 731.0 L 689.0 733.0 L 687.0 733.0 L 686.0 735.0 L 684.0 735.0 L 684.0 736.0 L 682.0 736.0 L 682.0 737.0 L 680.0 737.0 L 680.0 738.0 L 678.0 738.0 L 678.0 739.0 L 675.0 739.0 L 675.0 740.0 L 673.0 740.0 L 673.0 741.0 L 670.0 741.0 L 670.0 742.0 L 667.0 742.0 L 667.0 743.0 L 664.0 743.0 L 664.0 744.0 L 659.0 744.0 L 659.0 745.0 L 650.0 745.0 L 650.0 746.0 L 640.0 746.0 L 640.0 745.0 L 634.0 745.0 L 634.0 744.0 L 629.0 744.0 L 629.0 743.0 L 626.0 743.0 L 626.0 742.0 L 624.0 742.0 L 624.0 741.0 L 620.0 740.0 L 619.0 738.0 L 617.0 738.0 L 617.0 737.0 L 616.0 737.0 L 616.0 736.0 L 615.0 736.0 L 615.0 735.0 L 614.0 735.0 L 614.0 734.0 L 613.0 734.0 L 613.0 733.0 L 611.0 732.0 L 611.0 730.0 L 609.0 729.0 L 609.0 727.0 L 608.0 727.0 L 608.0 725.0 L 607.0 725.0 L 607.0 721.0 L 606.0 721.0 L 606.0 708.0 L 607.0 708.0 L 607.0 705.0 L 608.0 705.0 L 609.0 703.0 L 611.0 703.0 L 611.0 707.0 L 610.0 707.0 L 610.0 711.0 L 609.0 711.0 L 609.0 722.0 L 610.0 722.0 L 611.0 728.0 L 613.0 729.0 L 613.0 731.0 L 614.0 731.0 L 614.0 732.0 L 615.0 732.0 L 615.0 733.0 L 616.0 733.0 L 616.0 734.0 L 617.0 734.0 L 617.0 735.0 L 618.0 735.0 L 619.0 737.0 L 621.0 737.0 L 622.0 739.0 L 624.0 739.0 L 624.0 740.0 L 626.0 740.0 L 626.0 741.0 L 629.0 741.0 L 629.0 742.0 L 632.0 742.0 L 632.0 743.0 L 636.0 743.0 L 636.0 744.0 L 654.0 744.0 L 654.0 743.0 L 659.0 743.0 L 659.0 742.0 L 662.0 742.0 L 662.0 741.0 L 668.0 740.0 L 668.0 739.0 L 670.0 739.0 L 670.0 738.0 L 672.0 738.0 L 672.0 737.0 L 676.0 736.0 L 676.0 735.0 L 677.0 735.0 L 678.0 733.0 L 680.0 733.0 L 680.0 732.0 L 681.0 732.0 L 682.0 730.0 L 684.0 730.0 L 684.0 729.0 L 685.0 729.0 L 685.0 728.0 L 686.0 728.0 L 686.0 727.0 L 687.0 727.0 L 688.0 725.0 L 690.0 725.0 L 690.0 723.0 L 691.0 723.0 L 691.0 722.0 L 692.0 722.0 L 693.0 720.0 L 695.0 720.0 L 695.0 719.0 L 696.0 719.0 L 696.0 717.0 L 697.0 717.0 L 697.0 716.0 L 698.0 716.0 L 698.0 715.0 L 699.0 715.0 L 699.0 714.0 L 701.0 713.0 L 701.0 711.0 L 702.0 711.0 L 702.0 710.0 L 704.0 709.0 L 704.0 707.0 L 705.0 707.0 L 705.0 706.0 L 706.0 706.0 L 706.0 705.0 L 708.0 704.0 L 708.0 702.0 L 710.0 701.0 L 710.0 699.0 L 711.0 699.0 L 711.0 698.0 L 712.0 698.0 L 712.0 697.0 L 714.0 696.0 L 715.0 692.0 L 717.0 691.0 L 717.0 689.0 L 718.0 689.0 L 718.0 688.0 L 719.0 688.0 L 719.0 686.0 L 721.0 685.0 L 722.0 681.0 L 724.0 680.0 L 724.0 678.0 L 725.0 678.0 L 725.0 677.0 L 726.0 677.0 L 726.0 675.0 L 728.0 674.0 L 728.0 672.0 L 729.0 672.0 L 729.0 670.0 L 731.0 669.0 L 732.0 665.0 L 734.0 664.0 L 734.0 662.0 L 735.0 662.0 L 735.0 660.0 L 736.0 660.0 L 737.0 656.0 L 739.0 655.0 L 739.0 654.0 L 730.0 654.0 L 730.0 655.0 L 726.0 655.0 L 726.0 654.0 L 728.0 654.0 L 728.0 653.0 L 730.0 653.0 L 730.0 652.0 L 738.0 652.0 L 738.0 651.0 L 741.0 651.0 L 741.0 649.0 L 742.0 649.0 L 742.0 648.0 L 743.0 648.0 L 743.0 646.0 L 745.0 645.0 L 746.0 641.0 L 748.0 640.0 L 749.0 636.0 L 751.0 635.0 L 752.0 631.0 L 754.0 630.0 L 754.0 628.0 L 755.0 628.0 L 756.0 624.0 L 757.0 624.0 L 757.0 623.0 L 758.0 623.0 L 758.0 621.0 L 760.0 620.0 L 761.0 616.0 L 762.0 616.0 L 762.0 615.0 L 764.0 614.0 L 765.0 610.0 L 766.0 610.0 L 766.0 609.0 L 768.0 608.0 L 768.0 606.0 L 769.0 606.0 L 769.0 605.0 L 771.0 604.0 L 771.0 602.0 L 772.0 602.0 L 772.0 601.0 L 773.0 601.0 L 773.0 600.0 L 774.0 600.0 L 774.0 599.0 L 776.0 598.0 L 776.0 596.0 L 777.0 596.0 L 777.0 595.0 L 778.0 595.0 L 778.0 594.0 L 779.0 594.0 L 779.0 593.0 L 780.0 593.0 L 780.0 592.0 L 781.0 592.0 L 782.0 590.0 L 784.0 590.0 L 784.0 589.0 L 785.0 589.0 L 785.0 588.0 L 786.0 588.0 L 786.0 587.0 L 787.0 587.0 L 787.0 586.0 L 788.0 586.0 L 789.0 584.0 L 791.0 584.0 L 792.0 582.0 L 794.0 582.0 L 794.0 581.0 L 796.0 581.0 L 796.0 580.0 L 798.0 580.0 L 798.0 579.0 L 800.0 579.0 L 801.0 577.0 L 803.0 577.0 L 803.0 576.0 L 806.0 576.0 L 806.0 575.0 Z M 320.0 588.0 L 328.0 588.0 L 328.0 589.0 L 329.0 589.0 L 329.0 590.0 L 330.0 590.0 L 330.0 591.0 L 332.0 592.0 L 332.0 600.0 L 331.0 600.0 L 331.0 601.0 L 330.0 601.0 L 329.0 603.0 L 326.0 603.0 L 326.0 604.0 L 322.0 604.0 L 322.0 603.0 L 318.0 602.0 L 318.0 600.0 L 316.0 599.0 L 316.0 593.0 L 317.0 593.0 L 317.0 591.0 L 318.0 591.0 L 318.0 590.0 L 319.0 590.0 L 320.0 588.0 Z M 562.0 608.0 L 564.0 608.0 L 564.0 632.0 L 591.0 632.0 L 591.0 634.0 L 590.0 634.0 L 590.0 635.0 L 589.0 635.0 L 589.0 634.0 L 585.0 634.0 L 585.0 635.0 L 584.0 635.0 L 584.0 634.0 L 567.0 634.0 L 567.0 635.0 L 566.0 635.0 L 566.0 634.0 L 564.0 634.0 L 564.0 721.0 L 565.0 721.0 L 566.0 727.0 L 568.0 728.0 L 568.0 730.0 L 570.0 730.0 L 570.0 731.0 L 571.0 731.0 L 571.0 732.0 L 573.0 732.0 L 573.0 733.0 L 576.0 733.0 L 576.0 734.0 L 581.0 734.0 L 581.0 733.0 L 585.0 733.0 L 585.0 732.0 L 587.0 732.0 L 588.0 730.0 L 590.0 730.0 L 590.0 729.0 L 592.0 728.0 L 592.0 726.0 L 593.0 726.0 L 593.0 725.0 L 595.0 724.0 L 594.0 728.0 L 593.0 728.0 L 593.0 729.0 L 592.0 729.0 L 592.0 730.0 L 591.0 730.0 L 591.0 731.0 L 590.0 731.0 L 590.0 732.0 L 589.0 732.0 L 588.0 734.0 L 586.0 734.0 L 585.0 736.0 L 582.0 736.0 L 582.0 737.0 L 578.0 737.0 L 578.0 738.0 L 568.0 738.0 L 568.0 737.0 L 562.0 736.0 L 562.0 735.0 L 560.0 735.0 L 560.0 734.0 L 559.0 734.0 L 559.0 733.0 L 558.0 733.0 L 558.0 732.0 L 557.0 732.0 L 557.0 731.0 L 555.0 730.0 L 555.0 728.0 L 554.0 728.0 L 554.0 726.0 L 553.0 726.0 L 553.0 722.0 L 552.0 722.0 L 552.0 635.0 L 551.0 635.0 L 551.0 634.0 L 537.0 634.0 L 538.0 632.0 L 546.0 631.0 L 547.0 629.0 L 549.0 629.0 L 550.0 627.0 L 552.0 627.0 L 552.0 626.0 L 553.0 626.0 L 553.0 625.0 L 554.0 625.0 L 554.0 624.0 L 555.0 624.0 L 555.0 623.0 L 556.0 623.0 L 556.0 622.0 L 558.0 621.0 L 558.0 619.0 L 559.0 619.0 L 559.0 618.0 L 560.0 618.0 L 560.0 616.0 L 561.0 616.0 L 562.0 608.0 Z M 416.0 630.0 L 426.0 631.0 L 426.0 632.0 L 429.0 632.0 L 430.0 634.0 L 432.0 634.0 L 432.0 635.0 L 434.0 636.0 L 434.0 638.0 L 435.0 638.0 L 435.0 646.0 L 434.0 646.0 L 434.0 647.0 L 433.0 647.0 L 432.0 649.0 L 425.0 649.0 L 425.0 648.0 L 423.0 647.0 L 423.0 643.0 L 422.0 643.0 L 422.0 640.0 L 421.0 640.0 L 420.0 638.0 L 418.0 638.0 L 418.0 637.0 L 416.0 637.0 L 416.0 636.0 L 407.0 636.0 L 407.0 637.0 L 404.0 637.0 L 403.0 639.0 L 399.0 640.0 L 399.0 641.0 L 398.0 641.0 L 398.0 642.0 L 396.0 643.0 L 396.0 645.0 L 395.0 645.0 L 395.0 646.0 L 393.0 647.0 L 393.0 649.0 L 392.0 649.0 L 392.0 651.0 L 391.0 651.0 L 391.0 653.0 L 390.0 653.0 L 390.0 656.0 L 389.0 656.0 L 389.0 658.0 L 388.0 658.0 L 388.0 722.0 L 389.0 722.0 L 389.0 728.0 L 390.0 728.0 L 390.0 730.0 L 391.0 730.0 L 391.0 732.0 L 392.0 732.0 L 392.0 733.0 L 394.0 733.0 L 394.0 734.0 L 401.0 734.0 L 402.0 736.0 L 362.0 736.0 L 363.0 734.0 L 370.0 734.0 L 370.0 733.0 L 372.0 733.0 L 372.0 732.0 L 374.0 731.0 L 374.0 729.0 L 375.0 729.0 L 375.0 724.0 L 376.0 724.0 L 376.0 645.0 L 375.0 645.0 L 375.0 641.0 L 374.0 641.0 L 374.0 640.0 L 373.0 640.0 L 372.0 638.0 L 370.0 638.0 L 370.0 637.0 L 364.0 637.0 L 363.0 635.0 L 370.0 635.0 L 370.0 634.0 L 376.0 634.0 L 376.0 633.0 L 381.0 633.0 L 381.0 632.0 L 386.0 632.0 L 386.0 631.0 L 387.0 631.0 L 387.0 632.0 L 388.0 632.0 L 388.0 653.0 L 389.0 653.0 L 390.0 649.0 L 392.0 648.0 L 393.0 644.0 L 395.0 643.0 L 395.0 641.0 L 396.0 641.0 L 397.0 639.0 L 399.0 639.0 L 399.0 638.0 L 400.0 638.0 L 400.0 637.0 L 401.0 637.0 L 402.0 635.0 L 404.0 635.0 L 404.0 634.0 L 406.0 634.0 L 406.0 633.0 L 408.0 633.0 L 408.0 632.0 L 411.0 632.0 L 411.0 631.0 L 416.0 631.0 L 416.0 630.0 Z M 482.0 630.0 L 491.0 630.0 L 491.0 631.0 L 498.0 631.0 L 498.0 632.0 L 502.0 632.0 L 502.0 633.0 L 506.0 633.0 L 506.0 634.0 L 509.0 634.0 L 509.0 635.0 L 512.0 635.0 L 512.0 636.0 L 514.0 636.0 L 514.0 650.0 L 515.0 650.0 L 515.0 657.0 L 513.0 656.0 L 513.0 651.0 L 512.0 651.0 L 512.0 648.0 L 511.0 648.0 L 511.0 646.0 L 509.0 645.0 L 509.0 643.0 L 508.0 643.0 L 508.0 642.0 L 507.0 642.0 L 507.0 641.0 L 506.0 641.0 L 506.0 640.0 L 505.0 640.0 L 505.0 639.0 L 504.0 639.0 L 504.0 638.0 L 503.0 638.0 L 503.0 637.0 L 502.0 637.0 L 501.0 635.0 L 498.0 635.0 L 498.0 634.0 L 496.0 634.0 L 496.0 633.0 L 492.0 633.0 L 492.0 632.0 L 479.0 632.0 L 479.0 633.0 L 473.0 634.0 L 473.0 635.0 L 469.0 636.0 L 469.0 637.0 L 468.0 637.0 L 468.0 638.0 L 467.0 638.0 L 467.0 639.0 L 465.0 640.0 L 465.0 642.0 L 463.0 643.0 L 463.0 646.0 L 462.0 646.0 L 462.0 657.0 L 463.0 657.0 L 463.0 660.0 L 464.0 660.0 L 464.0 662.0 L 465.0 662.0 L 465.0 663.0 L 466.0 663.0 L 466.0 664.0 L 467.0 664.0 L 467.0 665.0 L 468.0 665.0 L 468.0 666.0 L 469.0 666.0 L 470.0 668.0 L 474.0 669.0 L 474.0 670.0 L 475.0 670.0 L 475.0 671.0 L 477.0 671.0 L 477.0 672.0 L 480.0 672.0 L 480.0 673.0 L 482.0 673.0 L 482.0 674.0 L 484.0 674.0 L 484.0 675.0 L 490.0 676.0 L 490.0 677.0 L 492.0 677.0 L 492.0 678.0 L 494.0 678.0 L 494.0 679.0 L 496.0 679.0 L 496.0 680.0 L 499.0 680.0 L 499.0 681.0 L 501.0 681.0 L 501.0 682.0 L 503.0 682.0 L 503.0 683.0 L 507.0 684.0 L 508.0 686.0 L 510.0 686.0 L 510.0 687.0 L 511.0 687.0 L 511.0 688.0 L 512.0 688.0 L 512.0 689.0 L 513.0 689.0 L 513.0 690.0 L 514.0 690.0 L 514.0 691.0 L 515.0 691.0 L 515.0 692.0 L 516.0 692.0 L 516.0 693.0 L 518.0 694.0 L 518.0 696.0 L 519.0 696.0 L 519.0 698.0 L 520.0 698.0 L 520.0 702.0 L 521.0 702.0 L 521.0 715.0 L 520.0 715.0 L 520.0 719.0 L 519.0 719.0 L 519.0 721.0 L 517.0 722.0 L 517.0 724.0 L 515.0 725.0 L 515.0 727.0 L 514.0 727.0 L 514.0 728.0 L 513.0 728.0 L 513.0 729.0 L 512.0 729.0 L 511.0 731.0 L 509.0 731.0 L 508.0 733.0 L 506.0 733.0 L 506.0 734.0 L 504.0 734.0 L 504.0 735.0 L 502.0 735.0 L 502.0 736.0 L 499.0 736.0 L 499.0 737.0 L 495.0 737.0 L 495.0 738.0 L 475.0 738.0 L 475.0 737.0 L 470.0 737.0 L 470.0 736.0 L 462.0 735.0 L 462.0 734.0 L 459.0 734.0 L 459.0 733.0 L 456.0 733.0 L 456.0 732.0 L 453.0 732.0 L 453.0 731.0 L 452.0 731.0 L 452.0 712.0 L 451.0 712.0 L 451.0 708.0 L 453.0 709.0 L 453.0 713.0 L 454.0 713.0 L 454.0 716.0 L 455.0 716.0 L 455.0 718.0 L 456.0 718.0 L 456.0 721.0 L 458.0 722.0 L 458.0 724.0 L 459.0 724.0 L 459.0 725.0 L 460.0 725.0 L 460.0 726.0 L 461.0 726.0 L 461.0 727.0 L 462.0 727.0 L 462.0 728.0 L 463.0 728.0 L 463.0 729.0 L 464.0 729.0 L 465.0 731.0 L 467.0 731.0 L 468.0 733.0 L 470.0 733.0 L 470.0 734.0 L 472.0 734.0 L 472.0 735.0 L 476.0 735.0 L 476.0 736.0 L 484.0 736.0 L 484.0 737.0 L 487.0 737.0 L 487.0 736.0 L 495.0 736.0 L 495.0 735.0 L 498.0 735.0 L 498.0 734.0 L 500.0 734.0 L 500.0 733.0 L 504.0 732.0 L 504.0 731.0 L 505.0 731.0 L 505.0 730.0 L 506.0 730.0 L 506.0 729.0 L 508.0 728.0 L 508.0 726.0 L 510.0 725.0 L 510.0 723.0 L 511.0 723.0 L 511.0 720.0 L 512.0 720.0 L 512.0 708.0 L 511.0 708.0 L 511.0 706.0 L 510.0 706.0 L 509.0 702.0 L 508.0 702.0 L 508.0 701.0 L 507.0 701.0 L 507.0 700.0 L 506.0 700.0 L 506.0 699.0 L 505.0 699.0 L 505.0 698.0 L 504.0 698.0 L 503.0 696.0 L 501.0 696.0 L 500.0 694.0 L 498.0 694.0 L 498.0 693.0 L 496.0 693.0 L 496.0 692.0 L 494.0 692.0 L 494.0 691.0 L 492.0 691.0 L 492.0 690.0 L 489.0 690.0 L 489.0 689.0 L 487.0 689.0 L 487.0 688.0 L 484.0 688.0 L 484.0 687.0 L 482.0 687.0 L 482.0 686.0 L 480.0 686.0 L 480.0 685.0 L 477.0 685.0 L 477.0 684.0 L 475.0 684.0 L 475.0 683.0 L 472.0 683.0 L 472.0 682.0 L 470.0 682.0 L 469.0 680.0 L 465.0 679.0 L 465.0 678.0 L 464.0 678.0 L 464.0 677.0 L 463.0 677.0 L 463.0 676.0 L 462.0 676.0 L 462.0 675.0 L 461.0 675.0 L 461.0 674.0 L 460.0 674.0 L 460.0 673.0 L 459.0 673.0 L 459.0 672.0 L 458.0 672.0 L 458.0 671.0 L 456.0 670.0 L 456.0 667.0 L 455.0 667.0 L 455.0 664.0 L 454.0 664.0 L 454.0 660.0 L 453.0 660.0 L 453.0 654.0 L 454.0 654.0 L 454.0 650.0 L 455.0 650.0 L 455.0 648.0 L 456.0 648.0 L 456.0 645.0 L 458.0 644.0 L 458.0 642.0 L 459.0 642.0 L 459.0 641.0 L 460.0 641.0 L 460.0 640.0 L 461.0 640.0 L 461.0 639.0 L 462.0 639.0 L 463.0 637.0 L 465.0 637.0 L 465.0 636.0 L 466.0 636.0 L 466.0 635.0 L 468.0 635.0 L 469.0 633.0 L 472.0 633.0 L 472.0 632.0 L 476.0 632.0 L 476.0 631.0 L 482.0 631.0 L 482.0 630.0 Z M 324.0 632.0 L 331.0 632.0 L 331.0 728.0 L 333.0 729.0 L 333.0 731.0 L 334.0 731.0 L 334.0 732.0 L 335.0 732.0 L 336.0 734.0 L 344.0 734.0 L 344.0 736.0 L 304.0 736.0 L 304.0 735.0 L 306.0 735.0 L 306.0 734.0 L 312.0 734.0 L 312.0 733.0 L 314.0 733.0 L 314.0 732.0 L 315.0 732.0 L 315.0 731.0 L 317.0 730.0 L 317.0 728.0 L 318.0 728.0 L 318.0 720.0 L 319.0 720.0 L 319.0 648.0 L 318.0 648.0 L 318.0 643.0 L 317.0 643.0 L 317.0 640.0 L 316.0 640.0 L 315.0 638.0 L 313.0 638.0 L 313.0 637.0 L 306.0 637.0 L 306.0 635.0 L 312.0 635.0 L 312.0 634.0 L 318.0 634.0 L 318.0 633.0 L 324.0 633.0 L 324.0 632.0 Z M 1089.0 640.0 L 1092.0 640.0 L 1092.0 641.0 L 1097.0 641.0 L 1097.0 642.0 L 1099.0 642.0 L 1100.0 644.0 L 1102.0 644.0 L 1102.0 646.0 L 1104.0 647.0 L 1104.0 649.0 L 1105.0 649.0 L 1105.0 651.0 L 1106.0 651.0 L 1106.0 664.0 L 1105.0 664.0 L 1104.0 670.0 L 1103.0 670.0 L 1103.0 671.0 L 1101.0 672.0 L 1101.0 674.0 L 1100.0 674.0 L 1099.0 676.0 L 1095.0 677.0 L 1095.0 678.0 L 1089.0 678.0 L 1089.0 675.0 L 1090.0 675.0 L 1090.0 674.0 L 1092.0 674.0 L 1092.0 673.0 L 1094.0 672.0 L 1094.0 670.0 L 1096.0 669.0 L 1096.0 667.0 L 1098.0 666.0 L 1098.0 664.0 L 1099.0 664.0 L 1099.0 661.0 L 1100.0 661.0 L 1100.0 656.0 L 1101.0 656.0 L 1101.0 652.0 L 1100.0 652.0 L 1100.0 648.0 L 1099.0 648.0 L 1099.0 646.0 L 1098.0 646.0 L 1098.0 645.0 L 1096.0 645.0 L 1095.0 643.0 L 1092.0 643.0 L 1092.0 642.0 L 1088.0 642.0 L 1088.0 643.0 L 1084.0 643.0 L 1084.0 644.0 L 1081.0 644.0 L 1081.0 645.0 L 1079.0 645.0 L 1078.0 647.0 L 1076.0 647.0 L 1076.0 648.0 L 1075.0 648.0 L 1075.0 649.0 L 1074.0 649.0 L 1073.0 651.0 L 1071.0 651.0 L 1071.0 653.0 L 1069.0 653.0 L 1069.0 655.0 L 1068.0 655.0 L 1068.0 656.0 L 1066.0 656.0 L 1066.0 658.0 L 1064.0 659.0 L 1064.0 661.0 L 1063.0 661.0 L 1063.0 662.0 L 1062.0 662.0 L 1062.0 663.0 L 1060.0 664.0 L 1060.0 666.0 L 1059.0 666.0 L 1059.0 667.0 L 1057.0 668.0 L 1056.0 672.0 L 1055.0 672.0 L 1055.0 673.0 L 1053.0 674.0 L 1052.0 678.0 L 1051.0 678.0 L 1051.0 679.0 L 1050.0 679.0 L 1050.0 681.0 L 1048.0 682.0 L 1047.0 686.0 L 1045.0 687.0 L 1044.0 691.0 L 1042.0 692.0 L 1041.0 696.0 L 1039.0 697.0 L 1039.0 699.0 L 1037.0 700.0 L 1037.0 702.0 L 1036.0 702.0 L 1035.0 706.0 L 1033.0 707.0 L 1032.0 711.0 L 1030.0 712.0 L 1030.0 714.0 L 1029.0 714.0 L 1029.0 716.0 L 1028.0 716.0 L 1027.0 720.0 L 1025.0 721.0 L 1025.0 723.0 L 1024.0 723.0 L 1023.0 727.0 L 1021.0 728.0 L 1021.0 730.0 L 1020.0 730.0 L 1020.0 732.0 L 1019.0 732.0 L 1018.0 736.0 L 1016.0 736.0 L 1016.0 739.0 L 1008.0 739.0 L 1008.0 740.0 L 1007.0 740.0 L 1007.0 739.0 L 1005.0 739.0 L 1005.0 740.0 L 1004.0 740.0 L 1004.0 739.0 L 1003.0 739.0 L 1003.0 737.0 L 1005.0 736.0 L 1006.0 732.0 L 1008.0 731.0 L 1008.0 729.0 L 1009.0 729.0 L 1010.0 725.0 L 1012.0 724.0 L 1012.0 722.0 L 1013.0 722.0 L 1014.0 718.0 L 1016.0 717.0 L 1016.0 715.0 L 1017.0 715.0 L 1018.0 711.0 L 1020.0 710.0 L 1020.0 708.0 L 1021.0 708.0 L 1022.0 704.0 L 1024.0 703.0 L 1024.0 701.0 L 1025.0 701.0 L 1026.0 697.0 L 1028.0 696.0 L 1028.0 694.0 L 1029.0 694.0 L 1030.0 690.0 L 1032.0 689.0 L 1032.0 687.0 L 1033.0 687.0 L 1034.0 683.0 L 1036.0 682.0 L 1036.0 680.0 L 1037.0 680.0 L 1038.0 676.0 L 1040.0 675.0 L 1040.0 673.0 L 1041.0 673.0 L 1041.0 671.0 L 1042.0 671.0 L 1043.0 667.0 L 1045.0 666.0 L 1045.0 664.0 L 1046.0 664.0 L 1046.0 662.0 L 1047.0 662.0 L 1047.0 660.0 L 1048.0 660.0 L 1048.0 658.0 L 1049.0 658.0 L 1049.0 656.0 L 1050.0 656.0 L 1050.0 654.0 L 1051.0 654.0 L 1051.0 651.0 L 1052.0 651.0 L 1052.0 645.0 L 1051.0 645.0 L 1051.0 644.0 L 1048.0 644.0 L 1048.0 645.0 L 1045.0 645.0 L 1044.0 647.0 L 1042.0 647.0 L 1042.0 648.0 L 1041.0 648.0 L 1041.0 649.0 L 1040.0 649.0 L 1040.0 650.0 L 1039.0 650.0 L 1039.0 651.0 L 1038.0 651.0 L 1038.0 652.0 L 1037.0 652.0 L 1037.0 653.0 L 1035.0 654.0 L 1035.0 656.0 L 1033.0 656.0 L 1033.0 658.0 L 1032.0 658.0 L 1032.0 659.0 L 1030.0 660.0 L 1030.0 662.0 L 1029.0 662.0 L 1029.0 663.0 L 1027.0 664.0 L 1027.0 666.0 L 1026.0 666.0 L 1026.0 667.0 L 1024.0 668.0 L 1024.0 670.0 L 1022.0 671.0 L 1022.0 673.0 L 1020.0 674.0 L 1020.0 676.0 L 1018.0 677.0 L 1018.0 679.0 L 1016.0 680.0 L 1016.0 682.0 L 1015.0 682.0 L 1015.0 683.0 L 1013.0 683.0 L 1013.0 682.0 L 1014.0 682.0 L 1014.0 680.0 L 1016.0 679.0 L 1016.0 677.0 L 1017.0 677.0 L 1017.0 675.0 L 1018.0 675.0 L 1018.0 674.0 L 1020.0 673.0 L 1020.0 671.0 L 1021.0 671.0 L 1021.0 670.0 L 1023.0 669.0 L 1024.0 665.0 L 1025.0 665.0 L 1025.0 664.0 L 1026.0 664.0 L 1026.0 663.0 L 1028.0 662.0 L 1028.0 660.0 L 1029.0 660.0 L 1029.0 659.0 L 1031.0 658.0 L 1031.0 656.0 L 1032.0 656.0 L 1032.0 655.0 L 1033.0 655.0 L 1033.0 654.0 L 1034.0 654.0 L 1034.0 653.0 L 1035.0 653.0 L 1035.0 652.0 L 1036.0 652.0 L 1036.0 651.0 L 1037.0 651.0 L 1037.0 650.0 L 1038.0 650.0 L 1038.0 649.0 L 1039.0 649.0 L 1039.0 648.0 L 1040.0 648.0 L 1040.0 647.0 L 1041.0 647.0 L 1042.0 645.0 L 1044.0 645.0 L 1045.0 643.0 L 1048.0 643.0 L 1048.0 642.0 L 1055.0 642.0 L 1055.0 643.0 L 1056.0 643.0 L 1056.0 644.0 L 1057.0 644.0 L 1057.0 645.0 L 1059.0 646.0 L 1059.0 650.0 L 1060.0 650.0 L 1060.0 654.0 L 1059.0 654.0 L 1059.0 659.0 L 1058.0 659.0 L 1058.0 661.0 L 1057.0 661.0 L 1057.0 664.0 L 1056.0 664.0 L 1056.0 666.0 L 1055.0 666.0 L 1055.0 668.0 L 1054.0 668.0 L 1054.0 670.0 L 1055.0 670.0 L 1055.0 669.0 L 1056.0 669.0 L 1056.0 667.0 L 1058.0 666.0 L 1058.0 664.0 L 1059.0 664.0 L 1059.0 663.0 L 1061.0 662.0 L 1061.0 660.0 L 1062.0 660.0 L 1062.0 659.0 L 1064.0 658.0 L 1064.0 656.0 L 1065.0 656.0 L 1065.0 655.0 L 1066.0 655.0 L 1066.0 654.0 L 1067.0 654.0 L 1067.0 653.0 L 1068.0 653.0 L 1068.0 652.0 L 1069.0 652.0 L 1069.0 651.0 L 1070.0 651.0 L 1070.0 650.0 L 1071.0 650.0 L 1071.0 649.0 L 1072.0 649.0 L 1072.0 648.0 L 1073.0 648.0 L 1074.0 646.0 L 1076.0 646.0 L 1077.0 644.0 L 1079.0 644.0 L 1079.0 643.0 L 1081.0 643.0 L 1081.0 642.0 L 1084.0 642.0 L 1084.0 641.0 L 1089.0 641.0 L 1089.0 640.0 Z M 978.0 642.0 L 992.0 642.0 L 992.0 643.0 L 995.0 643.0 L 996.0 645.0 L 1000.0 646.0 L 1000.0 648.0 L 1002.0 648.0 L 1002.0 650.0 L 1004.0 651.0 L 1004.0 653.0 L 1005.0 653.0 L 1005.0 655.0 L 1006.0 655.0 L 1006.0 659.0 L 1007.0 659.0 L 1007.0 678.0 L 1006.0 678.0 L 1006.0 682.0 L 1005.0 682.0 L 1005.0 685.0 L 1004.0 685.0 L 1003.0 691.0 L 1002.0 691.0 L 1002.0 693.0 L 1001.0 693.0 L 1001.0 695.0 L 1000.0 695.0 L 1000.0 697.0 L 999.0 697.0 L 998.0 701.0 L 996.0 702.0 L 996.0 704.0 L 995.0 704.0 L 995.0 705.0 L 994.0 705.0 L 994.0 707.0 L 992.0 708.0 L 992.0 710.0 L 991.0 710.0 L 991.0 711.0 L 990.0 711.0 L 990.0 712.0 L 988.0 713.0 L 988.0 715.0 L 987.0 715.0 L 987.0 716.0 L 986.0 716.0 L 986.0 717.0 L 985.0 717.0 L 985.0 718.0 L 984.0 718.0 L 984.0 719.0 L 983.0 719.0 L 983.0 720.0 L 982.0 720.0 L 982.0 721.0 L 981.0 721.0 L 981.0 722.0 L 980.0 722.0 L 980.0 723.0 L 979.0 723.0 L 979.0 724.0 L 978.0 724.0 L 978.0 725.0 L 977.0 725.0 L 977.0 726.0 L 976.0 726.0 L 975.0 728.0 L 973.0 728.0 L 973.0 729.0 L 972.0 729.0 L 971.0 731.0 L 969.0 731.0 L 968.0 733.0 L 966.0 733.0 L 966.0 734.0 L 964.0 734.0 L 964.0 735.0 L 962.0 735.0 L 962.0 736.0 L 960.0 736.0 L 960.0 737.0 L 958.0 737.0 L 958.0 738.0 L 952.0 739.0 L 952.0 740.0 L 946.0 740.0 L 946.0 741.0 L 942.0 741.0 L 942.0 740.0 L 936.0 740.0 L 936.0 739.0 L 932.0 738.0 L 931.0 736.0 L 929.0 736.0 L 929.0 735.0 L 928.0 735.0 L 928.0 734.0 L 926.0 733.0 L 926.0 731.0 L 925.0 731.0 L 925.0 730.0 L 924.0 730.0 L 924.0 728.0 L 923.0 728.0 L 923.0 725.0 L 922.0 725.0 L 922.0 721.0 L 921.0 721.0 L 921.0 707.0 L 922.0 707.0 L 922.0 702.0 L 923.0 702.0 L 923.0 699.0 L 924.0 699.0 L 925.0 693.0 L 926.0 693.0 L 926.0 691.0 L 927.0 691.0 L 927.0 688.0 L 928.0 688.0 L 929.0 684.0 L 931.0 683.0 L 932.0 679.0 L 934.0 678.0 L 935.0 674.0 L 936.0 674.0 L 936.0 673.0 L 938.0 672.0 L 938.0 670.0 L 939.0 670.0 L 939.0 669.0 L 941.0 668.0 L 941.0 666.0 L 942.0 666.0 L 942.0 665.0 L 943.0 665.0 L 943.0 664.0 L 944.0 664.0 L 944.0 663.0 L 945.0 663.0 L 945.0 662.0 L 946.0 662.0 L 946.0 661.0 L 947.0 661.0 L 947.0 660.0 L 948.0 660.0 L 948.0 659.0 L 949.0 659.0 L 949.0 658.0 L 950.0 658.0 L 951.0 656.0 L 953.0 656.0 L 953.0 655.0 L 954.0 655.0 L 955.0 653.0 L 957.0 653.0 L 957.0 652.0 L 958.0 652.0 L 959.0 650.0 L 961.0 650.0 L 961.0 649.0 L 965.0 648.0 L 966.0 646.0 L 969.0 646.0 L 969.0 645.0 L 971.0 645.0 L 971.0 644.0 L 974.0 644.0 L 974.0 643.0 L 978.0 643.0 L 978.0 642.0 Z M 983.0 643.0 L 982.0 643.0 L 982.0 644.0 L 978.0 644.0 L 978.0 645.0 L 976.0 645.0 L 976.0 646.0 L 973.0 646.0 L 972.0 648.0 L 970.0 648.0 L 970.0 649.0 L 969.0 649.0 L 968.0 651.0 L 966.0 651.0 L 966.0 652.0 L 965.0 652.0 L 965.0 653.0 L 964.0 653.0 L 964.0 654.0 L 963.0 654.0 L 963.0 655.0 L 962.0 655.0 L 962.0 656.0 L 960.0 657.0 L 960.0 659.0 L 959.0 659.0 L 959.0 660.0 L 958.0 660.0 L 958.0 661.0 L 957.0 661.0 L 957.0 662.0 L 955.0 663.0 L 955.0 665.0 L 954.0 665.0 L 954.0 666.0 L 952.0 667.0 L 952.0 669.0 L 950.0 670.0 L 949.0 674.0 L 948.0 674.0 L 948.0 675.0 L 947.0 675.0 L 947.0 677.0 L 945.0 678.0 L 945.0 680.0 L 944.0 680.0 L 944.0 682.0 L 943.0 682.0 L 943.0 684.0 L 942.0 684.0 L 942.0 686.0 L 941.0 686.0 L 941.0 688.0 L 940.0 688.0 L 940.0 690.0 L 939.0 690.0 L 939.0 692.0 L 938.0 692.0 L 938.0 694.0 L 937.0 694.0 L 937.0 696.0 L 936.0 696.0 L 936.0 699.0 L 935.0 699.0 L 935.0 703.0 L 934.0 703.0 L 934.0 706.0 L 933.0 706.0 L 933.0 710.0 L 932.0 710.0 L 932.0 715.0 L 931.0 715.0 L 931.0 729.0 L 932.0 729.0 L 932.0 733.0 L 933.0 733.0 L 933.0 735.0 L 934.0 735.0 L 934.0 736.0 L 936.0 736.0 L 936.0 738.0 L 939.0 738.0 L 939.0 739.0 L 949.0 739.0 L 949.0 738.0 L 952.0 738.0 L 952.0 737.0 L 954.0 737.0 L 954.0 736.0 L 958.0 735.0 L 958.0 734.0 L 959.0 734.0 L 959.0 733.0 L 960.0 733.0 L 961.0 731.0 L 963.0 731.0 L 963.0 730.0 L 964.0 730.0 L 964.0 729.0 L 965.0 729.0 L 965.0 728.0 L 966.0 728.0 L 966.0 727.0 L 968.0 726.0 L 968.0 724.0 L 969.0 724.0 L 969.0 723.0 L 970.0 723.0 L 970.0 722.0 L 971.0 722.0 L 971.0 721.0 L 973.0 720.0 L 973.0 718.0 L 974.0 718.0 L 974.0 717.0 L 976.0 716.0 L 976.0 714.0 L 977.0 714.0 L 977.0 713.0 L 979.0 712.0 L 979.0 710.0 L 980.0 710.0 L 981.0 706.0 L 983.0 705.0 L 983.0 703.0 L 984.0 703.0 L 984.0 701.0 L 985.0 701.0 L 985.0 699.0 L 986.0 699.0 L 986.0 697.0 L 987.0 697.0 L 987.0 695.0 L 988.0 695.0 L 988.0 693.0 L 989.0 693.0 L 989.0 691.0 L 990.0 691.0 L 990.0 689.0 L 991.0 689.0 L 991.0 687.0 L 992.0 687.0 L 992.0 684.0 L 993.0 684.0 L 993.0 681.0 L 994.0 681.0 L 994.0 678.0 L 995.0 678.0 L 995.0 675.0 L 996.0 675.0 L 996.0 672.0 L 997.0 672.0 L 997.0 667.0 L 998.0 667.0 L 998.0 652.0 L 997.0 652.0 L 997.0 649.0 L 996.0 649.0 L 996.0 647.0 L 995.0 647.0 L 994.0 645.0 L 992.0 645.0 L 992.0 644.0 L 990.0 644.0 L 990.0 643.0 L 983.0 643.0 Z M 557.0 810.0 L 559.0 810.0 L 559.0 811.0 L 562.0 811.0 L 562.0 812.0 L 564.0 812.0 L 564.0 815.0 L 562.0 815.0 L 561.0 813.0 L 555.0 813.0 L 555.0 814.0 L 554.0 814.0 L 554.0 818.0 L 556.0 818.0 L 556.0 819.0 L 558.0 819.0 L 558.0 820.0 L 561.0 820.0 L 561.0 821.0 L 563.0 821.0 L 563.0 822.0 L 565.0 823.0 L 565.0 825.0 L 566.0 825.0 L 566.0 828.0 L 565.0 828.0 L 565.0 830.0 L 564.0 830.0 L 563.0 832.0 L 554.0 832.0 L 554.0 831.0 L 552.0 831.0 L 552.0 829.0 L 551.0 829.0 L 551.0 827.0 L 554.0 827.0 L 554.0 829.0 L 556.0 829.0 L 556.0 830.0 L 561.0 830.0 L 561.0 829.0 L 563.0 828.0 L 563.0 824.0 L 561.0 824.0 L 561.0 823.0 L 559.0 823.0 L 559.0 822.0 L 555.0 822.0 L 555.0 821.0 L 554.0 821.0 L 554.0 820.0 L 552.0 820.0 L 552.0 818.0 L 551.0 818.0 L 551.0 815.0 L 552.0 815.0 L 552.0 813.0 L 553.0 813.0 L 554.0 811.0 L 557.0 811.0 L 557.0 810.0 Z M 646.0 810.0 L 648.0 810.0 L 648.0 811.0 L 652.0 811.0 L 653.0 813.0 L 655.0 813.0 L 655.0 814.0 L 656.0 814.0 L 656.0 816.0 L 653.0 816.0 L 653.0 815.0 L 652.0 815.0 L 651.0 813.0 L 644.0 813.0 L 644.0 814.0 L 642.0 814.0 L 642.0 815.0 L 640.0 816.0 L 640.0 818.0 L 639.0 818.0 L 639.0 825.0 L 640.0 825.0 L 640.0 827.0 L 642.0 827.0 L 642.0 828.0 L 643.0 828.0 L 643.0 829.0 L 645.0 829.0 L 645.0 830.0 L 650.0 830.0 L 650.0 829.0 L 652.0 829.0 L 652.0 828.0 L 653.0 828.0 L 654.0 826.0 L 656.0 826.0 L 656.0 828.0 L 655.0 828.0 L 655.0 829.0 L 654.0 829.0 L 654.0 830.0 L 653.0 830.0 L 652.0 832.0 L 643.0 832.0 L 643.0 831.0 L 641.0 831.0 L 641.0 830.0 L 640.0 830.0 L 640.0 829.0 L 639.0 829.0 L 639.0 828.0 L 637.0 827.0 L 637.0 824.0 L 636.0 824.0 L 636.0 819.0 L 637.0 819.0 L 637.0 816.0 L 638.0 816.0 L 638.0 814.0 L 639.0 814.0 L 640.0 812.0 L 642.0 812.0 L 642.0 811.0 L 646.0 811.0 L 646.0 810.0 Z M 677.0 810.0 L 685.0 812.0 L 685.0 813.0 L 686.0 813.0 L 686.0 814.0 L 688.0 815.0 L 688.0 817.0 L 689.0 817.0 L 689.0 825.0 L 688.0 825.0 L 687.0 829.0 L 686.0 829.0 L 686.0 830.0 L 684.0 830.0 L 683.0 832.0 L 674.0 832.0 L 674.0 831.0 L 672.0 831.0 L 672.0 830.0 L 671.0 830.0 L 671.0 829.0 L 669.0 828.0 L 669.0 826.0 L 668.0 826.0 L 668.0 822.0 L 667.0 822.0 L 667.0 820.0 L 668.0 820.0 L 668.0 816.0 L 670.0 815.0 L 670.0 813.0 L 672.0 813.0 L 673.0 811.0 L 677.0 811.0 L 677.0 810.0 Z M 737.0 810.0 L 745.0 812.0 L 747.0 816.0 L 744.0 816.0 L 744.0 815.0 L 743.0 815.0 L 743.0 814.0 L 741.0 814.0 L 741.0 813.0 L 735.0 813.0 L 735.0 814.0 L 733.0 814.0 L 733.0 815.0 L 731.0 816.0 L 731.0 818.0 L 730.0 818.0 L 730.0 824.0 L 731.0 824.0 L 732.0 828.0 L 734.0 828.0 L 734.0 829.0 L 736.0 829.0 L 736.0 830.0 L 740.0 830.0 L 740.0 829.0 L 744.0 828.0 L 745.0 826.0 L 747.0 826.0 L 747.0 828.0 L 746.0 828.0 L 746.0 829.0 L 745.0 829.0 L 744.0 831.0 L 742.0 831.0 L 742.0 832.0 L 734.0 832.0 L 734.0 831.0 L 732.0 831.0 L 732.0 830.0 L 731.0 830.0 L 731.0 829.0 L 729.0 828.0 L 729.0 826.0 L 728.0 826.0 L 728.0 817.0 L 729.0 817.0 L 729.0 815.0 L 730.0 815.0 L 730.0 814.0 L 731.0 814.0 L 731.0 813.0 L 732.0 813.0 L 733.0 811.0 L 737.0 811.0 L 737.0 810.0 Z M 760.0 810.0 L 762.0 811.0 L 762.0 820.0 L 772.0 820.0 L 772.0 819.0 L 773.0 819.0 L 773.0 811.0 L 775.0 811.0 L 775.0 832.0 L 773.0 832.0 L 773.0 823.0 L 772.0 823.0 L 772.0 822.0 L 762.0 822.0 L 762.0 832.0 L 759.0 832.0 L 759.0 812.0 L 760.0 812.0 L 760.0 810.0 Z M 842.0 810.0 L 844.0 810.0 L 844.0 811.0 L 848.0 811.0 L 849.0 813.0 L 851.0 813.0 L 851.0 814.0 L 852.0 814.0 L 852.0 817.0 L 850.0 817.0 L 850.0 816.0 L 849.0 816.0 L 848.0 814.0 L 846.0 814.0 L 846.0 813.0 L 839.0 813.0 L 839.0 814.0 L 838.0 814.0 L 838.0 815.0 L 836.0 815.0 L 836.0 817.0 L 835.0 817.0 L 835.0 826.0 L 836.0 826.0 L 836.0 827.0 L 837.0 827.0 L 838.0 829.0 L 840.0 829.0 L 840.0 830.0 L 845.0 830.0 L 845.0 829.0 L 848.0 829.0 L 848.0 828.0 L 850.0 827.0 L 850.0 824.0 L 843.0 824.0 L 843.0 822.0 L 853.0 822.0 L 853.0 827.0 L 852.0 827.0 L 852.0 828.0 L 851.0 828.0 L 851.0 829.0 L 850.0 829.0 L 849.0 831.0 L 847.0 831.0 L 847.0 832.0 L 838.0 832.0 L 838.0 831.0 L 837.0 831.0 L 836.0 829.0 L 834.0 829.0 L 834.0 828.0 L 833.0 828.0 L 833.0 825.0 L 832.0 825.0 L 832.0 818.0 L 833.0 818.0 L 833.0 815.0 L 834.0 815.0 L 834.0 814.0 L 835.0 814.0 L 836.0 812.0 L 838.0 812.0 L 838.0 811.0 L 842.0 811.0 L 842.0 810.0 Z M 412.0 811.0 L 422.0 811.0 L 422.0 812.0 L 424.0 812.0 L 424.0 814.0 L 425.0 814.0 L 425.0 820.0 L 424.0 820.0 L 424.0 821.0 L 423.0 821.0 L 422.0 823.0 L 414.0 823.0 L 414.0 832.0 L 412.0 832.0 L 412.0 811.0 Z M 437.0 811.0 L 439.0 811.0 L 439.0 832.0 L 437.0 832.0 L 437.0 811.0 Z M 453.0 811.0 L 455.0 811.0 L 455.0 830.0 L 463.0 830.0 L 463.0 832.0 L 452.0 832.0 L 452.0 812.0 L 453.0 812.0 L 453.0 811.0 Z M 482.0 811.0 L 484.0 811.0 L 484.0 813.0 L 485.0 813.0 L 485.0 816.0 L 486.0 816.0 L 486.0 818.0 L 487.0 818.0 L 487.0 820.0 L 488.0 820.0 L 488.0 823.0 L 489.0 823.0 L 489.0 825.0 L 490.0 825.0 L 490.0 827.0 L 491.0 827.0 L 491.0 830.0 L 492.0 830.0 L 492.0 832.0 L 489.0 832.0 L 489.0 829.0 L 488.0 829.0 L 488.0 827.0 L 487.0 827.0 L 487.0 826.0 L 481.0 826.0 L 481.0 827.0 L 479.0 826.0 L 479.0 827.0 L 477.0 828.0 L 477.0 831.0 L 476.0 831.0 L 476.0 832.0 L 474.0 832.0 L 475.0 826.0 L 476.0 826.0 L 476.0 824.0 L 477.0 824.0 L 477.0 821.0 L 478.0 821.0 L 478.0 819.0 L 479.0 819.0 L 479.0 817.0 L 480.0 817.0 L 480.0 814.0 L 481.0 814.0 L 481.0 812.0 L 482.0 812.0 L 482.0 811.0 Z M 501.0 811.0 L 515.0 811.0 L 515.0 813.0 L 509.0 813.0 L 509.0 832.0 L 507.0 832.0 L 507.0 813.0 L 501.0 813.0 L 501.0 811.0 Z M 527.0 811.0 L 539.0 811.0 L 539.0 813.0 L 529.0 813.0 L 529.0 820.0 L 539.0 820.0 L 539.0 822.0 L 529.0 822.0 L 529.0 829.0 L 530.0 829.0 L 530.0 830.0 L 539.0 830.0 L 539.0 832.0 L 527.0 832.0 L 527.0 830.0 L 526.0 830.0 L 526.0 812.0 L 527.0 812.0 L 527.0 811.0 Z M 596.0 811.0 L 603.0 811.0 L 603.0 812.0 L 604.0 812.0 L 604.0 817.0 L 603.0 817.0 L 603.0 818.0 L 601.0 819.0 L 601.0 821.0 L 603.0 822.0 L 603.0 824.0 L 604.0 824.0 L 604.0 825.0 L 606.0 825.0 L 606.0 823.0 L 607.0 823.0 L 607.0 822.0 L 609.0 822.0 L 609.0 825.0 L 607.0 826.0 L 607.0 828.0 L 609.0 829.0 L 609.0 831.0 L 610.0 831.0 L 610.0 832.0 L 607.0 832.0 L 606.0 830.0 L 604.0 830.0 L 604.0 831.0 L 602.0 831.0 L 602.0 832.0 L 595.0 832.0 L 595.0 831.0 L 593.0 830.0 L 593.0 828.0 L 592.0 828.0 L 592.0 824.0 L 593.0 824.0 L 593.0 822.0 L 594.0 822.0 L 594.0 821.0 L 596.0 820.0 L 596.0 817.0 L 595.0 817.0 L 595.0 813.0 L 596.0 813.0 L 596.0 811.0 Z M 707.0 811.0 L 709.0 811.0 L 709.0 812.0 L 710.0 812.0 L 710.0 814.0 L 711.0 814.0 L 711.0 817.0 L 712.0 817.0 L 712.0 819.0 L 713.0 819.0 L 713.0 821.0 L 714.0 821.0 L 714.0 824.0 L 715.0 824.0 L 715.0 826.0 L 716.0 826.0 L 716.0 829.0 L 717.0 829.0 L 717.0 831.0 L 718.0 831.0 L 718.0 832.0 L 715.0 832.0 L 715.0 830.0 L 714.0 830.0 L 714.0 828.0 L 713.0 828.0 L 712.0 826.0 L 704.0 826.0 L 704.0 827.0 L 703.0 827.0 L 703.0 829.0 L 702.0 829.0 L 702.0 832.0 L 699.0 832.0 L 699.0 830.0 L 700.0 830.0 L 700.0 828.0 L 701.0 828.0 L 701.0 826.0 L 702.0 826.0 L 702.0 824.0 L 703.0 824.0 L 704.0 818.0 L 705.0 818.0 L 705.0 816.0 L 706.0 816.0 L 706.0 814.0 L 707.0 814.0 L 707.0 811.0 Z M 788.0 811.0 L 790.0 811.0 L 790.0 812.0 L 791.0 812.0 L 791.0 830.0 L 790.0 830.0 L 790.0 832.0 L 788.0 832.0 L 788.0 811.0 Z M 804.0 811.0 L 806.0 811.0 L 806.0 812.0 L 808.0 813.0 L 808.0 815.0 L 810.0 816.0 L 810.0 818.0 L 811.0 818.0 L 811.0 819.0 L 812.0 819.0 L 812.0 820.0 L 814.0 821.0 L 814.0 823.0 L 815.0 823.0 L 816.0 825.0 L 817.0 825.0 L 817.0 812.0 L 818.0 812.0 L 818.0 811.0 L 820.0 811.0 L 820.0 832.0 L 818.0 832.0 L 818.0 831.0 L 816.0 830.0 L 816.0 828.0 L 815.0 828.0 L 815.0 827.0 L 813.0 826.0 L 813.0 824.0 L 812.0 824.0 L 812.0 823.0 L 810.0 822.0 L 810.0 820.0 L 809.0 820.0 L 808.0 818.0 L 806.0 818.0 L 806.0 832.0 L 804.0 832.0 L 804.0 811.0 Z M 415.0 813.0 L 414.0 813.0 L 414.0 821.0 L 420.0 821.0 L 420.0 820.0 L 422.0 820.0 L 422.0 818.0 L 423.0 818.0 L 423.0 815.0 L 422.0 815.0 L 421.0 813.0 L 415.0 813.0 Z M 599.0 813.0 L 597.0 814.0 L 597.0 816.0 L 598.0 816.0 L 598.0 817.0 L 600.0 818.0 L 600.0 817.0 L 602.0 816.0 L 602.0 813.0 L 599.0 813.0 Z M 676.0 813.0 L 675.0 813.0 L 675.0 814.0 L 673.0 814.0 L 673.0 815.0 L 671.0 816.0 L 671.0 819.0 L 670.0 819.0 L 670.0 824.0 L 671.0 824.0 L 672.0 828.0 L 674.0 828.0 L 674.0 829.0 L 676.0 829.0 L 676.0 830.0 L 681.0 830.0 L 681.0 829.0 L 683.0 829.0 L 683.0 828.0 L 684.0 828.0 L 684.0 827.0 L 686.0 826.0 L 687.0 820.0 L 686.0 820.0 L 686.0 817.0 L 685.0 817.0 L 685.0 816.0 L 684.0 816.0 L 684.0 815.0 L 683.0 815.0 L 682.0 813.0 L 676.0 813.0 Z M 483.0 816.0 L 482.0 816.0 L 482.0 818.0 L 481.0 818.0 L 481.0 820.0 L 480.0 820.0 L 480.0 823.0 L 479.0 823.0 L 479.0 824.0 L 486.0 824.0 L 486.0 822.0 L 485.0 822.0 L 485.0 820.0 L 484.0 820.0 L 484.0 817.0 L 483.0 817.0 L 483.0 816.0 Z M 709.0 816.0 L 707.0 817.0 L 707.0 820.0 L 706.0 820.0 L 705.0 824.0 L 712.0 824.0 L 712.0 823.0 L 711.0 823.0 L 711.0 820.0 L 710.0 820.0 L 710.0 818.0 L 709.0 818.0 L 709.0 816.0 Z M 261.0 817.0 L 376.0 817.0 L 377.0 819.0 L 261.0 819.0 L 261.0 817.0 Z M 887.0 817.0 L 995.0 817.0 L 995.0 819.0 L 886.0 819.0 L 887.0 817.0 Z M 598.0 822.0 L 597.0 822.0 L 597.0 823.0 L 595.0 824.0 L 595.0 828.0 L 596.0 828.0 L 597.0 830.0 L 601.0 830.0 L 601.0 829.0 L 603.0 828.0 L 603.0 826.0 L 602.0 826.0 L 602.0 825.0 L 601.0 825.0 L 601.0 824.0 L 600.0 824.0 L 600.0 823.0 L 598.0 822.0 Z" />
</svg>
