<?xml version="1.0" encoding="UTF-8" standalone="no"?>
<svg xmlns="http://www.w3.org/2000/svg" viewBox="164 256 962 596" width="962" height="596">
  <rect x="164" y="256" width="962" height="596" fill="#FCF2F0" />
  <path fill="#D8C1BB" fill-rule="evenodd" stroke="none" d="M 784 276 L 786 276 L 787 278 L 789 278 L 789 279 L 790 279 L 790 280 L 791 280 L 791 281 L 792 281 L 792 282 L 794 283 L 794 285 L 795 285 L 795 286 L 796 286 L 796 288 L 797 288 L 797 291 L 798 291 L 798 304 L 799 304 L 799 310 L 800 310 L 800 315 L 801 315 L 801 320 L 802 320 L 802 324 L 804 325 L 804 333 L 805 333 L 805 336 L 806 336 L 806 352 L 805 352 L 805 360 L 804 360 L 804 369 L 803 369 L 803 373 L 802 373 L 802 375 L 801 375 L 801 379 L 800 379 L 800 381 L 799 381 L 799 384 L 798 384 L 798 388 L 797 388 L 797 390 L 796 390 L 796 398 L 797 398 L 797 401 L 798 401 L 798 403 L 800 404 L 800 406 L 801 406 L 801 407 L 802 407 L 802 408 L 804 409 L 804 411 L 805 411 L 805 412 L 806 412 L 806 413 L 807 413 L 807 414 L 809 415 L 809 417 L 811 418 L 811 421 L 812 421 L 812 425 L 811 425 L 811 427 L 810 427 L 810 430 L 809 430 L 809 432 L 808 432 L 807 448 L 806 448 L 806 453 L 805 453 L 804 459 L 803 459 L 803 461 L 802 461 L 802 463 L 801 463 L 801 467 L 800 467 L 800 469 L 799 469 L 799 471 L 798 471 L 798 473 L 797 473 L 796 477 L 794 478 L 793 482 L 791 483 L 791 485 L 789 486 L 789 488 L 788 488 L 787 490 L 803 490 L 803 491 L 816 491 L 816 492 L 822 492 L 822 493 L 824 493 L 824 494 L 828 494 L 828 495 L 832 496 L 832 497 L 834 498 L 834 500 L 836 501 L 836 503 L 837 503 L 837 514 L 835 515 L 835 517 L 834 517 L 833 519 L 831 519 L 831 520 L 830 520 L 829 522 L 824 522 L 824 523 L 822 523 L 822 524 L 812 524 L 812 525 L 794 525 L 794 524 L 792 524 L 792 525 L 784 525 L 784 524 L 763 524 L 763 523 L 760 523 L 760 522 L 753 522 L 753 521 L 749 521 L 749 520 L 747 520 L 747 519 L 744 519 L 744 518 L 742 518 L 742 517 L 735 517 L 735 518 L 729 518 L 729 519 L 724 519 L 724 520 L 715 520 L 715 521 L 707 521 L 707 522 L 669 522 L 669 521 L 659 521 L 659 520 L 648 520 L 648 519 L 598 519 L 598 520 L 586 520 L 586 521 L 574 521 L 574 522 L 553 522 L 553 521 L 552 521 L 552 520 L 550 519 L 550 516 L 551 516 L 551 515 L 552 515 L 552 514 L 553 514 L 554 512 L 557 512 L 557 511 L 559 511 L 559 510 L 560 510 L 561 508 L 563 508 L 563 507 L 565 507 L 565 506 L 568 506 L 568 505 L 571 505 L 571 504 L 573 504 L 573 503 L 574 503 L 574 502 L 575 502 L 575 501 L 576 501 L 576 500 L 577 500 L 577 499 L 578 499 L 578 498 L 579 498 L 580 496 L 582 496 L 582 495 L 590 495 L 590 496 L 591 496 L 592 498 L 595 498 L 596 500 L 605 500 L 605 499 L 611 499 L 611 498 L 618 498 L 618 497 L 626 497 L 626 496 L 632 496 L 632 495 L 645 495 L 645 496 L 661 496 L 661 497 L 671 497 L 671 496 L 680 496 L 680 495 L 690 494 L 690 493 L 698 492 L 698 491 L 701 491 L 701 490 L 705 490 L 705 489 L 708 489 L 708 488 L 712 488 L 712 487 L 714 487 L 714 486 L 717 486 L 718 484 L 721 484 L 721 483 L 723 482 L 724 478 L 725 478 L 725 477 L 726 477 L 727 475 L 730 475 L 730 474 L 731 474 L 732 472 L 734 472 L 735 470 L 738 470 L 738 469 L 740 469 L 740 468 L 744 468 L 744 467 L 746 467 L 746 466 L 749 466 L 749 465 L 751 465 L 752 463 L 755 463 L 755 462 L 756 462 L 756 461 L 757 461 L 757 460 L 758 460 L 758 459 L 759 459 L 759 458 L 761 457 L 761 454 L 762 454 L 762 452 L 763 452 L 763 450 L 764 450 L 764 445 L 765 445 L 765 431 L 764 431 L 764 411 L 765 411 L 765 408 L 766 408 L 766 403 L 767 403 L 767 400 L 766 400 L 766 399 L 768 398 L 768 396 L 767 396 L 767 395 L 763 395 L 763 394 L 759 394 L 758 392 L 756 392 L 756 391 L 755 391 L 755 390 L 754 390 L 754 389 L 753 389 L 753 388 L 752 388 L 752 387 L 750 386 L 750 384 L 749 384 L 749 383 L 747 383 L 747 384 L 748 384 L 748 392 L 749 392 L 749 397 L 750 397 L 750 400 L 751 400 L 751 404 L 752 404 L 752 407 L 753 407 L 753 410 L 754 410 L 754 427 L 753 427 L 753 431 L 752 431 L 752 432 L 751 432 L 750 434 L 748 433 L 748 434 L 747 434 L 746 436 L 744 436 L 744 437 L 743 437 L 743 438 L 742 438 L 741 440 L 739 440 L 739 441 L 736 441 L 736 440 L 734 439 L 734 437 L 735 437 L 735 432 L 736 432 L 736 422 L 735 422 L 735 414 L 734 414 L 734 404 L 733 404 L 733 392 L 734 392 L 734 386 L 735 386 L 735 384 L 734 384 L 734 383 L 736 382 L 736 379 L 738 378 L 738 376 L 739 376 L 739 375 L 740 375 L 740 374 L 741 374 L 742 372 L 746 371 L 746 369 L 747 369 L 747 365 L 748 365 L 749 361 L 750 361 L 750 360 L 751 360 L 751 359 L 752 359 L 752 358 L 753 358 L 753 357 L 754 357 L 755 355 L 757 355 L 758 353 L 760 353 L 760 352 L 762 352 L 762 351 L 767 351 L 767 350 L 768 350 L 768 351 L 772 351 L 772 352 L 774 352 L 774 353 L 775 353 L 776 355 L 777 355 L 777 354 L 781 354 L 781 353 L 783 353 L 783 354 L 785 355 L 785 357 L 786 357 L 786 354 L 787 354 L 787 348 L 786 348 L 786 315 L 785 315 L 785 310 L 784 310 L 784 309 L 783 309 L 783 308 L 782 308 L 782 307 L 781 307 L 781 306 L 780 306 L 780 305 L 779 305 L 779 304 L 777 303 L 777 301 L 776 301 L 776 300 L 775 300 L 775 298 L 774 298 L 774 294 L 775 294 L 776 292 L 779 292 L 779 290 L 777 290 L 777 289 L 775 288 L 775 287 L 776 287 L 776 283 L 778 282 L 778 280 L 779 280 L 780 278 L 783 278 L 784 276 Z M 740 552 L 745 552 L 745 553 L 765 553 L 765 554 L 774 554 L 774 555 L 783 555 L 783 556 L 794 556 L 794 557 L 800 557 L 800 558 L 807 558 L 807 559 L 819 559 L 819 560 L 840 560 L 840 559 L 846 559 L 846 558 L 847 558 L 848 556 L 849 556 L 849 557 L 852 557 L 852 555 L 853 555 L 854 553 L 856 553 L 856 554 L 857 554 L 857 555 L 858 555 L 858 556 L 860 557 L 860 559 L 859 559 L 859 560 L 858 560 L 857 562 L 855 562 L 856 564 L 855 564 L 854 566 L 850 566 L 849 568 L 847 568 L 847 567 L 842 567 L 842 568 L 839 568 L 839 569 L 834 569 L 834 570 L 815 570 L 815 569 L 799 568 L 799 567 L 793 567 L 793 566 L 787 566 L 787 565 L 780 565 L 780 564 L 774 564 L 774 563 L 768 563 L 768 562 L 756 562 L 756 561 L 727 561 L 727 562 L 717 562 L 717 563 L 713 563 L 713 564 L 711 563 L 711 564 L 709 564 L 709 565 L 706 565 L 706 566 L 705 566 L 704 568 L 701 568 L 701 569 L 697 569 L 697 568 L 694 568 L 694 569 L 688 570 L 687 572 L 683 573 L 682 575 L 680 575 L 680 576 L 676 577 L 676 578 L 675 578 L 675 580 L 674 580 L 674 581 L 673 581 L 673 582 L 672 582 L 672 583 L 671 583 L 671 584 L 670 584 L 669 586 L 668 586 L 668 585 L 666 585 L 666 586 L 665 586 L 665 587 L 666 587 L 666 589 L 665 589 L 665 591 L 666 591 L 666 592 L 665 592 L 665 593 L 664 593 L 663 595 L 661 595 L 661 594 L 659 593 L 659 594 L 657 595 L 657 597 L 655 598 L 654 602 L 652 603 L 652 606 L 650 607 L 650 610 L 649 610 L 649 613 L 648 613 L 648 619 L 647 619 L 647 632 L 648 632 L 648 636 L 649 636 L 649 638 L 650 638 L 650 640 L 651 640 L 652 644 L 653 644 L 653 645 L 654 645 L 655 647 L 657 646 L 657 647 L 659 648 L 659 649 L 658 649 L 659 651 L 661 651 L 661 652 L 664 652 L 664 653 L 666 653 L 666 654 L 668 654 L 668 653 L 672 653 L 673 655 L 677 655 L 678 657 L 685 657 L 685 656 L 691 657 L 692 655 L 696 656 L 697 654 L 698 654 L 698 655 L 704 654 L 704 653 L 706 653 L 706 652 L 709 652 L 709 651 L 711 651 L 711 650 L 712 650 L 712 649 L 714 649 L 715 647 L 717 647 L 717 646 L 718 646 L 718 645 L 719 645 L 719 644 L 720 644 L 721 642 L 724 642 L 724 643 L 725 643 L 725 644 L 726 644 L 727 646 L 726 646 L 726 648 L 725 648 L 725 649 L 724 649 L 724 650 L 723 650 L 722 652 L 720 652 L 720 654 L 721 654 L 721 655 L 720 655 L 719 657 L 715 656 L 714 658 L 712 658 L 712 659 L 711 659 L 711 661 L 710 661 L 709 663 L 707 663 L 707 662 L 705 661 L 705 662 L 702 662 L 702 663 L 698 663 L 698 664 L 693 664 L 693 665 L 675 665 L 675 664 L 669 664 L 669 663 L 666 663 L 666 662 L 664 662 L 664 661 L 661 661 L 661 660 L 659 660 L 658 658 L 654 657 L 654 656 L 653 656 L 653 655 L 652 655 L 652 654 L 651 654 L 651 653 L 650 653 L 650 652 L 649 652 L 649 651 L 648 651 L 648 650 L 647 650 L 647 649 L 645 648 L 645 646 L 643 645 L 643 643 L 642 643 L 642 642 L 640 643 L 640 642 L 638 641 L 638 640 L 640 639 L 640 634 L 639 634 L 639 618 L 640 618 L 640 616 L 639 616 L 639 615 L 640 615 L 640 612 L 641 612 L 641 610 L 642 610 L 643 604 L 644 604 L 644 602 L 645 602 L 645 600 L 646 600 L 646 598 L 647 598 L 647 597 L 646 597 L 646 595 L 647 595 L 648 593 L 650 593 L 650 592 L 651 592 L 651 590 L 652 590 L 652 589 L 653 589 L 653 588 L 654 588 L 654 587 L 656 586 L 656 584 L 657 584 L 657 583 L 658 583 L 658 582 L 659 582 L 659 581 L 660 581 L 660 580 L 661 580 L 662 578 L 664 578 L 663 576 L 664 576 L 665 574 L 666 574 L 666 575 L 668 575 L 668 574 L 669 574 L 670 572 L 672 572 L 673 570 L 677 569 L 677 568 L 678 568 L 678 567 L 680 567 L 681 565 L 684 565 L 684 564 L 686 564 L 686 563 L 689 563 L 689 562 L 691 562 L 691 561 L 694 561 L 694 560 L 697 560 L 697 559 L 700 559 L 700 558 L 704 558 L 704 557 L 707 557 L 707 556 L 712 556 L 712 555 L 718 555 L 718 554 L 726 554 L 726 553 L 740 553 L 740 552 Z" />
  <path fill="#745742" fill-rule="evenodd" stroke="none" d="M 441 464 L 443 464 L 443 467 L 442 467 L 442 470 L 441 470 L 441 473 L 440 473 L 440 476 L 439 476 L 439 479 L 438 479 L 438 482 L 437 482 L 437 485 L 436 485 L 435 491 L 434 491 L 434 493 L 433 493 L 433 496 L 432 496 L 431 502 L 430 502 L 430 504 L 429 504 L 429 511 L 431 511 L 431 512 L 426 512 L 426 511 L 425 511 L 425 509 L 424 509 L 424 507 L 425 507 L 425 504 L 424 504 L 424 503 L 425 503 L 425 501 L 426 501 L 426 499 L 427 499 L 427 496 L 428 496 L 428 494 L 429 494 L 429 491 L 430 491 L 430 486 L 432 486 L 432 483 L 433 483 L 433 480 L 434 480 L 434 477 L 435 477 L 435 474 L 436 474 L 436 470 L 437 470 L 437 465 L 441 465 L 441 464 Z M 293 465 L 296 465 L 296 466 L 295 466 L 295 467 L 293 468 L 293 470 L 292 470 L 292 477 L 293 477 L 293 480 L 294 480 L 294 481 L 295 481 L 295 482 L 296 482 L 296 483 L 297 483 L 297 484 L 298 484 L 298 485 L 299 485 L 299 486 L 300 486 L 300 487 L 302 488 L 302 490 L 304 491 L 304 493 L 305 493 L 305 495 L 306 495 L 306 502 L 305 502 L 304 506 L 302 507 L 302 509 L 300 509 L 299 511 L 296 511 L 296 510 L 297 510 L 297 509 L 298 509 L 298 508 L 300 507 L 300 505 L 301 505 L 301 497 L 300 497 L 300 496 L 299 496 L 299 494 L 298 494 L 298 493 L 297 493 L 297 492 L 296 492 L 296 491 L 295 491 L 295 490 L 294 490 L 294 489 L 292 488 L 292 486 L 291 486 L 291 485 L 289 484 L 289 482 L 288 482 L 288 480 L 287 480 L 287 473 L 288 473 L 289 469 L 290 469 L 290 468 L 291 468 L 291 467 L 292 467 L 293 465 Z M 304 465 L 306 465 L 306 466 L 308 466 L 308 467 L 312 467 L 310 475 L 309 475 L 309 471 L 308 471 L 308 469 L 307 469 L 307 468 L 306 468 L 306 467 L 305 467 L 304 465 Z M 467 468 L 471 468 L 471 469 L 472 469 L 472 472 L 471 472 L 471 473 L 467 473 L 467 472 L 466 472 L 467 468 Z M 339 474 L 341 475 L 341 476 L 340 476 L 340 479 L 339 479 L 339 483 L 337 484 L 337 487 L 336 487 L 336 490 L 335 490 L 334 496 L 333 496 L 333 498 L 332 498 L 332 501 L 331 501 L 331 504 L 330 504 L 330 507 L 329 507 L 329 510 L 330 510 L 331 512 L 326 512 L 326 510 L 325 510 L 325 504 L 326 504 L 326 502 L 327 502 L 327 499 L 328 499 L 328 496 L 329 496 L 329 494 L 330 494 L 330 491 L 331 491 L 331 488 L 332 488 L 333 482 L 334 482 L 334 480 L 335 480 L 335 477 L 336 477 L 336 475 L 339 475 L 339 474 Z M 364 482 L 369 482 L 369 483 L 370 483 L 370 485 L 371 485 L 371 487 L 370 487 L 370 491 L 369 491 L 369 493 L 368 493 L 367 499 L 366 499 L 366 501 L 365 501 L 365 504 L 364 504 L 364 510 L 365 510 L 365 511 L 368 511 L 368 512 L 362 512 L 362 511 L 360 511 L 360 509 L 359 509 L 359 504 L 360 504 L 360 501 L 361 501 L 361 499 L 362 499 L 362 496 L 363 496 L 363 494 L 364 494 L 364 491 L 365 491 L 365 488 L 366 488 L 366 483 L 364 483 L 364 482 Z M 384 482 L 388 482 L 389 484 L 388 484 L 387 490 L 386 490 L 386 492 L 385 492 L 385 496 L 384 496 L 384 499 L 383 499 L 383 501 L 382 501 L 382 504 L 381 504 L 381 511 L 383 511 L 383 512 L 377 512 L 377 510 L 376 510 L 376 505 L 377 505 L 377 499 L 378 499 L 378 497 L 379 497 L 379 495 L 380 495 L 380 493 L 381 493 L 381 490 L 382 490 L 382 488 L 383 488 L 384 482 Z M 420 482 L 424 482 L 424 483 L 422 483 L 422 484 L 421 484 L 420 486 L 418 486 L 418 488 L 416 489 L 416 491 L 415 491 L 415 493 L 414 493 L 414 496 L 413 496 L 413 498 L 412 498 L 412 502 L 411 502 L 411 508 L 412 508 L 412 510 L 413 510 L 413 511 L 415 511 L 415 512 L 411 512 L 411 511 L 410 511 L 410 510 L 408 509 L 408 507 L 407 507 L 407 504 L 406 504 L 406 502 L 407 502 L 407 497 L 408 497 L 408 495 L 409 495 L 410 491 L 412 490 L 412 488 L 413 488 L 413 487 L 414 487 L 415 485 L 417 485 L 418 483 L 420 483 L 420 482 Z M 462 482 L 467 482 L 467 485 L 468 485 L 468 486 L 467 486 L 467 490 L 466 490 L 466 492 L 465 492 L 465 495 L 464 495 L 464 498 L 463 498 L 462 504 L 461 504 L 461 506 L 460 506 L 460 510 L 461 510 L 462 512 L 457 512 L 457 511 L 456 511 L 456 509 L 455 509 L 455 507 L 456 507 L 456 504 L 457 504 L 458 498 L 459 498 L 459 496 L 460 496 L 461 490 L 462 490 L 462 488 L 463 488 L 463 484 L 462 484 L 462 482 Z M 498 482 L 501 482 L 501 483 L 500 483 L 500 484 L 499 484 L 499 485 L 498 485 L 498 486 L 497 486 L 497 487 L 495 488 L 495 490 L 494 490 L 494 492 L 493 492 L 493 495 L 492 495 L 492 499 L 491 499 L 491 509 L 492 509 L 492 510 L 494 511 L 494 512 L 492 512 L 492 511 L 490 511 L 490 510 L 488 509 L 488 507 L 487 507 L 487 504 L 486 504 L 486 498 L 487 498 L 487 494 L 488 494 L 488 492 L 489 492 L 490 488 L 492 488 L 492 486 L 493 486 L 493 485 L 495 485 L 495 484 L 496 484 L 496 483 L 498 483 L 498 482 Z M 507 483 L 508 483 L 508 484 L 510 484 L 510 486 L 512 487 L 512 491 L 513 491 L 513 496 L 512 496 L 512 500 L 511 500 L 510 504 L 509 504 L 509 505 L 508 505 L 508 506 L 507 506 L 507 507 L 506 507 L 506 508 L 505 508 L 504 510 L 502 510 L 502 511 L 498 512 L 498 511 L 499 511 L 499 510 L 500 510 L 500 509 L 501 509 L 501 508 L 503 507 L 503 505 L 505 504 L 505 501 L 506 501 L 506 498 L 507 498 L 507 495 L 508 495 L 508 485 L 507 485 L 507 483 Z M 279 498 L 280 498 L 280 504 L 281 504 L 281 506 L 282 506 L 282 507 L 283 507 L 283 508 L 284 508 L 284 509 L 285 509 L 286 511 L 284 511 L 284 510 L 282 510 L 282 509 L 280 509 L 280 508 L 279 508 L 279 509 L 276 509 L 276 508 L 277 508 L 277 505 L 278 505 L 278 501 L 279 501 L 279 498 Z M 296 511 L 296 512 L 289 512 L 289 511 L 296 511 Z M 907 556 L 918 556 L 918 557 L 921 557 L 922 559 L 918 559 L 918 558 L 910 557 L 910 558 L 905 558 L 905 559 L 902 559 L 902 560 L 900 560 L 900 561 L 898 561 L 898 562 L 894 563 L 894 564 L 893 564 L 893 565 L 891 565 L 891 566 L 890 566 L 890 567 L 889 567 L 889 568 L 888 568 L 888 569 L 887 569 L 887 570 L 886 570 L 886 571 L 885 571 L 885 572 L 884 572 L 884 573 L 883 573 L 883 574 L 882 574 L 882 575 L 881 575 L 881 576 L 879 577 L 879 579 L 878 579 L 878 580 L 877 580 L 877 581 L 876 581 L 876 582 L 875 582 L 875 583 L 873 584 L 873 586 L 872 586 L 872 587 L 870 588 L 870 590 L 868 591 L 868 593 L 867 593 L 867 594 L 865 595 L 865 597 L 863 598 L 863 600 L 861 601 L 861 603 L 860 603 L 860 604 L 859 604 L 859 606 L 858 606 L 858 607 L 856 608 L 855 612 L 853 613 L 853 615 L 851 616 L 851 618 L 850 618 L 850 619 L 849 619 L 849 621 L 847 622 L 846 626 L 844 627 L 844 629 L 843 629 L 843 630 L 842 630 L 842 632 L 840 633 L 839 637 L 837 638 L 837 640 L 836 640 L 836 642 L 834 643 L 833 647 L 831 648 L 830 652 L 829 652 L 829 653 L 828 653 L 828 655 L 826 656 L 826 658 L 825 658 L 825 660 L 824 660 L 823 664 L 822 664 L 822 665 L 820 666 L 820 668 L 819 668 L 818 672 L 816 673 L 815 677 L 813 678 L 812 682 L 810 683 L 809 687 L 807 688 L 807 690 L 806 690 L 805 694 L 803 695 L 802 699 L 800 700 L 799 704 L 797 705 L 797 707 L 796 707 L 796 709 L 795 709 L 795 711 L 794 711 L 793 715 L 791 716 L 791 719 L 789 720 L 789 722 L 788 722 L 788 724 L 787 724 L 787 727 L 786 727 L 786 729 L 785 729 L 785 732 L 784 732 L 784 736 L 785 736 L 785 738 L 787 738 L 787 739 L 789 739 L 789 738 L 792 738 L 792 737 L 794 737 L 794 736 L 798 735 L 798 734 L 799 734 L 799 733 L 800 733 L 800 732 L 801 732 L 801 731 L 802 731 L 802 730 L 803 730 L 804 728 L 806 728 L 806 726 L 807 726 L 807 725 L 808 725 L 808 724 L 809 724 L 809 723 L 810 723 L 810 722 L 811 722 L 811 721 L 812 721 L 812 720 L 813 720 L 813 719 L 814 719 L 814 718 L 816 717 L 816 715 L 817 715 L 817 714 L 818 714 L 818 713 L 819 713 L 819 712 L 821 711 L 821 709 L 822 709 L 822 708 L 824 707 L 824 705 L 825 705 L 825 704 L 827 703 L 827 701 L 828 701 L 828 700 L 830 699 L 830 697 L 832 696 L 832 694 L 833 694 L 833 693 L 835 692 L 835 690 L 836 690 L 836 689 L 838 688 L 838 686 L 839 686 L 839 684 L 840 684 L 841 680 L 843 679 L 843 677 L 845 676 L 845 674 L 846 674 L 846 673 L 848 672 L 848 670 L 849 670 L 849 669 L 851 668 L 851 666 L 852 666 L 852 665 L 853 665 L 853 664 L 854 664 L 854 663 L 855 663 L 855 662 L 856 662 L 856 661 L 857 661 L 857 660 L 858 660 L 858 659 L 859 659 L 859 658 L 860 658 L 861 656 L 863 656 L 863 655 L 864 655 L 865 653 L 867 653 L 867 652 L 868 652 L 868 651 L 870 651 L 871 649 L 873 649 L 873 648 L 875 648 L 875 647 L 877 647 L 877 646 L 879 646 L 879 645 L 882 645 L 882 644 L 884 644 L 884 643 L 889 643 L 889 642 L 900 642 L 900 643 L 891 643 L 891 644 L 885 645 L 885 646 L 883 646 L 882 648 L 880 648 L 880 649 L 879 649 L 878 651 L 876 651 L 876 652 L 875 652 L 875 653 L 874 653 L 874 654 L 873 654 L 873 655 L 872 655 L 872 656 L 871 656 L 871 657 L 869 658 L 869 660 L 868 660 L 868 661 L 867 661 L 867 662 L 865 663 L 865 665 L 864 665 L 864 666 L 862 667 L 862 669 L 860 670 L 860 672 L 859 672 L 859 673 L 858 673 L 858 675 L 856 676 L 856 678 L 855 678 L 855 680 L 854 680 L 854 682 L 853 682 L 853 684 L 852 684 L 852 686 L 851 686 L 851 688 L 850 688 L 850 690 L 849 690 L 849 692 L 848 692 L 848 694 L 847 694 L 847 697 L 846 697 L 846 699 L 845 699 L 845 702 L 844 702 L 844 706 L 843 706 L 843 709 L 842 709 L 842 714 L 841 714 L 841 721 L 840 721 L 840 725 L 841 725 L 841 731 L 842 731 L 843 735 L 844 735 L 844 736 L 845 736 L 846 738 L 848 738 L 848 739 L 859 739 L 859 738 L 863 738 L 864 736 L 866 736 L 866 735 L 868 735 L 868 734 L 869 734 L 870 732 L 872 732 L 872 731 L 873 731 L 873 730 L 874 730 L 874 729 L 875 729 L 875 728 L 876 728 L 876 727 L 878 726 L 878 724 L 879 724 L 879 723 L 880 723 L 880 722 L 881 722 L 881 721 L 882 721 L 882 720 L 884 719 L 884 717 L 886 716 L 886 714 L 887 714 L 887 713 L 888 713 L 888 711 L 890 710 L 891 706 L 893 705 L 893 703 L 894 703 L 894 701 L 895 701 L 895 699 L 896 699 L 896 697 L 897 697 L 897 695 L 898 695 L 898 693 L 899 693 L 899 691 L 900 691 L 900 689 L 901 689 L 901 686 L 902 686 L 902 684 L 903 684 L 903 682 L 904 682 L 905 674 L 906 674 L 906 671 L 907 671 L 907 666 L 908 666 L 908 652 L 907 652 L 907 649 L 906 649 L 906 648 L 904 647 L 904 645 L 902 645 L 902 644 L 900 644 L 900 643 L 904 643 L 904 644 L 908 645 L 908 646 L 909 646 L 909 647 L 910 647 L 910 648 L 911 648 L 911 649 L 913 650 L 913 652 L 915 653 L 915 656 L 916 656 L 916 659 L 917 659 L 917 677 L 916 677 L 915 685 L 914 685 L 914 688 L 913 688 L 913 690 L 912 690 L 912 692 L 911 692 L 911 695 L 909 696 L 909 699 L 907 700 L 907 702 L 906 702 L 906 704 L 904 705 L 904 707 L 902 708 L 902 710 L 901 710 L 901 711 L 900 711 L 900 712 L 899 712 L 899 713 L 897 714 L 897 716 L 896 716 L 896 717 L 895 717 L 895 718 L 894 718 L 894 719 L 893 719 L 893 720 L 892 720 L 892 721 L 891 721 L 891 722 L 890 722 L 890 723 L 889 723 L 889 724 L 888 724 L 888 725 L 887 725 L 887 726 L 886 726 L 885 728 L 883 728 L 882 730 L 880 730 L 880 731 L 879 731 L 879 732 L 877 732 L 876 734 L 874 734 L 874 735 L 872 735 L 872 736 L 870 736 L 870 737 L 868 737 L 868 738 L 866 738 L 866 739 L 862 739 L 862 740 L 858 740 L 858 741 L 851 741 L 851 740 L 845 740 L 845 739 L 843 739 L 842 737 L 840 737 L 840 736 L 839 736 L 839 735 L 838 735 L 838 734 L 837 734 L 837 733 L 835 732 L 835 730 L 834 730 L 834 728 L 833 728 L 833 726 L 832 726 L 832 722 L 831 722 L 831 708 L 832 708 L 832 707 L 831 707 L 831 706 L 832 706 L 832 703 L 833 703 L 833 699 L 834 699 L 834 696 L 833 696 L 833 697 L 832 697 L 832 699 L 831 699 L 831 700 L 829 701 L 829 703 L 828 703 L 828 704 L 826 705 L 826 707 L 825 707 L 825 708 L 823 709 L 823 711 L 822 711 L 822 712 L 821 712 L 821 713 L 820 713 L 820 714 L 818 715 L 818 717 L 817 717 L 817 718 L 816 718 L 816 719 L 815 719 L 815 720 L 814 720 L 814 721 L 812 722 L 812 724 L 811 724 L 811 725 L 810 725 L 810 726 L 809 726 L 809 727 L 808 727 L 808 728 L 807 728 L 807 729 L 806 729 L 806 730 L 805 730 L 804 732 L 802 732 L 802 733 L 801 733 L 801 734 L 800 734 L 799 736 L 797 736 L 796 738 L 794 738 L 794 739 L 792 739 L 792 740 L 789 740 L 789 741 L 783 741 L 783 740 L 780 740 L 780 739 L 778 738 L 778 736 L 777 736 L 777 733 L 776 733 L 776 727 L 777 727 L 777 722 L 778 722 L 778 720 L 779 720 L 779 717 L 780 717 L 780 715 L 781 715 L 781 712 L 782 712 L 782 710 L 784 709 L 784 706 L 785 706 L 785 704 L 787 703 L 788 699 L 790 698 L 790 696 L 791 696 L 792 692 L 794 691 L 794 689 L 795 689 L 795 687 L 797 686 L 798 682 L 800 681 L 801 677 L 803 676 L 803 674 L 804 674 L 805 670 L 806 670 L 806 669 L 807 669 L 807 667 L 809 666 L 810 662 L 812 661 L 812 659 L 813 659 L 813 657 L 815 656 L 816 652 L 818 651 L 819 647 L 821 646 L 821 644 L 823 643 L 824 639 L 826 638 L 827 634 L 828 634 L 828 633 L 829 633 L 829 631 L 831 630 L 832 626 L 833 626 L 833 625 L 835 624 L 835 622 L 836 622 L 837 618 L 838 618 L 838 617 L 840 616 L 841 612 L 842 612 L 842 611 L 844 610 L 845 606 L 846 606 L 846 605 L 848 604 L 848 602 L 849 602 L 849 601 L 851 600 L 851 598 L 852 598 L 852 597 L 854 596 L 854 594 L 855 594 L 855 593 L 856 593 L 856 592 L 858 591 L 858 589 L 859 589 L 859 588 L 860 588 L 860 587 L 862 586 L 862 584 L 864 584 L 864 582 L 865 582 L 865 581 L 866 581 L 866 580 L 867 580 L 867 579 L 868 579 L 868 578 L 869 578 L 870 576 L 872 576 L 872 575 L 873 575 L 873 574 L 874 574 L 874 573 L 875 573 L 876 571 L 878 571 L 878 570 L 879 570 L 880 568 L 882 568 L 882 567 L 883 567 L 883 566 L 885 566 L 886 564 L 888 564 L 888 563 L 890 563 L 890 562 L 892 562 L 892 561 L 894 561 L 894 560 L 896 560 L 896 559 L 899 559 L 899 558 L 902 558 L 902 557 L 907 557 L 907 556 Z M 184 562 L 288 562 L 288 578 L 289 578 L 289 588 L 288 588 L 288 584 L 287 584 L 286 578 L 285 578 L 285 576 L 283 575 L 283 573 L 282 573 L 282 572 L 281 572 L 280 570 L 278 570 L 277 568 L 275 568 L 275 567 L 272 567 L 272 566 L 270 566 L 270 565 L 264 565 L 264 564 L 214 564 L 214 567 L 213 567 L 213 648 L 253 648 L 253 647 L 256 647 L 256 646 L 260 645 L 260 644 L 261 644 L 261 643 L 262 643 L 262 642 L 264 641 L 264 639 L 265 639 L 265 636 L 266 636 L 266 630 L 267 630 L 267 628 L 268 628 L 268 672 L 267 672 L 267 669 L 266 669 L 266 664 L 265 664 L 265 660 L 264 660 L 264 658 L 263 658 L 263 657 L 262 657 L 262 656 L 261 656 L 260 654 L 258 654 L 258 653 L 256 653 L 256 652 L 253 652 L 253 651 L 213 651 L 213 722 L 214 722 L 214 728 L 215 728 L 215 729 L 216 729 L 216 731 L 218 731 L 219 733 L 221 733 L 221 734 L 228 734 L 228 736 L 184 736 L 184 734 L 192 734 L 192 733 L 196 732 L 196 731 L 198 730 L 198 728 L 199 728 L 199 723 L 200 723 L 200 575 L 199 575 L 199 571 L 198 571 L 198 568 L 197 568 L 197 567 L 196 567 L 195 565 L 193 565 L 193 564 L 189 564 L 189 563 L 184 563 L 184 562 Z M 806 575 L 810 575 L 810 576 L 808 576 L 808 577 L 806 577 L 806 578 L 802 579 L 802 580 L 801 580 L 801 581 L 800 581 L 800 582 L 799 582 L 799 583 L 798 583 L 798 584 L 797 584 L 797 585 L 796 585 L 796 586 L 795 586 L 795 587 L 794 587 L 794 588 L 793 588 L 793 589 L 792 589 L 792 590 L 790 591 L 790 593 L 789 593 L 789 594 L 787 595 L 787 597 L 785 598 L 785 600 L 783 601 L 783 603 L 782 603 L 782 604 L 781 604 L 781 606 L 779 607 L 778 611 L 776 612 L 775 616 L 773 617 L 772 621 L 771 621 L 771 622 L 770 622 L 770 624 L 768 625 L 768 627 L 767 627 L 766 631 L 764 632 L 763 636 L 761 637 L 761 639 L 760 639 L 759 643 L 757 644 L 756 648 L 754 649 L 754 651 L 770 651 L 770 652 L 780 652 L 780 651 L 786 651 L 786 650 L 789 650 L 789 649 L 790 649 L 790 651 L 788 651 L 788 652 L 787 652 L 786 654 L 784 654 L 784 655 L 782 655 L 782 656 L 780 656 L 780 657 L 778 657 L 778 656 L 770 656 L 770 655 L 764 655 L 764 654 L 752 654 L 752 655 L 750 656 L 750 658 L 749 658 L 748 662 L 746 663 L 746 665 L 745 665 L 744 669 L 742 670 L 742 672 L 740 673 L 739 677 L 737 678 L 736 682 L 735 682 L 735 683 L 734 683 L 734 685 L 733 685 L 733 686 L 731 687 L 731 689 L 729 690 L 729 692 L 728 692 L 728 693 L 726 694 L 726 696 L 724 697 L 724 699 L 723 699 L 723 700 L 722 700 L 722 701 L 720 702 L 720 704 L 719 704 L 719 705 L 718 705 L 718 706 L 717 706 L 717 707 L 715 708 L 715 710 L 714 710 L 714 711 L 713 711 L 713 712 L 712 712 L 712 713 L 711 713 L 711 714 L 710 714 L 710 715 L 709 715 L 709 716 L 708 716 L 708 717 L 707 717 L 707 718 L 706 718 L 706 719 L 705 719 L 705 720 L 704 720 L 704 721 L 703 721 L 703 722 L 702 722 L 701 724 L 699 724 L 699 725 L 698 725 L 698 726 L 697 726 L 696 728 L 694 728 L 694 729 L 693 729 L 692 731 L 690 731 L 689 733 L 687 733 L 686 735 L 684 735 L 684 736 L 682 736 L 682 737 L 680 737 L 680 738 L 678 738 L 678 739 L 675 739 L 675 740 L 673 740 L 673 741 L 670 741 L 670 742 L 667 742 L 667 743 L 664 743 L 664 744 L 659 744 L 659 745 L 650 745 L 650 746 L 640 746 L 640 745 L 634 745 L 634 744 L 629 744 L 629 743 L 626 743 L 626 742 L 624 742 L 624 741 L 620 740 L 619 738 L 617 738 L 617 737 L 616 737 L 616 736 L 615 736 L 615 735 L 614 735 L 614 734 L 613 734 L 613 733 L 611 732 L 611 730 L 609 729 L 609 727 L 608 727 L 608 725 L 607 725 L 607 721 L 606 721 L 606 708 L 607 708 L 607 705 L 608 705 L 609 703 L 611 703 L 611 707 L 610 707 L 610 711 L 609 711 L 609 722 L 610 722 L 611 728 L 613 729 L 613 731 L 614 731 L 614 732 L 615 732 L 615 733 L 616 733 L 616 734 L 617 734 L 617 735 L 618 735 L 619 737 L 621 737 L 622 739 L 624 739 L 624 740 L 626 740 L 626 741 L 629 741 L 629 742 L 632 742 L 632 743 L 636 743 L 636 744 L 654 744 L 654 743 L 659 743 L 659 742 L 662 742 L 662 741 L 668 740 L 668 739 L 670 739 L 670 738 L 672 738 L 672 737 L 676 736 L 676 735 L 677 735 L 678 733 L 680 733 L 680 732 L 681 732 L 682 730 L 684 730 L 684 729 L 685 729 L 685 728 L 686 728 L 686 727 L 687 727 L 688 725 L 690 725 L 690 723 L 691 723 L 691 722 L 692 722 L 693 720 L 695 720 L 695 719 L 696 719 L 696 717 L 697 717 L 697 716 L 698 716 L 698 715 L 699 715 L 699 714 L 701 713 L 701 711 L 702 711 L 702 710 L 704 709 L 704 707 L 705 707 L 705 706 L 706 706 L 706 705 L 708 704 L 708 702 L 710 701 L 710 699 L 711 699 L 711 698 L 712 698 L 712 697 L 714 696 L 715 692 L 717 691 L 717 689 L 718 689 L 718 688 L 719 688 L 719 686 L 721 685 L 722 681 L 724 680 L 724 678 L 725 678 L 725 677 L 726 677 L 726 675 L 728 674 L 728 672 L 729 672 L 729 670 L 731 669 L 732 665 L 734 664 L 734 662 L 735 662 L 735 660 L 736 660 L 737 656 L 739 655 L 739 654 L 730 654 L 730 655 L 726 655 L 726 654 L 728 654 L 728 653 L 730 653 L 730 652 L 738 652 L 738 651 L 741 651 L 741 649 L 742 649 L 742 648 L 743 648 L 743 646 L 745 645 L 746 641 L 748 640 L 749 636 L 751 635 L 752 631 L 754 630 L 754 628 L 755 628 L 756 624 L 757 624 L 757 623 L 758 623 L 758 621 L 760 620 L 761 616 L 762 616 L 762 615 L 764 614 L 765 610 L 766 610 L 766 609 L 768 608 L 768 606 L 769 606 L 769 605 L 771 604 L 771 602 L 772 602 L 772 601 L 773 601 L 773 600 L 774 600 L 774 599 L 776 598 L 776 596 L 777 596 L 777 595 L 778 595 L 778 594 L 779 594 L 779 593 L 780 593 L 780 592 L 781 592 L 782 590 L 784 590 L 784 589 L 785 589 L 785 588 L 786 588 L 786 587 L 787 587 L 787 586 L 788 586 L 789 584 L 791 584 L 792 582 L 794 582 L 794 581 L 796 581 L 796 580 L 798 580 L 798 579 L 800 579 L 801 577 L 803 577 L 803 576 L 806 576 L 806 575 Z M 320 588 L 328 588 L 328 589 L 329 589 L 329 590 L 330 590 L 330 591 L 332 592 L 332 600 L 331 600 L 331 601 L 330 601 L 329 603 L 326 603 L 326 604 L 322 604 L 322 603 L 318 602 L 318 600 L 316 599 L 316 593 L 317 593 L 317 591 L 318 591 L 318 590 L 319 590 L 320 588 Z M 562 608 L 564 608 L 564 632 L 591 632 L 591 634 L 590 634 L 590 635 L 589 635 L 589 634 L 585 634 L 585 635 L 584 635 L 584 634 L 567 634 L 567 635 L 566 635 L 566 634 L 564 634 L 564 721 L 565 721 L 566 727 L 568 728 L 568 730 L 570 730 L 570 731 L 571 731 L 571 732 L 573 732 L 573 733 L 576 733 L 576 734 L 581 734 L 581 733 L 585 733 L 585 732 L 587 732 L 588 730 L 590 730 L 590 729 L 592 728 L 592 726 L 593 726 L 593 725 L 595 724 L 594 728 L 593 728 L 593 729 L 592 729 L 592 730 L 591 730 L 591 731 L 590 731 L 590 732 L 589 732 L 588 734 L 586 734 L 585 736 L 582 736 L 582 737 L 578 737 L 578 738 L 568 738 L 568 737 L 562 736 L 562 735 L 560 735 L 560 734 L 559 734 L 559 733 L 558 733 L 558 732 L 557 732 L 557 731 L 555 730 L 555 728 L 554 728 L 554 726 L 553 726 L 553 722 L 552 722 L 552 635 L 551 635 L 551 634 L 537 634 L 538 632 L 546 631 L 547 629 L 549 629 L 550 627 L 552 627 L 552 626 L 553 626 L 553 625 L 554 625 L 554 624 L 555 624 L 555 623 L 556 623 L 556 622 L 558 621 L 558 619 L 559 619 L 559 618 L 560 618 L 560 616 L 561 616 L 562 608 Z M 416 630 L 426 631 L 426 632 L 429 632 L 430 634 L 432 634 L 432 635 L 434 636 L 434 638 L 435 638 L 435 646 L 434 646 L 434 647 L 433 647 L 432 649 L 425 649 L 425 648 L 423 647 L 423 643 L 422 643 L 422 640 L 421 640 L 420 638 L 418 638 L 418 637 L 416 637 L 416 636 L 407 636 L 407 637 L 404 637 L 403 639 L 399 640 L 399 641 L 398 641 L 398 642 L 396 643 L 396 645 L 395 645 L 395 646 L 393 647 L 393 649 L 392 649 L 392 651 L 391 651 L 391 653 L 390 653 L 390 656 L 389 656 L 389 658 L 388 658 L 388 722 L 389 722 L 389 728 L 390 728 L 390 730 L 391 730 L 391 732 L 392 732 L 392 733 L 394 733 L 394 734 L 401 734 L 402 736 L 362 736 L 363 734 L 370 734 L 370 733 L 372 733 L 372 732 L 374 731 L 374 729 L 375 729 L 375 724 L 376 724 L 376 645 L 375 645 L 375 641 L 374 641 L 374 640 L 373 640 L 372 638 L 370 638 L 370 637 L 364 637 L 363 635 L 370 635 L 370 634 L 376 634 L 376 633 L 381 633 L 381 632 L 386 632 L 386 631 L 387 631 L 387 632 L 388 632 L 388 653 L 389 653 L 390 649 L 392 648 L 393 644 L 395 643 L 395 641 L 396 641 L 397 639 L 399 639 L 399 638 L 400 638 L 400 637 L 401 637 L 402 635 L 404 635 L 404 634 L 406 634 L 406 633 L 408 633 L 408 632 L 411 632 L 411 631 L 416 631 L 416 630 Z M 482 630 L 491 630 L 491 631 L 498 631 L 498 632 L 502 632 L 502 633 L 506 633 L 506 634 L 509 634 L 509 635 L 512 635 L 512 636 L 514 636 L 514 650 L 515 650 L 515 657 L 513 656 L 513 651 L 512 651 L 512 648 L 511 648 L 511 646 L 509 645 L 509 643 L 508 643 L 508 642 L 507 642 L 507 641 L 506 641 L 506 640 L 505 640 L 505 639 L 504 639 L 504 638 L 503 638 L 503 637 L 502 637 L 501 635 L 498 635 L 498 634 L 496 634 L 496 633 L 492 633 L 492 632 L 479 632 L 479 633 L 473 634 L 473 635 L 469 636 L 469 637 L 468 637 L 468 638 L 467 638 L 467 639 L 465 640 L 465 642 L 463 643 L 463 646 L 462 646 L 462 657 L 463 657 L 463 660 L 464 660 L 464 662 L 465 662 L 465 663 L 466 663 L 466 664 L 467 664 L 467 665 L 468 665 L 468 666 L 469 666 L 470 668 L 474 669 L 474 670 L 475 670 L 475 671 L 477 671 L 477 672 L 480 672 L 480 673 L 482 673 L 482 674 L 484 674 L 484 675 L 490 676 L 490 677 L 492 677 L 492 678 L 494 678 L 494 679 L 496 679 L 496 680 L 499 680 L 499 681 L 501 681 L 501 682 L 503 682 L 503 683 L 507 684 L 508 686 L 510 686 L 510 687 L 511 687 L 511 688 L 512 688 L 512 689 L 513 689 L 513 690 L 514 690 L 514 691 L 515 691 L 515 692 L 516 692 L 516 693 L 518 694 L 518 696 L 519 696 L 519 698 L 520 698 L 520 702 L 521 702 L 521 715 L 520 715 L 520 719 L 519 719 L 519 721 L 517 722 L 517 724 L 515 725 L 515 727 L 514 727 L 514 728 L 513 728 L 513 729 L 512 729 L 511 731 L 509 731 L 508 733 L 506 733 L 506 734 L 504 734 L 504 735 L 502 735 L 502 736 L 499 736 L 499 737 L 495 737 L 495 738 L 475 738 L 475 737 L 470 737 L 470 736 L 462 735 L 462 734 L 459 734 L 459 733 L 456 733 L 456 732 L 453 732 L 453 731 L 452 731 L 452 712 L 451 712 L 451 708 L 453 709 L 453 713 L 454 713 L 454 716 L 455 716 L 455 718 L 456 718 L 456 721 L 458 722 L 458 724 L 459 724 L 459 725 L 460 725 L 460 726 L 461 726 L 461 727 L 462 727 L 462 728 L 463 728 L 463 729 L 464 729 L 465 731 L 467 731 L 468 733 L 470 733 L 470 734 L 472 734 L 472 735 L 476 735 L 476 736 L 484 736 L 484 737 L 487 737 L 487 736 L 495 736 L 495 735 L 498 735 L 498 734 L 500 734 L 500 733 L 504 732 L 504 731 L 505 731 L 505 730 L 506 730 L 506 729 L 508 728 L 508 726 L 510 725 L 510 723 L 511 723 L 511 720 L 512 720 L 512 708 L 511 708 L 511 706 L 510 706 L 509 702 L 508 702 L 508 701 L 507 701 L 507 700 L 506 700 L 506 699 L 505 699 L 505 698 L 504 698 L 503 696 L 501 696 L 500 694 L 498 694 L 498 693 L 496 693 L 496 692 L 494 692 L 494 691 L 492 691 L 492 690 L 489 690 L 489 689 L 487 689 L 487 688 L 484 688 L 484 687 L 482 687 L 482 686 L 480 686 L 480 685 L 477 685 L 477 684 L 475 684 L 475 683 L 472 683 L 472 682 L 470 682 L 469 680 L 465 679 L 465 678 L 464 678 L 464 677 L 463 677 L 463 676 L 462 676 L 462 675 L 461 675 L 461 674 L 460 674 L 460 673 L 459 673 L 459 672 L 458 672 L 458 671 L 456 670 L 456 667 L 455 667 L 455 664 L 454 664 L 454 660 L 453 660 L 453 654 L 454 654 L 454 650 L 455 650 L 455 648 L 456 648 L 456 645 L 458 644 L 458 642 L 459 642 L 459 641 L 460 641 L 460 640 L 461 640 L 461 639 L 462 639 L 463 637 L 465 637 L 465 636 L 466 636 L 466 635 L 468 635 L 469 633 L 472 633 L 472 632 L 476 632 L 476 631 L 482 631 L 482 630 Z M 324 632 L 331 632 L 331 728 L 333 729 L 333 731 L 334 731 L 334 732 L 335 732 L 336 734 L 344 734 L 344 736 L 304 736 L 304 735 L 306 735 L 306 734 L 312 734 L 312 733 L 314 733 L 314 732 L 315 732 L 315 731 L 317 730 L 317 728 L 318 728 L 318 720 L 319 720 L 319 648 L 318 648 L 318 643 L 317 643 L 317 640 L 316 640 L 315 638 L 313 638 L 313 637 L 306 637 L 306 635 L 312 635 L 312 634 L 318 634 L 318 633 L 324 633 L 324 632 Z M 1089 640 L 1092 640 L 1092 641 L 1097 641 L 1097 642 L 1099 642 L 1100 644 L 1102 644 L 1102 646 L 1104 647 L 1104 649 L 1105 649 L 1105 651 L 1106 651 L 1106 664 L 1105 664 L 1104 670 L 1103 670 L 1103 671 L 1101 672 L 1101 674 L 1100 674 L 1099 676 L 1095 677 L 1095 678 L 1089 678 L 1089 675 L 1090 675 L 1090 674 L 1092 674 L 1092 673 L 1094 672 L 1094 670 L 1096 669 L 1096 667 L 1098 666 L 1098 664 L 1099 664 L 1099 661 L 1100 661 L 1100 656 L 1101 656 L 1101 652 L 1100 652 L 1100 648 L 1099 648 L 1099 646 L 1098 646 L 1098 645 L 1096 645 L 1095 643 L 1092 643 L 1092 642 L 1088 642 L 1088 643 L 1084 643 L 1084 644 L 1081 644 L 1081 645 L 1079 645 L 1078 647 L 1076 647 L 1076 648 L 1075 648 L 1075 649 L 1074 649 L 1073 651 L 1071 651 L 1071 653 L 1069 653 L 1069 655 L 1068 655 L 1068 656 L 1066 656 L 1066 658 L 1064 659 L 1064 661 L 1063 661 L 1063 662 L 1062 662 L 1062 663 L 1060 664 L 1060 666 L 1059 666 L 1059 667 L 1057 668 L 1056 672 L 1055 672 L 1055 673 L 1053 674 L 1052 678 L 1051 678 L 1051 679 L 1050 679 L 1050 681 L 1048 682 L 1047 686 L 1045 687 L 1044 691 L 1042 692 L 1041 696 L 1039 697 L 1039 699 L 1037 700 L 1037 702 L 1036 702 L 1035 706 L 1033 707 L 1032 711 L 1030 712 L 1030 714 L 1029 714 L 1029 716 L 1028 716 L 1027 720 L 1025 721 L 1025 723 L 1024 723 L 1023 727 L 1021 728 L 1021 730 L 1020 730 L 1020 732 L 1019 732 L 1018 736 L 1016 736 L 1016 739 L 1008 739 L 1008 740 L 1007 740 L 1007 739 L 1005 739 L 1005 740 L 1004 740 L 1004 739 L 1003 739 L 1003 737 L 1005 736 L 1006 732 L 1008 731 L 1008 729 L 1009 729 L 1010 725 L 1012 724 L 1012 722 L 1013 722 L 1014 718 L 1016 717 L 1016 715 L 1017 715 L 1018 711 L 1020 710 L 1020 708 L 1021 708 L 1022 704 L 1024 703 L 1024 701 L 1025 701 L 1026 697 L 1028 696 L 1028 694 L 1029 694 L 1030 690 L 1032 689 L 1032 687 L 1033 687 L 1034 683 L 1036 682 L 1036 680 L 1037 680 L 1038 676 L 1040 675 L 1040 673 L 1041 673 L 1041 671 L 1042 671 L 1043 667 L 1045 666 L 1045 664 L 1046 664 L 1046 662 L 1047 662 L 1047 660 L 1048 660 L 1048 658 L 1049 658 L 1049 656 L 1050 656 L 1050 654 L 1051 654 L 1051 651 L 1052 651 L 1052 645 L 1051 645 L 1051 644 L 1048 644 L 1048 645 L 1045 645 L 1044 647 L 1042 647 L 1042 648 L 1041 648 L 1041 649 L 1040 649 L 1040 650 L 1039 650 L 1039 651 L 1038 651 L 1038 652 L 1037 652 L 1037 653 L 1035 654 L 1035 656 L 1033 656 L 1033 658 L 1032 658 L 1032 659 L 1030 660 L 1030 662 L 1029 662 L 1029 663 L 1027 664 L 1027 666 L 1026 666 L 1026 667 L 1024 668 L 1024 670 L 1022 671 L 1022 673 L 1020 674 L 1020 676 L 1018 677 L 1018 679 L 1016 680 L 1016 682 L 1015 682 L 1015 683 L 1013 683 L 1013 682 L 1014 682 L 1014 680 L 1016 679 L 1016 677 L 1017 677 L 1017 675 L 1018 675 L 1018 674 L 1020 673 L 1020 671 L 1021 671 L 1021 670 L 1023 669 L 1024 665 L 1025 665 L 1025 664 L 1026 664 L 1026 663 L 1028 662 L 1028 660 L 1029 660 L 1029 659 L 1031 658 L 1031 656 L 1032 656 L 1032 655 L 1033 655 L 1033 654 L 1034 654 L 1034 653 L 1035 653 L 1035 652 L 1036 652 L 1036 651 L 1037 651 L 1037 650 L 1038 650 L 1038 649 L 1039 649 L 1039 648 L 1040 648 L 1040 647 L 1041 647 L 1042 645 L 1044 645 L 1045 643 L 1048 643 L 1048 642 L 1055 642 L 1055 643 L 1056 643 L 1056 644 L 1057 644 L 1057 645 L 1059 646 L 1059 650 L 1060 650 L 1060 654 L 1059 654 L 1059 659 L 1058 659 L 1058 661 L 1057 661 L 1057 664 L 1056 664 L 1056 666 L 1055 666 L 1055 668 L 1054 668 L 1054 670 L 1055 670 L 1055 669 L 1056 669 L 1056 667 L 1058 666 L 1058 664 L 1059 664 L 1059 663 L 1061 662 L 1061 660 L 1062 660 L 1062 659 L 1064 658 L 1064 656 L 1065 656 L 1065 655 L 1066 655 L 1066 654 L 1067 654 L 1067 653 L 1068 653 L 1068 652 L 1069 652 L 1069 651 L 1070 651 L 1070 650 L 1071 650 L 1071 649 L 1072 649 L 1072 648 L 1073 648 L 1074 646 L 1076 646 L 1077 644 L 1079 644 L 1079 643 L 1081 643 L 1081 642 L 1084 642 L 1084 641 L 1089 641 L 1089 640 Z M 978 642 L 992 642 L 992 643 L 995 643 L 996 645 L 1000 646 L 1000 648 L 1002 648 L 1002 650 L 1004 651 L 1004 653 L 1005 653 L 1005 655 L 1006 655 L 1006 659 L 1007 659 L 1007 678 L 1006 678 L 1006 682 L 1005 682 L 1005 685 L 1004 685 L 1003 691 L 1002 691 L 1002 693 L 1001 693 L 1001 695 L 1000 695 L 1000 697 L 999 697 L 998 701 L 996 702 L 996 704 L 995 704 L 995 705 L 994 705 L 994 707 L 992 708 L 992 710 L 991 710 L 991 711 L 990 711 L 990 712 L 988 713 L 988 715 L 987 715 L 987 716 L 986 716 L 986 717 L 985 717 L 985 718 L 984 718 L 984 719 L 983 719 L 983 720 L 982 720 L 982 721 L 981 721 L 981 722 L 980 722 L 980 723 L 979 723 L 979 724 L 978 724 L 978 725 L 977 725 L 977 726 L 976 726 L 975 728 L 973 728 L 973 729 L 972 729 L 971 731 L 969 731 L 968 733 L 966 733 L 966 734 L 964 734 L 964 735 L 962 735 L 962 736 L 960 736 L 960 737 L 958 737 L 958 738 L 952 739 L 952 740 L 946 740 L 946 741 L 942 741 L 942 740 L 936 740 L 936 739 L 932 738 L 931 736 L 929 736 L 929 735 L 928 735 L 928 734 L 926 733 L 926 731 L 925 731 L 925 730 L 924 730 L 924 728 L 923 728 L 923 725 L 922 725 L 922 721 L 921 721 L 921 707 L 922 707 L 922 702 L 923 702 L 923 699 L 924 699 L 925 693 L 926 693 L 926 691 L 927 691 L 927 688 L 928 688 L 929 684 L 931 683 L 932 679 L 934 678 L 935 674 L 936 674 L 936 673 L 938 672 L 938 670 L 939 670 L 939 669 L 941 668 L 941 666 L 942 666 L 942 665 L 943 665 L 943 664 L 944 664 L 944 663 L 945 663 L 945 662 L 946 662 L 946 661 L 947 661 L 947 660 L 948 660 L 948 659 L 949 659 L 949 658 L 950 658 L 951 656 L 953 656 L 953 655 L 954 655 L 955 653 L 957 653 L 957 652 L 958 652 L 959 650 L 961 650 L 961 649 L 965 648 L 966 646 L 969 646 L 969 645 L 971 645 L 971 644 L 974 644 L 974 643 L 978 643 L 978 642 Z M 983 643 L 982 643 L 982 644 L 978 644 L 978 645 L 976 645 L 976 646 L 973 646 L 972 648 L 970 648 L 970 649 L 969 649 L 968 651 L 966 651 L 966 652 L 965 652 L 965 653 L 964 653 L 964 654 L 963 654 L 963 655 L 962 655 L 962 656 L 960 657 L 960 659 L 959 659 L 959 660 L 958 660 L 958 661 L 957 661 L 957 662 L 955 663 L 955 665 L 954 665 L 954 666 L 952 667 L 952 669 L 950 670 L 949 674 L 948 674 L 948 675 L 947 675 L 947 677 L 945 678 L 945 680 L 944 680 L 944 682 L 943 682 L 943 684 L 942 684 L 942 686 L 941 686 L 941 688 L 940 688 L 940 690 L 939 690 L 939 692 L 938 692 L 938 694 L 937 694 L 937 696 L 936 696 L 936 699 L 935 699 L 935 703 L 934 703 L 934 706 L 933 706 L 933 710 L 932 710 L 932 715 L 931 715 L 931 729 L 932 729 L 932 733 L 933 733 L 933 735 L 934 735 L 934 736 L 936 736 L 936 738 L 939 738 L 939 739 L 949 739 L 949 738 L 952 738 L 952 737 L 954 737 L 954 736 L 958 735 L 958 734 L 959 734 L 959 733 L 960 733 L 961 731 L 963 731 L 963 730 L 964 730 L 964 729 L 965 729 L 965 728 L 966 728 L 966 727 L 968 726 L 968 724 L 969 724 L 969 723 L 970 723 L 970 722 L 971 722 L 971 721 L 973 720 L 973 718 L 974 718 L 974 717 L 976 716 L 976 714 L 977 714 L 977 713 L 979 712 L 979 710 L 980 710 L 981 706 L 983 705 L 983 703 L 984 703 L 984 701 L 985 701 L 985 699 L 986 699 L 986 697 L 987 697 L 987 695 L 988 695 L 988 693 L 989 693 L 989 691 L 990 691 L 990 689 L 991 689 L 991 687 L 992 687 L 992 684 L 993 684 L 993 681 L 994 681 L 994 678 L 995 678 L 995 675 L 996 675 L 996 672 L 997 672 L 997 667 L 998 667 L 998 652 L 997 652 L 997 649 L 996 649 L 996 647 L 995 647 L 994 645 L 992 645 L 992 644 L 990 644 L 990 643 L 983 643 Z M 557 810 L 559 810 L 559 811 L 562 811 L 562 812 L 564 812 L 564 815 L 562 815 L 561 813 L 555 813 L 555 814 L 554 814 L 554 818 L 556 818 L 556 819 L 558 819 L 558 820 L 561 820 L 561 821 L 563 821 L 563 822 L 565 823 L 565 825 L 566 825 L 566 828 L 565 828 L 565 830 L 564 830 L 563 832 L 554 832 L 554 831 L 552 831 L 552 829 L 551 829 L 551 827 L 554 827 L 554 829 L 556 829 L 556 830 L 561 830 L 561 829 L 563 828 L 563 824 L 561 824 L 561 823 L 559 823 L 559 822 L 555 822 L 555 821 L 554 821 L 554 820 L 552 820 L 552 818 L 551 818 L 551 815 L 552 815 L 552 813 L 553 813 L 554 811 L 557 811 L 557 810 Z M 646 810 L 648 810 L 648 811 L 652 811 L 653 813 L 655 813 L 655 814 L 656 814 L 656 816 L 653 816 L 653 815 L 652 815 L 651 813 L 644 813 L 644 814 L 642 814 L 642 815 L 640 816 L 640 818 L 639 818 L 639 825 L 640 825 L 640 827 L 642 827 L 642 828 L 643 828 L 643 829 L 645 829 L 645 830 L 650 830 L 650 829 L 652 829 L 652 828 L 653 828 L 654 826 L 656 826 L 656 828 L 655 828 L 655 829 L 654 829 L 654 830 L 653 830 L 652 832 L 643 832 L 643 831 L 641 831 L 641 830 L 640 830 L 640 829 L 639 829 L 639 828 L 637 827 L 637 824 L 636 824 L 636 819 L 637 819 L 637 816 L 638 816 L 638 814 L 639 814 L 640 812 L 642 812 L 642 811 L 646 811 L 646 810 Z M 677 810 L 685 812 L 685 813 L 686 813 L 686 814 L 688 815 L 688 817 L 689 817 L 689 825 L 688 825 L 687 829 L 686 829 L 686 830 L 684 830 L 683 832 L 674 832 L 674 831 L 672 831 L 672 830 L 671 830 L 671 829 L 669 828 L 669 826 L 668 826 L 668 822 L 667 822 L 667 820 L 668 820 L 668 816 L 670 815 L 670 813 L 672 813 L 673 811 L 677 811 L 677 810 Z M 737 810 L 745 812 L 747 816 L 744 816 L 744 815 L 743 815 L 743 814 L 741 814 L 741 813 L 735 813 L 735 814 L 733 814 L 733 815 L 731 816 L 731 818 L 730 818 L 730 824 L 731 824 L 732 828 L 734 828 L 734 829 L 736 829 L 736 830 L 740 830 L 740 829 L 744 828 L 745 826 L 747 826 L 747 828 L 746 828 L 746 829 L 745 829 L 744 831 L 742 831 L 742 832 L 734 832 L 734 831 L 732 831 L 732 830 L 731 830 L 731 829 L 729 828 L 729 826 L 728 826 L 728 817 L 729 817 L 729 815 L 730 815 L 730 814 L 731 814 L 731 813 L 732 813 L 733 811 L 737 811 L 737 810 Z M 760 810 L 762 811 L 762 820 L 772 820 L 772 819 L 773 819 L 773 811 L 775 811 L 775 832 L 773 832 L 773 823 L 772 823 L 772 822 L 762 822 L 762 832 L 759 832 L 759 812 L 760 812 L 760 810 Z M 842 810 L 844 810 L 844 811 L 848 811 L 849 813 L 851 813 L 851 814 L 852 814 L 852 817 L 850 817 L 850 816 L 849 816 L 848 814 L 846 814 L 846 813 L 839 813 L 839 814 L 838 814 L 838 815 L 836 815 L 836 817 L 835 817 L 835 826 L 836 826 L 836 827 L 837 827 L 838 829 L 840 829 L 840 830 L 845 830 L 845 829 L 848 829 L 848 828 L 850 827 L 850 824 L 843 824 L 843 822 L 853 822 L 853 827 L 852 827 L 852 828 L 851 828 L 851 829 L 850 829 L 849 831 L 847 831 L 847 832 L 838 832 L 838 831 L 837 831 L 836 829 L 834 829 L 834 828 L 833 828 L 833 825 L 832 825 L 832 818 L 833 818 L 833 815 L 834 815 L 834 814 L 835 814 L 836 812 L 838 812 L 838 811 L 842 811 L 842 810 Z M 412 811 L 422 811 L 422 812 L 424 812 L 424 814 L 425 814 L 425 820 L 424 820 L 424 821 L 423 821 L 422 823 L 414 823 L 414 832 L 412 832 L 412 811 Z M 437 811 L 439 811 L 439 832 L 437 832 L 437 811 Z M 453 811 L 455 811 L 455 830 L 463 830 L 463 832 L 452 832 L 452 812 L 453 812 L 453 811 Z M 482 811 L 484 811 L 484 813 L 485 813 L 485 816 L 486 816 L 486 818 L 487 818 L 487 820 L 488 820 L 488 823 L 489 823 L 489 825 L 490 825 L 490 827 L 491 827 L 491 830 L 492 830 L 492 832 L 489 832 L 489 829 L 488 829 L 488 827 L 487 827 L 487 826 L 481 826 L 481 827 L 479 826 L 479 827 L 477 828 L 477 831 L 476 831 L 476 832 L 474 832 L 475 826 L 476 826 L 476 824 L 477 824 L 477 821 L 478 821 L 478 819 L 479 819 L 479 817 L 480 817 L 480 814 L 481 814 L 481 812 L 482 812 L 482 811 Z M 501 811 L 515 811 L 515 813 L 509 813 L 509 832 L 507 832 L 507 813 L 501 813 L 501 811 Z M 527 811 L 539 811 L 539 813 L 529 813 L 529 820 L 539 820 L 539 822 L 529 822 L 529 829 L 530 829 L 530 830 L 539 830 L 539 832 L 527 832 L 527 830 L 526 830 L 526 812 L 527 812 L 527 811 Z M 596 811 L 603 811 L 603 812 L 604 812 L 604 817 L 603 817 L 603 818 L 601 819 L 601 821 L 603 822 L 603 824 L 604 824 L 604 825 L 606 825 L 606 823 L 607 823 L 607 822 L 609 822 L 609 825 L 607 826 L 607 828 L 609 829 L 609 831 L 610 831 L 610 832 L 607 832 L 606 830 L 604 830 L 604 831 L 602 831 L 602 832 L 595 832 L 595 831 L 593 830 L 593 828 L 592 828 L 592 824 L 593 824 L 593 822 L 594 822 L 594 821 L 596 820 L 596 817 L 595 817 L 595 813 L 596 813 L 596 811 Z M 707 811 L 709 811 L 709 812 L 710 812 L 710 814 L 711 814 L 711 817 L 712 817 L 712 819 L 713 819 L 713 821 L 714 821 L 714 824 L 715 824 L 715 826 L 716 826 L 716 829 L 717 829 L 717 831 L 718 831 L 718 832 L 715 832 L 715 830 L 714 830 L 714 828 L 713 828 L 712 826 L 704 826 L 704 827 L 703 827 L 703 829 L 702 829 L 702 832 L 699 832 L 699 830 L 700 830 L 700 828 L 701 828 L 701 826 L 702 826 L 702 824 L 703 824 L 704 818 L 705 818 L 705 816 L 706 816 L 706 814 L 707 814 L 707 811 Z M 788 811 L 790 811 L 790 812 L 791 812 L 791 830 L 790 830 L 790 832 L 788 832 L 788 811 Z M 804 811 L 806 811 L 806 812 L 808 813 L 808 815 L 810 816 L 810 818 L 811 818 L 811 819 L 812 819 L 812 820 L 814 821 L 814 823 L 815 823 L 816 825 L 817 825 L 817 812 L 818 812 L 818 811 L 820 811 L 820 832 L 818 832 L 818 831 L 816 830 L 816 828 L 815 828 L 815 827 L 813 826 L 813 824 L 812 824 L 812 823 L 810 822 L 810 820 L 809 820 L 808 818 L 806 818 L 806 832 L 804 832 L 804 811 Z M 415 813 L 414 813 L 414 821 L 420 821 L 420 820 L 422 820 L 422 818 L 423 818 L 423 815 L 422 815 L 421 813 L 415 813 Z M 599 813 L 597 814 L 597 816 L 598 816 L 598 817 L 600 818 L 600 817 L 602 816 L 602 813 L 599 813 Z M 676 813 L 675 813 L 675 814 L 673 814 L 673 815 L 671 816 L 671 819 L 670 819 L 670 824 L 671 824 L 672 828 L 674 828 L 674 829 L 676 829 L 676 830 L 681 830 L 681 829 L 683 829 L 683 828 L 684 828 L 684 827 L 686 826 L 687 820 L 686 820 L 686 817 L 685 817 L 685 816 L 684 816 L 684 815 L 683 815 L 682 813 L 676 813 Z M 483 816 L 482 816 L 482 818 L 481 818 L 481 820 L 480 820 L 480 823 L 479 823 L 479 824 L 486 824 L 486 822 L 485 822 L 485 820 L 484 820 L 484 817 L 483 817 L 483 816 Z M 709 816 L 707 817 L 707 820 L 706 820 L 705 824 L 712 824 L 712 823 L 711 823 L 711 820 L 710 820 L 710 818 L 709 818 L 709 816 Z M 261 817 L 376 817 L 377 819 L 261 819 L 261 817 Z M 887 817 L 995 817 L 995 819 L 886 819 L 887 817 Z M 598 822 L 597 822 L 597 823 L 595 824 L 595 828 L 596 828 L 597 830 L 601 830 L 601 829 L 603 828 L 603 826 L 602 826 L 602 825 L 601 825 L 601 824 L 600 824 L 600 823 L 598 822 Z" />
</svg>
