<?xml version="1.0" encoding="UTF-8" standalone="no"?>
<!DOCTYPE svg PUBLIC "-//W3C//DTD SVG 1.1//EN" "http://www.w3.org/Graphics/SVG/1.1/DTD/svg11.dtd">
<svg xmlns="http://www.w3.org/2000/svg" version="1.1" viewBox="0.00 0.00 1773.00 1773.00">
<g stroke-width="2.00" fill="none" stroke-linecap="butt">
<path stroke="#a6998b" vector-effect="non-scaling-stroke" d="
  M 1094.38 544.80
  L 1093.99 544.73"
/>
<path stroke="#a6998b" vector-effect="non-scaling-stroke" d="
  M 1236.98 1006.54
  Q 1239.24 1005.17 1238.86 1002.33
  A 0.78 0.77 -39.3 0 0 1237.36 1002.18
  L 1236.22 1005.47
  A 0.52 0.50 -51.4 0 0 1236.26 1005.92
  L 1236.41 1006.18"
/>
</g>
<path fill="#d7c9bd" d="
  M 1094.38 544.80
  L 1093.99 544.73
  C 1093.60 542.57 1094.61 540.52 1093.54 538.39
  A 1.13 1.13 0.0 0 0 1091.42 538.68
  Q 1090.24 544.60 1088.07 551.00
  Q 1085.05 559.85 1076.81 564.06
  A 0.90 0.89 -20.7 0 1 1075.54 563.49
  Q 1075.19 562.20 1075.61 560.56
  Q 1077.95 551.39 1076.96 543.00
  Q 1075.40 529.62 1073.90 515.99
  C 1072.17 500.25 1071.01 484.85 1075.97 470.98
  Q 1077.45 466.82 1081.75 461.50
  Q 1085.55 456.80 1091.32 455.54
  A 3.59 3.58 0.8 0 0 1094.02 452.92
  Q 1095.38 447.55 1096.62 443.88
  C 1098.89 437.11 1102.92 433.42 1108.53 429.05
  C 1115.17 423.87 1124.35 422.93 1131.96 425.29
  Q 1133.27 425.70 1139.63 428.89
  A 1.21 1.05 -22.5 0 0 1139.93 428.99
  L 1146.77 430.32
  A 5.79 5.74 -12.5 0 1 1150.31 432.55
  Q 1151.30 433.88 1153.63 436.38
  C 1159.03 442.16 1160.91 431.57 1161.53 428.57
  Q 1163.26 420.22 1163.13 417.93
  Q 1162.14 399.75 1161.96 370.44
  C 1161.93 364.83 1161.15 358.17 1160.79 352.75
  C 1160.37 346.29 1156.61 343.42 1151.40 338.11
  Q 1145.68 332.29 1142.01 324.51
  A 1.07 1.07 0.0 0 1 1143.74 323.30
  C 1146.43 326.03 1149.53 330.04 1152.60 329.26
  A 0.97 0.96 -1.1 0 0 1153.30 328.54
  C 1154.64 322.28 1151.26 318.62 1147.34 312.79
  Q 1146.23 311.15 1144.82 306.95
  A 2.10 2.08 -43.6 0 1 1144.86 305.52
  C 1145.54 303.81 1147.32 302.67 1148.38 300.53
  C 1149.93 297.38 1154.00 296.89 1156.54 299.07
  Q 1156.91 299.39 1160.15 301.95
  A 7.06 7.01 78.9 0 0 1161.17 302.64
  Q 1164.57 304.55 1165.85 306.69
  Q 1170.37 314.27 1170.98 324.06
  C 1171.68 335.40 1172.50 345.95 1175.34 358.17
  Q 1180.01 378.32 1182.10 388.34
  Q 1184.81 401.31 1184.99 407.50
  Q 1185.14 412.95 1184.26 419.50
  C 1182.86 429.85 1181.50 440.86 1179.29 449.30
  Q 1174.26 468.59 1171.34 476.87
  Q 1168.49 484.93 1166.90 490.70
  A 7.52 7.48 43.9 0 0 1166.99 494.94
  Q 1169.89 504.06 1176.07 511.99
  Q 1185.61 524.23 1188.12 527.33
  Q 1193.04 533.43 1192.87 540.53
  C 1192.74 545.77 1189.51 552.25 1188.70 557.34
  Q 1188.53 558.44 1186.78 572.47
  Q 1184.00 594.87 1173.52 617.99
  C 1167.39 631.53 1160.23 643.89 1150.41 654.42
  A 1.75 1.75 0.0 0 0 1151.07 657.25
  Q 1153.18 658.05 1155.99 658.33
  C 1164.46 659.16 1174.97 659.03 1184.05 660.20
  C 1192.07 661.24 1199.80 661.15 1207.55 662.37
  C 1220.78 664.45 1238.01 666.88 1237.30 684.82
  C 1236.64 701.54 1219.66 705.62 1206.26 706.26
  Q 1180.79 707.47 1140.99 706.78
  Q 1118.58 706.40 1096.27 699.92
  Q 1088.88 697.77 1082.12 694.66
  Q 1078.33 692.92 1072.02 693.96
  Q 1055.37 696.70 1035.06 699.31
  Q 1017.12 701.63 1007.21 701.88
  C 986.61 702.40 964.81 702.49 943.80 700.03
  C 932.00 698.66 926.82 698.57 916.06 697.85
  Q 912.42 697.60 904.93 697.44
  Q 866.01 696.57 827.59 698.41
  C 811.79 699.16 793.89 701.17 782.34 702.25
  C 777.91 702.66 773.64 702.81 769.02 702.72
  Q 765.95 702.66 763.17 700.85
  A 1.20 1.19 32.4 0 1 762.80 699.22
  C 763.83 697.56 766.84 696.29 770.59 694.24
  A 9.10 8.64 -76.8 0 0 771.90 693.38
  Q 777.74 688.83 782.90 687.16
  C 790.81 684.60 797.63 683.27 802.23 677.47
  C 807.72 670.55 813.55 664.85 822.90 670.23
  C 827.76 673.03 832.04 675.29 837.76 675.49
  C 848.78 675.87 861.63 673.83 872.66 672.14
  C 895.64 668.61 917.76 669.15 940.33 670.29
  Q 952.86 670.93 960.68 670.33
  C 977.27 669.07 991.68 666.45 1008.00 662.44
  Q 1027.25 657.70 1042.51 650.95
  C 1048.96 648.10 1053.71 642.55 1059.23 636.23
  C 1063.08 631.81 1069.41 627.89 1075.58 625.25
  Q 1082.59 622.25 1094.07 618.07
  C 1101.38 615.41 1108.23 611.18 1113.53 604.89
  Q 1125.70 590.44 1126.54 571.27
  C 1126.81 565.12 1126.54 557.13 1125.84 549.26
  Q 1124.57 535.01 1125.93 521.92
  C 1126.66 514.91 1127.86 510.63 1129.78 502.52
  C 1131.08 497.04 1131.66 488.66 1124.52 486.99
  Q 1118.39 485.57 1114.71 484.28
  C 1108.89 482.23 1105.64 479.07 1101.45 474.62
  Q 1096.85 469.74 1094.91 461.23
  A 2.23 1.96 73.2 0 0 1092.20 459.55
  C 1089.70 460.54 1086.87 468.24 1086.09 471.12
  Q 1085.19 474.40 1085.86 479.93
  Q 1087.43 492.84 1088.52 497.02
  Q 1090.66 505.26 1094.64 517.13
  Q 1098.19 527.72 1096.83 538.26
  Q 1096.37 541.74 1094.38 544.80
  Z"
/>
<path fill="#6a584c" d="
  M 1094.38 544.80
  Q 1094.27 545.12 1094.06 545.14
  A 0.15 0.15 0.0 0 1 1093.97 545.11
  Q 1093.76 544.95 1093.99 544.73
  L 1094.38 544.80
  Z"
/>
<path fill="#6a584c" d="
  M 297.28 666.38
  Q 297.75 669.19 297.73 673.26
  Q 297.72 675.36 299.19 679.37
  C 301.10 684.62 308.33 689.15 313.18 689.73
  Q 324.31 691.04 330.12 682.39
  C 333.40 677.49 334.78 668.89 331.01 663.83
  C 326.08 657.23 317.89 650.75 313.12 642.83
  C 306.35 631.59 309.21 617.93 321.05 611.67
  A 3.99 3.66 -62.4 0 1 322.07 611.30
  Q 331.59 609.32 339.85 611.45
  Q 342.14 612.04 346.40 614.42
  A 2.31 2.26 62.0 0 0 347.25 614.69
  Q 348.53 614.82 349.86 614.11
  A 0.73 0.72 68.8 0 1 350.90 614.57
  C 351.53 616.95 349.35 620.63 348.04 622.43
  A 0.84 0.84 0.0 0 1 346.65 622.38
  L 342.65 616.05
  A 1.44 1.43 88.1 0 0 342.12 615.55
  Q 335.61 612.02 334.13 611.79
  Q 329.59 611.09 324.59 613.67
  C 314.99 618.63 316.35 631.02 322.62 638.16
  Q 324.98 640.83 332.80 648.71
  Q 337.65 653.58 340.83 661.70
  C 343.41 668.29 342.03 675.95 337.58 681.70
  Q 328.86 692.94 313.28 691.45
  C 309.55 691.09 306.61 690.67 303.56 688.90
  C 300.69 687.23 299.33 685.86 295.46 685.71
  A 1.48 1.44 -57.9 0 0 294.67 685.90
  L 291.56 687.70
  A 0.62 0.62 0.0 0 1 290.65 686.99
  L 296.35 666.33
  A 0.48 0.48 0.0 0 1 297.28 666.38
  Z"
/>
<path fill="#6a584c" d="
  M 562.90 611.21
  L 572.55 610.88
  A 1.37 1.37 0.0 0 1 573.90 612.66
  Q 563.23 646.95 551.06 679.56
  C 550.40 681.34 549.41 686.94 551.69 688.28
  Q 553.26 689.22 554.64 687.90
  Q 559.83 682.94 562.55 676.92
  A 0.49 0.49 0.0 0 1 563.48 677.08
  C 563.71 679.74 561.30 682.72 559.10 685.87
  Q 557.09 688.74 553.49 691.18
  A 2.28 2.27 27.2 0 1 552.30 691.56
  Q 547.58 691.72 546.44 691.30
  C 541.59 689.49 543.00 685.44 541.40 681.73
  A 0.66 0.66 0.0 0 0 540.23 681.65
  C 536.75 687.57 527.83 694.20 520.69 690.95
  C 514.00 687.90 511.58 680.74 512.14 673.78
  Q 512.82 665.28 518.07 656.52
  Q 525.66 643.87 538.89 640.11
  A 0.69 0.61 -48.6 0 1 539.05 640.09
  L 547.99 639.78
  A 1.26 1.22 59.4 0 1 548.68 639.97
  Q 551.94 642.12 552.45 646.23
  A 0.61 0.61 0.0 0 0 553.10 646.76
  C 555.28 646.60 555.26 642.43 555.94 640.90
  Q 559.62 632.53 564.03 617.46
  Q 565.16 613.61 562.70 611.86
  A 0.36 0.36 0.0 0 1 562.90 611.21
  Z
  M 540.80 680.18
  C 541.97 677.84 542.48 675.52 543.58 673.41
  Q 546.28 668.19 548.87 661.43
  C 551.14 655.49 552.71 651.70 551.60 647.12
  Q 551.53 646.84 549.74 644.10
  A 1.78 1.77 -5.2 0 0 548.93 643.43
  L 544.74 641.65
  A 1.66 1.64 55.9 0 0 544.03 641.51
  C 537.63 641.58 530.64 649.83 527.98 654.98
  Q 522.63 665.30 520.86 676.03
  C 519.73 682.87 521.86 692.68 531.36 687.87
  C 534.88 686.08 536.62 683.28 539.70 681.38
  A 3.06 3.00 -3.0 0 0 540.80 680.18
  Z"
/>
<ellipse fill="#6a584c" cx="0.00" cy="0.00" transform="translate(618.75,621.10) rotate(-78.0)" rx="5.24" ry="4.74"/>
<path fill="#6a584c" d="
  M 403.98 640.81
  Q 401.48 641.82 398.33 641.86
  A 2.67 2.67 0.0 0 0 395.96 643.37
  C 393.54 648.42 392.09 654.21 390.12 659.77
  Q 384.96 674.29 381.84 682.29
  Q 380.66 685.31 382.63 688.11
  A 2.02 2.02 0.0 0 0 385.13 688.78
  Q 390.64 686.21 393.33 680.80
  A 0.33 0.32 23.7 0 1 393.75 680.64
  L 393.76 680.64
  A 0.30 0.29 -70.6 0 1 393.93 681.00
  Q 392.37 686.04 388.18 688.78
  Q 385.47 690.56 383.98 691.11
  A 5.58 5.00 -35.3 0 1 383.23 691.32
  Q 380.66 691.83 377.89 691.12
  C 373.57 690.01 372.93 683.86 374.00 680.49
  Q 377.93 668.19 383.94 652.19
  Q 385.25 648.73 386.10 643.94
  A 1.81 1.80 -79.5 0 0 384.67 641.85
  L 381.29 641.20
  A 0.23 0.23 0.0 0 1 381.26 640.76
  C 383.34 640.08 384.65 640.84 386.16 640.62
  A 1.74 1.73 -78.2 0 0 387.60 639.67
  L 392.41 630.18
  A 1.78 1.77 -2.9 0 1 393.04 629.49
  Q 396.67 627.29 400.15 627.09
  A 1.26 1.26 0.0 0 1 401.42 628.77
  L 398.05 638.48
  A 1.34 1.33 7.7 0 0 399.40 640.25
  L 403.79 639.97
  A 0.44 0.44 0.0 0 1 403.98 640.81
  Z"
/>
<path fill="#6a584c" d="
  M 599.02 647.89
  Q 601.12 642.86 606.53 639.81
  Q 607.28 639.39 611.56 639.70
  C 618.06 640.17 616.20 647.92 614.83 651.83
  Q 609.03 668.40 603.90 681.38
  Q 602.63 684.59 603.64 687.79
  A 1.75 1.75 0.0 0 0 606.18 688.78
  C 611.02 685.99 612.48 681.89 615.35 677.64
  A 0.28 0.28 0.0 0 1 615.85 677.88
  Q 613.00 686.95 604.92 691.27
  A 2.42 2.34 -61.5 0 1 604.03 691.55
  Q 600.40 691.98 597.74 690.62
  A 2.00 1.97 88.2 0 1 596.90 689.82
  Q 594.28 685.11 596.15 679.67
  C 598.22 673.64 599.34 669.97 600.92 666.00
  Q 604.55 656.86 607.66 647.18
  Q 608.43 644.76 607.09 643.29
  A 2.27 2.04 47.7 0 0 604.07 642.98
  Q 601.58 645.22 599.29 648.05
  A 0.16 0.16 0.0 0 1 599.02 647.89
  Z"
/>
<path fill="#6a584c" d="
  M 684.4523 641.5605
  A 28.01 20.71 -59.2 0 1 687.8991 676.2244
  A 28.01 20.71 -59.2 0 1 655.7677 689.6795
  A 28.01 20.71 -59.2 0 1 652.3209 655.0156
  A 28.01 20.71 -59.2 0 1 684.4523 641.5605
  Z
  M 678.6970 641.4629
  A 25.75 12.29 -70.0 0 0 658.3412 661.4566
  A 25.75 12.29 -70.0 0 0 661.0830 689.8571
  A 25.75 12.29 -70.0 0 0 681.4388 669.8634
  A 25.75 12.29 -70.0 0 0 678.6970 641.4629
  Z"
/>
<path fill="#6a584c" d="
  M 479.93 678.22
  A 0.29 0.29 0.0 0 1 480.39 678.16
  L 480.78 678.54
  A 0.09 0.08 34.0 0 1 480.80 678.63
  Q 478.34 683.72 475.46 687.73
  Q 471.42 693.37 464.44 691.28
  C 459.38 689.76 459.83 685.38 460.35 681.00
  Q 460.46 680.13 459.64 679.34
  A 0.83 0.82 32.7 0 0 458.30 679.63
  C 456.08 685.15 450.84 689.21 445.63 691.32
  Q 441.98 692.79 437.42 691.10
  C 431.23 688.81 430.91 683.11 432.63 677.42
  Q 435.24 668.80 440.39 656.42
  Q 443.02 650.08 443.46 644.34
  A 1.73 1.73 0.0 0 0 442.09 642.51
  C 437.10 641.48 434.45 648.15 431.97 652.02
  A 1.42 1.42 0.0 0 1 430.66 652.67
  L 430.62 652.66
  A 0.60 0.60 0.0 0 1 430.14 651.77
  Q 434.36 644.37 441.29 640.65
  Q 442.29 640.11 443.44 639.91
  Q 450.87 638.64 451.54 646.45
  Q 451.78 649.18 450.11 653.88
  Q 447.73 660.60 440.64 679.42
  C 439.05 683.63 439.28 687.98 444.51 689.13
  A 1.66 1.62 38.6 0 0 445.51 689.03
  C 448.71 687.66 452.14 686.00 454.54 682.43
  Q 455.88 680.44 458.22 678.41
  A 3.13 3.07 81.8 0 0 458.97 677.39
  C 462.06 670.61 465.57 664.14 468.10 657.18
  Q 470.37 650.92 473.06 643.68
  A 5.13 5.12 -75.7 0 1 478.58 640.39
  L 478.67 640.41
  A 3.61 3.61 0.0 0 1 481.60 645.09
  Q 475.76 663.20 469.80 679.23
  Q 468.31 683.22 468.63 686.92
  A 2.08 2.08 0.0 0 0 471.83 688.49
  C 475.60 686.07 477.59 682.34 479.93 678.22
  Z"
/>
<path fill="#6a584c" d="
  M 1275.53 769.58
  Q 1274.77 770.74 1273.20 771.70
  C 1250.91 785.26 1227.08 786.59 1201.66 783.50
  Q 1184.31 781.40 1168.80 778.48
  Q 1153.78 775.66 1142.16 774.17
  Q 1123.33 771.75 1115.35 770.93
  Q 1087.40 768.06 1059.16 769.94
  Q 1043.22 771.00 1029.21 774.22
  C 1025.59 775.05 1022.37 776.14 1018.68 776.95
  Q 1003.79 780.21 992.36 785.39
  C 971.72 794.76 951.74 808.11 938.12 825.30
  Q 924.47 842.52 918.43 862.42
  Q 912.38 882.32 918.24 902.26
  C 924.87 924.83 945.87 937.33 968.00 941.47
  Q 976.87 943.13 987.64 942.65
  Q 1020.61 941.20 1046.83 918.61
  Q 1048.73 916.98 1049.95 918.11
  A 1.85 1.73 -44.7 0 1 1049.85 920.73
  Q 1025.08 943.71 990.71 946.36
  Q 987.94 946.57 979.12 946.37
  C 962.72 946.00 946.88 940.79 933.66 931.57
  C 919.51 921.71 911.75 904.18 911.10 887.18
  Q 910.90 881.80 911.41 877.82
  C 912.06 872.72 912.18 869.10 913.10 865.42
  Q 918.76 842.70 933.18 824.67
  C 938.58 817.92 944.59 811.31 951.53 805.71
  Q 969.48 791.24 985.74 783.81
  Q 1009.18 773.09 1035.07 768.74
  Q 1040.72 767.80 1045.92 767.42
  C 1050.95 767.06 1055.26 766.13 1060.41 765.80
  Q 1079.01 764.62 1082.75 764.73
  Q 1110.37 765.49 1119.79 766.43
  Q 1133.56 767.80 1136.06 768.07
  Q 1144.75 769.02 1153.86 769.90
  Q 1163.61 770.85 1171.61 771.97
  Q 1198.14 775.70 1225.00 777.29
  Q 1227.82 777.45 1237.50 777.39
  Q 1257.18 777.26 1274.67 768.61
  A 0.67 0.67 0.0 0 1 1275.53 769.58
  Z"
/>
<path fill="#6a584c" d="
  M 1236.98 1006.54
  Q 1239.24 1005.17 1238.86 1002.33
  A 0.78 0.77 -39.3 0 0 1237.36 1002.18
  L 1236.22 1005.47
  A 0.52 0.50 -51.4 0 0 1236.26 1005.92
  L 1236.41 1006.18
  C 1234.89 1006.47 1233.84 1008.62 1232.86 1010.20
  Q 1231.77 1011.96 1230.59 1013.29
  Q 1228.90 1015.22 1217.35 1029.85
  Q 1207.87 1041.86 1192.97 1057.73
  Q 1185.61 1065.57 1174.48 1073.48
  C 1169.03 1077.35 1160.19 1081.09 1153.15 1079.79
  C 1148.31 1078.90 1144.37 1077.61 1142.02 1072.98
  Q 1138.45 1065.95 1139.79 1058.01
  C 1142.13 1044.07 1147.94 1031.71 1154.98 1019.22
  Q 1166.66 998.47 1178.18 979.41
  C 1183.39 970.80 1187.34 963.64 1192.45 955.34
  Q 1199.76 943.46 1215.55 917.51
  C 1232.96 888.87 1247.33 865.60 1262.33 844.32
  Q 1267.69 836.71 1281.29 820.03
  Q 1299.27 797.99 1322.61 782.39
  Q 1342.00 769.43 1365.23 766.00
  C 1372.78 764.89 1377.67 765.86 1386.29 768.39
  A 1.55 1.55 0.0 0 1 1387.02 768.84
  Q 1387.20 769.04 1387.28 769.22
  A 1.28 1.27 72.4 0 1 1386.34 771.04
  Q 1384.40 771.35 1383.11 770.92
  Q 1380.25 769.97 1373.62 768.66
  Q 1369.72 767.89 1363.96 769.26
  Q 1354.15 771.58 1352.39 772.42
  C 1341.47 777.62 1332.00 784.83 1323.38 793.38
  Q 1319.13 797.59 1316.03 801.51
  C 1312.58 805.86 1308.23 810.49 1304.18 815.99
  Q 1293.36 830.63 1291.35 833.60
  Q 1269.07 866.38 1268.79 866.79
  Q 1261.17 877.94 1235.17 920.66
  Q 1220.29 945.10 1189.53 996.54
  Q 1172.06 1025.75 1159.24 1051.51
  Q 1155.61 1058.80 1154.09 1066.30
  C 1153.26 1070.40 1155.54 1075.91 1160.55 1075.39
  C 1167.26 1074.69 1171.43 1071.44 1177.06 1067.38
  Q 1180.08 1065.21 1182.38 1062.98
  Q 1185.62 1059.86 1196.36 1049.44
  Q 1204.24 1041.80 1207.76 1036.74
  Q 1208.86 1035.17 1216.10 1026.41
  C 1224.52 1016.23 1232.16 1005.25 1239.94 994.47
  C 1244.03 988.80 1247.50 982.33 1250.51 977.27
  Q 1262.99 956.34 1279.71 940.21
  C 1284.13 935.95 1289.33 932.43 1295.31 928.08
  Q 1313.57 914.81 1334.60 911.68
  Q 1339.91 910.89 1347.41 911.71
  C 1362.98 913.40 1374.89 925.00 1378.08 940.17
  C 1381.22 955.08 1379.43 971.73 1374.26 986.04
  Q 1363.07 1017.03 1341.08 1040.85
  Q 1333.35 1049.21 1319.27 1060.78
  Q 1317.84 1061.96 1308.89 1067.61
  Q 1305.07 1070.02 1300.48 1072.07
  Q 1291.78 1075.96 1291.75 1075.96
  C 1278.50 1081.01 1262.91 1082.09 1250.82 1074.20
  Q 1238.85 1066.38 1234.53 1052.28
  Q 1234.01 1050.59 1232.80 1044.94
  C 1231.59 1039.32 1232.17 1033.76 1232.62 1027.60
  Q 1232.62 1027.58 1232.62 1027.55
  L 1236.98 1006.54
  Z
  M 1362.90 930.05
  C 1361.22 921.55 1354.32 915.47 1345.81 914.72
  Q 1336.79 913.93 1328.84 916.84
  C 1317.88 920.84 1307.64 928.88 1299.52 938.50
  Q 1275.03 967.53 1259.29 1005.29
  Q 1251.70 1023.52 1249.52 1040.81
  C 1248.32 1050.37 1249.01 1058.80 1253.00 1067.04
  C 1256.22 1073.70 1261.43 1075.53 1268.47 1076.70
  C 1275.65 1077.90 1284.89 1074.95 1291.06 1071.57
  Q 1294.31 1069.78 1298.68 1066.02
  Q 1304.59 1060.94 1305.74 1059.75
  Q 1308.11 1057.30 1317.50 1046.75
  C 1324.83 1038.52 1330.77 1028.38 1336.10 1020.09
  Q 1339.79 1014.33 1342.12 1009.78
  Q 1351.26 991.89 1356.35 977.39
  Q 1360.29 966.20 1363.04 951.66
  C 1364.45 944.23 1364.30 937.15 1362.90 930.05
  Z"
/>
<path fill="#6a584c" d="
  M 313.43 819.90
  A 0.79 0.79 0.0 0 1 311.89 819.94
  Q 310.30 813.99 308.62 808.65
  Q 304.94 796.95 295.65 789.61
  C 285.89 781.89 272.16 780.05 259.02 779.93
  Q 218.09 779.57 186.71 779.83
  A 1.15 1.15 0.0 0 0 185.63 780.63
  C 184.82 783.14 184.31 786.03 184.26 788.69
  Q 183.84 812.18 183.88 818.26
  Q 184.21 865.25 183.81 913.26
  Q 183.79 916.84 184.23 921.53
  A 1.14 1.14 0.0 0 0 185.50 922.55
  Q 187.97 922.23 189.50 922.19
  Q 195.55 922.00 241.27 922.13
  C 251.65 922.16 265.08 919.42 269.87 908.91
  Q 273.21 901.58 273.58 898.27
  Q 274.31 891.67 275.46 887.19
  A 0.65 0.65 0.0 0 1 276.72 887.17
  Q 277.15 888.70 277.15 891.00
  Q 277.18 925.06 277.10 948.29
  C 277.09 953.40 277.66 958.39 277.45 963.03
  A 0.91 0.90 -55.7 0 1 275.72 963.36
  C 273.82 959.10 273.96 953.10 273.34 950.38
  C 271.87 943.93 269.28 937.42 263.77 933.55
  Q 258.24 929.67 253.77 928.53
  Q 249.24 927.38 243.25 927.17
  Q 217.81 926.30 184.71 926.87
  A 0.92 0.91 -0.6 0 0 183.81 927.78
  Q 183.82 1005.78 183.90 1027.50
  C 183.94 1038.94 184.01 1047.73 186.77 1057.21
  C 189.45 1066.40 200.60 1068.48 208.50 1068.87
  A 1.71 1.69 -13.4 0 1 209.88 1069.71
  L 210.17 1070.21
  A 0.72 0.71 75.1 0 1 209.55 1071.28
  C 203.73 1071.29 197.24 1070.82 190.48 1070.84
  Q 159.09 1070.91 135.22 1071.05
  A 0.77 0.77 0.0 0 1 134.49 1070.03
  L 134.63 1069.64
  A 1.07 1.06 -84.8 0 1 135.47 1068.93
  C 139.90 1068.23 145.28 1068.40 148.70 1067.11
  C 152.66 1065.61 157.89 1061.44 159.01 1057.05
  C 160.81 1050.04 161.62 1043.34 161.62 1035.00
  Q 161.67 933.53 161.60 821.78
  C 161.59 809.49 161.88 800.16 158.58 789.92
  Q 156.45 783.32 149.79 780.66
  Q 143.88 778.29 136.08 778.14
  A 1.60 1.59 85.9 0 1 134.53 776.79
  L 134.53 776.74
  A 1.14 1.14 0.0 0 1 135.65 775.42
  C 142.86 775.37 151.73 775.77 160.11 775.56
  Q 170.17 775.31 182.75 775.45
  Q 223.55 775.89 272.34 775.42
  C 284.39 775.30 295.60 775.74 307.98 775.65
  Q 310.46 775.63 310.60 778.50
  Q 311.61 799.54 313.36 816.24
  Q 313.64 818.95 313.43 819.90
  Z"
/>
<path fill="#6a584c" d="
  M 1162.79 924.03
  A 0.78 0.78 0.0 0 1 1163.43 925.36
  Q 1158.82 929.94 1152.13 933.90
  C 1148.31 936.16 1145.80 937.37 1141.90 936.47
  Q 1138.73 935.74 1136.50 935.67
  Q 1128.88 935.44 1120.62 933.87
  C 1112.92 932.41 1108.34 932.62 1099.93 932.31
  A 2.28 2.28 0.0 0 0 1097.86 933.47
  Q 1085.66 955.13 1073.58 974.59
  Q 1066.43 986.11 1050.87 1007.64
  C 1047.05 1012.93 1042.80 1017.62 1038.83 1022.62
  C 1034.31 1028.32 1028.44 1034.34 1023.06 1039.80
  Q 1016.60 1046.36 1006.19 1054.96
  Q 983.31 1073.86 954.50 1082.74
  C 945.88 1085.40 937.80 1086.66 928.72 1087.96
  Q 924.69 1088.54 921.70 1088.47
  C 917.17 1088.35 912.75 1088.64 907.89 1087.76
  Q 903.95 1087.05 901.16 1086.87
  C 898.65 1086.71 896.22 1085.79 893.39 1085.11
  Q 875.00 1080.70 862.72 1067.36
  Q 850.69 1054.29 849.82 1035.83
  Q 849.68 1032.96 850.27 1030.23
  C 850.90 1027.32 853.32 1011.23 859.64 1015.60
  A 2.09 2.08 -63.4 0 1 860.43 1017.98
  C 857.90 1025.53 854.51 1033.51 855.77 1041.72
  Q 857.29 1051.56 861.50 1059.04
  Q 866.46 1067.88 876.88 1074.61
  C 886.26 1080.67 897.76 1084.09 909.00 1084.84
  Q 938.34 1086.81 963.79 1073.54
  Q 966.56 1072.10 977.56 1064.23
  Q 984.01 1059.62 990.28 1053.53
  Q 1003.14 1041.04 1004.12 1039.87
  C 1016.33 1025.34 1024.81 1014.12 1031.86 1003.89
  Q 1050.30 977.13 1063.44 955.11
  C 1067.72 947.95 1072.45 940.96 1075.48 934.12
  A 1.42 1.42 0.0 0 0 1074.17 932.13
  Q 1067.00 932.14 1057.78 934.25
  Q 1056.32 934.59 1055.09 934.11
  A 0.56 0.56 0.0 0 1 1054.92 933.18
  C 1057.94 930.45 1060.85 929.25 1065.28 928.73
  Q 1071.56 928.00 1077.18 927.75
  A 3.24 3.23 15.6 0 0 1079.73 926.32
  Q 1083.05 921.42 1084.68 918.67
  C 1090.89 908.12 1097.86 896.77 1103.47 887.20
  Q 1112.71 871.40 1122.61 856.81
  C 1129.20 847.09 1137.25 836.77 1144.66 829.67
  Q 1152.59 822.07 1163.72 813.51
  Q 1177.19 803.15 1194.92 797.15
  A 2.31 2.30 55.0 0 1 1197.11 797.54
  L 1197.27 797.67
  A 0.79 0.79 0.0 0 1 1197.12 799.00
  Q 1185.56 804.62 1180.53 808.78
  C 1172.44 815.48 1165.39 824.06 1158.48 833.95
  Q 1148.27 848.56 1140.18 861.89
  C 1135.43 869.72 1128.91 880.33 1123.85 889.20
  C 1116.76 901.60 1108.98 913.70 1102.32 926.35
  A 0.88 0.88 0.0 0 0 1103.09 927.64
  Q 1115.04 927.79 1119.75 927.55
  Q 1125.36 927.26 1132.24 927.71
  C 1138.68 928.12 1146.70 928.01 1153.74 926.90
  C 1156.63 926.45 1160.08 924.36 1162.79 924.03
  Z"
/>
<circle fill="#6a584c" cx="372.61" cy="833.40" r="13.98"/>
<path fill="#6a584c" d="
  M 824.93 898.88
  L 780.92 899.40
  A 1.89 1.88 -0.6 0 0 779.05 901.30
  Q 779.61 970.57 779.14 1022.28
  C 779.07 1030.62 779.50 1038.09 780.39 1045.12
  Q 781.00 1049.91 783.76 1055.94
  Q 785.46 1059.64 789.47 1062.42
  Q 802.94 1071.74 818.30 1063.65
  Q 820.22 1062.64 825.62 1058.12
  A 4.74 4.42 88.0 0 0 826.56 1057.04
  Q 828.13 1054.53 830.13 1052.18
  Q 831.11 1051.03 831.57 1051.12
  A 2.13 2.03 -66.9 0 1 832.79 1054.38
  C 825.65 1064.90 816.09 1072.51 802.93 1074.41
  Q 791.83 1076.01 780.86 1072.59
  C 761.38 1066.51 758.63 1047.84 758.60 1030.12
  Q 758.54 990.40 758.59 900.64
  A 1.51 1.51 0.0 0 0 757.09 899.13
  L 737.09 899.01
  A 2.49 2.48 79.6 0 1 734.79 897.42
  L 734.77 897.35
  A 1.36 1.35 76.1 0 1 735.88 895.50
  C 749.38 894.09 763.30 884.47 769.88 873.28
  C 773.17 867.67 775.05 860.61 777.33 853.47
  A 0.83 0.83 0.0 0 1 778.89 853.42
  Q 779.47 854.90 779.49 857.25
  Q 779.62 872.93 779.41 887.75
  Q 779.37 890.70 779.92 893.81
  A 1.34 1.33 80.8 0 0 781.42 894.90
  Q 783.96 894.56 785.82 894.56
  Q 810.53 894.64 824.83 895.63
  A 0.85 0.85 0.0 0 1 825.63 896.47
  L 825.65 898.15
  A 0.72 0.72 0.0 0 1 824.93 898.88
  Z"
/>
<path fill="#6a584c" d="
  M 588.23 1023.96
  A 0.60 0.60 0.0 0 1 589.41 1023.76
  C 593.72 1038.91 598.84 1051.57 610.86 1061.10
  Q 618.78 1067.38 630.59 1070.37
  C 647.45 1074.64 669.16 1072.65 681.74 1059.41
  Q 692.11 1048.51 691.50 1032.30
  C 690.68 1010.57 672.03 1000.62 654.68 993.35
  C 638.90 986.73 627.79 982.86 614.94 975.32
  C 607.25 970.81 599.55 964.05 595.84 955.69
  Q 591.16 945.15 591.87 934.78
  C 593.36 912.81 611.00 897.52 631.58 893.39
  Q 638.52 892.00 642.76 891.70
  C 648.88 891.26 652.89 891.85 660.44 892.78
  Q 665.31 893.37 669.53 894.45
  Q 682.47 897.75 692.96 901.38
  A 2.18 2.18 0.0 0 1 694.42 903.29
  L 696.64 937.52
  A 0.84 0.83 -66.2 0 1 695.16 938.10
  Q 694.13 936.81 693.85 935.63
  C 692.50 930.08 691.55 925.09 689.21 920.25
  Q 679.11 899.38 654.95 895.82
  Q 636.50 893.10 620.36 901.83
  Q 617.31 903.48 612.64 908.64
  Q 608.50 913.20 607.09 919.60
  C 602.15 942.01 614.71 954.41 633.77 962.50
  Q 640.26 965.26 668.13 976.87
  C 680.47 982.00 691.76 988.72 699.73 999.52
  Q 702.46 1003.23 704.91 1009.74
  C 708.07 1018.12 707.80 1027.95 705.93 1036.70
  Q 704.81 1041.98 702.93 1045.43
  C 696.53 1057.21 686.89 1066.77 673.91 1071.13
  C 667.54 1073.26 661.31 1075.01 654.52 1075.48
  Q 634.01 1076.92 614.08 1070.91
  Q 595.87 1065.41 591.29 1064.15
  A 1.60 1.59 5.6 0 1 590.13 1062.75
  Q 589.51 1054.66 589.46 1043.99
  C 589.43 1037.33 588.47 1028.76 588.23 1023.96
  Z"
/>
<path fill="#6a584c" d="
  M 505.23 1070.36
  L 505.23 1070.39
  A 0.62 0.62 0.0 0 1 504.62 1071.10
  L 436.79 1070.81
  A 0.45 0.45 0.0 0 1 436.41 1070.13
  L 436.44 1070.08
  A 1.72 1.71 12.5 0 1 437.73 1069.26
  C 446.60 1068.32 454.98 1068.09 458.30 1058.07
  C 460.08 1052.70 460.57 1043.82 460.57 1037.57
  Q 460.66 952.12 460.52 922.75
  C 460.50 918.36 459.16 910.05 454.93 906.97
  Q 450.83 904.00 448.12 903.62
  C 444.36 903.11 438.05 902.69 437.23 902.10
  A 0.99 0.98 61.1 0 1 437.74 900.32
  C 443.16 899.97 445.41 899.90 449.87 899.11
  Q 452.11 898.71 459.49 897.72
  Q 465.13 896.95 478.16 893.91
  Q 481.15 893.21 481.14 896.77
  Q 481.06 916.86 481.17 927.28
  Q 481.17 927.75 481.24 927.82
  A 1.06 0.99 -53.7 0 0 482.85 927.51
  Q 488.48 917.10 492.71 911.74
  Q 495.29 908.45 503.71 901.97
  Q 514.94 893.32 531.39 892.16
  C 542.57 891.37 556.05 895.46 560.58 906.72
  C 563.12 913.05 561.80 920.26 555.13 923.02
  C 551.25 924.62 542.03 924.70 540.59 918.92
  C 539.45 914.36 538.54 909.43 535.33 906.73
  Q 530.56 902.71 526.99 902.03
  Q 518.29 900.37 509.98 903.76
  C 505.99 905.39 501.43 907.93 498.09 911.38
  Q 487.21 922.59 482.52 936.96
  Q 481.32 940.63 481.26 948.01
  Q 480.99 983.00 481.26 1038.28
  C 481.29 1043.53 481.87 1048.40 482.38 1053.12
  C 483.10 1059.94 485.88 1066.06 492.84 1067.65
  Q 496.19 1068.41 504.19 1069.36
  A 1.20 1.19 -0.9 0 1 505.23 1070.36
  Z"
/>
<path fill="#6a584c" d="
  M 407.47 1070.23
  L 407.64 1070.46
  A 0.50 0.49 71.8 0 1 407.24 1071.26
  C 398.12 1071.04 391.38 1070.65 381.59 1070.77
  Q 360.92 1071.03 339.25 1071.41
  A 0.78 0.78 0.0 0 1 338.50 1070.37
  L 338.63 1069.98
  A 1.11 1.10 4.2 0 1 339.46 1069.27
  Q 343.32 1068.49 347.67 1068.06
  Q 352.33 1067.61 354.57 1066.04
  Q 360.20 1062.07 361.36 1055.92
  Q 362.86 1047.96 363.05 1035.50
  Q 363.27 1020.06 363.05 942.00
  Q 363.02 930.40 362.54 921.23
  C 362.09 912.67 359.72 906.60 351.65 903.87
  C 348.38 902.76 344.97 903.04 341.86 902.64
  Q 340.56 902.47 339.88 902.04
  A 0.86 0.86 0.0 0 1 340.24 900.46
  Q 361.65 897.81 381.54 893.96
  A 1.20 1.20 0.0 0 1 382.92 894.77
  Q 383.53 896.70 383.54 898.25
  Q 383.73 950.90 383.50 989.25
  C 383.32 1017.84 382.77 1035.46 384.04 1047.74
  C 384.81 1055.14 385.34 1062.26 392.21 1066.60
  Q 393.70 1067.55 396.47 1067.90
  Q 399.32 1068.26 405.86 1069.28
  A 2.50 2.48 -14.2 0 1 407.47 1070.23
  Z"
/>
<path fill="#6a584c" d="
  M 1611.87 958.95
  L 1611.90 958.99
  A 0.57 0.56 -47.7 0 0 1612.84 958.94
  Q 1614.95 955.43 1621.90 945.32
  Q 1627.22 937.57 1632.18 932.58
  C 1642.40 922.29 1649.01 915.77 1661.00 911.04
  Q 1665.03 909.45 1671.27 908.77
  Q 1677.02 908.15 1684.53 911.05
  Q 1695.10 915.13 1698.50 926.51
  Q 1701.30 935.91 1700.06 943.20
  C 1698.49 952.38 1696.27 959.52 1689.68 966.27
  C 1686.20 969.83 1675.21 976.90 1670.83 971.02
  A 0.96 0.95 43.9 0 1 1670.80 969.91
  C 1672.91 966.76 1676.69 964.02 1678.97 961.31
  C 1686.85 951.98 1691.29 941.15 1690.02 928.87
  Q 1689.38 922.71 1686.08 919.13
  C 1680.28 912.84 1674.24 912.65 1666.19 913.52
  A 6.74 6.47 29.7 0 0 1664.33 913.99
  Q 1662.07 914.93 1657.08 916.55
  C 1654.25 917.47 1649.70 920.46 1647.05 922.71
  Q 1636.77 931.43 1628.09 942.60
  Q 1624.37 947.39 1614.49 961.11
  C 1609.49 968.05 1606.32 974.09 1601.47 981.52
  Q 1600.41 983.13 1596.35 989.75
  Q 1583.56 1010.60 1572.36 1030.58
  C 1566.02 1041.91 1559.63 1052.72 1553.46 1063.85
  Q 1550.33 1069.51 1545.89 1076.08
  A 2.48 2.47 15.9 0 1 1543.94 1077.16
  L 1526.68 1077.76
  A 1.74 1.73 -83.2 0 1 1524.95 1075.56
  Q 1525.20 1074.64 1525.82 1073.56
  Q 1541.27 1046.34 1562.96 1009.04
  C 1575.39 987.67 1583.85 972.33 1596.07 951.07
  Q 1598.15 947.46 1600.54 942.62
  C 1604.11 935.37 1609.75 925.84 1607.91 918.36
  C 1606.79 913.80 1600.49 915.97 1597.71 917.50
  C 1590.96 921.22 1586.37 926.28 1579.87 933.20
  Q 1576.53 936.76 1572.91 941.52
  Q 1558.74 960.12 1550.02 973.03
  C 1548.67 975.04 1546.49 977.54 1544.87 979.89
  A 2.01 2.01 0.0 0 1 1543.30 980.75
  L 1543.03 980.75
  A 0.53 0.53 0.0 0 1 1542.56 979.95
  C 1546.40 973.67 1548.36 970.00 1551.81 965.26
  Q 1555.59 960.08 1561.70 951.01
  C 1566.01 944.61 1570.26 939.51 1575.48 933.22
  Q 1582.03 925.32 1590.50 918.51
  Q 1594.25 915.49 1598.72 913.48
  C 1603.70 911.24 1610.74 910.61 1615.15 913.98
  C 1622.30 919.43 1621.22 929.59 1619.85 937.66
  Q 1619.08 942.17 1616.82 946.55
  Q 1616.01 948.13 1611.73 957.64
  A 1.32 1.30 -51.4 0 0 1611.87 958.95
  Z"
/>
<path fill="#6a584c" d="
  M 1517.3780 918.0795
  A 96.63 56.36 -52.9 0 1 1504.0418 1029.1468
  A 96.63 56.36 -52.9 0 1 1400.8020 1072.2205
  A 96.63 56.36 -52.9 0 1 1414.1382 961.1532
  A 96.63 56.36 -52.9 0 1 1517.3780 918.0795
  Z
  M 1515.35 955.11
  C 1518.11 941.78 1519.46 918.45 1501.08 914.93
  Q 1493.96 913.56 1486.08 915.61
  Q 1479.04 917.44 1475.08 919.60
  Q 1461.78 926.86 1451.00 940.01
  Q 1440.29 953.08 1437.44 957.45
  Q 1422.48 980.37 1412.44 1003.92
  Q 1406.86 1017.02 1403.42 1035.82
  C 1402.22 1042.38 1401.90 1049.47 1402.56 1055.27
  Q 1403.00 1059.13 1404.77 1064.25
  C 1406.63 1069.62 1410.46 1073.57 1416.05 1075.32
  Q 1421.95 1077.16 1426.95 1076.66
  C 1436.25 1075.72 1443.86 1072.40 1451.43 1065.89
  Q 1462.74 1056.18 1471.57 1045.04
  Q 1492.28 1018.92 1505.48 986.75
  Q 1512.16 970.47 1515.35 955.11
  Z"
/>
<path fill="#d7c9bd" d="
  M 1236.98 1006.54
  Q 1236.47 1006.36 1236.41 1006.18
  L 1236.26 1005.92
  A 0.52 0.50 -51.4 0 1 1236.22 1005.47
  L 1237.36 1002.18
  A 0.78 0.77 -39.3 0 1 1238.86 1002.33
  Q 1239.24 1005.17 1236.98 1006.54
  Z"
/>
<path fill="#6a584c" d="
  M 780.36 1204.53
  L 780.20 1205.13
  A 1.56 1.56 0.0 0 1 777.77 1205.97
  Q 776.57 1205.10 774.98 1203.71
  C 772.42 1201.47 768.05 1201.56 765.13 1202.90
  C 761.90 1204.39 761.91 1207.70 763.63 1210.19
  Q 764.01 1210.74 766.38 1212.02
  Q 767.90 1212.83 769.42 1213.17
  C 775.60 1214.57 781.99 1216.57 782.68 1224.07
  C 783.13 1228.91 780.11 1233.09 775.10 1234.37
  C 768.76 1236.00 760.86 1234.69 757.25 1228.74
  A 2.01 2.01 0.0 0 1 758.31 1225.79
  L 758.62 1225.70
  A 3.36 3.35 -23.2 0 1 762.49 1227.24
  L 763.24 1228.54
  A 3.43 3.42 81.9 0 0 765.38 1230.15
  C 770.80 1231.49 775.79 1231.52 777.88 1226.17
  C 779.18 1222.85 775.24 1220.29 772.61 1219.51
  Q 768.57 1218.30 764.61 1216.89
  C 758.46 1214.70 755.62 1208.81 758.93 1202.88
  C 763.08 1195.42 772.83 1196.52 778.94 1200.66
  A 3.54 3.53 24.9 0 1 780.36 1204.53
  Z"
/>
<path fill="#6a584c" d="
  M 936.15 1225.24
  C 936.37 1226.70 934.59 1228.86 933.11 1230.29
  Q 928.63 1234.61 922.25 1234.87
  C 910.16 1235.38 901.68 1227.69 902.10 1215.84
  C 902.28 1210.86 904.48 1204.73 908.65 1201.63
  C 912.92 1198.46 918.58 1196.53 924.05 1197.89
  Q 930.52 1199.51 935.08 1204.13
  Q 936.35 1205.42 936.09 1207.09
  A 1.99 1.88 -85.1 0 1 934.19 1208.78
  C 932.90 1208.78 931.61 1208.00 930.63 1206.83
  Q 926.87 1202.36 919.97 1202.19
  C 916.84 1202.12 914.65 1203.57 912.34 1205.31
  C 907.22 1209.18 906.46 1215.75 907.95 1221.79
  Q 908.51 1224.07 910.76 1226.24
  Q 918.19 1233.42 927.34 1228.84
  A 4.40 4.32 -81.5 0 0 928.56 1227.92
  Q 929.92 1226.44 932.62 1224.45
  A 2.36 1.85 -25.6 0 1 936.15 1225.24
  Z"
/>
<path fill="#6a584c" d="
  M 1061.50 1216.31
  Q 1061.50 1221.77 1065.39 1225.97
  Q 1073.07 1234.28 1083.36 1227.64
  C 1084.86 1226.67 1085.71 1225.27 1087.08 1224.10
  A 2.02 1.80 -27.3 0 1 1090.28 1224.92
  C 1091.16 1229.38 1083.95 1233.25 1080.46 1234.25
  C 1071.33 1236.85 1061.64 1232.30 1058.20 1223.61
  Q 1057.06 1220.75 1057.06 1216.31
  Q 1057.06 1211.88 1058.19 1209.01
  C 1061.63 1200.32 1071.32 1195.77 1080.45 1198.36
  C 1083.94 1199.36 1091.15 1203.23 1090.28 1207.69
  A 2.02 1.80 27.3 0 1 1087.08 1208.51
  C 1085.71 1207.34 1084.85 1205.94 1083.35 1204.97
  Q 1073.06 1198.34 1065.39 1206.65
  Q 1061.50 1210.85 1061.50 1216.31
  Z"
/>
<path fill="#6a584c" d="
  M 1115.74 1212.83
  A 1.03 1.02 -0.6 0 0 1116.78 1213.84
  L 1131.05 1213.68
  A 2.22 2.21 -89.9 0 0 1133.23 1211.50
  L 1133.45 1200.06
  A 1.98 1.98 0.0 0 1 1135.69 1198.13
  L 1135.78 1198.15
  A 2.97 2.96 -85.1 0 1 1138.23 1201.06
  L 1138.32 1233.01
  A 1.65 1.64 89.8 0 1 1136.69 1234.66
  L 1134.88 1234.69
  A 1.55 1.55 0.0 0 1 1133.32 1233.18
  Q 1133.21 1228.57 1133.40 1220.50
  Q 1133.45 1218.28 1130.88 1218.16
  Q 1129.47 1218.09 1116.77 1218.46
  A 1.26 1.26 0.0 0 0 1115.55 1219.72
  L 1115.55 1233.52
  A 1.57 1.57 0.0 0 1 1113.43 1234.99
  L 1112.73 1234.72
  A 2.30 2.29 10.3 0 1 1111.25 1232.59
  L 1110.87 1200.10
  A 2.66 2.65 89.7 0 1 1113.52 1197.41
  L 1113.95 1197.41
  A 1.64 1.63 89.6 0 1 1115.58 1199.03
  L 1115.74 1212.83
  Z"
/>
<path fill="#6a584c" d="
  M 1269.88 1216.84
  A 1.37 1.37 0.0 0 1 1271.24 1218.33
  C 1270.07 1231.70 1259.03 1236.84 1246.92 1234.11
  C 1242.93 1233.21 1239.97 1230.10 1237.62 1227.93
  A 4.34 4.33 -83.3 0 1 1236.73 1226.80
  C 1230.46 1215.52 1234.90 1202.18 1247.36 1198.32
  Q 1251.64 1197.00 1254.97 1197.56
  C 1260.10 1198.43 1268.87 1202.33 1269.23 1208.31
  A 1.75 1.43 -6.6 0 1 1267.73 1209.86
  Q 1265.95 1210.13 1265.04 1208.81
  Q 1262.61 1205.32 1260.13 1204.22
  C 1254.88 1201.90 1250.38 1201.37 1245.26 1204.26
  C 1240.59 1206.89 1238.65 1213.84 1239.12 1218.51
  Q 1239.58 1223.10 1241.87 1225.71
  C 1245.52 1229.86 1250.79 1231.91 1256.17 1230.46
  C 1259.89 1229.45 1264.30 1227.19 1265.03 1223.18
  A 1.59 1.59 0.0 0 0 1263.54 1221.30
  L 1254.07 1220.84
  A 1.78 1.78 0.0 0 1 1252.41 1218.74
  L 1252.43 1218.65
  A 2.25 2.24 -85.4 0 1 1254.67 1216.73
  L 1269.88 1216.84
  Z"
/>
<path fill="#6a584c" d="
  M 848.15 1231.69
  C 843.21 1235.22 834.52 1236.89 829.96 1231.49
  Q 826.06 1226.86 828.03 1220.71
  C 828.89 1218.04 830.59 1216.29 832.95 1214.51
  A 2.36 2.36 0.0 0 0 833.57 1211.45
  Q 831.56 1207.96 832.65 1203.24
  C 834.55 1195.01 847.53 1195.96 848.17 1204.09
  C 848.49 1208.12 846.59 1211.11 843.50 1213.38
  A 1.77 1.76 -37.9 0 0 843.18 1215.94
  L 847.87 1221.59
  A 1.50 1.49 -49.8 0 0 850.32 1221.38
  L 852.16 1218.20
  A 2.10 2.10 0.0 0 1 855.55 1217.85
  L 855.88 1218.23
  A 2.50 2.49 -50.9 0 1 856.17 1221.13
  L 853.49 1225.78
  A 1.71 1.70 -43.7 0 0 853.45 1227.42
  C 854.36 1229.17 857.41 1231.19 857.61 1233.24
  A 1.14 1.13 -5.4 0 1 856.59 1234.47
  Q 855.12 1234.60 853.80 1234.30
  C 851.90 1233.86 851.18 1232.22 849.65 1231.54
  A 1.51 1.49 38.9 0 0 848.15 1231.69
  Z
  M 842.3902 1202.8652
  A 3.89 3.66 -53.2 0 0 837.1293 1203.7876
  A 3.89 3.66 -53.2 0 0 837.7298 1209.0948
  A 3.89 3.66 -53.2 0 0 842.9907 1208.1724
  A 3.89 3.66 -53.2 0 0 842.3902 1202.8652
  Z
  M 844.69 1224.66
  L 839.15 1218.53
  A 2.52 2.52 0.0 0 0 835.59 1218.35
  L 834.70 1219.16
  A 7.11 6.16 -42.1 0 0 833.55 1228.50
  L 834.21 1229.23
  A 7.11 6.16 -42.1 0 0 843.61 1229.03
  L 844.51 1228.22
  A 2.52 2.52 0.0 0 0 844.69 1224.66
  Z"
/>
<path fill="#6a584c" d="
  M 954.7584 1214.2621
  A 19.00 18.80 -173.6 0 1 975.7356 1197.6972
  A 19.00 18.80 -173.6 0 1 992.5216 1218.4979
  A 19.00 18.80 -173.6 0 1 971.5444 1235.0628
  A 19.00 18.80 -173.6 0 1 954.7584 1214.2621
  Z
  M 974.0363 1202.2670
  A 14.21 13.78 -88.2 0 0 959.8168 1216.0372
  A 14.21 13.78 -88.2 0 0 973.1437 1230.6730
  A 14.21 13.78 -88.2 0 0 987.3632 1216.9028
  A 14.21 13.78 -88.2 0 0 974.0363 1202.2670
  Z"
/>
<rect fill="#6a584c" x="-2.12" y="-18.49" transform="translate(1162.11,1216.19) rotate(-0.1)" width="4.24" height="36.98" rx="2.07"/>
<path fill="#6a584c" d="
  M 525.31 1221.60
  L 525.14 1232.99
  A 1.80 1.80 0.0 0 1 523.18 1234.76
  L 522.92 1234.76
  A 1.97 1.96 89.6 0 1 520.94 1232.80
  L 520.78 1199.52
  A 1.72 1.72 0.0 0 1 522.52 1197.79
  Q 529.52 1197.87 535.07 1198.41
  Q 542.01 1199.08 544.10 1205.91
  Q 545.66 1210.98 543.21 1214.65
  C 539.36 1220.42 534.01 1219.59 526.85 1220.00
  A 1.63 1.63 0.0 0 0 525.31 1221.60
  Z
  M 525.34 1204.30
  L 525.57 1213.66
  A 1.92 1.92 0.0 0 0 527.53 1215.53
  L 532.81 1215.40
  A 6.62 6.44 -1.4 0 0 539.27 1208.80
  L 539.26 1208.48
  A 6.62 6.44 -1.4 0 0 532.49 1202.20
  L 527.21 1202.33
  A 1.92 1.92 0.0 0 0 525.34 1204.30
  Z"
/>
<path fill="#6a584c" d="
  M 595.98 1230.66
  L 607.91 1230.66
  A 0.88 0.88 0.0 0 1 608.79 1231.51
  L 608.87 1233.69
  A 0.88 0.88 0.0 0 1 607.99 1234.60
  L 590.95 1234.60
  A 0.88 0.88 0.0 0 1 590.07 1233.72
  L 590.07 1198.65
  A 0.88 0.88 0.0 0 1 591.24 1197.82
  L 593.46 1198.59
  A 0.88 0.88 0.0 0 1 594.05 1199.39
  L 595.10 1229.81
  A 0.88 0.88 0.0 0 0 595.98 1230.66
  Z"
/>
<path fill="#6a584c" d="
  M 684.50 1197.81
  Q 689.52 1197.69 695.76 1198.05
  A 1.77 1.76 -84.6 0 1 697.40 1200.05
  L 697.39 1200.13
  A 2.25 2.24 2.8 0 1 695.22 1202.09
  L 688.32 1202.24
  A 1.56 1.55 -1.1 0 0 686.80 1203.81
  Q 687.00 1218.08 686.24 1233.23
  Q 686.16 1234.81 684.50 1234.81
  Q 682.85 1234.81 682.77 1233.23
  Q 682.00 1218.08 682.20 1203.81
  A 1.56 1.55 1.1 0 0 680.68 1202.24
  L 673.78 1202.09
  A 2.25 2.24 -2.8 0 1 671.61 1200.13
  L 671.60 1200.05
  A 1.77 1.76 84.6 0 1 673.24 1198.06
  Q 679.48 1197.69 684.50 1197.81
  Z"
/>
<path fill="#6a584c" d="
  M 715.73 1233.55
  Q 715.35 1212.22 715.61 1200.59
  Q 715.67 1197.82 717.77 1197.88
  Q 719.14 1197.93 735.45 1198.15
  A 2.41 2.40 89.2 0 1 737.82 1200.46
  L 737.85 1200.95
  A 1.27 1.26 87.7 0 1 736.59 1202.32
  L 722.39 1202.32
  A 1.73 1.73 0.0 0 0 720.66 1204.05
  L 720.66 1212.04
  A 1.72 1.72 0.0 0 0 722.35 1213.76
  L 735.27 1213.95
  A 2.23 2.22 90.0 0 1 737.46 1216.15
  L 737.46 1216.19
  A 2.03 2.02 0.4 0 1 735.41 1218.20
  L 722.17 1218.07
  A 1.64 1.64 0.0 0 0 720.52 1219.65
  Q 720.43 1222.39 720.72 1227.63
  Q 720.89 1230.70 723.92 1230.50
  Q 726.02 1230.36 736.41 1230.99
  A 1.32 1.30 13.7 0 1 737.54 1232.82
  Q 737.08 1233.84 735.93 1233.95
  Q 725.93 1234.93 716.47 1234.32
  A 0.79 0.78 1.6 0 1 715.73 1233.55
  Z"
/>
<path fill="#6a584c" d="
  M 1191.13 1233.13
  A 1.36 1.35 -0.0 0 1 1189.77 1234.48
  L 1188.10 1234.48
  A 1.51 1.50 0.2 0 1 1186.59 1232.97
  Q 1186.71 1211.00 1186.58 1204.59
  Q 1186.56 1203.27 1186.20 1200.68
  C 1185.73 1197.19 1189.40 1197.33 1190.66 1199.27
  Q 1194.84 1205.71 1199.19 1211.18
  Q 1202.06 1214.78 1207.62 1222.39
  A 0.86 0.86 0.0 0 0 1209.17 1221.85
  Q 1209.01 1217.60 1209.26 1208.80
  C 1209.35 1205.73 1208.67 1201.90 1209.42 1199.67
  Q 1210.30 1197.03 1212.54 1198.03
  A 3.23 2.69 -78.4 0 1 1214.13 1201.00
  Q 1213.87 1206.35 1213.90 1207.25
  Q 1214.31 1218.96 1213.99 1231.25
  Q 1213.95 1232.68 1213.57 1233.81
  A 1.33 1.33 0.0 0 1 1211.63 1234.53
  Q 1209.90 1233.50 1208.51 1231.47
  Q 1200.85 1220.26 1193.12 1211.00
  A 1.13 1.13 0.0 0 0 1191.13 1211.72
  L 1191.13 1233.13
  Z"
/>
<rect fill="#6a584c" x="-2.28" y="-18.41" transform="translate(565.76,1216.33) rotate(0.4)" width="4.56" height="36.82" rx="2.23"/>
<path fill="#6a584c" d="
  M 657.31 1232.90
  A 1.14 1.13 -9.4 0 1 656.23 1234.40
  L 654.90 1234.40
  A 2.37 2.37 0.0 0 1 652.69 1232.89
  L 650.23 1226.55
  A 0.87 0.86 3.0 0 0 649.81 1226.09
  Q 648.43 1225.42 647.01 1225.40
  Q 641.67 1225.33 635.05 1225.55
  A 2.33 2.31 8.4 0 0 632.94 1227.10
  L 631.05 1232.56
  A 2.63 2.62 -80.5 0 1 628.57 1234.33
  L 627.63 1234.33
  A 1.46 1.46 0.0 0 1 626.24 1232.42
  Q 630.14 1220.50 635.54 1209.32
  Q 636.52 1207.28 637.76 1203.75
  Q 638.91 1200.50 640.85 1198.31
  A 1.05 1.05 0.0 0 1 642.45 1198.35
  Q 643.77 1199.98 644.66 1202.31
  Q 646.96 1208.38 648.61 1211.89
  Q 654.24 1223.94 657.31 1232.90
  Z
  M 636.12 1219.77
  A 0.90 0.90 0.0 0 0 636.96 1221.00
  L 646.04 1221.01
  A 0.90 0.90 0.0 0 0 646.88 1219.79
  L 642.36 1208.14
  A 0.90 0.90 0.0 0 0 640.69 1208.13
  L 636.12 1219.77
  Z"
/>
<path fill="#6a584c" d="
  M 1040.51 1233.42
  A 0.75 0.75 0.0 0 1 1039.84 1234.46
  L 1037.20 1234.55
  A 1.54 1.53 78.1 0 1 1035.72 1233.58
  L 1033.27 1227.26
  A 3.03 3.03 0.0 0 0 1030.44 1225.32
  L 1018.15 1225.32
  A 2.40 2.39 -80.4 0 0 1015.89 1226.93
  L 1013.76 1233.06
  A 1.98 1.98 0.0 0 1 1011.89 1234.39
  L 1010.23 1234.39
  A 1.30 1.29 8.7 0 1 1008.99 1232.71
  Q 1010.91 1226.55 1013.15 1222.32
  A 10.87 10.54 -24.4 0 0 1014.07 1219.98
  Q 1015.04 1216.32 1016.87 1212.90
  C 1019.15 1208.65 1020.98 1202.31 1023.60 1198.59
  A 1.25 1.24 -49.0 0 1 1025.52 1198.45
  Q 1026.87 1199.87 1027.49 1201.78
  Q 1029.17 1206.98 1031.07 1210.91
  C 1034.80 1218.63 1036.79 1224.29 1040.51 1233.42
  Z
  M 1019.30 1219.88
  A 0.65 0.65 0.0 0 0 1019.90 1220.78
  L 1029.28 1220.82
  A 0.65 0.65 0.0 0 0 1029.88 1219.94
  L 1025.25 1208.18
  A 0.65 0.65 0.0 0 0 1024.05 1208.18
  L 1019.30 1219.88
  Z"
/>
<path fill="#6a584c" d="
  M 363.11 1209.45
  Q 410.21 1209.49 431.48 1209.78
  Q 454.60 1210.08 460.72 1210.38
  Q 462.14 1210.45 462.13 1211.40
  Q 462.13 1212.36 460.72 1212.42
  Q 454.60 1212.71 431.47 1212.98
  Q 410.21 1213.22 363.11 1213.18
  Q 316.01 1213.14 294.75 1212.86
  Q 271.62 1212.55 265.50 1212.25
  Q 264.09 1212.18 264.09 1211.23
  Q 264.09 1210.28 265.50 1210.21
  Q 271.62 1209.92 294.75 1209.66
  Q 316.02 1209.41 363.11 1209.45
  Z"
/>
<rect fill="#6a584c" x="-93.26" y="-1.71" transform="translate(1419.10,1211.42) rotate(0.1)" width="186.52" height="3.42" rx="1.69"/>
</svg>
