<?xml version="1.0" standalone="no"?>
<!DOCTYPE svg PUBLIC "-//W3C//DTD SVG 20010904//EN"
 "http://www.w3.org/TR/2001/REC-SVG-20010904/DTD/svg10.dtd">
<svg version="1.0" xmlns="http://www.w3.org/2000/svg"
 width="1810.000000pt" height="1102.000000pt" viewBox="0 0 1810.000000 1102.000000"
 preserveAspectRatio="xMidYMid meet">
<metadata>
Created by potrace 1.16, written by Peter Selinger 2001-2019
</metadata>
<g transform="translate(0.000000,1102.000000) scale(0.100000,-0.100000)"
fill="#000000" stroke="none">
<path d="M11713 10806 c-5 -8 -19 -16 -33 -18 -20 -2 -26 -10 -28 -34 -2 -25
-7 -31 -22 -27 -34 9 -33 -31 3 -104 58 -115 71 -153 60 -164 -7 -7 -20 -2
-40 15 -94 79 -126 34 -52 -74 22 -33 45 -60 50 -60 5 0 9 -5 9 -11 0 -6 25
-36 56 -66 30 -30 59 -66 65 -79 5 -14 9 -150 9 -301 0 -152 5 -317 12 -366
13 -107 -15 -297 -45 -297 -13 0 -36 31 -37 49 -1 39 -41 61 -99 55 -51 -6
-58 -4 -82 19 -52 53 -227 54 -310 2 -94 -60 -158 -146 -185 -249 -17 -66 -19
-69 -63 -88 -43 -18 -141 -108 -141 -130 0 -5 -6 -24 -14 -41 -41 -92 -44
-457 -7 -720 20 -147 22 -175 11 -230 -30 -152 -22 -172 48 -123 83 57 131
134 132 208 0 15 5 30 10 33 6 4 10 -11 10 -38 0 -28 6 -49 15 -57 61 -51 89
300 35 425 -5 11 -17 45 -26 75 -9 30 -23 74 -30 98 -46 144 -54 303 -18 375
27 52 27 52 45 0 50 -147 136 -223 284 -254 102 -21 126 -66 90 -172 -39 -116
-48 -189 -46 -377 7 -524 10 -475 -27 -573 -43 -117 -119 -212 -218 -272 -50
-30 -179 -85 -201 -85 -63 0 -256 -114 -318 -189 -67 -80 -139 -138 -190 -154
-11 -3 -58 -20 -105 -37 -85 -32 -118 -41 -348 -99 -264 -67 -458 -89 -636
-72 -249 24 -470 25 -636 2 -227 -30 -290 -40 -335 -52 -22 -6 -87 -11 -145
-11 -111 -1 -151 11 -206 63 -25 23 -86 35 -136 25 -32 -6 -89 -53 -159 -132
-18 -20 -52 -38 -110 -58 -105 -35 -157 -61 -191 -97 -15 -16 -47 -34 -74 -41
-58 -16 -75 -44 -50 -84 18 -26 18 -26 199 -21 100 3 256 12 347 21 379 35
455 38 855 33 383 -5 460 -9 730 -39 73 -8 244 -13 440 -13 353 1 483 11 823
67 181 30 195 31 225 16 73 -36 167 -69 237 -83 41 -9 98 -20 125 -26 112 -23
884 -37 1048 -19 201 23 245 38 311 106 46 47 59 93 55 186 -11 205 -138 247
-861 284 -98 5 -128 10 -128 20 0 8 5 14 10 14 6 0 10 7 10 15 0 8 4 15 9 15
12 0 71 62 71 74 0 6 9 20 21 32 32 34 58 84 170 320 10 22 19 46 19 52 0 7 9
31 20 55 48 104 71 208 101 452 7 60 19 112 31 130 10 17 18 49 18 73 0 23 5
42 10 42 14 0 13 49 -2 91 -15 45 -43 86 -109 158 -161 178 -208 301 -160 419
11 26 36 101 56 167 20 66 41 131 46 145 12 34 35 167 49 275 6 50 15 112 20
138 12 59 12 186 0 247 -5 25 -18 86 -30 135 -26 113 -31 137 -69 315 -19 89
-35 201 -41 290 -10 154 -17 190 -51 257 -25 48 -100 123 -123 123 -9 0 -19 6
-22 14 -8 21 -32 27 -41 12z m44 -53 c14 -16 33 -45 43 -66 17 -37 17 -37 35
-17 40 44 85 -94 85 -258 0 -105 12 -205 30 -247 5 -11 16 -56 25 -100 15 -76
30 -143 54 -248 6 -26 11 -58 11 -72 0 -13 4 -26 8 -29 27 -16 35 -176 17
-314 -24 -182 -51 -340 -64 -377 -6 -16 -25 -77 -42 -135 -17 -58 -43 -139
-58 -180 -50 -131 -50 -134 16 -261 33 -63 66 -114 75 -117 10 -2 20 -14 24
-26 4 -11 40 -56 80 -99 93 -99 102 -155 44 -267 -26 -48 -31 -75 -45 -223 -9
-92 -23 -186 -31 -209 -8 -22 -14 -50 -14 -62 0 -11 -7 -30 -15 -40 -8 -11
-15 -28 -15 -37 0 -10 -6 -30 -14 -46 -7 -15 -23 -48 -34 -73 -77 -170 -140
-290 -174 -330 -7 -8 -26 -34 -41 -59 -16 -24 -46 -61 -68 -82 -45 -43 -44
-42 -23 -63 12 -12 38 -16 112 -16 277 0 659 -43 752 -83 115 -50 167 -171
120 -276 -11 -24 -20 -48 -20 -55 -1 -31 -119 -83 -236 -105 -77 -14 -819 -15
-987 -1 -182 16 -326 50 -444 107 -76 37 -126 40 -233 12 -54 -13 -255 -47
-360 -60 -226 -28 -953 -23 -1001 7 -14 8 -25 9 -474 22 -321 10 -809 1 -990
-18 -463 -49 -585 -50 -593 -7 -2 11 7 21 25 28 78 32 99 44 111 61 18 25 76
53 142 68 60 14 150 57 150 71 0 15 99 109 126 119 46 18 98 12 135 -16 84
-63 102 -67 247 -61 73 3 167 13 210 22 277 55 462 65 794 41 313 -21 413 -11
799 87 388 99 437 123 613 304 27 28 127 103 137 103 6 0 25 7 42 15 18 8 57
23 87 34 141 51 193 73 231 98 23 16 53 35 66 44 34 23 107 127 131 185 57
141 58 158 36 637 -5 122 10 236 42 314 8 19 18 72 21 117 7 109 -4 124 -106
137 -41 5 -81 15 -90 23 -9 7 -26 17 -37 20 -39 12 -131 119 -144 167 -23 90
-25 94 -44 94 -25 0 -51 -47 -73 -129 -16 -61 -16 -69 1 -148 29 -137 37 -172
46 -193 10 -24 43 -137 64 -223 25 -98 17 -270 -11 -280 -9 -2 -13 12 -13 52
0 113 -34 142 -44 39 -12 -114 -40 -182 -101 -249 -40 -42 -58 -55 -66 -47 -8
8 -6 19 5 41 22 42 21 148 -3 319 -29 207 -31 227 -31 368 0 204 21 320 71
383 10 14 19 30 19 36 0 15 67 58 110 72 30 9 37 17 46 56 17 67 52 140 74
155 11 8 20 20 20 26 0 7 12 21 26 32 14 10 34 27 46 36 65 57 237 72 302 26
32 -22 50 -27 98 -27 63 0 68 -5 82 -70 3 -14 19 -33 36 -43 30 -18 30 -18 49
25 34 80 54 214 42 277 -6 31 -12 198 -14 371 -5 359 -4 357 -86 433 -28 26
-51 51 -51 56 0 6 -8 12 -18 15 -9 3 -22 14 -27 24 -33 61 -38 73 -32 78 4 4
17 -1 29 -10 13 -9 33 -23 45 -32 59 -42 62 71 4 162 -21 34 -42 72 -46 85 -7
24 -7 24 22 -3 16 -16 33 -28 37 -28 8 0 7 11 -9 85 -7 30 -7 30 14 5 12 -14
26 -37 33 -52 7 -15 15 -22 19 -16 6 10 -5 55 -22 90 -19 37 -7 37 28 1z"/>
<path d="M2378 7275 c-52 -14 -106 -51 -154 -104 -75 -82 -48 -255 57 -366
148 -156 165 -183 163 -255 -3 -154 -176 -226 -298 -123 -41 34 -49 54 -55
143 -5 68 -8 75 -28 78 -18 3 -23 -1 -22 -20 0 -21 1 -22 8 -3 12 31 31 -12
31 -70 0 -197 270 -261 360 -86 50 99 29 150 -140 331 -120 130 -140 274 -50
382 69 83 213 107 331 55 37 -17 60 -22 70 -16 24 15 29 10 29 -23 -1 -33 -33
-164 -43 -175 -13 -13 -27 12 -28 50 -2 42 -2 42 -9 -3 -8 -48 2 -80 25 -80
20 0 27 14 53 110 38 134 34 176 -14 145 -23 -15 -32 -16 -65 -5 -22 7 -39 16
-39 21 0 6 -36 15 -105 23 -16 3 -51 -2 -77 -9z"/>
<path d="M4986 7251 c-17 -19 -17 -20 6 -33 13 -7 32 -13 43 -13 16 0 20 -6
18 -30 -2 -25 -1 -27 7 -10 15 34 12 55 -9 55 -32 0 -50 11 -44 26 7 19 179
20 186 2 2 -7 -2 -30 -9 -52 -20 -56 -16 -67 6 -22 42 84 30 96 -99 96 -74 0
-91 -3 -105 -19z"/>
<path d="M2409 7227 c-36 -12 -89 -49 -89 -62 0 -4 14 5 30 19 67 56 192 39
225 -31 9 -19 19 -32 22 -30 14 14 -32 69 -77 92 -55 28 -60 28 -111 12z"/>
<path d="M5637 7192 c-23 -26 -23 -100 1 -118 33 -26 112 -11 112 21 0 7 5 15
12 17 16 6 2 54 -24 78 -27 25 -79 26 -101 2z m93 -12 c56 -56 -23 -146 -82
-93 -26 23 -24 78 4 97 30 21 54 20 78 -4z"/>
<path d="M2306 7134 c-13 -34 -5 -97 19 -142 23 -46 205 -244 205 -224 0 6
-38 48 -84 95 -110 113 -129 145 -130 224 -1 69 -1 70 -10 47z"/>
<path d="M5036 7114 c-4 -14 -5 -28 -3 -31 3 -2 8 8 11 23 4 14 5 28 3 31 -3
2 -8 -8 -11 -23z"/>
<path d="M5111 6980 c-50 -149 -59 -179 -41 -150 14 26 102 291 97 296 -2 3
-28 -63 -56 -146z"/>
<path d="M3180 7081 c-65 -23 -68 -27 -86 -87 -15 -54 -15 -54 -65 -54 -50 0
-50 0 -47 -32 3 -29 7 -33 35 -36 31 -3 31 -3 16 -50 -15 -49 -29 -85 -44
-114 -5 -10 -9 -28 -9 -40 1 -23 18 15 61 135 24 68 21 82 -20 90 -17 4 -31
11 -31 17 0 10 8 12 60 14 20 1 30 12 54 63 25 54 34 63 73 78 58 22 71 12 55
-43 -15 -48 -15 -55 -2 -47 6 3 10 16 10 29 0 12 5 27 11 33 13 13 4 49 -14
56 -7 2 -32 -3 -57 -12z"/>
<path d="M5017 7063 c-4 -3 -7 -16 -6 -27 0 -19 1 -19 10 3 10 24 8 36 -4 24z"/>
<path d="M4997 7003 c-4 -3 -7 -16 -6 -27 0 -19 1 -19 10 3 10 24 8 36 -4 24z"/>
<path d="M3207 6953 c-9 -15 12 -29 47 -31 55 -4 45 -32 -12 -32 -56 0 -66
-15 -116 -162 -13 -40 -43 -125 -65 -188 -23 -63 -41 -122 -41 -132 0 -21 36
-43 45 -27 4 5 18 14 31 19 13 5 24 15 24 23 0 7 9 19 20 27 11 8 20 20 20 27
0 7 5 13 10 13 12 0 -20 -64 -48 -97 -34 -39 -96 -65 -136 -57 -73 13 -84 77
-36 214 16 46 27 86 25 88 -5 5 -11 -9 -49 -124 -29 -85 -26 -145 8 -173 17
-14 98 -25 129 -17 60 15 164 159 138 190 -11 13 -16 13 -42 -6 -16 -12 -29
-27 -29 -32 -1 -15 -36 -56 -49 -56 -5 0 -14 -8 -20 -17 -8 -14 -12 -15 -22
-6 -10 10 1 49 51 185 34 95 71 198 82 229 19 57 19 57 78 63 33 4 62 11 66
17 11 18 -27 49 -62 49 -18 0 -34 5 -36 12 -3 8 -6 9 -11 1z"/>
<path d="M4977 6944 c-4 -4 -7 -14 -7 -23 0 -11 3 -12 11 -4 6 6 10 16 7 23
-2 6 -7 8 -11 4z"/>
<path d="M3652 6925 c-30 -16 -53 -42 -86 -93 -35 -55 -34 -72 4 -72 17 0 30
4 30 9 0 11 68 95 81 99 21 8 4 -71 -35 -163 -7 -16 -23 -55 -35 -85 -13 -30
-29 -68 -37 -83 -16 -33 -19 -130 -4 -157 17 -33 74 -60 124 -60 54 0 91 17
147 67 38 34 39 35 39 12 1 -52 75 -97 133 -81 36 10 107 69 107 89 0 7 9 18
20 25 11 7 20 23 20 35 0 12 5 25 10 28 7 4 7 13 0 26 -11 19 -12 19 -40 -3
-15 -13 -36 -40 -45 -60 -10 -21 -23 -34 -30 -32 -7 3 -15 -4 -18 -15 -6 -23
-27 -29 -27 -8 0 7 12 48 26 91 32 100 25 110 -10 12 -31 -89 -34 -126 -8
-126 19 0 72 51 91 88 7 12 16 22 21 22 16 0 11 -40 -5 -46 -8 -4 -15 -11 -15
-18 0 -6 -16 -29 -36 -51 -33 -37 -39 -40 -88 -40 -70 0 -90 20 -89 86 1 57
-5 60 -32 19 -11 -17 -45 -49 -75 -71 -72 -53 -144 -54 -192 0 -42 47 -35 97
45 296 43 108 69 194 62 205 -18 29 -95 -11 -95 -49 0 -12 -29 -35 -37 -28 -9
9 24 57 69 100 73 69 168 41 168 -49 0 -31 -44 -176 -60 -199 -4 -5 -10 -19
-13 -30 -3 -11 -17 -51 -31 -90 -34 -92 -34 -132 0 -147 20 -9 29 -9 42 0 9 7
26 16 38 21 53 24 159 209 218 385 44 128 49 136 100 136 29 0 46 -5 49 -14 3
-8 -16 -79 -44 -158 -27 -78 -49 -147 -48 -153 1 -17 37 69 38 90 1 12 5 25
10 30 4 6 21 50 36 99 34 110 30 120 -48 122 -55 2 -55 2 -92 -108 -20 -61
-43 -124 -50 -142 -7 -17 -16 -38 -19 -46 -3 -8 -17 -33 -31 -55 -14 -22 -32
-54 -39 -71 -34 -71 -131 -141 -166 -119 -15 9 -12 43 9 100 10 28 33 91 51
140 18 50 39 99 46 110 21 30 18 124 -6 163 -18 30 -23 32 -72 31 -29 -1 -63
-7 -76 -14z"/>
<path d="M4708 6907 c-73 -41 -141 -104 -164 -153 -10 -22 -24 -45 -31 -52
-43 -44 -59 -222 -25 -287 56 -110 176 -128 279 -41 32 27 53 28 53 2 0 -7 10
-22 23 -34 35 -33 137 -29 137 5 0 10 6 13 15 9 10 -3 18 1 22 12 4 9 22 39
40 66 35 51 40 89 13 94 -10 1 -25 -13 -38 -35 -65 -114 -132 -128 -86 -18 8
20 13 42 11 48 -6 18 -39 -90 -35 -115 5 -37 34 -33 73 9 19 21 38 46 41 56 5
16 34 25 34 9 0 -10 -60 -93 -87 -119 -63 -62 -163 -28 -163 57 0 27 -1 26
-51 -20 -108 -99 -209 -91 -267 21 -72 137 49 400 222 482 97 46 216 31 216
-28 0 -8 7 -15 15 -15 8 0 15 9 15 20 0 13 -5 18 -15 14 -9 -4 -15 0 -15 10 0
48 -147 50 -232 3z"/>
<path d="M5509 6924 c-28 -15 -79 -84 -79 -108 0 -8 -6 -16 -12 -19 -10 -3
-10 -7 1 -20 16 -20 41 -22 41 -4 0 13 73 97 85 97 8 0 6 -35 -3 -45 -5 -6
-15 -30 -22 -55 -8 -25 -18 -50 -23 -57 -5 -7 -7 -20 -5 -30 4 -18 68 145 68
173 0 45 -60 15 -101 -51 -18 -29 -19 -29 -19 -6 0 28 45 91 65 91 8 0 19 9
25 20 8 15 21 20 55 20 49 0 72 -17 81 -58 10 -45 14 -49 10 -8 -7 58 -29 76
-90 75 -28 -1 -63 -7 -77 -15z"/>
<path d="M6224 6925 c-3 -8 -16 -17 -27 -21 -111 -34 -217 -242 -201 -391 37
-329 500 -205 545 146 13 109 -35 227 -110 266 -41 21 -199 21 -207 0z m222
-30 c197 -151 23 -557 -240 -559 -89 0 -126 18 -167 82 -44 69 -40 214 10 312
30 61 104 150 124 150 5 0 21 8 35 19 58 41 182 39 238 -4z"/>
<path d="M6298 6886 c-77 -34 -128 -120 -174 -294 -17 -63 -19 -126 -4 -117 6
4 8 15 5 26 -8 23 21 141 37 150 6 4 7 12 3 18 -9 15 46 126 82 167 86 97 185
43 167 -91 -6 -45 -41 -171 -55 -197 -5 -10 -9 -25 -9 -33 0 -8 -4 -15 -9 -15
-5 0 -14 -14 -21 -31 -18 -42 -84 -89 -125 -89 -34 0 -58 19 -74 60 -10 25
-10 25 -10 2 -1 -33 50 -82 86 -82 84 0 186 159 223 351 28 141 -26 218 -122
175z"/>
<path d="M4799 6880 c-72 -38 -149 -150 -185 -268 -24 -80 -14 -71 17 16 43
121 105 211 164 239 26 13 81 9 100 -7 25 -21 19 -106 -14 -185 -80 -196 -154
-285 -235 -285 -33 0 -40 13 -47 90 -6 65 -6 65 -7 2 -4 -134 83 -147 191 -29
20 23 37 45 37 49 0 4 14 38 31 75 54 116 81 203 74 237 -12 58 -16 64 -47 75
-39 14 -36 14 -79 -9z"/>
<path d="M5636 6740 c-16 -47 -32 -89 -37 -94 -5 -6 -9 -19 -8 -30 1 -22 38
47 39 72 0 7 9 32 21 57 11 24 19 52 17 62 -2 10 -16 -20 -32 -67z"/>
<path d="M5045 6790 c-4 -12 -5 -24 -2 -27 3 -2 8 5 12 17 4 12 5 24 2 27 -3
2 -8 -5 -12 -17z"/>
<path d="M2531 6745 c3 -5 13 -28 24 -50 25 -54 24 -142 -4 -195 -24 -45 -25
-50 -12 -50 15 0 51 101 51 145 0 50 -25 129 -47 147 -9 7 -14 9 -12 3z"/>
<path d="M5015 6705 c-9 -26 -15 -48 -13 -51 3 -2 13 16 23 41 9 26 15 48 13
51 -3 2 -13 -16 -23 -41z"/>
<path d="M5457 6603 c-4 -3 -7 -16 -6 -27 0 -19 1 -19 10 3 10 24 8 36 -4 24z"/>
<path d="M2027 6593 c-9 -16 -29 -114 -24 -119 3 -3 8 10 12 28 3 18 11 46 17
61 10 25 6 49 -5 30z"/>
<path d="M4965 6570 c-4 -12 -5 -24 -2 -27 3 -2 8 5 12 17 4 12 5 24 2 27 -3
2 -8 -5 -12 -17z"/>
<path d="M5552 6509 c-35 -88 -38 -111 -19 -127 16 -14 43 9 85 71 33 47 52
59 52 34 0 -25 -68 -109 -106 -133 -66 -40 -142 -22 -145 34 0 9 -3 12 -5 5
-3 -6 2 -25 11 -42 20 -40 92 -44 150 -10 37 22 115 126 115 153 0 54 -37 51
-66 -6 -9 -17 -31 -46 -50 -65 -48 -47 -52 -25 -15 77 40 108 34 115 -7 9z"/>
<path d="M5434 6534 c-3 -10 -10 -29 -15 -42 -5 -13 -9 -33 -8 -45 0 -12 9 5
19 38 11 32 17 61 15 64 -3 2 -7 -5 -11 -15z"/>
<path d="M5582 6508 c-14 -14 -16 -38 -3 -38 10 0 26 39 19 46 -2 2 -10 -2
-16 -8z"/>
<path d="M1981 6429 c-25 -73 0 -115 40 -65 26 34 41 33 103 -5 109 -68 269
-48 371 45 40 37 40 37 -10 0 -78 -57 -109 -68 -210 -68 -82 0 -95 3 -148 32
-67 37 -87 39 -112 12 -24 -27 -35 -10 -24 38 10 46 5 53 -10 11z"/>
<path d="M10697 5520 c-59 -4 -111 -11 -115 -15 -4 -4 23 -4 59 0 36 4 155 10
265 14 199 8 199 8 49 8 -82 0 -199 -3 -258 -7z"/>
<path d="M11165 5513 c33 -2 160 -12 283 -24 123 -12 226 -19 228 -16 3 3 -28
8 -68 12 -40 3 -136 13 -213 21 -77 8 -174 13 -215 12 -71 -2 -72 -2 -15 -5z"/>
<path d="M14050 5505 c-106 -24 -113 -26 -108 -30 3 -3 47 5 99 16 90 20 182
22 259 4 25 -6 25 -6 0 6 -40 18 -178 20 -250 4z"/>
<path d="M10396 5485 c-104 -18 -218 -46 -212 -53 3 -2 26 0 51 7 25 6 64 16
88 21 23 6 87 17 142 24 58 8 81 14 55 14 -25 0 -81 -6 -124 -13z"/>
<path d="M13045 5471 c-22 -11 -49 -22 -59 -25 -10 -4 -16 -9 -13 -12 3 -3 27
4 52 15 68 30 101 21 63 -17 -16 -16 3 -15 25 2 21 16 22 42 1 50 -21 8 -23 8
-69 -13z"/>
<path d="M14342 5483 c23 -6 30 -29 12 -44 -12 -10 -26 -9 -68 4 -29 10 -68
16 -87 16 -27 -1 -23 -3 20 -10 30 -5 59 -13 65 -18 11 -9 39 -14 68 -12 9 0
20 10 23 21 8 24 -10 50 -34 49 -14 -1 -14 -2 1 -6z"/>
<path d="M11785 5455 c200 -26 220 -28 215 -22 -8 8 -233 37 -278 36 -20 -1 8
-7 63 -14z"/>
<path d="M13875 5463 c-16 -3 -37 -10 -45 -17 -8 -7 -49 -29 -90 -50 -41 -21
-82 -44 -90 -51 -8 -7 -31 -21 -51 -31 -34 -18 -76 -49 -134 -99 -13 -12 -38
-32 -56 -45 -56 -43 -228 -220 -285 -294 -30 -39 -92 -120 -139 -181 -46 -60
-89 -115 -95 -122 -5 -6 -19 -29 -31 -50 -12 -21 -24 -40 -28 -43 -12 -10
-121 -175 -121 -185 -1 -5 -14 -26 -30 -45 -17 -19 -30 -38 -30 -42 0 -12 -51
-89 -72 -111 -10 -10 -18 -24 -18 -31 0 -7 -13 -30 -30 -51 -16 -21 -30 -41
-30 -46 0 -7 -13 -28 -82 -131 -10 -15 -18 -34 -18 -43 0 -8 -4 -15 -8 -15 -5
0 -17 -17 -28 -37 -30 -56 -48 -87 -54 -93 -13 -13 -51 -72 -60 -92 -5 -13
-23 -45 -40 -73 -17 -27 -33 -58 -37 -67 -3 -10 -9 -18 -14 -18 -5 0 -16 -15
-24 -32 -8 -18 -31 -58 -49 -88 -19 -30 -44 -75 -57 -100 -12 -25 -25 -47 -29
-50 -12 -10 -41 -62 -37 -66 2 -2 17 17 34 44 27 43 58 95 207 345 57 96 55
93 169 279 48 78 92 150 97 158 281 460 420 666 640 950 223 287 525 520 810
623 18 7 3 7 -45 0z"/>
<path d="M14065 5450 c-20 -9 -20 -9 0 -8 11 0 31 4 45 8 25 8 25 8 0 8 -14 0
-34 -3 -45 -8z"/>
<path d="M10566 5439 c-49 -5 -92 -12 -95 -15 -3 -4 23 -3 59 1 36 4 182 11
325 15 260 6 260 6 30 7 -126 0 -270 -4 -319 -8z"/>
<path d="M11185 5430 c69 -11 162 -11 120 0 -16 4 -61 8 -100 7 -70 0 -70 0
-20 -7z"/>
<path d="M13996 5431 c-16 -6 -17 -9 -5 -13 8 -3 23 0 34 8 21 16 5 18 -29 5z"/>
<path d="M10120 5420 c0 -13 11 -13 30 0 12 8 11 10 -7 10 -13 0 -23 -4 -23
-10z"/>
<path d="M12060 5419 c64 -11 102 -11 75 1 -11 5 -42 8 -70 8 -50 -1 -50 -1
-5 -9z"/>
<path d="M12915 5420 c-8 -13 15 -13 35 0 12 8 11 10 -7 10 -12 0 -25 -4 -28
-10z"/>
<path d="M10375 5410 c-30 -8 -30 -8 0 -8 17 0 41 4 55 8 25 8 25 8 0 8 -14 0
-38 -4 -55 -8z"/>
<path d="M11395 5410 c11 -5 40 -8 65 -8 41 0 42 1 15 8 -44 11 -106 11 -80 0z"/>
<path d="M13025 5399 c-16 -10 -23 -19 -15 -19 8 0 26 9 40 20 32 25 14 25
-25 -1z"/>
<path d="M13902 5389 c-195 -105 -367 -294 -694 -762 -90 -130 -352 -531 -408
-627 -5 -8 -32 -52 -60 -97 -27 -46 -105 -174 -171 -285 -67 -112 -131 -216
-141 -231 -11 -16 -18 -30 -16 -33 6 -5 58 71 58 84 0 5 11 19 25 32 14 13 25
29 25 35 0 7 9 20 20 30 11 10 20 24 20 32 0 7 17 42 38 76 21 35 41 70 45 77
4 8 20 35 36 60 24 37 90 145 144 235 7 11 14 22 17 25 3 3 25 37 48 75 61
101 64 105 100 158 17 26 32 51 32 55 0 5 8 17 18 28 9 11 24 32 32 46 8 14
23 36 32 49 10 13 39 56 65 94 25 39 50 72 55 73 4 2 8 9 8 16 0 6 13 27 30
46 16 19 29 38 30 42 0 4 6 16 14 25 8 10 62 81 119 158 58 77 121 156 141
174 20 19 36 40 36 47 0 7 9 16 20 19 11 3 20 10 20 15 0 23 192 178 273 220
26 14 47 28 47 32 0 10 5 12 -58 -23z"/>
<path d="M218 5396 c-45 -34 -15 -57 70 -54 57 2 57 2 7 5 -53 5 -77 17 -69
36 4 12 1976 19 1987 7 6 -6 32 -365 32 -444 0 -80 -19 -85 -40 -9 -56 205
-143 304 -320 367 -74 26 -239 36 -643 36 -422 0 -422 0 -435 -27 -14 -34 -24
-1523 -9 -1549 12 -22 693 -21 770 1 84 25 129 55 169 112 25 35 59 131 49
140 -3 3 -9 -8 -12 -26 -4 -17 -11 -34 -15 -37 -5 -3 -9 -16 -9 -29 0 -12 -7
-25 -15 -29 -8 -3 -15 -11 -15 -19 0 -16 -38 -50 -81 -72 -78 -41 -129 -46
-486 -45 -343 1 -343 1 -344 73 -4 299 0 1432 6 1456 5 22 14 33 33 38 53 13
902 -6 977 -22 188 -40 311 -154 354 -325 15 -56 42 -120 51 -120 26 0 33 35
27 138 -13 207 -30 387 -40 400 -14 18 -1974 17 -1999 -2z"/>
<path d="M12235 5400 c28 -5 73 -8 100 -8 50 1 50 1 0 8 -27 5 -72 8 -100 8
-50 -1 -50 -1 0 -8z"/>
<path d="M12820 5400 c-24 -8 -24 -8 5 -8 17 0 39 3 50 8 18 8 18 9 -5 8 -14
0 -36 -4 -50 -8z"/>
<path d="M10280 5390 c-13 -9 -13 -10 0 -10 8 0 22 5 30 10 13 9 13 10 0 10
-8 0 -22 -5 -30 -10z"/>
<path d="M11560 5389 c25 -4 56 -7 70 -7 25 0 25 0 0 8 -14 4 -45 8 -70 8 -45
-1 -45 -1 0 -9z"/>
<path d="M9990 5380 c0 -13 11 -13 30 0 12 8 11 10 -7 10 -13 0 -23 -4 -23
-10z"/>
<path d="M12494 5378 c49 -6 118 -6 185 0 106 9 106 9 -79 9 -165 0 -177 -1
-106 -9z"/>
<path d="M10165 5362 c-50 -14 -55 -17 -31 -20 16 -2 33 1 39 7 6 6 22 11 37
11 14 0 32 5 40 10 23 15 -13 11 -85 -8z"/>
<path d="M11690 5370 c19 -4 64 -13 100 -19 36 -5 97 -16 136 -22 39 -6 77
-10 85 -7 8 3 -22 10 -66 17 -44 7 -118 19 -165 27 -92 14 -147 17 -90 4z"/>
<path d="M12885 5340 c-40 -15 -45 -19 -23 -19 15 -1 30 4 33 9 3 6 15 10 26
10 10 0 19 5 19 10 0 6 -1 10 -2 9 -2 0 -25 -9 -53 -19z"/>
<path d="M385 5325 c63 -28 96 -82 115 -189 15 -89 14 -2722 -2 -2835 -11 -82
-14 -88 -57 -132 -48 -48 -51 -49 -178 -64 -34 -5 -54 -12 -58 -23 -15 -40 11
-42 448 -42 418 0 457 3 457 35 0 14 -37 31 -47 21 -4 -3 1 -6 11 -6 11 0 16
-6 14 -17 -3 -17 -33 -18 -428 -21 -276 -1 -427 1 -434 8 -18 18 9 31 83 41
83 10 117 26 158 72 54 62 55 70 51 1602 -3 1381 -3 1390 -24 1445 -22 57 -87
121 -122 119 -10 0 -5 -6 13 -14z"/>
<path d="M10000 5310 c-355 -125 -682 -393 -837 -687 -46 -87 -87 -192 -78
-201 2 -3 7 4 11 14 31 100 128 294 147 294 4 0 7 5 7 10 0 14 91 124 143 175
81 77 171 155 180 155 4 0 25 13 45 29 46 37 123 81 260 150 50 26 174 71 193
71 10 0 21 5 24 10 9 15 -2 13 -95 -20z"/>
<path d="M9770 5288 c-41 -22 -105 -60 -142 -84 -38 -24 -72 -44 -76 -44 -4 0
-20 -13 -37 -28 -16 -15 -57 -48 -90 -74 -33 -25 -82 -71 -110 -103 -27 -32
-59 -67 -71 -79 -11 -11 -42 -55 -69 -96 -26 -41 -55 -86 -64 -100 -10 -14
-23 -41 -31 -60 -7 -19 -17 -39 -22 -44 -4 -6 -8 -17 -7 -25 0 -9 17 19 39 61
139 278 370 503 673 658 65 33 110 59 100 59 -10 -1 -52 -19 -93 -41z"/>
<path d="M12035 5315 c22 -9 221 -35 259 -34 23 1 -20 9 -94 19 -129 18 -186
23 -165 15z"/>
<path d="M12785 5310 c-20 -9 -20 -9 0 -9 11 0 27 4 35 9 20 13 -5 13 -35 0z"/>
<path d="M12690 5293 c-19 -3 -39 -8 -43 -12 -5 -5 18 -4 50 1 90 14 86 22 -7
11z"/>
<path d="M12435 5270 c50 -4 108 -4 130 0 27 5 -2 8 -90 7 -130 0 -130 0 -40
-7z"/>
<path d="M12150 5153 c-60 -23 -102 -44 -97 -49 3 -3 13 -1 24 5 67 36 143 47
143 22 0 -5 -29 -22 -64 -40 -109 -54 -269 -212 -391 -389 -46 -65 -58 -85
-80 -121 -11 -18 -30 -46 -42 -61 -13 -15 -23 -31 -23 -35 0 -5 -11 -23 -25
-41 -14 -18 -25 -35 -25 -38 0 -2 -32 -58 -71 -123 -40 -65 -95 -158 -124
-208 -28 -49 -66 -114 -83 -142 -17 -29 -28 -53 -23 -53 4 0 14 12 21 28 8 15
22 38 31 52 10 14 32 53 50 85 18 33 52 91 76 128 23 37 43 70 43 73 0 3 14
25 30 49 17 24 30 47 30 50 0 4 17 32 37 63 39 59 65 101 85 140 13 25 24 28
31 10 2 -7 2 -3 0 9 -1 12 3 26 11 30 7 4 22 26 32 48 19 40 26 51 77 110 15
18 27 36 27 40 0 39 303 307 329 290 5 -3 16 2 24 10 9 8 20 15 26 15 15 0 14
23 -1 38 -12 12 -52 15 -78 5z"/>
<path d="M11928 5048 c-48 -29 -99 -63 -113 -75 -14 -13 -27 -23 -30 -23 -9 0
-55 -43 -55 -52 0 -4 29 16 66 45 36 28 106 76 157 105 50 28 85 52 77 52 -9
0 -54 -24 -102 -52z"/>
<path d="M2835 4896 c-36 -16 -85 -70 -85 -94 0 -11 7 -7 19 13 25 40 60 70
96 83 17 6 23 11 15 11 -8 0 -29 -6 -45 -13z"/>
<path d="M2965 4894 c125 -46 153 -217 46 -290 -20 -13 -29 -24 -21 -24 41 1
100 88 100 148 0 94 -71 184 -144 181 -14 0 -7 -5 19 -15z"/>
<path d="M11654 4837 c-99 -89 -129 -120 -154 -157 -13 -19 -27 -37 -30 -40
-10 -10 -100 -130 -100 -135 0 -2 7 -2 15 1 8 4 15 11 15 16 0 19 152 202 238
286 95 93 103 108 16 29z"/>
<path d="M2738 4774 c-36 -36 36 -194 88 -194 7 0 28 -7 47 -16 29 -14 37 -14
67 -1 35 14 35 14 -20 14 -106 -1 -159 45 -169 146 -3 33 -9 55 -13 51z"/>
<path d="M13370 4765 c0 -9 6 -12 15 -9 8 4 12 10 9 15 -8 14 -24 10 -24 -6z"/>
<path d="M7473 4543 c-7 -2 -12 -17 -12 -31 1 -17 3 -21 6 -9 5 20 29 23 36 5
2 -7 7 -10 11 -6 9 7 -11 48 -22 47 -4 0 -13 -3 -19 -6z"/>
<path d="M11326 4443 c-19 -27 -41 -59 -48 -73 -7 -14 -30 -50 -50 -81 -21
-31 -38 -59 -38 -63 0 -3 -16 -31 -36 -62 -20 -30 -34 -58 -32 -60 3 -2 29 35
58 84 68 112 134 217 166 265 35 53 21 46 -20 -10z"/>
<path d="M7447 4474 c-4 -4 -7 -19 -6 -33 0 -26 0 -26 10 -2 10 26 8 47 -4 35z"/>
<path d="M9017 4463 c-4 -3 -7 -16 -6 -27 0 -19 1 -19 10 3 10 24 8 36 -4 24z"/>
<path d="M7424 4394 c-16 -49 -53 -111 -93 -156 -24 -27 -41 -51 -39 -54 3 -3
24 16 47 42 43 49 108 170 98 181 -4 3 -9 -3 -13 -13z"/>
<path d="M8993 4388 c-6 -13 -7 -32 -3 -43 5 -15 8 -11 13 20 8 46 4 54 -10
23z"/>
<path d="M9061 4348 c-53 -285 19 -513 207 -661 66 -51 151 -102 158 -94 3 2
-21 19 -53 37 -64 36 -129 84 -156 115 -9 11 -27 31 -39 45 -27 32 -98 178
-98 203 0 10 -5 27 -10 38 -15 27 -14 233 1 308 6 34 9 64 7 67 -3 3 -11 -23
-17 -58z"/>
<path d="M7514 4215 c1 -160 1 -160 246 -163 270 -3 270 -3 270 -32 0 -30 -5
-31 -271 -33 -244 -2 -244 -2 -244 -822 0 -820 0 -820 24 -883 52 -138 196
-205 343 -159 55 17 141 83 167 129 23 40 53 49 59 17 5 -28 -85 -136 -150
-178 -33 -23 -54 -41 -46 -41 9 0 35 15 59 34 110 84 181 201 134 220 -17 6
-45 -2 -45 -14 0 -15 -72 -95 -109 -120 -92 -64 -259 -63 -317 1 -9 10 -22 19
-28 19 -6 0 -27 33 -46 73 -35 72 -35 72 -35 892 0 820 0 820 243 821 263 2
272 4 272 56 0 38 9 37 -270 40 -245 3 -245 3 -251 153 -5 150 -5 150 -5 -10z"/>
<path d="M8976 4278 c-8 -33 -7 -231 2 -245 4 -7 7 51 7 128 0 76 -1 139 -1
139 -1 0 -4 -10 -8 -22z"/>
<path d="M7210 4136 c-64 -42 -77 -47 -175 -67 -61 -12 -86 -46 -54 -75 15
-13 41 -17 136 -18 118 -1 118 -1 125 -51 4 -27 7 -385 7 -795 0 -796 2 -834
51 -929 65 -128 223 -211 401 -211 110 0 80 17 -38 22 -178 6 -283 64 -352
196 -44 83 -44 87 -50 952 -6 825 -6 825 -133 828 -90 2 -129 6 -137 16 -16
19 -3 46 23 46 63 0 219 70 256 116 18 21 11 18 -60 -30z"/>
<path d="M1810 4155 c-7 -8 -14 -39 -16 -68 -3 -48 -2 -49 4 -12 16 87 42 83
42 -7 0 -74 5 -73 13 2 6 67 -18 115 -43 85z"/>
<path d="M4625 4091 c-119 -20 -263 -102 -350 -200 -16 -19 -40 -46 -53 -60
-29 -33 -54 -79 -50 -93 2 -5 23 20 47 58 155 242 465 357 685 253 48 -22 126
-91 126 -111 0 -6 3 -9 6 -6 23 23 -85 119 -165 146 -46 16 -183 23 -246 13z"/>
<path d="M5875 4091 c-65 -7 -175 -41 -175 -53 0 -10 -3 -11 60 12 130 48 334
49 522 4 121 -29 256 -73 264 -86 4 -6 10 -62 14 -126 7 -117 7 -117 9 4 1 87
-3 125 -12 132 -27 23 -130 55 -312 97 -79 18 -280 27 -370 16z"/>
<path d="M4095 4079 c-16 -5 -36 -7 -43 -4 -8 3 -26 -1 -40 -9 -15 -8 -45 -18
-67 -22 -22 -3 -34 -9 -27 -11 12 -5 68 6 161 29 67 17 71 7 71 -194 0 -117 3
-168 11 -168 7 0 9 9 5 23 -3 12 -6 95 -6 184 0 180 -3 189 -65 172z"/>
<path d="M11086 4050 c-28 -43 -35 -68 -10 -35 19 24 46 75 41 75 -3 0 -16
-18 -31 -40z"/>
<path d="M2945 4068 c-22 -5 -62 -12 -90 -15 -27 -3 -54 -10 -60 -15 -7 -7 6
-9 40 -4 84 11 149 23 165 29 46 20 45 44 46 -875 0 -475 4 -888 9 -918 15
-107 62 -154 170 -172 58 -10 80 -18 80 -28 0 -13 -53 -15 -380 -18 -209 -1
-386 0 -392 2 -28 11 1 35 50 41 87 11 122 23 148 52 56 60 54 34 54 883 0
785 0 785 -25 829 -31 54 -79 81 -154 86 -60 3 -76 9 -76 30 0 9 16 16 43 19
86 11 91 13 35 15 -74 1 -88 -5 -88 -40 0 -30 1 -31 115 -44 57 -6 90 -27 120
-76 20 -33 20 -46 20 -826 0 -620 -3 -795 -12 -805 -7 -6 -13 -18 -13 -26 0
-35 -62 -70 -146 -82 -83 -12 -100 -23 -88 -55 5 -13 60 -15 383 -17 382 -3
431 1 431 34 0 24 -15 31 -81 34 -66 3 -121 25 -142 57 -45 70 -47 103 -47
1022 0 619 -4 872 -11 882 -13 15 -46 15 -104 1z"/>
<path d="M5895 4025 c-186 -34 -299 -132 -331 -287 -38 -180 50 -326 256 -425
69 -34 325 -143 334 -143 6 0 108 -46 204 -92 211 -102 335 -283 334 -488 -1
-168 -47 -284 -161 -399 -70 -72 -129 -107 -251 -148 -52 -18 -85 -33 -73 -33
66 -1 242 85 309 150 54 51 114 123 114 135 0 4 8 19 18 33 75 109 76 347 3
497 -22 46 -112 154 -128 154 -7 1 -13 5 -13 11 0 11 -106 83 -158 106 -20 9
-64 29 -97 44 -33 16 -76 34 -95 40 -31 11 -75 30 -160 68 -14 6 -19 11 -12
11 6 1 12 6 12 12 0 8 -4 8 -13 1 -15 -13 -107 18 -177 59 -8 5 -26 15 -40 22
-96 47 -175 153 -198 264 -20 91 33 263 80 263 10 0 18 6 18 13 0 35 108 96
205 116 60 13 222 10 280 -4 85 -20 159 -69 240 -155 25 -28 65 -91 65 -103 0
-7 9 -27 20 -45 11 -18 20 -40 20 -50 0 -9 5 -24 11 -32 20 -29 -2 53 -31 117
-104 228 -324 336 -585 288z"/>
<path d="M2675 4020 c-5 -8 10 -9 47 -4 70 9 74 14 10 14 -28 0 -54 -5 -57
-10z"/>
<path d="M3780 4020 c-10 -8 5 -9 50 -4 36 4 67 8 69 10 10 9 -106 3 -119 -6z"/>
<path d="M5635 4011 c-36 -19 -76 -52 -126 -103 -41 -42 -55 -47 -63 -20 -3 9
-4 4 -2 -12 2 -18 -7 -54 -24 -90 -64 -138 -67 -287 -11 -430 6 -16 14 -27 16
-24 3 2 -5 29 -16 59 -86 222 12 479 232 607 55 32 49 44 -6 13z"/>
<path d="M3620 3989 c-18 -33 -5 -46 52 -52 130 -13 172 -40 192 -121 4 -15
10 -26 13 -22 12 12 -21 88 -49 111 -27 23 -104 45 -158 45 -16 0 -32 5 -36
11 -11 19 15 34 74 40 57 6 57 6 -10 8 -59 1 -69 -2 -78 -20z"/>
<path d="M8991 3988 c-3 -75 101 -253 196 -337 87 -76 81 -61 -13 33 -87 86
-150 193 -173 292 -7 32 -9 34 -10 12z"/>
<path d="M10976 3870 c-102 -174 -92 -166 -221 -184 -60 -9 -111 -21 -113 -26
-2 -6 -10 -10 -17 -10 -14 0 -55 -46 -55 -61 0 -5 12 -9 28 -8 23 0 24 1 7 8
-19 8 -18 10 12 38 36 34 61 41 177 50 78 6 78 6 120 72 72 113 146 241 138
241 -4 -1 -38 -54 -76 -120z"/>
<path d="M1840 3617 c0 -296 -2 -347 -14 -347 -9 0 -19 17 -25 43 -11 42 -11
42 -6 -7 6 -55 21 -72 46 -51 14 13 15 53 11 357 -2 189 -6 345 -8 347 -2 2
-4 -152 -4 -342z"/>
<path d="M4505 3948 c-91 -30 -187 -100 -237 -173 -11 -16 9 0 44 38 36 37 73
67 82 67 9 0 16 4 16 8 0 26 161 67 222 57 56 -10 128 -57 128 -84 0 -6 5 -13
10 -16 19 -12 10 14 -16 45 -54 63 -159 88 -249 58z"/>
<path d="M5045 3855 c0 -35 3 -58 7 -52 10 16 10 104 1 110 -5 3 -8 -23 -8
-58z"/>
<path d="M17501 3898 c-43 -7 -179 -69 -215 -98 -58 -47 -92 -77 -104 -92 -16
-22 -32 -23 -32 -3 0 8 -7 15 -15 15 -8 0 -15 -9 -15 -20 0 -13 5 -18 15 -14
28 11 15 -11 -45 -75 -33 -35 -60 -67 -60 -70 0 -3 -14 -24 -30 -45 -32 -42
-40 -37 -15 10 8 16 15 36 15 44 0 8 14 21 30 28 30 14 39 35 20 47 -5 3 -12
-6 -16 -20 -13 -52 -24 -22 -24 64 0 84 -2 91 -32 136 -34 48 -83 75 -140 75
-27 0 -138 -37 -148 -49 -9 -11 -64 -45 -92 -58 -16 -7 -28 -19 -28 -28 0 -8
-25 -40 -55 -70 -30 -30 -55 -58 -55 -63 0 -5 42 33 93 85 91 93 105 104 182
142 55 28 148 28 193 1 85 -52 96 -210 27 -374 -6 -15 -5 -17 5 -11 8 5 11 3
8 -6 -3 -8 -10 -13 -16 -12 -6 2 -14 -7 -18 -20 -4 -12 -11 -25 -16 -28 -6 -4
-8 -15 -6 -25 3 -15 6 -13 18 11 53 104 224 303 340 396 215 171 483 160 582
-26 108 -202 13 -509 -178 -578 -63 -22 -97 -22 -117 1 -24 27 -23 29 51 102
74 75 153 214 152 269 -1 9 -15 -21 -33 -65 -39 -98 -54 -121 -134 -200 -68
-65 -74 -83 -43 -114 58 -58 211 11 287 128 84 132 92 405 14 489 -9 10 -20
25 -23 35 -8 18 -56 47 -133 79 -29 11 -143 16 -194 7z"/>
<path d="M13745 3870 c-3 -5 -17 -10 -30 -10 -40 0 -180 -41 -231 -68 -11 -5
-30 -15 -44 -21 -102 -46 -350 -246 -435 -351 -59 -74 -145 -192 -145 -200 0
-4 -3 -10 -7 -12 -15 -6 -54 -69 -51 -80 2 -6 19 13 38 43 200 316 483 560
750 647 330 108 577 16 661 -247 13 -41 18 -49 18 -28 1 27 -2 37 -29 87 -8
14 -19 35 -25 47 -36 68 -135 151 -205 172 -25 7 -53 17 -62 22 -24 12 -195
11 -203 -1z"/>
<path d="M15460 3870 c-11 -7 6 -8 55 -4 187 17 347 -61 423 -205 52 -97 65
-167 60 -335 -2 -82 -1 -140 3 -130 12 29 11 332 -1 339 -5 3 -10 16 -10 29 0
98 -154 264 -277 299 -53 14 -234 20 -253 7z"/>
<path d="M15330 3836 c-36 -13 -74 -26 -85 -30 -36 -14 -119 -59 -144 -78 -13
-10 -27 -18 -32 -18 -13 0 -149 -101 -149 -111 0 -5 -5 -9 -11 -9 -14 0 -166
-152 -204 -205 -17 -22 -38 -47 -47 -56 -10 -9 -18 -21 -18 -26 0 -5 -10 -20
-22 -33 -25 -26 -45 -57 -103 -160 -20 -36 -45 -74 -55 -85 -10 -11 -21 -38
-24 -60 -7 -40 -7 -40 12 -10 10 17 24 46 32 65 7 19 22 47 32 62 10 14 18 28
18 31 0 8 64 112 88 143 13 16 43 54 66 85 176 233 430 417 686 495 41 13 64
23 50 22 -14 0 -54 -10 -90 -22z"/>
<path d="M4781 3807 c-2 -51 39 -103 88 -113 14 -3 34 -9 43 -15 22 -12 41
-12 34 0 -3 5 12 16 34 25 21 8 44 24 49 35 20 37 11 39 -24 6 -42 -40 -80
-50 -133 -36 -48 13 -63 30 -79 85 -9 35 -11 37 -12 13z"/>
<path d="M11192 3763 c-22 -37 -37 -72 -33 -76 5 -5 134 -7 287 -5 264 3 282
4 328 25 48 23 66 23 66 -1 0 -39 -183 -152 -232 -142 -62 12 -144 17 -123 7
11 -5 34 -10 52 -10 18 -1 43 -6 56 -12 53 -24 278 121 263 169 -9 28 -37 28
-95 0 -43 -22 -60 -23 -293 -25 -157 -2 -249 1 -253 7 -4 7 -13 7 -26 0 -10
-6 -19 -8 -19 -6 0 7 50 98 63 114 5 7 7 15 4 18 -3 3 -23 -25 -45 -63z"/>
<path d="M17460 3818 c-85 -38 -131 -65 -187 -110 -35 -28 -63 -56 -63 -60 0
-5 7 -3 15 4 8 7 26 22 41 33 14 11 36 30 47 42 21 20 100 60 177 89 21 7 27
13 15 13 -11 0 -31 -5 -45 -11z"/>
<path d="M17626 3821 c5 -5 24 -18 43 -28 19 -10 39 -28 45 -38 6 -11 14 -22
17 -25 3 -3 10 -18 14 -35 8 -27 9 -28 13 -7 5 33 -34 89 -82 117 -43 25 -68
33 -50 16z"/>
<path d="M13724 3802 c-87 -28 -183 -93 -279 -187 -95 -93 -204 -225 -187
-225 6 0 23 18 39 41 15 23 47 61 71 85 23 24 42 46 42 49 0 6 69 70 135 124
51 42 141 90 206 110 77 24 200 9 222 -26 4 -7 13 -13 20 -13 20 0 57 -67 72
-133 23 -98 21 -119 -29 -362 -5 -25 -5 -26 3 -8 56 126 61 353 11 453 -51
101 -183 138 -326 92z"/>
<path d="M15570 3813 c77 -4 180 -49 180 -78 0 -5 10 -29 22 -54 54 -110 6
-426 -102 -666 -9 -22 -25 -58 -35 -80 -40 -92 -101 -211 -117 -227 -10 -10
-18 -27 -18 -38 0 -11 -4 -20 -9 -20 -5 0 -12 -9 -16 -19 -3 -11 -29 -54 -58
-96 -29 -42 -58 -88 -65 -101 -8 -14 -20 -28 -28 -31 -8 -3 -14 -10 -14 -17 0
-34 -208 -237 -315 -308 -56 -37 -59 -47 -4 -16 86 48 201 158 337 324 167
202 398 673 451 919 6 28 15 71 21 97 14 65 12 183 -4 243 -34 128 -82 168
-205 171 -58 1 -65 0 -21 -3z"/>
<path d="M10476 3767 c-58 -49 -128 -94 -206 -133 -30 -15 -63 -31 -72 -35
-10 -5 -27 -9 -37 -9 -11 0 -23 -4 -26 -10 -3 -5 -17 -10 -30 -10 -13 0 -27
-4 -30 -10 -9 -15 4 -13 81 14 116 39 249 115 346 197 37 32 58 32 58 0 0 -21
-76 -88 -163 -146 -31 -21 -55 -40 -53 -43 6 -6 147 92 189 132 89 84 36 134
-57 53z"/>
<path d="M15410 3788 c-70 -26 -156 -87 -246 -175 -119 -115 -327 -393 -295
-393 5 0 14 14 21 30 7 17 16 30 21 30 5 0 9 6 9 13 0 7 11 26 25 42 13 17 48
61 77 99 76 100 184 212 243 250 27 19 61 43 73 55 13 11 47 28 75 37 29 9 56
20 62 25 13 13 -2 10 -65 -13z"/>
<path d="M16730 3782 c-92 -44 -314 -303 -495 -574 -33 -49 -62 -88 -67 -88
-4 0 -8 -6 -8 -13 0 -16 -32 -47 -48 -47 -27 0 -7 44 79 170 99 147 201 287
237 327 13 14 21 28 18 30 -8 9 -176 -206 -176 -225 0 -4 -8 -17 -18 -28 -15
-16 -146 -207 -165 -241 -11 -18 3 -43 24 -43 21 0 89 62 89 80 0 10 55 98 69
110 3 3 11 12 16 21 27 44 148 208 179 243 10 11 30 37 45 56 119 158 295 275
316 210 11 -35 -26 -162 -63 -219 -9 -14 -26 -44 -37 -66 -10 -22 -27 -52 -37
-67 -10 -14 -18 -32 -18 -40 0 -21 97 150 131 232 67 160 40 226 -71 172z"/>
<path d="M3878 3030 c-3 -415 -9 -773 -13 -795 -14 -75 -70 -116 -180 -130
-88 -11 -111 -30 -67 -54 28 -15 773 -16 801 -2 42 23 20 51 -40 51 -108 0
-181 46 -202 128 -10 39 -15 48 -16 30 -3 -88 61 -147 178 -163 55 -8 76 -15
76 -25 0 -13 -55 -15 -395 -15 -344 0 -395 2 -395 15 0 11 21 18 80 27 127 19
159 54 180 193 16 103 20 1398 5 1463 -4 18 -10 -308 -12 -723z"/>
<path d="M4237 3733 c-91 -151 -87 -117 -85 -825 3 -623 3 -623 8 7 4 408 10
642 17 665 14 47 25 74 32 80 11 10 42 73 37 77 -2 2 -6 1 -9 -4z"/>
<path d="M6572 3632 c2 -82 -28 -113 -45 -47 -4 12 -5 9 -4 -9 2 -36 29 -55
51 -37 17 15 20 87 6 131 -7 18 -9 8 -8 -38z"/>
<path d="M803 3668 c-4 -7 -9 -278 -11 -603 -4 -745 4 -846 75 -911 32 -29
117 -63 129 -52 2 3 -15 10 -39 16 -54 14 -112 69 -127 120 -25 84 -40 1395
-17 1419 3 2 155 4 339 4 344 -1 411 -7 477 -43 18 -11 36 -17 39 -14 14 14
-110 56 -193 66 -135 15 -662 13 -672 -2z"/>
<path d="M17763 3615 c0 -27 2 -38 4 -22 2 15 2 37 0 50 -2 12 -4 0 -4 -28z"/>
<path d="M10702 3606 c-60 -15 -77 -26 -39 -26 14 0 29 5 32 10 8 13 115 13
115 1 0 -5 -23 -47 -52 -93 -28 -46 -66 -109 -85 -141 -18 -33 -42 -72 -53
-87 -11 -15 -20 -31 -20 -35 0 -19 26 18 97 136 116 193 132 223 133 237 0 15
-57 15 -128 -2z"/>
<path d="M11093 3589 c-20 -32 -30 -50 -82 -144 -51 -91 -162 -269 -258 -412
-56 -84 -99 -153 -95 -153 21 2 286 419 412 650 39 70 39 70 146 70 122 0 117
9 -8 17 -95 5 -95 5 -115 -28z"/>
<path d="M1680 3590 c0 -5 4 -10 8 -10 16 0 78 -116 89 -169 12 -56 12 -56 8
-4 -2 28 -14 71 -27 94 -13 23 -27 49 -32 59 -12 22 -46 44 -46 30z"/>
<path d="M9270 3595 c0 -18 143 -84 255 -117 106 -32 435 -32 550 -1 128 34
263 88 252 100 -3 2 -23 -5 -45 -16 -117 -60 -254 -92 -423 -98 -222 -9 -406
28 -532 107 -49 30 -57 34 -57 25z"/>
<path d="M11330 3592 c8 -5 40 -12 70 -15 67 -7 36 8 -36 18 -32 4 -44 3 -34
-3z"/>
<path d="M9450 3580 c19 -13 30 -13 30 0 0 6 -10 10 -22 10 -19 0 -20 -2 -8
-10z"/>
<path d="M17131 3575 c-1 -6 -11 -21 -23 -35 -21 -22 -52 -65 -166 -222 -18
-27 -30 -48 -25 -48 5 0 17 14 27 31 24 41 176 242 189 250 5 4 7 13 4 20 -3
8 -6 9 -6 4z"/>
<path d="M9505 3560 c28 -12 47 -12 40 0 -3 6 -18 10 -33 9 -24 0 -25 -1 -7
-9z"/>
<path d="M9579 3540 c80 -34 383 -34 463 0 18 8 13 9 -22 4 -59 -9 -374 -9
-425 0 -33 5 -36 4 -16 -4z"/>
<path d="M14275 3360 c0 -83 3 -141 7 -128 3 13 6 70 6 128 0 58 -3 115 -6
128 -4 13 -7 -45 -7 -128z"/>
<path d="M13202 3323 c-140 -206 -275 -480 -332 -671 -12 -40 -20 -78 -18 -84
2 -6 12 18 21 53 20 72 48 149 82 224 61 134 106 225 115 230 6 3 10 12 10 20
0 15 15 41 108 182 35 52 61 98 58 100 -2 2 -22 -22 -44 -54z"/>
<path d="M16647 3342 c-10 -10 -17 -22 -17 -25 0 -4 -11 -25 -24 -46 -14 -21
-43 -73 -66 -116 -54 -102 -64 -119 -71 -125 -3 -3 -14 -23 -26 -45 -11 -22
-29 -56 -40 -75 -11 -19 -30 -53 -43 -75 -12 -22 -30 -51 -40 -65 -9 -14 -20
-32 -23 -40 -4 -8 -16 -28 -27 -45 -11 -16 -31 -52 -46 -80 -34 -66 -50 -94
-112 -198 -28 -49 -52 -91 -52 -94 0 -3 -9 -18 -21 -35 -12 -16 -19 -31 -16
-34 3 -3 24 27 47 68 24 40 57 98 75 128 18 30 58 100 89 155 31 55 61 107 66
115 25 39 159 273 215 375 21 39 52 95 70 125 91 157 98 172 62 132z"/>
<path d="M12293 3159 c-61 -101 -108 -186 -105 -189 2 -3 7 0 9 6 2 6 18 33
36 60 18 26 50 81 72 121 23 40 46 78 53 85 7 7 12 17 12 23 0 6 9 21 21 33
11 13 19 28 17 34 -2 6 -54 -71 -115 -173z"/>
<path d="M5430 3312 c0 -13 149 -172 162 -172 3 0 37 -18 75 -39 65 -38 108
-57 303 -138 47 -19 95 -40 107 -46 13 -5 25 -8 28 -5 3 2 -41 24 -97 48 -383
160 -454 203 -551 330 -15 19 -27 29 -27 22z"/>
<path d="M16880 3220 c-14 -22 -44 -69 -67 -105 -22 -35 -72 -115 -109 -177
-37 -62 -71 -115 -74 -118 -4 -3 -9 -10 -11 -15 -3 -9 -97 -173 -151 -266 -10
-16 -14 -29 -10 -29 6 0 22 24 93 148 8 15 25 45 37 67 13 22 31 54 42 70 11
17 23 37 27 45 3 8 19 34 35 57 15 23 28 45 28 48 0 4 21 39 48 78 55 84 65
100 92 148 10 21 27 44 35 53 9 9 15 21 13 27 -2 5 -15 -8 -28 -31z"/>
<path d="M10529 3122 c-120 -181 -279 -417 -293 -435 -8 -11 -20 -15 -32 -11
-15 4 -16 4 -5 -4 16 -11 -10 -62 -50 -98 -12 -10 -40 -43 -62 -73 -74 -100
-307 -321 -337 -321 -13 0 -17 -5 -14 -15 4 -8 2 -15 -4 -15 -5 0 -46 -25 -90
-55 -45 -30 -85 -55 -89 -55 -4 0 -19 -9 -33 -20 -25 -20 -25 -20 5 -7 121 51
391 266 504 401 9 10 34 40 56 66 75 90 110 135 190 245 79 107 176 250 184
270 8 19 86 130 93 133 5 2 8 8 8 14 0 5 9 23 21 40 12 16 19 31 17 33 -3 3
-34 -39 -69 -93z"/>
<path d="M14015 3200 c-4 -12 -5 -24 -2 -27 3 -2 8 5 12 17 4 12 5 24 2 27 -3
2 -8 -5 -12 -17z"/>
<path d="M14830 3173 c-120 -208 -250 -503 -211 -479 6 4 11 15 11 25 0 10 6
31 14 47 8 16 21 47 31 69 29 69 98 208 122 247 13 21 23 43 23 49 0 6 9 24
21 41 12 16 19 31 16 34 -2 3 -15 -12 -27 -33z"/>
<path d="M14261 3185 c-1 -11 -4 -31 -7 -45 -5 -22 -4 -23 6 -7 6 10 9 30 7
45 -3 18 -5 20 -6 7z"/>
<path d="M14886 3185 c-3 -9 0 -15 9 -15 8 0 15 7 15 15 0 8 -4 15 -9 15 -5 0
-11 -7 -15 -15z"/>
<path d="M15975 3123 c-18 -102 -131 -361 -191 -440 -13 -17 -24 -34 -24 -38
0 -20 -163 -218 -260 -315 -104 -105 -282 -241 -344 -264 -10 -3 -16 -9 -13
-12 9 -9 152 81 222 138 153 125 355 348 416 458 21 38 35 61 62 102 9 14 17
33 17 42 0 9 5 16 10 16 6 0 10 5 10 11 0 5 12 36 26 67 39 87 42 94 58 145
18 53 31 127 23 127 -2 0 -8 -17 -12 -37z"/>
<path d="M13986 3109 c-9 -18 -16 -39 -16 -48 0 -9 9 4 20 28 24 51 20 68 -4
20z"/>
<path d="M12755 3058 c-37 -70 -111 -181 -135 -203 -11 -10 -20 -23 -20 -30 0
-6 -26 -45 -57 -86 -75 -98 -203 -260 -220 -279 -7 -8 -26 -29 -41 -46 -144
-164 -183 -202 -205 -197 -16 3 -18 2 -9 -5 16 -11 -10 -40 -94 -103 -30 -23
-52 -44 -50 -47 10 -10 128 91 224 192 26 27 65 68 87 90 162 165 599 766 557
766 -5 0 -21 -24 -37 -52z"/>
<path d="M14241 3103 c0 -6 -4 -20 -7 -30 -5 -14 -4 -15 5 -7 7 7 11 20 8 30
-3 11 -5 14 -6 7z"/>
<path d="M11940 3035 c0 -8 -4 -15 -10 -15 -5 0 -10 -7 -10 -16 0 -8 -13 -35
-30 -59 -16 -24 -30 -47 -30 -51 0 -4 -6 -15 -14 -23 -7 -9 -33 -52 -56 -96
-24 -44 -47 -86 -53 -93 -5 -7 -7 -15 -4 -18 2 -3 24 30 48 73 24 43 73 129
111 191 73 121 73 122 58 122 -5 0 -10 -7 -10 -15z"/>
<path d="M14218 3020 c-7 -24 -3 -38 8 -28 3 4 4 17 2 30 -3 23 -3 23 -10 -2z"/>
<path d="M13926 2962 c-10 -20 -24 -50 -31 -67 -8 -16 -28 -59 -45 -94 -17
-35 -29 -66 -26 -68 2 -2 17 24 34 59 16 35 44 94 62 131 18 38 30 70 28 72
-2 2 -12 -12 -22 -33z"/>
<path d="M14193 2955 c-6 -16 -23 -56 -37 -87 -14 -32 -24 -58 -21 -58 10 0
76 144 73 159 -3 10 -8 6 -15 -14z"/>
<path d="M12145 2908 c-16 -28 -39 -68 -50 -87 -12 -20 -32 -54 -46 -76 -54
-85 -83 -140 -66 -126 16 13 23 24 62 101 10 19 24 39 32 43 7 4 13 14 13 20
0 7 20 46 45 86 25 41 44 78 43 82 -2 5 -16 -14 -33 -43z"/>
<path d="M14406 2885 c-23 -54 -18 -68 5 -16 11 24 17 46 15 49 -3 2 -12 -13
-20 -33z"/>
<path d="M6120 2906 c0 -3 42 -26 93 -51 50 -26 96 -53 100 -61 4 -8 13 -14
20 -14 13 -1 94 -96 116 -138 8 -15 18 -49 23 -77 4 -27 10 -67 14 -87 14 -82
-34 -204 -111 -284 -51 -54 -159 -113 -207 -115 -13 0 -32 -5 -43 -10 -14 -6
-7 -7 25 -3 59 8 182 66 229 110 120 108 155 323 79 477 -34 67 -134 157 -235
210 -88 46 -103 52 -103 43z"/>
<path d="M10605 2818 c-71 -96 -187 -240 -227 -282 -22 -22 -67 -70 -101 -106
-34 -36 -69 -68 -77 -72 -11 -5 -9 -7 8 -7 12 -1 22 2 22 7 0 4 35 43 78 88
76 80 155 169 180 205 7 11 27 34 43 52 16 17 42 50 57 72 15 22 35 49 45 59
15 17 22 36 14 36 -2 0 -21 -24 -42 -52z"/>
<path d="M14367 2768 c-9 -29 -21 -73 -28 -98 -23 -83 -17 -334 10 -410 13
-36 28 -69 34 -75 7 -7 8 -4 2 10 -48 129 -48 127 -48 285 0 139 3 164 27 244
15 49 25 91 22 93 -2 2 -11 -19 -19 -49z"/>
<path d="M14092 2737 c-18 -34 -26 -53 -17 -42 20 24 58 96 53 100 -2 2 -18
-24 -36 -58z"/>
<path d="M14150 2770 c0 -19 3 -21 12 -12 9 9 9 15 0 24 -9 9 -12 7 -12 -12z"/>
<path d="M12635 2763 c-5 -10 -7 -26 -6 -36 1 -10 -3 -24 -9 -32 -6 -8 -10
-26 -8 -42 2 -21 8 -10 22 45 17 69 18 104 1 65z"/>
<path d="M12544 2643 c-38 -48 -88 -112 -112 -140 -25 -29 -41 -53 -36 -53 5
0 43 44 84 96 41 53 82 105 90 114 8 10 23 28 33 40 10 12 16 24 14 27 -3 2
-36 -35 -73 -84z"/>
<path d="M13795 2690 c-9 -16 -13 -30 -11 -30 3 0 12 14 21 30 9 17 13 30 11
30 -3 0 -12 -13 -21 -30z"/>
<path d="M8344 2687 c-31 -37 -44 -65 -43 -89 1 -21 1 -21 9 4 22 72 66 112
95 88 20 -17 19 -35 -10 -120 -14 -40 -24 -90 -24 -109 1 -36 1 -36 11 9 5 25
16 68 25 95 31 100 32 113 14 130 -25 22 -54 19 -77 -8z"/>
<path d="M14594 2654 c-3 -16 -14 -58 -24 -94 -54 -193 -44 -389 24 -482 11
-16 25 -28 30 -27 6 0 5 3 -1 6 -7 2 -13 9 -13 14 0 6 -9 22 -20 38 -54 72
-54 277 -1 485 11 44 19 82 16 84 -2 2 -7 -9 -11 -24z"/>
<path d="M14014 2613 c-138 -204 -447 -496 -578 -546 -10 -4 -16 -10 -13 -13
5 -6 41 10 61 28 6 4 40 27 76 51 108 69 380 334 380 369 0 5 10 7 23 5 12 -2
16 -2 10 0 -17 6 -16 10 7 35 10 11 26 35 35 52 8 17 23 41 31 54 9 12 14 22
11 22 -2 0 -22 -26 -43 -57z"/>
<path d="M11717 2643 c-101 -168 -183 -414 -171 -510 17 -128 86 -195 198
-192 41 1 41 1 -9 9 -217 34 -234 246 -49 613 24 48 42 87 40 87 -3 0 -7 -3
-9 -7z"/>
<path d="M13735 2597 c-35 -62 -42 -76 -27 -62 17 16 72 115 64 115 -4 0 -20
-24 -37 -53z"/>
<path d="M5336 2614 c-3 -9 -5 -39 -4 -67 1 -52 1 -52 7 3 7 68 21 70 43 5 19
-58 24 -43 6 19 -16 54 -40 72 -52 40z"/>
<path d="M12597 2593 c-25 -24 3 -317 35 -379 9 -16 24 -46 34 -67 11 -22 31
-50 47 -62 15 -13 27 -29 27 -35 0 -6 8 -13 18 -17 9 -3 29 -15 45 -25 15 -11
32 -18 38 -16 6 2 -12 18 -40 36 -136 89 -196 222 -196 440 1 72 0 132 -1 132
0 0 -4 -3 -7 -7z"/>
<path d="M8286 2554 c-8 -20 -6 -139 3 -179 4 -16 6 21 6 82 0 62 -1 113 -1
113 -1 0 -5 -7 -8 -16z"/>
<path d="M11898 2478 c-147 -275 -182 -370 -158 -428 7 -16 17 -30 22 -30 6 0
3 12 -7 26 -15 24 -15 30 0 92 10 37 23 78 30 92 8 14 35 68 60 120 26 52 58
109 71 126 13 17 20 34 17 38 -3 3 0 12 7 21 7 9 10 18 8 21 -3 3 -26 -32 -50
-78z"/>
<path d="M12841 2543 c0 -6 -4 -20 -7 -30 -5 -14 -4 -15 5 -7 7 7 11 20 8 30
-3 11 -5 14 -6 7z"/>
<path d="M13672 2508 c-7 -7 -12 -16 -12 -22 0 -5 -19 -34 -42 -65 -69 -90
-75 -100 -44 -72 31 29 129 171 118 171 -4 0 -13 -5 -20 -12z"/>
<path d="M16410 2439 c-19 -34 -42 -74 -50 -88 -8 -14 -57 -102 -109 -194
-106 -188 -90 -176 -235 -179 -112 -3 -136 9 -106 54 7 13 27 46 43 73 15 28
37 64 47 80 21 34 24 45 11 45 -5 0 -11 -8 -14 -17 -4 -10 -20 -40 -37 -68
-56 -92 -71 -126 -68 -153 3 -27 3 -27 121 -28 119 -2 119 -2 153 28 19 17 34
37 34 45 0 8 8 27 18 41 31 48 42 67 54 92 7 14 41 74 75 133 35 60 63 112 63
116 0 4 9 17 21 29 11 13 19 29 17 38 -2 8 -18 -12 -38 -47z"/>
<path d="M5344 2360 c0 -63 1 -89 3 -57 2 31 2 83 0 115 -2 31 -3 5 -3 -58z"/>
<path d="M12818 2441 c-5 -18 -8 -52 -7 -75 1 -41 1 -41 10 -1 6 22 9 56 7 75
-3 35 -3 35 -10 1z"/>
<path d="M5420 2426 c0 -8 5 -18 10 -21 6 -3 10 -13 10 -21 0 -45 141 -199
230 -251 42 -25 186 -73 215 -72 14 0 12 3 -10 10 -116 37 -164 54 -190 67
-30 15 -108 72 -113 83 -1 3 -19 24 -40 46 -20 22 -52 70 -70 107 -34 67 -42
77 -42 52z"/>
<path d="M12334 2383 c-165 -198 -378 -381 -482 -414 -31 -10 -48 -18 -37 -18
44 -1 142 45 180 85 5 5 27 23 48 38 77 56 368 366 344 366 -3 0 -27 -26 -53
-57z"/>
<path d="M8371 2402 c-2 -61 52 -196 107 -264 30 -38 110 -105 150 -127 35
-18 26 -6 -15 22 -55 37 -150 132 -158 159 -4 13 -15 34 -25 48 -9 14 -23 50
-30 80 -7 30 -16 66 -21 80 -7 25 -7 25 -8 2z"/>
<path d="M8305 2314 c5 -39 37 -114 48 -114 4 0 0 14 -9 32 -9 17 -22 50 -30
72 -11 34 -13 36 -9 10z"/>
<path d="M10140 2298 c-56 -50 -236 -188 -246 -188 -4 0 -15 -6 -23 -14 -9 -7
-45 -29 -80 -47 -36 -18 -60 -34 -55 -36 12 -4 208 110 240 138 11 11 25 19
32 19 6 0 15 6 19 13 6 9 141 130 162 144 2 2 2 5 0 7 -2 2 -24 -14 -49 -36z"/>
<path d="M13473 2254 c-35 -36 -63 -69 -63 -73 -1 -11 -128 -100 -191 -132
-22 -12 -38 -24 -35 -26 8 -9 125 60 183 108 60 49 190 189 176 189 -4 0 -36
-30 -70 -66z"/>
<path d="M13794 2285 c-17 -13 -17 -14 -2 -15 9 0 20 5 23 11 11 17 0 20 -21
4z"/>
<path d="M5312 2260 c0 -19 2 -27 5 -17 2 9 2 25 0 35 -3 9 -5 1 -5 -18z"/>
<path d="M12811 2249 c-2 -81 77 -229 122 -229 6 0 -5 15 -25 33 -39 34 -78
110 -79 155 0 15 -4 36 -9 47 -8 18 -9 17 -9 -6z"/>
<path d="M5352 2185 c-2 -56 9 -75 45 -75 13 0 31 -4 41 -9 9 -5 49 -18 87
-30 39 -11 100 -29 137 -41 37 -11 82 -20 100 -19 20 0 -12 12 -82 30 -63 16
-149 40 -190 53 -41 13 -87 27 -102 30 -24 6 -27 11 -31 59 -3 52 -3 52 -5 2z"/>
<path d="M7664 2185 c26 -19 42 -19 26 0 -7 8 -20 15 -29 15 -13 -1 -13 -3 3
-15z"/>
<path d="M8360 2186 c0 -12 39 -65 80 -109 19 -21 39 -45 43 -53 4 -8 13 -14
18 -14 6 0 24 -9 41 -21 16 -12 31 -19 34 -17 2 3 -13 17 -33 31 -60 40 -99
78 -143 136 -22 30 -40 51 -40 47z"/>
<path d="M14406 2140 c16 -34 110 -129 127 -130 5 0 21 -8 35 -18 69 -48 252
-62 365 -28 32 10 56 20 53 23 -3 3 -20 0 -38 -6 -199 -70 -427 2 -541 169
-17 24 -17 23 -1 -10z"/>
<path d="M5968 2053 c23 -2 61 -2 85 0 23 2 4 4 -43 4 -47 0 -66 -2 -42 -4z"/>
<path d="M11860 2039 c-19 -10 -29 -18 -22 -19 14 0 72 28 72 35 0 8 -13 4
-50 -16z"/>
<path d="M7835 2029 c-40 -14 -44 -18 -23 -19 31 0 78 19 78 32 0 4 -1 7 -2 7
-2 -1 -25 -10 -53 -20z"/>
<path d="M13331 2019 c-121 -55 -257 -76 -386 -57 -33 5 -43 5 -29 -1 31 -13
174 -29 174 -19 0 4 16 8 36 8 44 0 131 24 202 56 29 13 57 24 62 24 5 0 12 5
15 10 10 15 -5 12 -74 -21z"/>
<path d="M15055 2020 c-33 -16 -55 -29 -50 -29 17 -1 104 34 117 47 18 18 -1
13 -67 -18z"/>
<path d="M14900 2030 c-13 -9 -13 -10 0 -10 8 0 22 5 30 10 13 9 13 10 0 10
-8 0 -22 -5 -30 -10z"/>
<path d="M12970 2010 c38 -12 69 -12 50 0 -8 5 -28 9 -45 9 -29 -1 -29 -1 -5
-9z"/>
<path d="M13095 2010 c-18 -8 -18 -9 5 -9 14 0 34 4 45 9 18 8 18 9 -5 9 -14
0 -34 -4 -45 -9z"/>
<path d="M14728 2007 c33 -6 71 -6 105 0 48 9 44 10 -53 9 -97 0 -101 -1 -52
-9z"/>
<path d="M5825 1999 c42 -9 317 -10 331 -1 7 4 -72 7 -175 7 -102 0 -172 -2
-156 -6z"/>
<path d="M9696 2003 c-3 -4 -21 -12 -39 -19 -17 -6 -70 -26 -117 -43 -160 -59
-262 -75 -480 -75 -172 0 -203 3 -265 22 -75 23 -99 22 -40 -2 88 -37 315 -50
490 -27 131 16 353 76 380 102 5 5 18 9 30 9 20 0 79 39 59 40 -6 0 -14 -3
-18 -7z"/>
<path d="M8705 1975 c102 -49 168 -60 350 -60 135 0 185 4 245 19 41 11 70 21
64 23 -6 2 -37 -4 -70 -13 -164 -45 -530 -16 -598 47 -6 5 -17 9 -25 8 -9 0 7
-11 34 -24z"/>
<path d="M9446 1991 c-3 -4 -20 -12 -38 -16 -18 -4 -28 -9 -22 -11 6 -3 33 4
60 15 32 13 41 20 27 20 -12 1 -24 -3 -27 -8z"/>
<path d="M8590 1961 c0 -9 97 -54 109 -49 4 2 -18 15 -50 30 -33 15 -59 23
-59 19z"/>
<path d="M11251 650 c-33 -21 -33 -21 -30 -224 3 -173 6 -205 21 -219 44 -44
68 -13 68 90 0 83 0 83 85 83 85 0 85 0 85 -79 0 -114 8 -125 65 -99 25 11 25
11 25 205 0 204 -8 243 -49 243 -32 0 -41 -22 -41 -102 0 -78 0 -78 -83 -78
-82 0 -82 0 -84 69 -1 38 -8 83 -15 100 -13 31 -13 31 -47 11z m43 -26 c3 -9
6 -49 6 -90 0 -83 -9 -77 111 -77 77 0 79 3 79 86 0 81 13 107 43 84 18 -14
34 -257 22 -358 -7 -57 -8 -59 -36 -59 -28 0 -28 0 -31 87 -3 102 -8 105 -122
96 -66 -6 -66 -6 -66 -93 0 -79 -2 -88 -20 -93 -39 -10 -45 16 -48 208 -3 123
0 190 7 204 14 25 46 28 55 5z"/>
<path d="M5365 636 c-13 -19 -15 -57 -13 -232 3 -209 3 -209 116 -212 111 -3
112 -3 124 23 18 40 -13 67 -77 65 -27 -1 -56 -1 -62 -1 -10 1 -13 42 -13 171
0 161 -1 170 -22 190 -28 26 -34 25 -53 -4z m43 -9 c7 -8 12 -78 13 -177 1
-94 6 -170 11 -177 7 -8 36 -13 79 -13 70 0 84 -6 73 -34 -5 -13 -25 -16 -115
-16 -109 0 -109 0 -109 203 0 145 3 206 12 215 15 15 23 15 36 -1z"/>
<path d="M5923 648 c-20 -33 -33 -62 -33 -77 1 -9 10 3 22 27 35 72 49 61 106
-83 50 -123 91 -213 91 -200 1 13 -20 69 -46 125 -12 25 -31 70 -43 100 -39
104 -74 143 -97 108z"/>
<path d="M6387 649 c-73 -11 -65 -14 38 -14 52 0 91 3 87 6 -13 12 -77 16
-125 8z"/>
<path d="M11795 640 c-15 -17 -17 -41 -16 -221 0 -111 3 -204 6 -207 3 -3 5
87 5 200 0 171 3 208 15 218 12 10 18 10 30 0 13 -11 15 -44 13 -213 -3 -201
-3 -201 -28 -207 -16 -4 -21 -8 -13 -13 7 -5 22 -3 33 3 30 16 31 417 2 443
-23 21 -25 21 -47 -3z"/>
<path d="M12350 640 c-12 -12 -20 -32 -19 -52 1 -33 1 -33 11 4 11 40 33 55
54 37 12 -10 14 -51 12 -213 -4 -260 -4 -260 -148 -67 -62 84 -101 129 -105
120 -2 -8 -6 -68 -7 -134 -3 -108 -5 -120 -22 -123 -10 -2 -22 0 -26 5 -10 9
-16 400 -7 409 20 20 59 -16 142 -131 50 -68 93 -125 98 -125 4 0 6 37 6 83
-2 82 -2 82 -9 24 -9 -71 -14 -76 -37 -40 -10 15 -22 33 -28 39 -23 26 -43 52
-46 60 -15 35 -78 106 -98 111 -47 12 -52 -12 -48 -228 3 -201 9 -229 44 -229
35 0 43 26 44 143 1 94 4 114 15 110 8 -3 14 -11 14 -17 0 -7 8 -21 18 -32 9
-10 44 -55 77 -99 87 -117 106 -128 129 -73 22 53 14 393 -10 419 -22 24 -29
24 -54 -1z"/>
<path d="M12815 651 c-4 -7 6 -11 26 -11 85 0 194 -71 187 -122 -4 -33 -38
-36 -63 -5 -66 80 -205 74 -250 -12 -8 -17 -15 -34 -15 -38 1 -13 40 38 40 51
0 17 64 46 101 46 37 0 87 -25 112 -56 33 -42 102 -21 90 27 -9 34 -77 94
-120 106 -71 21 -101 24 -108 14z"/>
<path d="M4583 643 c-7 -2 -12 -14 -12 -26 1 -15 3 -17 6 -6 2 9 14 21 26 27
22 11 4 15 -20 5z"/>
<path d="M4685 639 c11 -4 41 -11 67 -14 107 -14 142 -144 59 -219 -14 -13
-45 -22 -87 -27 -86 -11 -84 -9 -84 -95 0 -75 0 -75 -27 -72 -28 3 -28 3 -33
178 -6 175 -6 175 -8 -1 -2 -184 1 -199 43 -199 33 0 48 39 43 109 -4 61 -4
61 51 61 122 0 188 91 145 200 -22 55 -58 78 -130 83 -36 3 -51 1 -39 -4z"/>
<path d="M5060 631 c-17 -33 -13 -416 4 -434 20 -20 63 -10 70 16 14 53 6 392
-10 415 -19 27 -50 29 -64 3z m53 -13 c15 -25 23 -271 11 -361 -6 -45 -8 -48
-33 -45 -26 3 -26 3 -29 196 -3 220 11 276 51 210z"/>
<path d="M6776 634 c-24 -23 -24 -429 0 -438 9 -3 66 -6 128 -6 99 0 115 2
134 20 47 44 12 70 -96 70 -82 0 -82 0 -82 50 0 50 0 50 78 50 64 0 82 4 95
18 41 45 4 72 -96 72 -77 0 -77 0 -77 46 0 45 0 45 86 43 91 -3 104 3 104 49
0 21 -45 51 -58 37 -3 -3 0 -5 6 -5 23 0 42 -31 32 -51 -9 -16 -22 -19 -95
-19 -85 0 -85 0 -85 -54 0 -62 3 -64 110 -66 62 -1 80 -12 64 -38 -9 -13 -27
-17 -87 -19 -95 -2 -93 0 -89 -67 4 -56 4 -56 60 -57 117 -1 141 -10 129 -44
-6 -13 -25 -15 -134 -13 -128 3 -128 3 -131 197 -3 235 -2 236 93 229 33 -3
71 -2 85 2 14 3 -16 7 -67 8 -72 2 -95 -1 -107 -14z"/>
<path d="M7329 644 c-31 -6 -71 -47 -89 -91 -10 -28 -10 -39 5 -75 20 -52 40
-66 130 -96 82 -27 99 -43 83 -78 -16 -35 -101 -35 -129 0 -37 47 -99 37 -99
-17 0 -23 49 -73 86 -87 30 -12 141 -13 148 -2 2 4 -28 8 -68 8 -77 1 -123 21
-146 64 -26 49 38 70 75 25 29 -36 92 -43 128 -15 49 39 23 85 -63 109 -64 18
-116 50 -129 78 -52 114 80 213 205 152 49 -23 64 -53 40 -77 -14 -14 -19 -13
-55 13 -32 22 -48 26 -72 21 -89 -18 -74 -91 23 -116 24 -7 61 -22 84 -35 75
-44 80 -141 10 -197 -11 -10 -16 -18 -9 -18 40 -1 82 99 63 154 -15 47 -92
106 -138 106 -52 0 -101 55 -74 82 20 20 89 14 115 -10 38 -35 77 -23 77 24 0
53 -107 94 -201 78z"/>
<path d="M8143 643 c-13 -2 -30 -14 -38 -26 -23 -32 -18 -44 5 -14 43 55 144
41 170 -23 13 -31 -2 -77 -38 -119 -21 -23 -21 -23 11 -63 32 -40 32 -40 52
-14 46 57 89 20 53 -44 -23 -39 -23 -39 6 -69 17 -18 26 -36 23 -45 -8 -20
-51 -21 -71 -1 -18 19 -36 19 -61 1 -27 -18 -85 -28 -124 -20 -93 19 -125 137
-56 213 39 43 41 49 20 77 -14 18 -15 17 -6 -8 9 -23 5 -32 -25 -64 -61 -67
-43 -178 36 -219 49 -25 170 -13 170 17 0 4 7 8 15 8 8 0 15 -3 15 -8 0 -19
61 -35 86 -22 32 18 30 38 -8 77 -32 33 -32 33 -10 56 27 28 28 58 4 80 -25
23 -37 21 -61 -9 -21 -26 -21 -26 -50 1 -29 28 -29 28 4 62 30 30 33 40 30 81
-5 79 -60 113 -152 95z"/>
<path d="M9030 642 c-78 -23 -132 -73 -145 -137 -5 -23 0 -18 19 20 44 85 141
128 240 106 59 -13 126 -62 126 -92 0 -19 11 -25 23 -13 9 10 -41 71 -77 93
-34 22 -144 35 -186 23z"/>
<path d="M9630 644 c-75 -28 -140 -81 -140 -114 0 -8 12 2 27 24 117 164 393
72 393 -132 0 -136 -84 -216 -225 -215 -50 0 -73 -2 -60 -7 47 -20 185 -3 185
22 0 4 6 8 14 8 17 0 85 86 92 117 25 100 -20 221 -98 267 -43 25 -154 43
-188 30z"/>
<path d="M10232 633 c-5 -10 -19 -45 -32 -78 -13 -33 -32 -73 -42 -90 -10 -16
-18 -39 -18 -51 0 -24 -22 -74 -32 -74 -5 0 -8 -7 -8 -16 0 -9 -10 -34 -22
-55 -21 -37 -21 -39 -3 -59 10 -11 26 -20 35 -20 20 0 60 41 60 61 -1 8 -8 2
-16 -13 -10 -19 -23 -28 -39 -28 -46 0 -45 2 64 260 16 36 36 84 46 108 26 61
39 68 64 36 12 -15 24 -39 28 -53 3 -14 20 -57 38 -96 17 -38 38 -85 45 -103
7 -18 15 -30 18 -27 3 3 1 15 -5 28 -6 12 -15 33 -21 47 -90 220 -100 240
-127 240 -13 0 -28 -8 -33 -17z"/>
<path d="M10869 635 c81 -18 136 -59 136 -101 0 -38 -24 -42 -59 -9 -136 126
-323 -33 -226 -192 44 -72 146 -83 220 -24 68 55 106 21 48 -45 -16 -18 -26
-34 -22 -34 13 0 64 66 64 82 0 47 -44 48 -110 3 -72 -49 -116 -48 -168 3 -54
51 -63 101 -29 169 47 92 150 100 226 19 29 -31 42 -32 65 -7 45 49 -44 134
-150 145 -59 6 -59 6 5 -9z"/>
<path d="M6277 633 c-12 -11 -8 -50 6 -61 7 -6 33 -12 57 -14 45 -3 45 -3 48
-172 3 -172 8 -196 42 -196 42 0 50 28 50 185 0 189 -7 184 -12 -10 -5 -150
-5 -150 -34 -150 -29 0 -29 0 -35 175 -3 96 -6 176 -7 177 -1 1 -23 3 -48 5
-57 4 -81 30 -50 54 15 11 16 14 5 14 -9 0 -19 -3 -22 -7z"/>
<path d="M6572 621 c19 -30 -5 -51 -58 -51 -24 0 -44 -3 -44 -7 0 -18 100 -1
114 19 16 23 10 58 -10 58 -11 0 -12 -4 -2 -19z"/>
<path d="M10736 628 c-82 -47 -116 -110 -116 -213 0 -72 2 -80 38 -131 20 -29
43 -54 50 -54 8 0 0 13 -16 29 -110 110 -70 315 71 364 33 12 36 16 17 16 -14
0 -34 -5 -44 -11z"/>
<path d="M12716 615 c-47 -32 -85 -75 -86 -97 0 -9 -4 -20 -10 -23 -11 -7 -14
-135 -2 -135 4 0 7 28 8 63 1 102 48 169 143 203 32 12 33 13 10 14 -14 0 -43
-11 -63 -25z"/>
<path d="M4649 563 c-12 -115 -2 -134 64 -125 63 7 94 63 61 110 -12 18 -25
22 -70 22 -30 0 -54 -3 -55 -7z m113 -20 c42 -37 8 -93 -57 -93 -43 0 -43 0
-47 51 -1 28 -1 53 1 55 12 11 86 2 103 -13z"/>
<path d="M8155 550 c-7 -23 10 -50 31 -50 17 0 37 37 30 56 -8 22 -54 17 -61
-6z m55 1 c0 -20 -13 -41 -25 -41 -18 0 -28 17 -21 35 6 16 46 21 46 6z"/>
<path d="M9019 547 c-124 -82 -70 -277 76 -277 46 0 59 5 96 35 49 42 74 42
74 1 0 -78 -174 -132 -267 -84 -10 5 -18 5 -18 0 0 -14 64 -32 115 -32 50 0
115 18 115 32 0 4 6 8 13 8 13 0 52 38 70 67 12 19 -9 50 -38 55 -19 4 -34 -4
-65 -33 -37 -35 -46 -39 -92 -39 -49 0 -54 3 -95 48 -50 55 -60 114 -23 147
11 10 20 26 20 35 0 20 23 32 45 23 10 -3 15 -1 13 8 -8 36 93 19 129 -22 25
-28 83 -42 83 -20 0 5 -8 7 -18 4 -11 -2 -31 6 -48 20 -66 54 -128 63 -185 24z"/>
<path d="M9616 547 c-93 -53 -94 -199 -3 -256 98 -60 228 14 227 129 -2 118
-122 186 -224 127z m139 -1 c64 -33 94 -152 52 -206 -58 -74 -135 -81 -202
-18 -42 40 -45 46 -45 95 0 28 5 55 10 58 6 3 10 14 10 24 0 43 121 75 175 47z"/>
<path d="M5873 538 c-11 -15 -43 -99 -43 -113 0 -6 14 18 31 53 29 59 35 89
12 60z"/>
<path d="M1686 504 c-19 -19 -20 -36 -4 -52 9 -9 273 -12 1128 -12 1115 0
1115 0 1129 21 24 40 -9 56 -104 50 -80 -6 -80 -6 5 -11 77 -4 85 -7 85 -25 0
-20 -8 -20 -1109 -23 -781 -1 -1113 1 -1122 9 -18 15 -7 36 24 48 24 8 25 10
5 10 -12 1 -29 -6 -37 -15z"/>
<path d="M2363 513 c230 -2 604 -2 830 0 227 1 39 2 -418 2 -456 0 -642 -1
-412 -2z"/>
<path d="M13672 513 c-22 -9 -35 -43 -21 -59 19 -23 2114 -21 2127 2 22 40 4
54 -67 52 -66 -2 -66 -2 -6 -5 61 -4 82 -17 63 -40 -18 -22 -2096 -19 -2105 3
-11 28 17 39 115 45 97 5 97 5 2 6 -52 1 -101 -1 -108 -4z"/>
<path d="M14313 513 c86 -2 228 -2 315 0 86 1 15 3 -158 3 -173 0 -244 -2
-157 -3z"/>
<path d="M15123 513 c26 -2 67 -2 90 0 23 2 2 3 -48 3 -49 0 -68 -1 -42 -3z"/>
<path d="M15438 513 c23 -2 59 -2 80 0 20 2 1 4 -43 4 -44 0 -61 -2 -37 -4z"/>
<path d="M9477 504 c-4 -4 -7 -17 -7 -28 1 -19 1 -20 11 -3 11 19 8 43 -4 31z"/>
<path d="M5934 483 c-3 -10 -12 -31 -20 -46 -24 -48 -19 -57 31 -57 52 0 54 6
25 74 -21 50 -28 55 -36 29z m36 -64 c0 -10 -10 -19 -26 -22 -22 -4 -25 -2
-19 17 4 11 9 32 12 45 6 24 6 24 19 0 7 -13 13 -31 14 -40z"/>
<path d="M10241 449 c-28 -69 -28 -69 24 -69 51 0 52 3 28 71 -22 61 -25 61
-52 -2z m46 -21 c14 -31 9 -38 -29 -38 -33 0 -32 -3 -12 45 16 39 23 38 41 -7z"/>
<path d="M8871 424 c-2 -85 50 -195 91 -194 7 0 1 11 -14 24 -39 35 -61 84
-68 156 -7 64 -7 65 -9 14z"/>
<path d="M12691 430 c-6 -137 154 -217 253 -125 42 39 35 55 -25 55 -79 0
-121 38 -66 60 20 8 20 9 2 9 -11 1 -26 -8 -33 -19 -20 -32 16 -60 77 -60 66
0 71 -13 19 -46 -94 -60 -194 -11 -217 106 -5 26 -9 35 -10 20z"/>
<path d="M12955 423 c57 -3 85 -9 99 -21 18 -16 18 -16 7 6 -11 20 -18 22 -99
20 -87 -2 -87 -2 -7 -5z"/>
<path d="M5802 373 c-11 -21 -23 -53 -27 -70 -3 -18 -11 -35 -16 -38 -16 -11
-9 -50 11 -63 34 -21 89 19 90 64 0 26 24 34 95 34 53 -1 85 -17 85 -43 0 -9
13 -31 29 -49 28 -32 29 -32 55 -15 25 17 38 67 17 67 -5 0 -13 9 -16 21 -4
11 -9 19 -11 16 -2 -2 2 -20 10 -39 17 -41 14 -48 -26 -48 -19 0 -31 6 -34 18
-25 81 -27 82 -118 82 -84 0 -84 0 -97 -37 -16 -51 -27 -63 -56 -63 -36 0 -36
18 2 109 36 88 41 121 7 54z"/>
<path d="M9471 379 c-2 -56 52 -149 86 -149 7 0 13 -4 13 -10 0 -5 7 -10 17
-10 9 0 -1 12 -25 30 -46 33 -73 76 -83 135 -6 40 -6 40 -8 4z"/>
<path d="M8125 375 c-53 -53 -4 -124 71 -104 48 13 50 35 7 84 -45 51 -47 52
-78 20z m69 -32 c19 -21 32 -42 29 -46 -3 -5 -9 -3 -14 4 -7 11 -9 10 -9 -3 0
-13 -8 -18 -30 -18 -26 0 -29 3 -26 28 2 15 1 19 -1 10 -5 -22 -22 -23 -29 -3
-7 17 21 65 36 65 5 0 25 -17 44 -37z"/>
<path d="M13047 349 c-17 -84 -97 -141 -199 -143 -37 0 -68 -4 -68 -8 0 -12
115 -10 142 2 77 34 144 113 136 162 -3 19 -5 16 -11 -13z"/>
<path d="M7362 333 c2 -14 10 -28 18 -30 13 -4 13 -3 1 5 -12 8 -12 14 -3 25
12 14 7 27 -10 27 -5 0 -8 -12 -6 -27z"/>
<path d="M11743 305 c0 -33 2 -45 4 -27 2 18 2 45 0 60 -2 15 -4 0 -4 -33z"/>
<path d="M12631 325 c-2 -36 106 -131 126 -112 3 4 2 7 -4 7 -19 0 -96 68
-109 97 -10 23 -13 24 -13 8z"/>
<path d="M9045 320 c3 -5 13 -10 21 -10 8 0 14 5 14 10 0 6 -9 10 -21 10 -11
0 -17 -4 -14 -10z"/>
<path d="M10275 301 c63 -5 70 -8 73 -28 2 -13 7 -23 12 -23 4 0 13 -13 19
-30 17 -49 81 -36 81 16 0 13 -4 26 -10 29 -6 4 -7 -6 -4 -25 6 -28 5 -30 -23
-30 -27 0 -33 6 -51 50 -21 50 -21 50 -94 48 -73 -2 -73 -2 -3 -7z"/>
<path d="M10730 219 c0 -5 6 -9 14 -9 8 0 16 -5 18 -12 5 -14 98 -12 131 3 16
7 9 8 -30 4 -32 -3 -67 0 -92 9 -23 7 -41 10 -41 5z"/>
</g>
</svg>
