<?xml version="1.0" standalone="no"?>
<!DOCTYPE svg PUBLIC "-//W3C//DTD SVG 20010904//EN"
 "http://www.w3.org/TR/2001/REC-SVG-20010904/DTD/svg10.dtd">
<svg version="1.0" xmlns="http://www.w3.org/2000/svg"
 width="1810.000000pt" height="1102.000000pt" viewBox="0 0 1810.000000 1102.000000"
 preserveAspectRatio="xMidYMid meet">
<metadata>
Created by potrace 1.16, written by Peter Selinger 2001-2019
</metadata>
<g transform="translate(0.000000,1102.000000) scale(0.100000,-0.100000)"
fill="#000000" stroke="none">
<path d="M11720 10775 c0 -3 4 -13 9 -23 17 -35 28 -80 22 -90 -4 -6 -12 1
-19 16 -7 15 -21 38 -33 52 l-21 25 7 -30 c16 -74 17 -85 9 -85 -4 0 -21 12
-37 28 -29 27 -29 27 -22 3 4 -13 25 -51 46 -85 32 -51 39 -70 39 -113 0 -59
-11 -72 -43 -49 -12 9 -32 23 -45 32 -12 9 -25 14 -29 10 -6 -5 -1 -17 32 -78
5 -10 18 -21 27 -24 10 -3 18 -9 18 -15 0 -5 23 -30 51 -56 82 -76 81 -74 86
-433 2 -173 8 -340 14 -371 9 -46 8 -73 -6 -145 -10 -49 -26 -108 -36 -132
l-19 -43 -30 18 c-17 10 -33 29 -36 43 -14 65 -19 70 -82 70 -48 0 -66 5 -98
27 -34 24 -49 27 -109 27 -75 0 -160 -23 -193 -53 -12 -9 -32 -26 -46 -36 -14
-11 -26 -25 -26 -32 0 -6 -9 -18 -20 -26 -22 -15 -57 -88 -74 -155 -9 -39 -16
-47 -46 -56 -43 -14 -110 -57 -110 -72 0 -6 -9 -22 -19 -36 -26 -32 -58 -130
-65 -198 -8 -69 -7 -298 0 -365 3 -27 14 -112 25 -188 24 -171 25 -277 3 -319
-11 -22 -13 -33 -5 -41 8 -8 26 5 66 47 61 67 89 135 101 249 3 37 10 67 15
67 16 0 29 -49 29 -106 0 -40 4 -54 13 -52 28 10 36 182 11 280 -21 86 -54
199 -64 223 -9 21 -17 56 -46 193 -17 79 -17 87 -1 148 22 82 48 129 73 129
19 0 21 -4 44 -94 13 -48 105 -155 144 -167 11 -3 28 -13 37 -20 9 -8 49 -18
90 -23 102 -13 113 -28 106 -137 -3 -45 -13 -98 -21 -117 -32 -78 -47 -192
-42 -314 22 -479 21 -496 -36 -637 -24 -58 -97 -162 -131 -185 -13 -9 -43 -28
-66 -44 -38 -25 -90 -47 -231 -98 -30 -11 -69 -26 -87 -34 -17 -8 -36 -15 -42
-15 -10 0 -110 -75 -137 -103 -105 -108 -157 -153 -199 -172 -88 -40 -234 -86
-414 -132 -261 -66 -294 -72 -444 -88 -120 -12 -165 -12 -355 1 -332 24 -517
14 -794 -41 -43 -9 -137 -19 -210 -22 -145 -6 -163 -2 -247 61 -37 28 -89 34
-135 16 -27 -10 -126 -104 -126 -119 0 -14 -90 -57 -150 -71 -66 -15 -124 -43
-142 -68 -12 -17 -33 -29 -111 -61 -18 -7 -27 -17 -25 -28 8 -43 130 -42 593
7 181 19 669 28 990 18 449 -13 460 -14 474 -22 48 -30 775 -35 1001 -7 105
13 306 47 360 60 19 5 63 12 98 16 58 7 68 5 135 -28 82 -39 107 -47 232 -76
140 -32 301 -41 736 -41 397 0 465 4 567 36 52 16 131 64 132 80 0 7 9 31 20
55 36 81 21 158 -43 220 -53 51 -88 66 -207 90 -101 21 -460 49 -622 49 -74 0
-100 4 -112 16 -21 21 -22 20 23 63 22 21 52 58 68 82 15 25 34 51 41 59 34
40 97 160 174 330 11 25 27 58 34 73 8 16 14 36 14 46 0 9 7 26 15 37 8 10 15
29 15 40 0 12 6 40 14 62 8 23 22 117 31 209 14 148 19 175 45 223 30 57 34
78 32 147 -2 37 -10 50 -76 120 -40 43 -76 88 -80 99 -4 12 -14 24 -24 26 -9
3 -42 54 -75 117 -66 127 -66 130 -16 261 15 41 41 122 58 180 17 58 36 119
42 135 13 37 40 195 64 377 16 122 17 148 5 223 -7 47 -17 88 -22 91 -4 3 -8
16 -8 29 0 14 -5 46 -11 72 -24 105 -39 172 -54 248 -9 44 -20 89 -25 100 -18
42 -30 142 -30 247 0 115 -12 181 -46 241 -21 37 -21 37 -39 17 -18 -20 -18
-20 -35 17 -22 48 -80 112 -80 88z m-354 -3472 c-10 -10 -19 5 -10 18 6 11 8
11 12 0 2 -7 1 -15 -2 -18z"/>
<path d="M2387 7259 c-127 -20 -212 -144 -188 -274 13 -71 39 -118 101 -185
95 -102 139 -156 149 -184 29 -75 -1 -165 -71 -216 -34 -25 -51 -30 -99 -30
-69 0 -104 12 -143 48 -38 36 -56 81 -56 140 0 26 -6 56 -13 66 -11 15 -15 10
-31 -46 -10 -35 -24 -83 -31 -108 -14 -45 -18 -73 -16 -99 1 -11 7 -9 24 7 30
29 46 28 110 -7 152 -82 350 -29 420 112 63 127 34 228 -109 375 -47 48 -96
108 -110 134 -55 108 -13 211 97 238 43 11 51 9 99 -15 58 -29 89 -81 90 -147
0 -34 14 -57 27 -45 10 11 42 142 43 175 0 33 -5 38 -29 23 -10 -6 -32 -2 -65
13 -60 27 -133 36 -199 25z"/>
<path d="M5007 7246 c-6 -15 12 -26 44 -26 10 0 19 -6 19 -14 0 -18 -78 -266
-90 -288 -6 -10 -10 -27 -10 -38 0 -11 -7 -20 -15 -20 -8 0 -15 7 -15 15 0 32
-42 55 -102 55 -119 0 -239 -90 -312 -235 -31 -64 -39 -91 -43 -154 -4 -66 -1
-82 19 -120 28 -55 62 -81 115 -88 49 -7 92 12 152 67 24 22 45 40 47 40 2 0
4 -9 4 -20 0 -85 100 -119 163 -57 27 26 87 109 87 119 0 16 -29 7 -34 -9 -10
-31 -75 -95 -94 -91 -36 7 -29 41 58 278 35 94 152 434 179 520 10 31 16 61
13 68 -6 18 -178 17 -185 -2z m-129 -357 c31 -11 35 -17 47 -75 7 -34 -20
-121 -74 -237 -17 -37 -31 -71 -31 -75 0 -14 -75 -90 -110 -111 -45 -27 -65
-26 -95 4 -81 80 45 411 184 485 43 23 40 23 79 9z"/>
<path d="M5652 7184 c-45 -31 -19 -114 36 -114 29 0 62 34 62 65 0 29 -32 65
-58 65 -10 0 -28 -7 -40 -16z"/>
<path d="M3169 7063 c-29 -12 -42 -26 -65 -76 -24 -51 -34 -62 -54 -63 -52 -2
-60 -4 -60 -14 0 -6 14 -13 31 -17 17 -3 33 -12 36 -19 3 -7 -7 -46 -22 -86
-117 -320 -132 -380 -100 -425 23 -32 79 -38 127 -13 22 12 49 31 60 43 28 33
60 97 48 97 -5 0 -10 -6 -10 -13 0 -7 -9 -19 -20 -27 -11 -8 -20 -20 -20 -27
0 -8 -11 -18 -24 -23 -13 -5 -27 -14 -31 -19 -9 -16 -45 6 -45 27 0 10 18 69
41 132 22 63 52 148 65 188 29 86 55 144 69 154 6 4 27 8 47 8 20 0 40 5 43
11 9 14 3 19 -31 21 -36 2 -57 17 -46 32 15 18 35 104 27 115 -8 14 -21 13
-66 -6z"/>
<path d="M3642 6893 c-45 -43 -78 -91 -69 -100 8 -7 37 16 37 28 0 5 12 22 26
38 24 27 56 32 69 11 7 -11 -19 -97 -62 -205 -47 -116 -73 -202 -73 -239 0
-14 13 -40 28 -57 24 -27 38 -33 83 -37 51 -4 57 -1 109 37 30 22 64 54 75 71
11 16 23 30 26 30 4 0 6 -22 6 -49 -1 -66 19 -86 89 -86 49 0 55 3 88 40 20
22 36 45 36 51 0 7 7 14 15 18 16 6 21 46 5 46 -5 0 -14 -10 -21 -22 -19 -38
-72 -88 -92 -88 -30 0 -19 48 66 293 42 121 73 225 70 233 -3 9 -21 14 -49 14
-51 0 -56 -8 -100 -136 -59 -176 -165 -361 -218 -385 -12 -5 -29 -14 -38 -21
-13 -9 -22 -9 -42 0 -34 15 -34 55 0 147 14 39 28 79 31 90 3 11 9 25 13 30
16 23 60 168 60 199 0 19 -9 45 -21 60 -16 21 -29 26 -64 26 -36 0 -50 -6 -83
-37z"/>
<path d="M5530 6910 c-6 -11 -17 -20 -25 -20 -20 0 -65 -63 -65 -91 0 -23 1
-23 19 6 28 45 68 78 85 72 23 -9 20 -27 -25 -145 -23 -59 -57 -154 -76 -211
-30 -90 -32 -107 -23 -137 20 -59 77 -71 144 -30 38 24 106 108 106 133 0 25
-19 13 -52 -34 -42 -62 -69 -85 -85 -71 -20 16 -16 42 22 135 19 48 35 94 35
103 0 9 4 20 9 26 4 5 23 52 41 105 34 100 35 133 4 163 -24 24 -100 21 -114
-4z"/>
<path d="M6255 6922 c-11 -2 -32 -13 -47 -23 -14 -11 -30 -19 -35 -19 -20 0
-94 -89 -124 -150 -29 -58 -33 -76 -36 -165 -4 -97 -3 -101 26 -147 41 -64 78
-82 167 -82 58 1 79 6 123 29 111 61 190 189 199 320 4 62 1 81 -21 127 -36
81 -80 110 -165 113 -37 1 -76 0 -87 -3z m144 -48 c29 -37 36 -88 21 -163 -28
-146 -85 -260 -158 -321 -47 -39 -84 -39 -123 -1 -26 26 -29 36 -29 90 0 85
39 227 85 306 59 102 160 145 204 89z"/>
<path d="M10705 5510 c-123 -10 -338 -38 -385 -50 -19 -5 -57 -14 -85 -20
-179 -40 -295 -83 -475 -173 -148 -74 -281 -169 -395 -282 -109 -108 -135
-140 -192 -228 -164 -252 -227 -533 -172 -775 21 -94 82 -205 158 -284 39 -42
84 -82 99 -89 15 -8 48 -27 74 -42 65 -39 200 -83 298 -98 106 -15 353 -6 435
16 194 52 309 111 443 223 50 43 64 73 41 88 -6 3 -27 -8 -47 -25 -220 -186
-540 -287 -806 -253 -104 13 -258 60 -326 99 -126 73 -232 185 -275 291 -29
72 -55 195 -55 264 0 29 7 92 15 139 86 490 534 904 1150 1061 205 52 332 68
580 74 358 9 675 -21 1177 -110 283 -51 577 -69 728 -46 150 23 401 124 408
163 5 23 -10 21 -86 -9 -98 -39 -156 -52 -298 -64 -143 -13 -340 0 -704 46
-63 8 -149 19 -190 24 -419 53 -890 79 -1115 60z"/>
<path d="M14013 5485 c-109 -25 -133 -34 -258 -95 -214 -105 -468 -321 -645
-550 -220 -284 -359 -490 -640 -950 -5 -8 -49 -80 -97 -158 -127 -207 -98
-159 -282 -469 -35 -59 -79 -131 -98 -160 -18 -28 -33 -54 -33 -57 0 -3 -25
-47 -56 -98 -101 -166 -229 -401 -267 -488 -114 -269 -99 -451 42 -499 198
-66 459 149 934 772 43 56 45 49 16 -53 -28 -98 -32 -318 -8 -395 59 -182 181
-297 344 -325 134 -22 266 7 465 103 70 34 210 138 301 225 186 177 310 342
405 540 187 386 192 726 14 912 -128 134 -311 160 -560 78 -125 -41 -207 -88
-370 -214 -165 -128 -317 -314 -450 -549 -87 -155 -410 -583 -535 -711 -22
-22 -61 -63 -87 -90 -206 -217 -369 -298 -408 -203 -20 48 11 144 104 324 98
188 125 236 180 328 22 37 46 76 51 85 77 133 155 264 228 387 50 83 98 164
107 180 20 35 259 431 332 550 27 44 53 87 58 95 56 96 318 497 408 627 231
330 292 408 427 547 95 97 191 175 269 216 128 67 274 87 382 53 42 -13 56
-14 68 -4 26 22 6 39 -64 55 -92 21 -155 19 -277 -9z m-65 -1680 c72 -31 106
-79 128 -180 16 -73 17 -150 4 -207 -11 -45 -56 -222 -70 -273 -10 -38 -29
-85 -85 -210 -121 -269 -248 -471 -411 -656 -172 -194 -309 -279 -452 -279
-132 0 -197 44 -232 156 -58 188 8 488 185 844 205 413 484 729 709 802 67 21
176 23 224 3z"/>
<path d="M226 5383 c-8 -20 16 -30 89 -36 77 -7 139 -41 162 -88 44 -90 43
-67 42 -1529 0 -1516 0 -1503 -55 -1561 -41 -44 -74 -58 -155 -68 -39 -5 -76
-14 -81 -19 -29 -29 9 -32 428 -32 373 0 425 2 431 15 8 23 1 26 -74 35 -84
10 -110 20 -150 57 -65 61 -73 160 -72 868 0 319 3 596 7 615 l8 35 339 0
c236 0 357 -4 396 -13 62 -14 174 -76 183 -101 4 -9 17 -34 31 -56 13 -22 27
-60 30 -85 14 -103 27 -150 41 -150 12 0 14 64 14 429 0 261 -4 432 -9 436
-14 8 -27 -23 -35 -84 -16 -127 -68 -213 -154 -258 -73 -38 -117 -42 -479 -43
-316 -1 -357 0 -365 14 -15 26 -5 1515 9 1549 l13 27 422 0 c404 0 569 -10
643 -36 85 -30 135 -62 195 -123 67 -69 88 -110 125 -244 21 -76 40 -71 40 9
0 79 -26 438 -32 444 -3 3 -450 5 -994 5 -750 0 -990 -3 -993 -12z"/>
<path d="M12130 5131 c-181 -69 -373 -198 -520 -349 -70 -72 -210 -246 -210
-261 0 -6 -4 -11 -8 -11 -11 0 -162 -233 -262 -404 -68 -118 -220 -367 -241
-397 -16 -23 -27 -27 -96 -32 -114 -9 -140 -16 -176 -50 -31 -29 -31 -30 -11
-38 13 -4 38 -2 64 7 23 8 68 17 101 21 70 7 72 2 31 -69 -27 -47 -168 -279
-210 -347 -12 -20 -25 -43 -29 -51 -4 -8 -9 -17 -13 -20 -7 -6 -85 -122 -91
-135 -8 -20 -105 -163 -184 -270 -80 -110 -115 -155 -190 -245 -22 -26 -47
-56 -56 -66 -49 -59 -228 -220 -312 -283 -152 -112 -281 -169 -469 -207 -101
-21 -341 -15 -433 10 -178 49 -324 156 -390 286 -60 119 -70 233 -30 350 29
85 30 103 10 120 -57 48 -125 -118 -111 -271 25 -254 190 -434 481 -525 85
-26 101 -28 280 -28 239 -1 363 22 566 104 73 29 230 109 250 126 8 8 19 14
23 14 12 0 208 152 260 202 27 26 53 48 57 48 5 0 12 6 16 14 4 8 49 56 98
108 86 89 191 215 286 343 96 131 316 470 391 605 119 212 99 191 175 189 36
-1 99 -9 141 -16 43 -8 118 -18 167 -23 50 -5 105 -12 123 -16 26 -5 45 1 105
36 106 62 147 106 118 124 -5 3 -31 -4 -57 -17 -46 -21 -64 -22 -328 -25 -153
-2 -282 0 -287 5 -4 4 9 35 28 68 52 87 129 217 188 320 29 50 84 143 124 208
39 65 71 121 71 123 0 3 11 20 25 38 14 18 25 36 25 41 0 4 10 20 23 35 12 15
31 43 42 61 22 36 34 56 80 121 122 177 282 335 391 389 66 33 75 43 48 53
-20 8 -20 8 -74 -13z"/>
<path d="M2865 4898 c-68 -24 -115 -91 -115 -163 0 -100 63 -159 167 -158 113
1 181 92 153 206 -14 54 -50 91 -109 112 -50 17 -55 17 -96 3z"/>
<path d="M7448 4433 c-43 -141 -111 -230 -244 -317 -43 -28 -152 -66 -190 -66
-26 0 -39 -27 -23 -46 8 -10 47 -14 137 -16 l127 -3 6 -825 c5 -717 8 -832 21
-877 36 -115 90 -181 188 -230 l75 -38 135 0 136 0 76 38 c81 40 148 97 193
165 28 42 28 72 1 72 -9 0 -25 -17 -38 -39 -26 -45 -111 -111 -166 -128 -64
-20 -151 -16 -207 11 -70 32 -108 74 -136 148 l-24 63 0 820 0 820 244 2 c134
1 250 4 257 7 17 7 18 45 2 51 -7 3 -123 6 -258 7 l-245 3 -5 230 c-3 127 -7
231 -8 233 -1 1 -8 2 -15 2 -7 0 -24 -37 -39 -87z"/>
<path d="M4638 4080 c-115 -20 -234 -80 -322 -165 -50 -49 -146 -182 -146
-204 0 -6 -4 -11 -10 -11 -6 0 -10 63 -10 168 0 202 -4 212 -71 194 -72 -19
-187 -39 -294 -52 -55 -6 -111 -14 -125 -18 -35 -10 -32 -36 5 -40 159 -15
197 -47 223 -187 18 -98 16 -1355 -3 -1475 -21 -139 -53 -174 -180 -193 -59
-9 -80 -16 -80 -27 0 -13 51 -15 395 -15 340 0 395 2 395 15 0 10 -21 17 -76
25 -91 12 -141 42 -166 100 -17 37 -18 94 -21 680 -3 666 -2 681 40 773 88
190 247 312 407 312 97 0 169 -57 191 -152 15 -65 32 -85 82 -99 53 -14 91 -4
132 35 64 60 58 174 -14 245 -82 81 -211 115 -352 91z"/>
<path d="M5882 4080 c-134 -19 -257 -78 -356 -171 -152 -141 -190 -373 -95
-574 12 -26 49 -75 83 -109 89 -90 151 -123 506 -272 208 -87 287 -131 357
-201 97 -96 129 -179 121 -313 -4 -68 -11 -92 -43 -155 -46 -90 -89 -132 -187
-178 -137 -66 -322 -73 -483 -21 -88 28 -128 49 -194 102 -46 38 -151 172
-151 194 0 8 -4 18 -8 24 -5 5 -19 43 -31 84 -30 102 -39 122 -52 114 -11 -6
-9 -112 7 -377 6 -95 7 -97 33 -103 14 -3 67 -19 116 -34 229 -72 297 -84 485
-84 171 -1 177 0 276 32 125 40 203 86 272 158 109 116 153 229 154 394 0 83
-3 105 -31 175 -50 129 -162 245 -303 313 -96 46 -198 92 -204 92 -9 0 -265
109 -334 143 -150 72 -237 169 -259 289 -10 52 -10 76 3 136 8 40 25 89 36
107 34 56 115 121 182 148 192 75 409 50 549 -64 95 -76 155 -172 185 -295 19
-78 27 -92 46 -76 10 8 11 42 5 159 -4 81 -11 173 -15 203 l-7 54 -65 24
c-197 71 -440 104 -598 82z"/>
<path d="M2980 4060 c-14 -5 -56 -14 -95 -20 -154 -23 -262 -39 -307 -45 -31
-4 -48 -11 -48 -20 0 -21 16 -27 76 -30 75 -5 123 -32 154 -86 l25 -44 0 -785
c0 -849 2 -823 -54 -883 -26 -29 -61 -41 -148 -52 -49 -6 -78 -30 -50 -41 6
-2 183 -3 392 -2 327 3 380 5 380 18 0 10 -22 18 -80 28 -44 7 -88 21 -99 30
-35 32 -64 88 -71 142 -5 30 -9 443 -9 918 -1 959 4 895 -66 872z"/>
<path d="M17448 3870 c-94 -33 -169 -83 -269 -180 -86 -85 -214 -246 -249
-315 -12 -24 -15 -26 -18 -11 -2 10 0 21 5 25 11 8 58 123 72 176 17 64 13
164 -9 212 -26 59 -69 83 -145 83 -57 0 -86 -10 -165 -55 -27 -15 -187 -177
-233 -235 -134 -170 -337 -466 -337 -492 0 -10 6 -18 13 -18 16 0 47 32 47 48
0 7 4 12 8 12 5 0 34 39 67 88 184 276 405 532 498 575 82 39 123 1 98 -91
-15 -58 -79 -190 -169 -347 -38 -66 -92 -163 -121 -215 -30 -52 -64 -113 -76
-135 -32 -58 -154 -267 -165 -285 -5 -8 -35 -60 -66 -115 -32 -55 -89 -154
-127 -220 -39 -66 -82 -141 -96 -167 -44 -79 -86 -152 -101 -176 -11 -17 -12
-26 -4 -40 10 -15 25 -17 110 -14 55 1 108 4 119 7 20 4 36 31 213 345 38 68
122 215 131 230 23 36 136 235 140 245 2 5 7 12 11 15 3 3 37 56 74 118 37 62
87 142 109 177 23 36 58 90 77 122 32 53 145 211 208 293 47 61 180 187 234
222 86 56 151 78 231 78 57 0 78 -5 113 -25 67 -39 88 -83 89 -185 0 -50 -6
-99 -14 -120 -41 -105 -79 -166 -143 -229 -38 -38 -68 -72 -68 -78 0 -18 36
-43 61 -43 43 0 121 34 164 72 75 66 135 220 135 343 0 72 -40 185 -82 235
-23 27 -92 68 -133 79 -63 17 -173 13 -237 -9z"/>
<path d="M15435 3853 c-218 -46 -450 -186 -640 -385 -44 -46 -96 -105 -115
-132 -19 -26 -47 -62 -61 -79 -14 -18 -36 -50 -48 -72 -74 -126 -70 -118 -124
-235 -33 -70 -69 -172 -98 -280 -7 -27 -12 -106 -12 -195 0 -139 2 -156 28
-225 46 -126 109 -198 221 -254 230 -115 601 20 914 334 97 97 260 295 260
315 0 4 11 21 24 38 36 47 122 221 152 307 46 133 55 182 61 335 4 122 2 162
-12 215 -66 254 -274 372 -550 313z m279 -68 c42 -32 63 -68 82 -140 16 -60
18 -178 4 -243 -6 -26 -15 -69 -21 -97 -11 -48 -74 -239 -99 -300 -90 -213
-253 -500 -352 -619 -245 -297 -407 -403 -585 -382 -67 8 -101 23 -136 61 -37
40 -51 74 -66 166 -18 114 -2 225 66 459 22 77 78 208 136 320 28 52 57 109
65 125 8 17 28 49 44 72 15 23 28 44 28 48 0 11 60 95 138 195 144 183 284
299 412 344 63 22 89 26 161 23 76 -3 89 -6 123 -32z"/>
<path d="M4591 631 c-12 -8 -14 -45 -12 -207 1 -109 5 -202 7 -206 3 -4 16 -8
30 -8 23 0 24 2 24 74 0 41 4 77 10 81 5 3 38 9 74 14 70 8 97 25 123 74 31
61 -14 159 -79 171 -64 12 -163 16 -177 7z m183 -83 c21 -30 20 -50 -4 -81
-21 -26 -82 -41 -110 -26 -14 7 -18 53 -11 122 1 4 25 7 55 7 45 0 58 -4 70
-22z"/>
<path d="M5070 620 c-7 -12 -9 -91 -8 -212 l3 -193 26 -3 c25 -3 27 0 33 45
12 90 4 336 -11 361 -17 27 -29 28 -43 2z"/>
<path d="M5372 628 c-9 -9 -12 -70 -12 -215 l0 -203 109 0 c90 0 110 3 115 16
11 28 -3 34 -73 34 -43 0 -72 5 -79 13 -5 7 -10 83 -11 177 -2 178 -12 215
-49 178z"/>
<path d="M5911 595 c-12 -25 -21 -49 -21 -55 0 -6 -6 -21 -14 -33 -26 -41
-118 -276 -111 -287 9 -14 51 -13 62 3 6 6 16 29 22 50 l13 37 84 0 84 0 14
-32 c8 -18 17 -41 20 -50 5 -18 60 -26 70 -10 2 4 -13 50 -35 102 -22 52 -58
140 -80 195 -59 145 -73 155 -108 80z m59 -141 c29 -68 27 -74 -25 -74 -50 0
-55 9 -31 57 8 15 17 36 20 46 8 26 15 21 36 -29z"/>
<path d="M6292 624 c-29 -22 -3 -48 52 -52 25 -2 47 -4 48 -5 1 -1 4 -81 7
-177 l6 -175 29 0 c34 0 31 -21 34 213 l2 142 44 0 c50 0 76 21 59 48 -9 14
-30 17 -137 18 -87 0 -132 -4 -144 -12z"/>
<path d="M6786 621 c-14 -16 -16 -45 -14 -212 l3 -194 128 -3 c109 -2 128 0
134 13 12 34 -12 43 -129 44 l-56 1 -4 56 c-1 31 1 58 5 61 4 3 42 5 84 6 60
2 78 6 87 19 16 26 -2 37 -64 38 -107 2 -110 4 -110 66 l0 54 85 0 c73 0 86 3
95 19 20 38 -9 49 -124 49 -88 1 -107 -2 -120 -17z"/>
<path d="M7324 626 c-61 -27 -90 -100 -63 -159 13 -28 65 -60 129 -78 51 -14
90 -44 90 -70 0 -10 -12 -27 -27 -39 -36 -28 -99 -21 -128 15 -37 45 -101 24
-75 -25 22 -41 69 -63 139 -64 83 -1 116 14 143 68 18 34 18 44 7 83 -9 35
-20 49 -53 68 -23 13 -60 28 -84 35 -97 25 -112 98 -23 116 24 5 40 1 72 -21
36 -26 41 -27 55 -13 24 24 9 54 -40 77 -49 24 -97 26 -142 7z"/>
<path d="M8144 630 c-48 -19 -68 -88 -43 -144 11 -23 8 -30 -25 -66 -32 -36
-36 -46 -36 -94 0 -47 4 -59 30 -84 44 -45 131 -52 185 -15 25 17 43 17 61 -2
20 -20 63 -19 71 1 3 9 -6 27 -23 45 l-29 30 23 39 c12 21 19 46 16 54 -9 24
-46 19 -69 -10 l-20 -26 -32 40 -32 40 21 23 c36 41 51 88 38 118 -20 49 -83
73 -136 51z m72 -74 c7 -19 -13 -56 -30 -56 -21 0 -38 27 -31 50 7 23 53 28
61 6z m-13 -201 c43 -49 41 -71 -7 -84 -46 -12 -96 18 -96 59 0 21 41 71 57
69 4 0 25 -20 46 -44z"/>
<path d="M9030 627 c-66 -22 -100 -50 -125 -104 -54 -114 -18 -242 85 -297 99
-53 275 -1 275 80 0 41 -25 41 -74 -1 -37 -30 -50 -35 -96 -35 -47 0 -57 4
-95 38 -39 34 -43 43 -47 92 -7 96 54 170 141 170 38 0 54 -7 120 -54 61 -43
79 23 20 72 -57 47 -135 62 -204 39z"/>
<path d="M9640 634 c-55 -18 -93 -41 -115 -69 -80 -106 -62 -256 41 -328 36
-25 50 -29 120 -30 68 0 84 3 119 25 74 47 105 103 105 190 0 99 -69 188 -161
207 -52 12 -84 13 -109 5z m131 -87 c122 -82 67 -277 -79 -277 -109 0 -175
101 -134 206 34 87 138 122 213 71z"/>
<path d="M10246 618 c-9 -14 -27 -51 -40 -84 -13 -32 -30 -75 -39 -94 -51
-114 -87 -211 -82 -220 3 -5 18 -10 31 -10 21 0 29 9 47 50 l21 50 84 0 83 0
21 -50 c18 -44 24 -50 49 -50 19 0 29 5 29 15 0 17 -87 233 -100 250 -4 6 -16
34 -26 64 -9 29 -27 65 -39 79 l-22 26 -17 -26z m47 -167 c24 -68 23 -71 -28
-71 -25 0 -45 4 -45 9 0 15 42 111 49 111 3 0 14 -22 24 -49z"/>
<path d="M10763 623 c-162 -57 -181 -308 -30 -394 50 -28 146 -31 201 -5 46
22 86 70 79 96 -7 28 -28 25 -73 -11 -74 -59 -176 -48 -220 24 -32 51 -35 107
-11 156 48 92 158 109 237 36 34 -31 58 -29 62 6 6 48 -99 111 -180 108 -13 0
-42 -7 -65 -16z"/>
<path d="M11239 619 c-7 -14 -10 -81 -7 -204 3 -192 9 -218 48 -208 18 5 20
14 20 93 l0 87 66 6 c36 2 78 2 92 -2 26 -7 27 -10 30 -94 l3 -87 28 0 c28 0
29 2 36 59 4 33 4 124 0 203 -5 114 -10 146 -22 155 -30 23 -43 -3 -43 -84 0
-58 -3 -75 -16 -80 -15 -6 -73 -8 -141 -4 l-33 1 0 74 c0 41 -3 81 -6 90 -9
23 -41 20 -55 -5z"/>
<path d="M11802 628 c-9 -9 -12 -71 -12 -216 l0 -203 28 3 27 3 3 199 c2 138
-1 203 -9 212 -14 17 -22 17 -37 2z"/>
<path d="M12360 630 c-12 -7 -16 -37 -18 -135 -2 -69 -7 -125 -10 -125 -4 0
-47 57 -97 125 -83 115 -122 151 -142 131 -9 -9 -3 -400 7 -409 4 -5 16 -7 26
-5 17 3 19 15 22 123 1 66 5 126 7 134 4 9 43 -36 105 -120 77 -103 105 -134
122 -134 l23 0 3 199 c3 219 -3 245 -48 216z"/>
<path d="M12769 626 c-86 -31 -135 -93 -146 -186 -11 -92 34 -170 127 -220 38
-21 159 -18 195 5 57 36 86 69 100 119 21 69 12 75 -101 77 -96 2 -114 -3
-114 -26 0 -22 34 -35 89 -35 60 0 67 -16 25 -55 -86 -80 -232 -28 -249 87 -9
60 20 129 67 158 62 37 156 20 203 -37 25 -31 59 -28 63 5 3 17 -8 34 -35 61
-61 57 -146 75 -224 47z"/>
<path d="M1696 494 c-13 -12 -14 -19 -5 -30 10 -12 184 -14 1121 -14 997 0
1109 2 1115 16 3 8 0 21 -6 27 -9 9 -282 13 -1110 15 -1010 3 -1100 2 -1115
-14z"/>
<path d="M13676 497 c-12 -9 -17 -20 -13 -31 6 -15 91 -16 1050 -16 1091 0
1082 0 1057 40 -14 22 -2065 28 -2094 7z"/>
</g>
</svg>
