<?xml version="1.0" encoding="UTF-8"?>
<svg xmlns="http://www.w3.org/2000/svg"
     version="1.1"
     viewBox="0 0 2000 2000"
     width="2000px" height="2000px">
  <title>Studio First Floor - Pilates &amp; Coaching</title>

  <!-- Silhouette (beige pilates figure) -->
  <g transform="translate(0.000000,2000.000000) scale(0.100000,-0.100000)" fill="#d7cac3" stroke="none">
    <path d="M13003 16666 c-4 -8 -19 -16 -33 -18 -19 -2 -26 -10 -28 -30 -2 -19
-10 -28 -25 -30 -34 -5 -32 -35 9 -117 67 -135 69 -140 58 -151 -8 -8 -19 -4
-40 13 -33 27 -68 47 -83 47 -22 0 -12 -70 14 -98 14 -15 28 -36 31 -46 4 -11
41 -55 84 -98 52 -52 80 -88 84 -109 3 -17 6 -154 6 -304 0 -149 5 -309 11
-354 11 -83 -6 -223 -34 -275 -9 -19 -10 -19 -28 3 -11 13 -19 29 -19 37 0 31
-46 65 -74 54 -43 -16 -81 -12 -102 11 -65 73 -249 60 -354 -24 -88 -70 -116
-111 -146 -217 -20 -70 -24 -76 -55 -85 -34 -10 -149 -115 -149 -136 0 -6 -6
-25 -14 -42 -40 -94 -56 -428 -27 -580 33 -175 38 -345 13 -454 -19 -84 24
-82 118 5 55 50 80 99 80 156 0 14 5 28 10 31 6 4 10 -11 10 -38 0 -51 20 -77
39 -53 47 57 54 354 10 431 -3 6 -11 30 -18 55 -8 25 -22 72 -32 105 -52 171
-60 309 -22 385 27 55 27 55 40 11 17 -58 36 -101 45 -101 5 0 8 -5 8 -11 0
-18 72 -89 116 -113 23 -13 73 -29 110 -36 109 -20 137 -70 98 -175 -48 -131
-60 -327 -40 -635 16 -241 -24 -367 -164 -517 -43 -46 -194 -133 -232 -133 -9
0 -20 -4 -23 -10 -3 -5 -17 -10 -31 -10 -14 0 -41 -8 -62 -19 -20 -10 -50 -21
-66 -25 -38 -9 -192 -129 -216 -168 -18 -30 -81 -87 -116 -106 -64 -34 -293
-110 -424 -142 -357 -86 -537 -109 -702 -91 -198 22 -474 25 -618 6 -182 -23
-305 -41 -362 -54 -26 -6 -94 -12 -150 -12 -109 -2 -143 9 -206 65 -19 17 -37
21 -91 21 -64 0 -70 -2 -116 -39 -26 -22 -56 -54 -67 -72 -19 -33 -92 -72
-178 -94 -55 -14 -108 -44 -136 -77 -12 -14 -46 -33 -75 -43 -67 -23 -86 -57
-52 -92 26 -26 155 -26 432 -2 97 8 232 19 301 25 358 30 1020 20 1380 -22
346 -40 946 -13 1335 61 121 23 121 23 223 -18 53 -22 133 -47 177 -56 44 -9
100 -22 125 -27 76 -17 341 -28 675 -28 309 -1 343 2 565 36 39 6 102 50 146
103 28 33 29 38 29 141 0 98 -2 110 -22 131 -13 14 -23 29 -23 34 0 13 -100
64 -126 64 -11 0 -24 4 -30 8 -17 16 -117 32 -259 42 -77 5 -196 14 -265 20
-69 5 -155 10 -192 10 -54 0 -68 3 -68 15 0 8 5 15 10 15 6 0 10 7 10 15 0 8
4 15 10 15 16 0 62 54 115 139 6 9 21 34 35 56 14 22 31 51 37 65 16 38 55
123 65 143 5 9 18 43 29 75 11 31 24 64 28 72 33 62 70 232 92 420 7 61 19
121 30 142 11 21 19 55 19 78 0 22 5 40 10 40 20 0 2 120 -21 140 -3 3 -10 12
-15 22 -5 9 -34 43 -64 75 -30 33 -59 67 -65 75 -5 9 -26 37 -45 64 -76 107
-98 211 -60 289 11 22 19 45 20 51 0 6 16 60 35 120 66 203 71 225 85 334 6
47 16 121 23 165 15 101 15 325 0 356 -6 13 -23 80 -38 149 -72 331 -86 410
-91 525 -6 140 -18 202 -50 266 -24 49 -100 129 -122 129 -7 0 -20 9 -29 20
-21 24 -29 25 -40 6z"/>
    <path d="M3668 13135 c-98 -28 -182 -111 -192 -189 -14 -126 16 -198 142 -334
99 -106 114 -132 114 -197 1 -159 -168 -231 -297 -128 -19 16 -35 35 -35 44 0
8 -4 19 -9 25 -6 5 -11 41 -13 79 -3 63 -5 70 -24 73 -15 2 -23 -4 -27 -20
-23 -93 -47 -177 -56 -201 -27 -69 1 -112 40 -62 21 25 62 29 79 7 20 -26 80
-45 160 -50 90 -5 119 3 216 61 59 35 114 139 114 216 0 48 -35 151 -51 151
-5 0 -9 6 -9 14 0 8 -34 49 -75 91 -41 43 -72 81 -69 86 3 5 -1 7 -8 4 -24
-10 -63 82 -62 147 1 51 4 61 32 87 96 93 269 11 248 -118 -7 -48 0 -71 24
-71 26 0 35 16 54 100 10 41 22 82 27 93 18 32 1 79 -24 71 -12 -4 -23 -11
-25 -15 -6 -14 -35 -10 -67 10 -55 33 -143 44 -207 26z m-17 -53 c-5 -10 -18
-25 -27 -33 -21 -17 -44 -70 -44 -103 0 -67 31 -122 127 -221 113 -117 148
-181 147 -265 -3 -146 -112 -252 -258 -248 -71 1 -71 1 -10 7 71 7 118 41 153
110 47 90 27 148 -102 292 -57 64 -113 137 -125 162 -46 98 -14 226 71 288 47
34 83 40 68 11z m222 3 c20 -8 47 -15 61 -15 32 0 40 -15 28 -48 -5 -15 -15
-46 -21 -69 -12 -42 -31 -59 -31 -27 0 41 -28 102 -62 136 -40 40 -33 47 25
23z m-513 -671 c0 -65 20 -104 81 -157 62 -55 52 -60 -31 -16 -45 23 -67 29
-90 24 -37 -8 -37 -7 -4 112 28 98 44 111 44 37z"/>
    <path d="M6273 13111 c-10 -17 -9 -22 13 -36 14 -9 32 -14 39 -11 8 3 17 2 19
-3 5 -7 -18 -100 -34 -136 -5 -11 -16 -40 -24 -65 -29 -90 -38 -110 -47 -110
-5 0 -9 7 -9 15 0 47 -142 51 -227 6 -74 -40 -148 -110 -170 -161 -10 -22 -21
-40 -25 -40 -25 0 -57 -147 -49 -228 13 -144 151 -208 272 -127 28 20 56 38
61 41 4 3 12 -6 17 -19 16 -41 39 -57 86 -57 53 0 75 8 75 26 0 8 6 11 15 8 9
-4 18 2 24 17 5 13 23 41 40 63 37 46 43 96 11 96 -13 0 -27 -13 -39 -37 -42
-81 -101 -122 -101 -70 0 13 7 32 15 43 8 10 15 29 15 40 0 12 9 43 19 70 11
27 29 76 41 109 12 33 25 69 29 80 10 25 20 54 77 225 43 128 54 157 76 206 5
12 8 32 6 45 -3 23 -6 24 -108 27 -95 2 -106 1 -117 -17z m197 -6 c10 -12 10
-21 2 -38 -6 -12 -27 -74 -48 -137 -20 -63 -75 -221 -122 -350 -90 -250 -111
-343 -77 -356 23 -9 0 -24 -37 -24 -85 0 -93 112 -22 278 26 59 50 131 55 160
4 30 14 59 22 65 8 7 20 30 27 52 6 22 15 49 20 60 28 65 72 215 74 250 2 38
4 40 42 46 21 3 42 7 45 8 4 0 12 -6 19 -14z m-360 -332 c-1 -5 -23 -24 -51
-43 -90 -63 -175 -235 -186 -375 -5 -66 -4 -73 22 -103 15 -17 33 -32 41 -32
9 0 12 -4 9 -10 -11 -17 -66 -11 -96 11 -116 83 -85 305 64 457 67 68 199 131
197 95z m76 -53 c43 -37 -25 -268 -103 -348 -7 -7 -13 -19 -13 -27 0 -49 -140
-116 -167 -80 -26 37 0 228 38 270 5 5 9 16 9 24 0 8 11 29 25 47 14 18 25 37
25 41 0 11 58 67 84 80 23 13 83 8 102 -7z"/>
    <path d="M6060 12671 c0 -6 4 -11 9 -11 5 0 12 -10 14 -22 4 -22 4 -22 6 -2 0
12 -6 27 -14 34 -10 9 -15 9 -15 1z"/>
    <path d="M6927 13052 c-23 -26 -23 -100 1 -118 33 -26 112 -11 112 21 0 7 5
15 12 17 16 6 2 54 -24 78 -27 25 -79 26 -101 2z m85 -19 c34 -31 11 -93 -35
-93 -50 0 -72 55 -37 90 24 24 47 25 72 3z"/>
    <path d="M4470 12942 c-65 -25 -68 -28 -86 -88 -15 -54 -15 -54 -65 -54 -50 0
-50 0 -47 -32 2 -28 8 -34 31 -36 15 -2 27 -8 27 -14 0 -20 -31 -111 -51 -150
-5 -10 -9 -28 -9 -41 0 -13 -4 -27 -9 -33 -22 -24 -72 -198 -67 -230 19 -100
147 -118 228 -31 66 70 95 141 62 154 -16 6 -64 -32 -64 -51 -1 -15 -36 -56
-48 -56 -5 0 -15 -7 -22 -15 -8 -10 -17 -12 -22 -7 -9 9 60 226 89 282 7 14
13 31 13 38 0 8 6 26 14 40 8 15 19 46 25 70 11 41 13 42 54 43 23 1 51 2 62
3 55 3 15 65 -42 66 -18 0 -33 2 -33 5 0 5 18 51 33 82 7 16 7 30 -1 48 -13
29 -12 29 -72 7z m44 -51 c-4 -14 -12 -49 -18 -77 -6 -28 -17 -58 -24 -66 -10
-13 -56 -129 -82 -208 -4 -14 -26 -77 -49 -140 -47 -131 -48 -140 -21 -165 26
-23 17 -35 -26 -35 -50 0 -74 28 -74 90 0 27 4 59 10 72 39 94 130 356 130
377 0 14 9 37 20 51 11 14 20 31 20 38 0 29 33 73 63 86 43 18 60 10 51 -23z"/>
    <path d="M7554 12802 c-18 -2 -40 -12 -50 -23 -9 -10 -22 -19 -29 -19 -15 0
-98 -77 -122 -115 -62 -94 -89 -262 -54 -340 66 -149 252 -171 392 -46 129
115 179 300 114 426 -52 100 -116 130 -251 117z m-22 -90 c-126 -126 -183
-394 -103 -479 29 -30 3 -32 -44 -3 -170 105 -56 478 165 540 44 13 41 0 -18
-58z m140 18 c42 -33 43 -109 2 -250 -9 -30 -20 -63 -25 -72 -5 -10 -9 -25 -9
-33 0 -8 -4 -15 -9 -15 -5 0 -16 -15 -25 -33 -34 -72 -132 -110 -172 -66 -33
37 -15 249 21 249 7 0 10 12 8 28 -8 57 73 176 135 198 48 17 45 17 74 -6z
m74 5 c66 -45 83 -213 33 -320 -49 -104 -141 -190 -217 -202 -37 -6 -37 -6 14
49 74 79 118 174 145 316 11 61 8 91 -18 158 -7 18 17 18 43 -1z"/>
    <path d="M4917 12768 c-71 -67 -105 -139 -71 -152 16 -6 54 9 54 23 0 11 63
91 72 91 12 0 10 -58 -2 -65 -5 -3 -10 -15 -10 -25 0 -11 -9 -39 -19 -62 -10
-24 -29 -68 -41 -98 -12 -30 -29 -67 -36 -82 -19 -36 -18 -138 2 -166 56 -80
173 -71 272 22 32 30 32 30 32 5 1 -54 74 -97 136 -80 39 11 91 55 105 89 10
26 39 30 39 5 0 -14 2 -15 13 -4 10 11 10 14 0 18 -15 5 -17 41 -4 62 9 14 3
51 -9 51 -12 0 -55 -44 -75 -78 -11 -18 -25 -32 -31 -32 -6 0 -14 -9 -17 -20
-6 -22 -27 -27 -27 -6 0 7 17 64 39 127 21 63 58 172 82 242 52 152 50 160
-33 165 -54 3 -54 3 -82 -80 -25 -72 -61 -170 -80 -218 -3 -8 -17 -33 -31 -55
-13 -22 -34 -57 -45 -77 -60 -111 -181 -161 -165 -69 7 40 43 141 57 156 4 5
8 18 8 28 0 11 14 48 31 84 37 77 39 174 5 212 -33 36 -124 30 -169 -11z m157
-10 c27 -39 14 -118 -39 -243 -31 -73 -75 -208 -75 -232 0 -35 27 -63 59 -63
20 0 23 -2 11 -10 -33 -21 -100 -12 -131 19 -47 47 -41 88 45 304 62 156 70
194 46 215 -26 21 -16 32 30 32 29 0 43 -6 54 -22z m350 9 c18 -13 18 -17 -8
-88 -44 -119 -124 -361 -131 -396 -5 -24 -2 -36 14 -52 22 -22 12 -31 -39 -31
-77 0 -91 139 -27 265 11 22 42 98 68 170 47 129 51 135 100 144 3 1 13 -5 23
-12z"/>
    <path d="M6810 12790 c0 -5 -7 -10 -15 -10 -14 0 -75 -80 -75 -100 0 -6 -7
-13 -15 -17 -14 -5 -14 -8 1 -24 22 -25 41 -24 49 2 7 22 76 92 83 85 5 -5
-19 -77 -30 -90 -4 -6 -8 -20 -8 -32 0 -13 -4 -25 -8 -28 -4 -3 -14 -28 -22
-56 -8 -28 -18 -53 -22 -56 -4 -3 -8 -14 -8 -25 0 -10 -4 -28 -10 -39 -5 -11
-14 -29 -20 -40 -15 -30 -12 -117 5 -150 21 -40 95 -43 154 -6 62 40 129 151
108 181 -17 22 -42 10 -58 -27 -6 -16 -29 -48 -51 -70 -55 -57 -57 -32 -8 98
23 60 50 136 61 169 12 33 25 64 30 70 5 5 9 20 9 35 0 14 4 31 9 39 10 15 -3
54 -27 84 -17 19 -132 26 -132 7z m124 -32 c9 -12 16 -33 16 -45 0 -20 -75
-237 -136 -396 -18 -45 -18 -50 -2 -77 19 -34 15 -40 -28 -40 -37 0 -61 19
-70 56 -6 24 51 215 81 275 20 38 65 170 65 190 0 9 -7 22 -15 29 -22 18 -9
30 35 30 29 0 43 -6 54 -22z"/>
    <path d="M3700 12421 c0 -12 5 -21 10 -21 6 0 10 6 10 14 0 8 -4 18 -10 21 -5
3 -10 -3 -10 -14z"/>
    <path d="M6870 12365 c-6 -8 -10 -22 -8 -32 3 -14 6 -12 20 9 19 29 9 48 -12
23z"/>
    <path d="M6361 12253 c-13 -28 -13 -28 13 -4 30 28 31 31 13 31 -8 0 -19 -12
-26 -27z"/>
    <path d="M6060 12211 c0 -8 41 -23 47 -17 2 1 -8 8 -22 14 -14 6 -25 8 -25 3z"/>
    <path d="M11798 11383 c12 -2 30 -2 40 0 9 3 -1 5 -23 4 -22 0 -30 -2 -17 -4z"/>
    <path d="M12000 11380 c-205 -15 -441 -52 -515 -80 -15 -6 -37 -10 -51 -10
-13 0 -24 -4 -24 -10 0 -5 -13 -10 -29 -10 -17 0 -33 -4 -36 -10 -3 -5 -19
-10 -36 -10 -16 0 -29 -4 -29 -10 0 -5 -9 -10 -20 -10 -11 0 -35 -9 -55 -20
-20 -11 -42 -20 -49 -20 -18 0 -145 -66 -220 -114 -31 -20 -61 -36 -66 -36 -6
0 -10 -4 -10 -10 0 -5 -6 -10 -12 -10 -7 0 -26 -12 -43 -28 -16 -15 -55 -46
-86 -69 -53 -40 -184 -176 -217 -225 -9 -13 -19 -25 -23 -28 -4 -3 -22 -32
-39 -65 -18 -33 -39 -67 -46 -76 -8 -8 -14 -19 -14 -22 0 -4 -8 -26 -19 -50
-10 -23 -24 -58 -31 -77 -7 -19 -16 -44 -20 -55 -34 -82 -42 -142 -42 -315 0
-131 8 -206 23 -216 5 -3 9 -14 9 -25 0 -18 17 -57 31 -69 3 -3 13 -21 22 -41
21 -45 135 -169 173 -189 16 -8 47 -26 69 -40 131 -84 283 -120 502 -120 136
0 298 24 368 55 16 7 57 23 89 36 68 26 213 119 267 171 45 42 55 70 34 92
-22 22 -21 22 -86 -34 -32 -27 -60 -50 -63 -50 -4 0 -28 -15 -54 -33 -26 -18
-65 -41 -87 -51 -22 -10 -53 -24 -69 -32 -16 -8 -37 -14 -47 -14 -10 0 -20 -4
-23 -9 -3 -5 -18 -11 -33 -14 -16 -4 -50 -11 -78 -18 -97 -22 -455 -13 -471
12 -3 5 -21 9 -40 9 -19 0 -34 5 -34 10 0 6 -11 10 -24 10 -13 0 -29 7 -36 15
-6 8 -22 17 -33 21 -114 36 -267 217 -309 366 -23 81 -12 428 13 428 5 0 9 11
9 24 0 14 5 28 10 31 6 3 10 14 11 23 0 9 11 37 24 62 13 25 29 56 35 69 6 13
24 44 40 68 17 24 30 46 30 49 0 3 11 16 25 30 14 14 25 29 25 35 0 10 161
172 206 206 77 59 152 112 179 127 17 9 48 27 70 39 100 57 149 79 245 114 96
35 126 43 153 43 15 0 27 5 27 10 0 6 10 10 22 10 20 0 68 13 113 31 11 4 43
10 70 14 28 3 82 10 120 15 198 28 628 22 890 -11 144 -18 359 -50 400 -59 22
-5 76 -14 120 -20 44 -6 105 -15 135 -20 162 -27 492 -56 509 -45 5 3 40 8 78
11 37 3 95 13 128 21 33 8 75 17 93 20 18 3 35 9 38 14 3 5 14 9 25 9 10 0 19
5 19 10 0 6 6 10 14 10 28 0 175 77 176 93 0 4 0 11 0 16 0 21 -41 21 -81 1
-24 -11 -51 -20 -61 -20 -10 0 -18 -4 -18 -10 0 -5 -11 -10 -24 -10 -14 0 -27
-4 -30 -9 -11 -17 -125 -25 -336 -25 -224 0 -457 18 -655 53 -33 5 -109 15
-170 21 -60 6 -175 17 -255 26 -310 31 -575 39 -790 24z m765 -39 c110 -12
236 -26 280 -31 819 -101 1001 -104 1244 -18 124 44 127 25 6 -35 -260 -128
-527 -140 -1085 -47 -234 39 -271 45 -467 70 -945 123 -1644 -49 -2093 -514
-423 -438 -434 -1033 -24 -1279 223 -134 561 -157 838 -56 102 37 193 87 284
156 57 44 76 53 85 44 9 -10 2 -21 -33 -52 -379 -332 -1017 -343 -1335 -24
-94 95 -139 177 -171 311 -19 81 -14 296 10 379 92 325 292 590 597 788 295
192 608 286 1114 331 111 10 565 -4 750 -23z"/>
    <path d="M15325 11361 c-44 -10 -97 -23 -118 -30 -21 -7 -47 -11 -58 -8 -12 3
-22 0 -26 -8 -2 -8 -44 -34 -91 -58 -110 -56 -206 -118 -279 -182 -13 -11 -37
-31 -55 -45 -55 -43 -237 -230 -269 -276 -16 -24 -34 -44 -39 -44 -6 0 -10 -6
-10 -14 0 -8 -3 -16 -7 -18 -5 -1 -30 -30 -56 -63 -26 -33 -55 -68 -63 -78 -7
-9 -14 -20 -14 -22 0 -3 -20 -31 -45 -63 -25 -31 -45 -62 -45 -69 0 -6 -4 -13
-8 -15 -12 -4 -131 -185 -142 -214 -6 -13 -17 -27 -25 -30 -8 -4 -15 -12 -15
-19 0 -7 -7 -18 -15 -25 -8 -7 -13 -16 -10 -20 2 -4 -5 -16 -15 -28 -11 -12
-20 -25 -20 -30 0 -5 -11 -20 -24 -34 -14 -13 -28 -36 -31 -51 -4 -15 -11 -27
-15 -27 -5 0 -18 -19 -29 -43 -12 -24 -29 -52 -38 -63 -10 -10 -26 -35 -36
-54 -9 -19 -28 -53 -42 -75 -14 -22 -28 -47 -32 -55 -4 -8 -30 -51 -58 -95
-48 -73 -102 -167 -129 -222 -6 -13 -14 -23 -18 -23 -4 0 -15 -15 -23 -32 -8
-18 -31 -58 -49 -88 -19 -30 -44 -75 -57 -100 -12 -25 -26 -48 -31 -51 -11 -7
-46 -67 -54 -91 -4 -10 -10 -18 -15 -18 -5 0 -9 -7 -9 -16 0 -8 -17 -41 -38
-72 -21 -31 -58 -93 -82 -137 -51 -94 -78 -144 -113 -205 -214 -382 -175 -674
87 -646 100 12 168 40 228 99 10 9 22 17 27 17 13 0 195 182 280 280 99 114
110 128 151 180 51 66 54 69 108 135 27 33 52 67 56 75 3 8 3 4 0 -10 -46
-190 -42 -402 9 -505 11 -22 26 -53 35 -70 8 -16 28 -44 44 -61 15 -17 26 -33
23 -35 -6 -6 95 -59 113 -59 6 0 12 -4 12 -8 0 -19 217 -57 234 -41 6 5 26 9
45 9 33 0 126 26 176 49 101 46 161 75 165 81 3 4 23 17 46 28 22 11 46 28 53
36 8 9 18 16 24 16 24 0 284 261 338 340 8 11 12 12 16 3 6 -15 33 -17 33 -3
0 6 -7 10 -15 10 -20 0 -19 7 3 31 11 10 25 32 33 47 8 15 30 52 50 82 49 75
149 277 149 301 0 10 5 19 10 19 6 0 10 15 10 34 0 19 5 38 10 41 6 3 10 15
10 26 0 10 4 27 9 37 40 77 40 358 1 457 -28 69 -36 85 -42 85 -5 0 -8 6 -8
13 0 36 -131 146 -200 166 -25 7 -53 17 -62 22 -24 12 -208 12 -208 -1 0 -5
-13 -10 -29 -10 -15 0 -41 -4 -57 -9 -16 -5 -49 -14 -74 -21 -57 -17 -87 -31
-215 -101 -33 -18 -108 -71 -125 -89 -3 -3 -30 -25 -60 -50 -104 -84 -320
-334 -320 -370 0 -4 -3 -10 -7 -12 -11 -4 -53 -65 -53 -76 0 -4 -8 -17 -18
-28 -9 -10 -26 -38 -36 -61 -10 -23 -42 -74 -72 -115 -29 -40 -74 -104 -100
-143 -25 -38 -65 -92 -88 -120 -23 -27 -60 -75 -83 -105 -23 -30 -56 -71 -73
-90 -17 -19 -41 -46 -53 -61 -126 -145 -171 -189 -196 -189 -18 0 -22 -3 -12
-9 24 -16 -168 -171 -212 -171 -9 0 -19 -4 -22 -10 -12 -19 -64 -11 -76 12
-17 32 -3 119 32 196 47 102 100 204 123 237 11 16 21 34 21 40 2 19 45 102
60 115 8 7 15 16 15 21 0 13 62 109 71 109 5 0 9 -9 9 -21 0 -12 4 -17 11 -14
6 4 8 22 4 45 -6 33 -1 47 34 105 23 37 41 73 41 81 0 8 4 14 9 14 5 0 16 15
24 33 23 47 73 108 82 99 5 -4 5 1 2 10 -5 15 6 38 69 149 6 10 18 27 27 37
10 10 17 24 17 31 0 7 14 32 30 56 17 24 30 47 30 51 0 4 11 17 25 30 14 13
25 29 25 37 0 31 36 47 44 20 2 -10 2 -1 -1 20 -3 20 -1 43 5 50 9 11 29 45
66 112 12 22 26 44 92 145 23 36 51 81 62 101 41 74 47 84 52 89 3 3 25 37 48
75 24 39 48 79 55 89 7 11 31 48 55 82 23 35 42 68 42 73 0 6 3 11 8 11 4 0
13 12 19 28 7 15 24 40 38 56 14 16 25 32 25 36 0 4 23 37 50 74 28 37 50 70
50 74 0 4 14 22 30 40 17 18 30 37 30 43 0 5 6 17 14 26 8 10 62 81 119 158
58 77 120 155 138 173 19 17 45 46 59 63 62 76 207 195 293 239 26 14 47 28
47 32 0 39 -182 -85 -307 -209 -171 -170 -288 -325 -583 -768 -171 -257 -263
-403 -493 -785 -100 -167 -108 -179 -168 -282 -19 -32 -70 -117 -114 -190 -44
-73 -89 -148 -100 -168 -39 -67 -108 -185 -150 -256 -65 -107 -186 -328 -238
-434 -79 -162 -101 -245 -74 -281 59 -77 203 -12 382 171 44 45 96 99 116 119
123 126 478 590 534 698 192 372 524 682 845 790 125 41 335 42 423 1 365
-171 302 -811 -133 -1343 -126 -154 -413 -394 -504 -421 -11 -3 -43 -16 -71
-29 -126 -58 -302 -78 -412 -47 -115 34 -235 157 -276 286 -32 102 -31 305 2
421 13 44 25 94 28 110 5 30 5 30 -13 5 -223 -313 -536 -658 -690 -760 -196
-130 -358 -101 -394 69 -20 96 17 237 114 431 63 126 262 475 331 580 12 19
56 91 96 159 199 335 282 472 437 722 163 262 193 309 291 454 385 572 712
874 1083 999 165 55 374 60 427 10 26 -24 -13 -28 -84 -9 -74 21 -169 16 -250
-12 -40 -13 -45 -18 -30 -23 11 -4 26 -3 33 2 45 37 203 39 277 4 38 -18 72
-11 81 16 20 64 -168 96 -341 59z"/>
    <path d="M1507 11255 c-41 -30 -18 -50 68 -55 146 -9 192 -56 215 -217 12 -88
8 -2770 -5 -2858 -10 -71 -79 -140 -148 -149 -26 -3 -67 -8 -91 -11 -50 -7
-69 -31 -40 -52 16 -12 695 -23 824 -13 88 6 96 52 10 61 -113 11 -170 42
-205 109 -35 67 -41 234 -37 1023 2 427 2 427 345 427 232 -1 358 -5 392 -13
144 -35 209 -113 238 -287 20 -118 28 -132 56 -106 19 17 20 30 15 364 -3 190
-7 348 -9 351 -3 2 -5 -152 -5 -342 0 -319 -4 -371 -25 -337 -3 5 -10 37 -15
72 -25 184 -88 263 -242 303 -49 14 -752 25 -764 13 -11 -11 -5 -1327 6 -1393
21 -125 84 -182 213 -194 35 -4 62 -11 65 -18 3 -10 -86 -13 -423 -13 -337 0
-426 3 -423 13 3 7 30 14 64 18 124 12 198 65 217 156 7 31 12 542 14 1457 3
1400 3 1410 -17 1485 -32 117 -68 147 -191 165 -188 27 -69 31 904 31 982 0
982 0 989 -70 21 -208 30 -407 19 -418 -8 -8 -11 -6 -11 7 0 9 -14 60 -31 112
-28 84 -39 102 -95 163 -35 38 -78 75 -96 84 -164 76 -175 77 -732 77 -465 0
-465 0 -471 -52 -8 -66 -14 -1305 -7 -1445 5 -103 5 -103 366 -103 378 1 410
4 491 47 86 45 135 123 155 245 18 116 36 124 41 18 1 -45 1 -45 10 13 11 77
-12 125 -43 87 -11 -13 -18 -39 -18 -62 0 -43 -18 -116 -32 -132 -4 -6 -8 -18
-8 -28 0 -10 -8 -26 -17 -36 -10 -10 -27 -29 -38 -43 -27 -32 -88 -63 -155
-78 -58 -13 -712 -12 -725 0 -8 9 -8 1488 0 1521 7 26 7 26 258 32 490 13 865
-15 850 -63 -4 -12 -2 -13 4 -3 10 13 43 7 43 -8 0 -4 10 -10 23 -14 64 -16
159 -147 187 -257 14 -55 41 -119 50 -119 26 0 33 35 27 143 -12 201 -30 382
-40 395 -15 19 -1975 17 -2000 -3z"/>
    <path d="M13380 10990 c-154 -72 -276 -145 -288 -172 -2 -5 -8 -8 -14 -8 -12
0 -196 -163 -216 -192 -7 -10 -19 -18 -25 -18 -7 0 -21 -16 -31 -35 -10 -19
-26 -42 -35 -52 -23 -25 -103 -132 -116 -153 -5 -10 -29 -45 -52 -78 -24 -34
-43 -66 -43 -71 0 -6 -4 -11 -10 -11 -5 0 -10 -4 -10 -9 0 -6 -13 -30 -30 -54
-16 -25 -30 -48 -30 -51 0 -3 -16 -30 -35 -60 -19 -30 -35 -60 -35 -66 0 -5
-4 -10 -9 -10 -5 0 -11 -8 -14 -17 -6 -19 -38 -74 -47 -83 -3 -3 -32 -50 -65
-105 -99 -169 -114 -188 -141 -181 -14 4 -24 2 -24 -4 0 -5 -15 -10 -33 -10
-48 0 -147 -21 -147 -31 0 -5 -6 -9 -12 -9 -22 -1 -46 -25 -54 -55 -7 -28 -7
-28 51 -22 32 3 63 11 68 16 13 13 117 15 117 2 0 -5 -18 -38 -40 -72 -22 -35
-56 -93 -77 -129 -20 -36 -41 -66 -45 -68 -4 -2 -8 -8 -8 -13 0 -11 -20 -44
-106 -173 -32 -49 -69 -106 -82 -128 -12 -22 -52 -83 -89 -136 -36 -54 -82
-120 -102 -148 -27 -39 -40 -50 -55 -47 -16 4 -18 2 -7 -5 17 -12 1 -42 -55
-102 -18 -19 -47 -55 -64 -79 -32 -43 -158 -171 -259 -263 -38 -35 -61 -48
-84 -49 -18 -1 -24 -3 -14 -6 17 -5 24 -23 8 -23 -5 0 -45 -25 -90 -55 -45
-30 -85 -55 -89 -55 -4 0 -18 -9 -32 -20 -14 -11 -35 -20 -47 -20 -12 0 -24
-4 -27 -9 -3 -5 -16 -11 -28 -14 -13 -3 -59 -15 -103 -27 -190 -51 -448 -36
-615 37 -77 33 -178 106 -180 129 0 7 -8 14 -18 16 -10 3 -29 27 -43 54 -14
27 -30 58 -36 69 -6 11 -16 38 -21 60 -6 22 -14 56 -20 75 -5 20 -5 44 -1 55
4 11 8 34 8 50 1 17 10 54 20 83 34 92 27 132 -24 132 -26 0 -73 -53 -81 -90
-2 -14 -9 -39 -14 -56 -14 -44 -12 -150 5 -221 16 -69 46 -143 57 -143 5 0 8
-7 8 -15 0 -19 1 -20 77 -105 54 -61 94 -93 136 -106 9 -4 17 -10 17 -13 0 -8
55 -33 150 -70 62 -24 255 -53 333 -50 172 5 509 79 552 120 5 5 16 9 25 9 17
0 91 37 178 89 29 17 57 31 62 31 5 0 15 6 22 13 7 6 33 25 58 42 25 16 60 44
78 61 18 17 58 51 87 75 30 24 54 50 55 57 0 6 9 12 20 12 11 0 20 3 20 8 0 4
35 43 78 88 89 93 160 176 182 210 8 13 20 24 27 24 7 0 13 5 13 11 0 6 18 33
40 59 22 26 40 53 40 59 0 6 3 11 8 11 4 0 23 25 42 55 19 30 38 54 43 55 4 0
7 5 7 10 0 6 26 47 58 91 31 45 60 86 64 92 78 127 186 311 238 407 40 73 38
72 152 67 101 -5 347 -38 379 -51 27 -11 140 48 219 113 75 62 34 105 -58 60
-45 -22 -60 -23 -294 -26 -141 -1 -250 2 -253 7 -3 5 -13 6 -21 3 -21 -8 -11
26 23 80 23 37 35 57 83 142 12 22 26 45 31 51 4 5 38 62 75 125 36 62 74 128
84 144 9 17 41 68 70 115 29 47 62 101 72 120 11 19 26 42 34 51 8 8 14 21 14
27 0 16 17 15 23 0 2 -7 3 -3 1 8 -2 12 2 24 10 27 8 3 26 30 41 60 14 30 42
73 61 95 19 22 34 42 34 45 0 9 70 85 145 159 74 73 155 132 183 133 33 0 68
33 56 53 -18 28 -72 25 -144 -8z m113 4 c3 -4 -19 -20 -49 -35 -150 -78 -288
-227 -469 -504 -120 -183 -188 -295 -322 -525 -27 -47 -89 -152 -137 -234 -62
-107 -83 -151 -75 -157 7 -4 135 -7 283 -6 238 2 278 4 328 21 105 36 80 -3
-55 -85 -75 -46 -44 -46 -337 -3 -132 19 -262 20 -273 2 -4 -7 -63 -105 -130
-218 -557 -935 -1012 -1359 -1601 -1492 -114 -26 -443 -32 -541 -9 -336 76
-543 319 -521 613 8 121 55 208 97 182 13 -7 10 -28 -20 -138 -31 -118 -23
-199 33 -321 91 -197 342 -325 641 -325 500 0 922 325 1406 1082 52 81 111
173 131 205 21 32 43 68 50 80 7 12 45 75 84 140 117 193 126 210 109 217 -21
8 -160 -11 -186 -25 -16 -8 -24 -8 -33 1 -26 26 90 70 190 70 76 0 60 -20 296
374 291 486 420 658 622 832 169 145 444 293 479 258z"/>
    <path d="M4165 10771 c-64 -16 -110 -58 -132 -119 -15 -44 -17 -98 -3 -107 6
-3 10 -17 10 -30 0 -26 51 -75 79 -75 9 0 27 -7 39 -16 24 -17 42 -15 102 8
101 39 143 127 109 229 -27 80 -121 130 -204 110z m123 -39 c79 -52 94 -165
30 -238 -107 -121 -316 -8 -267 144 32 102 152 150 237 94z"/>
    <path d="M14660 10631 c0 -11 4 -21 9 -21 18 0 21 18 6 30 -13 10 -15 9 -15
-9z"/>
    <path d="M14186 10511 c-3 -5 1 -11 9 -15 9 -3 15 0 15 9 0 16 -16 20 -24 6z"/>
    <path d="M8757 10395 c-9 -8 -13 -23 -10 -34 3 -10 0 -22 -6 -25 -6 -4 -11
-20 -11 -36 0 -16 -4 -32 -10 -35 -5 -3 -10 -12 -10 -20 0 -28 -75 -137 -126
-184 -84 -77 -170 -119 -276 -136 -50 -8 -68 -39 -40 -68 18 -17 34 -20 139
-21 118 -1 118 -1 125 -51 4 -27 7 -387 7 -800 0 -885 -2 -872 98 -992 80 -96
183 -137 343 -136 146 0 237 38 335 139 91 94 97 102 93 137 -3 36 -29 47 -50
22 -7 -9 -25 -30 -40 -47 -16 -17 -28 -34 -28 -38 0 -14 -86 -65 -130 -77 -88
-24 -183 -8 -236 39 -11 10 -25 18 -30 18 -5 0 -25 33 -44 73 -35 72 -35 72
-35 892 0 820 0 820 249 821 217 2 251 4 261 18 12 16 9 62 -4 71 -4 2 -119 5
-255 6 -173 1 -249 5 -251 13 -2 6 -6 109 -9 228 -5 246 -9 264 -49 223z m35
-257 c3 -223 3 -223 258 -228 255 -5 255 -5 258 -27 3 -22 0 -23 -55 -23 -500
-2 -458 69 -461 -770 -3 -817 0 -882 44 -981 77 -170 306 -200 462 -59 17 16
32 34 32 40 0 5 4 10 9 10 5 0 13 9 16 20 7 22 35 28 35 7 0 -8 -18 -38 -39
-68 -163 -226 -538 -251 -702 -46 -87 109 -83 60 -87 996 -2 567 -6 829 -13
838 -8 9 -49 13 -137 15 -101 2 -127 6 -127 17 0 18 18 27 89 40 160 29 327
197 373 374 32 123 42 89 45 -155z"/>
    <path d="M5935 9954 c-80 -11 -238 -76 -265 -109 -7 -8 -16 -15 -21 -15 -5 0
-33 -25 -62 -56 -28 -32 -62 -67 -74 -79 -11 -12 -30 -40 -42 -61 -20 -39 -20
-39 -21 128 0 159 -1 168 -21 178 -15 9 -28 9 -49 0 -16 -7 -34 -9 -40 -5 -6
4 -21 0 -33 -8 -12 -8 -40 -17 -62 -21 -71 -12 -178 -26 -250 -32 -78 -7 -97
-17 -93 -48 2 -17 12 -22 53 -27 136 -18 165 -35 195 -116 20 -54 20 -69 17
-802 -2 -410 -8 -764 -12 -786 -14 -76 -71 -116 -183 -129 -84 -10 -103 -26
-67 -56 22 -18 770 -19 803 -1 28 15 28 39 0 45 -13 2 -54 10 -93 17 -167 30
-165 19 -165 789 0 660 -1 647 64 778 40 80 139 202 165 202 7 0 24 9 39 19
101 73 300 55 303 -27 1 -17 3 -21 6 -9 10 39 43 -13 43 -69 0 -38 46 -91 87
-100 16 -3 38 -10 51 -17 18 -8 25 -7 35 6 6 9 24 21 40 26 15 6 32 23 38 38
6 16 15 36 20 45 14 27 11 102 -6 142 -17 39 -65 96 -83 96 -6 0 -12 4 -14 8
-15 36 -201 70 -303 56z m250 -52 c107 -51 152 -118 142 -215 -8 -84 -80 -130
-166 -107 -43 11 -71 41 -71 76 0 87 -99 174 -199 174 -170 0 -358 -150 -422
-336 -7 -21 -18 -45 -24 -53 -14 -19 -19 -1177 -6 -1289 18 -143 55 -185 180
-204 39 -6 71 -14 71 -19 0 -5 -168 -9 -380 -9 -230 0 -380 4 -380 9 0 6 21
13 48 16 90 12 104 17 142 52 70 62 70 68 70 897 0 489 -4 742 -11 776 -20 92
-69 130 -186 145 -29 4 -53 11 -53 16 0 10 14 13 135 30 50 6 144 22 210 35
86 16 123 20 132 12 10 -8 13 -58 13 -200 0 -196 4 -209 38 -143 9 18 25 49
36 69 56 109 219 238 346 276 134 39 239 37 335 -8z"/>
    <path d="M7160 9951 c-77 -10 -89 -14 -205 -66 -33 -15 -78 -43 -100 -62 -22
-18 -44 -38 -50 -42 -5 -5 -18 -18 -27 -30 -22 -26 -35 -27 -42 -3 -3 9 -4 4
-2 -12 2 -18 -7 -54 -24 -90 -88 -194 -59 -423 71 -554 46 -47 97 -92 104 -92
3 0 33 -17 68 -38 34 -21 118 -61 187 -89 69 -28 139 -59 155 -67 17 -9 36
-16 43 -16 7 0 21 -4 32 -10 11 -5 29 -14 40 -20 11 -5 28 -14 38 -19 9 -5 46
-24 82 -42 36 -18 69 -38 73 -46 4 -7 13 -13 20 -14 13 0 95 -98 118 -139 56
-104 33 -328 -43 -403 -15 -16 -28 -32 -28 -36 0 -14 -97 -83 -145 -102 -83
-33 -278 -49 -355 -28 -149 39 -290 108 -309 153 -2 4 -14 18 -28 29 -20 18
-103 149 -103 163 0 2 -8 23 -19 47 -10 23 -25 69 -33 102 -15 62 -40 85 -53
46 -10 -31 14 -473 27 -488 6 -7 22 -13 37 -13 15 0 31 -4 36 -8 6 -5 30 -14
55 -21 25 -8 56 -17 70 -21 25 -8 86 -25 145 -41 110 -30 394 -36 505 -12 169
38 322 136 401 258 50 77 57 92 72 143 52 173 20 367 -82 492 -60 75 -65 80
-78 80 -7 0 -13 4 -13 9 0 13 -127 101 -145 101 -8 0 -17 5 -20 10 -3 6 -15
10 -26 10 -10 0 -19 5 -19 10 0 6 -5 10 -10 10 -6 0 -29 9 -53 19 -23 11 -60
25 -82 33 -22 7 -42 16 -45 19 -3 4 -34 17 -70 30 -36 13 -57 25 -47 27 9 2
17 8 17 14 0 6 -7 7 -17 3 -10 -4 -23 -8 -28 -8 -11 0 -130 49 -155 64 -8 5
-26 15 -40 22 -55 27 -109 80 -159 157 -35 54 -36 56 -35 160 0 124 33 210 81
210 15 0 22 4 18 11 -18 28 96 96 201 118 59 13 221 11 279 -4 46 -11 130 -53
150 -75 10 -11 22 -20 27 -20 13 0 33 -21 41 -42 3 -10 11 -18 16 -18 12 0 71
-86 71 -103 0 -7 8 -25 18 -42 10 -16 24 -55 31 -85 20 -88 21 -90 40 -90 34
0 44 25 36 88 -4 31 -10 124 -13 207 -7 146 -7 150 -32 162 -64 32 -95 43
-116 43 -13 0 -25 4 -28 9 -3 4 -22 11 -43 14 -21 3 -69 13 -108 22 -82 19
-283 27 -375 16z m395 -40 c106 -26 275 -80 276 -89 13 -70 21 -392 10 -392
-6 0 -13 12 -16 28 -61 283 -253 444 -532 444 -267 0 -438 -136 -451 -359 -12
-214 88 -313 473 -468 156 -63 189 -78 324 -142 158 -75 273 -204 322 -358 19
-61 14 -228 -9 -301 -51 -162 -195 -301 -377 -362 -215 -73 -520 -51 -815 58
-30 11 -65 20 -77 20 -15 0 -24 7 -27 23 -9 44 -16 431 -8 422 5 -6 23 -53 41
-105 82 -241 251 -384 491 -416 350 -46 604 114 618 391 12 234 -111 363 -508
528 -47 19 -133 55 -191 80 -273 113 -400 255 -425 475 -12 108 48 281 125
357 91 92 238 165 371 185 86 13 294 3 385 -19z"/>
    <path d="M4270 9938 c-19 -5 -49 -13 -66 -19 -17 -5 -49 -9 -72 -9 -22 0 -44
-4 -47 -10 -3 -5 -30 -10 -60 -10 -30 0 -57 -4 -60 -10 -3 -5 -33 -10 -65 -10
-76 0 -90 -6 -90 -40 0 -31 18 -40 81 -40 75 0 129 -31 157 -90 22 -46 27
-1610 5 -1618 -7 -2 -13 -13 -13 -24 0 -42 -57 -75 -150 -88 -81 -11 -111 -31
-86 -56 15 -14 747 -22 794 -8 25 7 29 35 8 53 -7 6 -21 9 -29 5 -21 -8 -125
15 -154 33 -12 8 -33 40 -45 71 -23 57 -23 57 -28 956 -5 885 -5 899 -25 911
-14 9 -30 9 -55 3z m60 -943 c5 -910 5 -910 31 -952 35 -58 66 -80 124 -88 77
-10 95 -15 95 -25 0 -6 -138 -10 -381 -10 -401 0 -467 9 -267 35 57 7 99 40
131 99 22 41 22 41 22 826 0 839 1 822 -49 878 -32 36 -70 52 -124 52 -56 0
-93 25 -50 34 106 21 391 64 423 62 40 -1 40 -1 45 -911z"/>
    <path d="M18795 9761 c-39 -7 -183 -71 -214 -97 -9 -7 -34 -27 -55 -44 -22
-17 -46 -40 -53 -50 -16 -22 -34 -27 -30 -8 1 6 -6 14 -15 16 -13 2 -18 -3
-18 -17 0 -11 6 -21 14 -23 9 -2 -5 -24 -40 -63 -29 -32 -56 -56 -60 -52 -4 4
1 13 10 20 14 10 16 20 11 38 -8 24 -8 23 -24 -11 -16 -35 -16 -35 -21 61 -5
99 -37 173 -80 186 -8 2 -23 9 -32 14 -24 12 -91 11 -125 -2 -46 -19 -78 -34
-83 -39 -8 -9 -63 -43 -95 -60 -16 -9 -29 -21 -28 -27 1 -6 -22 -36 -52 -66
-30 -30 -55 -62 -55 -71 0 -9 -6 -16 -12 -16 -14 -1 -19 -7 -113 -132 -36 -48
-65 -91 -65 -95 0 -4 -10 -20 -23 -35 -12 -14 -30 -36 -39 -47 -10 -12 -18
-26 -18 -31 0 -6 -4 -10 -10 -10 -5 0 -10 -4 -10 -10 0 -5 -20 -38 -45 -73
-51 -73 -55 -91 -23 -108 19 -10 25 -8 47 18 15 16 34 32 43 36 11 4 15 13 11
26 -3 12 -1 21 3 21 5 0 15 13 22 28 6 16 20 37 30 48 9 11 22 27 27 36 12 18
107 151 138 192 12 16 31 39 42 50 11 12 32 37 46 56 124 163 293 276 314 210
11 -34 -28 -169 -60 -210 -7 -8 -22 -37 -35 -65 -13 -27 -26 -52 -29 -55 -12
-10 -31 -50 -31 -63 0 -8 -9 -22 -20 -32 -11 -10 -20 -22 -20 -28 0 -5 -8 -21
-19 -35 -17 -25 -99 -174 -125 -229 -6 -13 -17 -23 -23 -23 -7 0 -13 -11 -13
-24 0 -14 -4 -27 -9 -31 -6 -3 -22 -30 -37 -60 -14 -30 -30 -55 -35 -55 -5 0
-9 -7 -9 -16 0 -16 -38 -76 -52 -82 -4 -2 -8 -11 -8 -21 0 -9 -5 -22 -11 -28
-13 -13 -29 -41 -60 -103 -13 -25 -26 -47 -29 -50 -4 -3 -24 -36 -45 -75 -20
-38 -41 -74 -45 -80 -4 -5 -21 -35 -37 -65 -41 -76 -57 -104 -63 -110 -3 -3
-11 -16 -18 -29 -8 -13 -23 -40 -35 -60 -11 -20 -31 -55 -44 -78 -14 -25 -23
-54 -21 -70 3 -28 3 -28 117 -31 109 -3 115 -2 152 24 25 17 39 35 39 48 0 12
8 31 18 42 9 10 23 30 29 44 7 14 17 32 21 40 5 8 15 26 22 39 16 31 55 101
89 160 14 26 33 58 40 74 8 15 18 27 23 27 4 0 8 11 8 25 0 14 4 25 8 25 5 0
22 24 37 53 37 68 60 98 70 89 5 -4 5 -2 1 5 -7 12 53 134 75 153 3 3 17 25
31 50 52 94 66 117 104 175 44 67 52 80 90 148 15 26 31 47 36 47 4 0 8 9 8
20 0 11 3 20 8 20 4 0 18 18 32 40 14 22 28 40 32 40 5 0 8 5 8 11 0 11 129
182 142 187 4 2 8 8 8 13 0 9 80 88 126 124 14 11 36 30 47 42 40 40 198 103
259 103 43 0 148 -61 148 -85 0 -8 3 -15 8 -15 13 0 32 -77 32 -127 -1 -51
-50 -190 -85 -239 -11 -15 -48 -55 -82 -89 -85 -83 -80 -135 13 -135 129 0
259 134 291 300 23 119 2 290 -42 334 -11 12 -24 29 -28 39 -3 9 -17 21 -30
26 -12 5 -29 16 -36 25 -7 9 -23 16 -35 16 -12 0 -26 4 -31 9 -13 11 -140 19
-190 12z m201 -37 c189 -79 244 -365 108 -570 -69 -103 -205 -169 -252 -122
-17 17 -18 16 58 97 39 40 70 78 70 83 0 4 10 25 23 46 61 98 80 258 41 338
-64 131 -252 140 -429 21 -61 -42 -210 -187 -248 -243 -23 -33 -151 -211 -164
-229 -35 -45 -393 -629 -393 -640 0 -2 -27 -50 -61 -107 -34 -57 -72 -123 -86
-148 -61 -108 -185 -324 -208 -360 -24 -39 -27 -40 -83 -41 -31 -1 -81 -3
-110 -5 -57 -3 -76 13 -54 45 7 9 25 41 42 71 30 56 46 84 142 250 207 357
388 674 443 775 21 39 46 82 57 97 10 14 18 29 18 32 0 4 10 23 23 44 83 131
184 335 198 399 38 167 -85 148 -267 -40 -113 -117 -121 -128 -261 -327 -56
-80 -120 -171 -143 -202 -38 -55 -60 -72 -60 -46 0 27 184 292 321 463 207
259 352 350 472 297 111 -49 121 -199 27 -414 -23 -54 -39 -104 -37 -110 3 -8
6 -6 6 5 1 9 5 17 9 17 4 0 16 15 27 33 64 109 250 325 340 394 48 37 157 93
200 104 58 14 191 10 231 -7z m-714 -376 c-45 -68 -54 -73 -22 -11 11 21 24
51 30 67 8 22 14 26 22 18 8 -8 0 -28 -30 -74z"/>
    <path d="M16730 9728 c-96 -28 -167 -50 -185 -57 -40 -17 -150 -74 -155 -81
-3 -4 -13 -9 -22 -13 -27 -10 -158 -108 -158 -118 0 -5 -5 -9 -11 -9 -6 0 -31
-20 -55 -44 -24 -25 -60 -57 -79 -72 -19 -14 -35 -31 -35 -36 0 -11 -80 -111
-92 -116 -5 -2 -8 -10 -8 -17 0 -7 -13 -26 -30 -42 -16 -15 -30 -33 -30 -39 0
-6 -8 -22 -19 -35 -10 -13 -33 -51 -51 -84 -17 -33 -38 -65 -47 -72 -8 -6 -19
-30 -24 -53 -5 -22 -18 -60 -29 -83 -56 -121 -82 -255 -83 -417 -1 -170 11
-225 75 -334 28 -48 112 -135 131 -136 5 0 21 -8 35 -18 82 -57 294 -63 417
-12 11 5 43 17 70 26 55 20 148 67 189 96 108 76 184 138 253 206 35 34 68 62
73 62 6 0 10 4 10 9 0 5 24 38 53 73 28 36 63 79 77 97 14 18 34 45 45 59 12
15 26 38 33 52 7 14 25 45 41 70 16 25 30 53 30 62 1 9 5 18 10 20 23 9 94
200 121 330 22 101 29 381 10 393 -5 3 -10 17 -10 31 0 13 -4 32 -9 42 -5 9
-19 37 -31 62 -27 52 -123 149 -148 150 -4 0 -18 9 -32 20 -14 11 -37 20 -52
20 -16 0 -28 5 -28 10 0 13 -203 11 -250 -2z m315 -47 c125 -62 198 -161 229
-313 132 -641 -684 -1621 -1279 -1539 -300 42 -444 378 -329 766 34 115 50
156 103 265 254 517 722 874 1121 855 79 -4 105 -10 155 -34z"/>
    <path d="M16751 9674 c-389 -104 -930 -974 -931 -1494 0 -202 55 -293 193
-322 176 -37 366 82 611 382 193 237 406 688 467 988 70 343 -65 520 -340 446z
m215 -24 c50 -25 74 -44 74 -59 0 -6 8 -23 17 -38 21 -32 32 -254 15 -312 -6
-20 -16 -63 -22 -96 -7 -32 -16 -66 -20 -75 -4 -8 -18 -46 -30 -85 -12 -38
-30 -88 -40 -110 -20 -44 -55 -121 -93 -205 -14 -30 -37 -70 -51 -89 -14 -19
-26 -43 -26 -53 0 -10 -4 -18 -9 -18 -5 0 -13 -10 -17 -22 -6 -21 -50 -85 -65
-98 -4 -3 -9 -15 -13 -28 -4 -12 -16 -27 -27 -32 -10 -6 -19 -20 -19 -30 0
-11 -9 -25 -20 -32 -11 -7 -20 -18 -20 -24 0 -6 -27 -40 -60 -75 -34 -35 -78
-82 -99 -104 -63 -68 -199 -165 -228 -165 -11 0 -24 -5 -30 -11 -14 -14 -216
-15 -221 0 -2 6 -10 11 -19 11 -21 0 -50 35 -74 90 -33 76 -36 309 -6 395 8
22 18 60 22 85 4 25 13 59 20 75 7 17 22 55 34 85 12 30 26 64 30 75 35 85 97
201 103 192 5 -7 8 -4 8 10 0 27 42 111 92 185 21 31 38 61 38 66 0 4 12 23
28 40 15 18 50 63 77 101 28 39 58 73 68 76 9 4 23 18 31 33 18 34 84 97 156
147 30 21 60 44 67 51 7 6 37 20 68 29 31 10 58 22 61 26 11 18 158 10 200
-11z"/>
    <path d="M16180 9050 c-9 -16 -8 -20 5 -20 8 0 15 9 15 20 0 11 -2 20 -5 20
-2 0 -9 -9 -15 -20z"/>
    <path d="M15009 9667 c-145 -50 -295 -176 -446 -374 -436 -577 -611 -1281
-351 -1414 89 -45 240 -31 350 34 180 106 437 423 588 727 241 483 299 868
149 994 -73 62 -172 73 -290 33z m218 -9 c128 -57 167 -210 114 -448 -38 -175
-45 -201 -65 -240 -9 -18 -16 -39 -16 -46 0 -7 -13 -39 -29 -71 -28 -56 -70
-147 -91 -195 -5 -13 -14 -30 -19 -38 -5 -8 -20 -36 -32 -62 -13 -27 -27 -48
-30 -48 -4 0 -12 -13 -19 -30 -7 -16 -16 -30 -19 -30 -4 0 -13 -16 -21 -35 -7
-19 -19 -36 -26 -39 -7 -3 -21 -20 -30 -38 -25 -49 -100 -142 -176 -219 -38
-37 -68 -72 -68 -76 -1 -14 -140 -110 -205 -141 -57 -27 -150 -43 -181 -32
-14 6 -37 10 -52 10 -76 0 -154 140 -155 275 -1 133 65 396 140 555 49 106
105 215 114 225 5 5 9 15 9 21 0 7 14 33 30 57 17 25 30 48 30 51 0 22 233
331 256 340 8 3 14 12 14 21 0 8 6 15 13 15 7 0 18 9 25 20 34 54 201 166 297
198 43 14 159 14 192 0z"/>
    <path d="M15230 8965 c1 -26 2 -28 11 -12 8 14 8 22 0 30 -8 8 -11 3 -11 -18z"/>
    <path d="M7670 9655 c0 -8 7 -15 16 -15 14 0 14 3 4 15 -7 8 -14 15 -16 15 -2
0 -4 -7 -4 -15z"/>
    <path d="M5590 9615 c-10 -12 -10 -15 4 -15 9 0 16 7 16 15 0 8 -2 15 -4 15
-2 0 -9 -7 -16 -15z"/>
    <path d="M12510 9606 c0 -16 18 -31 27 -22 3 3 -2 12 -11 21 -14 14 -16 14
-16 1z"/>
    <path d="M18650 9595 c-10 -12 -10 -15 4 -15 9 0 16 7 16 15 0 8 -2 15 -4 15
-2 0 -9 -7 -16 -15z"/>
    <path d="M6627 9320 c-3 -11 -1 -23 4 -26 5 -3 9 6 9 20 0 31 -6 34 -13 6z"/>
    <path d="M17740 9294 c0 -14 3 -14 15 -4 8 7 15 14 15 16 0 2 -7 4 -15 4 -8 0
-15 -7 -15 -16z"/>
    <path d="M13410 9280 c0 -5 7 -10 15 -10 8 0 15 5 15 10 0 6 -7 10 -15 10 -8
0 -15 -4 -15 -10z"/>
    <path d="M7720 8950 c19 -13 30 -13 30 0 0 6 -10 10 -22 10 -19 0 -20 -2 -8
-10z"/>
    <path d="M13807 8636 c-6 -16 2 -28 14 -20 12 7 11 34 0 34 -5 0 -11 -6 -14
-14z"/>
    <path d="M15440 8630 c0 -19 3 -21 12 -12 9 9 9 15 0 24 -9 9 -12 7 -12 -12z"/>
    <path d="M17005 8391 c-6 -11 9 -23 19 -14 9 9 7 23 -3 23 -6 0 -12 -4 -16 -9z"/>
    <path d="M13713 8293 c-7 -3 -13 -12 -13 -21 0 -15 2 -15 17 1 18 18 16 27 -4
20z"/>
    <path d="M6599 8213 c-3 -19 3 -168 7 -172 2 -2 4 37 4 87 0 51 -2 92 -5 92
-3 0 -6 -3 -6 -7z"/>
    <path d="M6835 8180 c-4 -6 -3 -16 3 -22 13 -13 23 4 13 21 -7 10 -10 10 -16
1z"/>
    <path d="M15081 8147 c-6 -8 -8 -17 -4 -20 7 -8 33 11 33 24 0 13 -16 11 -29
-4z"/>
    <path d="M9421 8086 c-8 -9 -11 -19 -7 -23 9 -9 29 13 24 27 -2 8 -8 7 -17 -4z"/>
    <path d="M8945 8060 c-3 -5 3 -14 14 -19 26 -15 31 -14 25 3 -7 18 -32 28 -39
16z"/>
    <path d="M5065 8040 c-19 -8 -19 -9 2 -9 12 -1 25 4 28 9 7 12 -2 12 -30 0z"/>
    <path d="M1670 8025 c0 -8 4 -15 9 -15 5 0 11 7 15 15 3 9 0 15 -9 15 -8 0
-15 -7 -15 -15z"/>
    <path d="M7858 8020 c-7 -24 -3 -38 8 -28 3 4 4 17 2 30 -3 23 -3 23 -10 -2z"/>
    <path d="M13434 7995 c-10 -8 -14 -14 -9 -15 15 0 40 18 34 24 -3 3 -14 -1
-25 -9z"/>
    <path d="M6710 7938 c0 -12 7 -18 23 -17 15 0 17 2 7 6 -8 3 -18 11 -22 17 -5
7 -8 4 -8 -6z"/>
    <path d="M14655 7850 c-3 -5 3 -10 14 -10 12 0 21 5 21 10 0 6 -6 10 -14 10
-8 0 -18 -4 -21 -10z"/>
    <path d="M9850 7790 c0 -5 7 -10 15 -10 8 0 15 5 15 10 0 6 -7 10 -15 10 -8 0
-15 -4 -15 -10z"/>
    <path d="M12542 6510 c-33 -21 -33 -21 -30 -224 3 -223 9 -245 63 -232 27 7
28 13 28 129 -1 57 -1 57 83 57 83 0 83 0 86 -92 3 -102 13 -115 64 -87 24 12
24 12 24 211 0 183 -2 201 -19 220 -15 15 -27 19 -45 14 -25 -6 -26 -9 -26
-91 0 -85 0 -85 -83 -85 -82 0 -82 0 -84 69 -1 38 -8 83 -15 100 -13 31 -13
31 -46 11z m32 -28 c2 -4 5 -37 7 -72 3 -106 -3 -100 104 -100 108 0 103 -5
107 105 2 46 7 61 19 63 21 4 29 -70 29 -258 0 -117 -2 -139 -16 -144 -28 -11
-34 4 -34 79 0 108 3 105 -105 105 -109 0 -105 4 -105 -111 0 -78 -3 -85 -34
-73 -19 7 -24 360 -6 395 11 20 25 25 34 11z"/>
    <path d="M6660 6510 c-21 -13 -32 -447 -12 -455 8 -3 62 -5 122 -5 108 0 108
0 114 26 11 42 -18 66 -79 64 -27 -1 -56 -1 -62 -1 -10 1 -13 42 -13 171 0
157 -2 172 -20 190 -22 22 -29 24 -50 10z m40 -39 c6 -11 10 -90 10 -185 0
-166 0 -166 64 -166 83 0 99 -6 85 -31 -13 -26 -179 -29 -199 -4 -14 16 -9
372 5 394 10 17 23 13 35 -8z"/>
    <path d="M7213 6508 c-18 -29 -33 -61 -33 -72 0 -7 -5 -17 -11 -23 -7 -7 -20
-38 -31 -70 -10 -32 -29 -78 -42 -103 -13 -25 -27 -59 -31 -77 -3 -17 -12 -37
-20 -43 -16 -13 -10 -39 13 -57 23 -19 37 -16 63 12 13 13 32 25 42 25 9 0 17
4 17 10 0 5 -7 7 -15 4 -10 -4 -15 0 -15 14 0 23 25 32 96 32 56 0 72 -11 89
-64 15 -45 57 -66 84 -42 24 22 27 51 7 71 -8 8 -22 40 -31 72 -10 32 -23 67
-30 78 -7 11 -29 63 -50 115 -48 121 -77 155 -102 118z m53 -51 c4 -12 40
-100 81 -196 55 -132 70 -177 61 -183 -26 -16 -42 -4 -57 44 -18 54 -29 59
-122 56 -83 -3 -83 -3 -100 -47 -17 -47 -37 -65 -59 -51 -11 7 -5 29 30 117
109 270 145 327 166 260z"/>
    <path d="M7219 6354 c-6 -16 -17 -41 -25 -56 -29 -54 -20 -68 41 -68 64 0 65
3 34 82 -27 70 -36 77 -50 42z m41 -81 c0 -7 -11 -13 -25 -13 -25 0 -33 14
-15 25 6 3 10 18 11 33 1 27 1 27 14 -3 8 -16 14 -36 15 -42z"/>
    <path d="M7657 6508 c-7 -4 -29 -7 -50 -6 -44 2 -49 -3 -49 -37 0 -35 5 -39
65 -45 52 -5 52 -5 55 -174 3 -173 8 -196 43 -196 44 0 49 22 49 201 0 169 0
169 44 169 49 0 78 25 69 59 -6 24 -196 48 -226 29z m197 -29 c18 -18 -9 -38
-52 -41 -47 -3 -47 -3 -50 -180 -2 -149 -5 -177 -18 -182 -30 -12 -34 6 -34
169 0 197 0 195 -55 195 -44 0 -72 19 -55 36 11 11 254 13 264 3z"/>
    <path d="M8071 6501 c-12 -12 -21 -29 -21 -38 -4 -179 3 -399 13 -405 7 -4 65
-8 131 -8 109 0 120 2 137 22 40 46 7 68 -99 68 -82 0 -82 0 -82 50 0 50 0 50
78 50 64 0 82 4 95 18 41 45 4 72 -96 72 -77 0 -77 0 -77 46 0 46 0 46 85 41
91 -6 105 1 105 52 0 30 -25 38 -124 39 -50 1 -98 4 -107 7 -11 4 -26 -2 -38
-14z m231 -22 c40 -22 8 -38 -80 -41 -87 -3 -87 -3 -90 -65 -3 -63 -3 -63 75
-63 84 0 109 -9 100 -34 -5 -13 -23 -16 -92 -16 -86 0 -86 0 -83 -67 3 -68 3
-68 91 -71 89 -3 122 -20 86 -43 -16 -10 -199 -12 -223 -3 -22 9 -24 375 -2
396 16 17 190 22 218 7z"/>
    <path d="M8623 6505 c-77 -25 -119 -108 -89 -172 23 -48 43 -62 135 -94 80
-28 87 -35 77 -74 -10 -40 -98 -37 -133 5 -27 32 -48 37 -75 16 -27 -20 -22
-55 12 -88 110 -104 314 -34 296 101 -8 61 -86 131 -145 131 -28 0 -71 24 -77
44 -15 47 74 68 117 27 38 -35 79 -22 79 25 0 24 -55 74 -82 74 -8 0 -18 3
-22 8 -11 10 -55 9 -93 -3z m130 -31 c34 -18 47 -31 47 -52 0 -24 -31 -25 -55
-2 -45 42 -145 20 -145 -32 0 -30 43 -64 103 -82 105 -31 148 -95 112 -169
-38 -82 -202 -92 -255 -17 -36 50 6 72 49 26 43 -46 133 -38 161 14 24 46 1
66 -132 114 -78 29 -108 90 -75 156 27 54 126 76 190 44z"/>
    <path d="M13086 6501 c-16 -17 -25 -247 -16 -416 0 -20 39 -36 60 -25 30 16
31 417 2 443 -23 21 -25 21 -46 -2z m38 -27 c3 -9 6 -100 6 -204 0 -191 -3
-205 -37 -193 -16 6 -18 364 -3 394 13 23 26 24 34 3z"/>
    <path d="M13640 6500 c-17 -17 -20 -33 -20 -107 0 -49 -5 -95 -10 -103 -11
-16 -9 -18 -57 49 -10 13 -24 30 -30 37 -7 7 -13 17 -13 21 0 5 -8 18 -18 29
-10 11 -27 32 -37 47 -20 32 -59 45 -80 27 -12 -10 -15 -47 -14 -214 1 -212 6
-236 49 -236 32 0 40 25 41 138 1 88 5 112 15 112 8 0 14 -6 14 -13 0 -7 8
-22 18 -33 24 -28 75 -94 94 -124 26 -41 66 -80 82 -80 39 0 48 52 42 248 -2
103 -5 188 -5 189 -4 9 -34 33 -42 33 -5 0 -18 -9 -29 -20z m-119 -155 c54
-71 102 -131 108 -133 8 -3 11 34 11 116 0 133 4 152 31 152 16 0 18 -12 21
-132 7 -304 -1 -319 -97 -185 -94 130 -139 186 -150 183 -6 -1 -12 -60 -15
-137 -4 -110 -8 -134 -20 -134 -13 0 -16 31 -20 195 -3 107 -4 199 -2 203 11
23 46 -10 133 -128z"/>
    <path d="M14100 6510 c0 -5 -12 -10 -27 -10 -53 0 -153 -81 -153 -124 0 -8 -4
-18 -10 -21 -5 -3 -10 -35 -10 -71 0 -36 4 -64 10 -64 6 0 10 -13 10 -28 0
-44 83 -122 130 -122 11 0 20 -4 20 -10 0 -16 121 -12 150 5 14 8 35 19 47 24
54 25 109 160 77 190 -19 19 -215 17 -229 -3 -30 -40 -4 -60 90 -68 41 -4 45
-20 10 -37 -17 -8 -31 -18 -33 -23 -2 -4 -25 -8 -52 -8 -100 0 -175 119 -120
190 11 14 20 32 20 41 0 19 66 49 106 49 32 0 72 -21 103 -54 29 -31 76 -35
90 -8 13 25 -12 74 -54 107 -47 35 -175 68 -175 45z m155 -60 c43 -30 62 -60
50 -80 -11 -18 -33 -11 -54 18 -49 70 -175 68 -241 -3 -40 -42 -42 -159 -5
-203 66 -78 198 -84 249 -11 33 47 23 59 -48 59 -65 0 -88 12 -67 33 12 12
181 11 194 -2 5 -5 4 -26 -2 -48 -50 -184 -336 -190 -397 -9 -39 117 22 248
131 279 50 14 145 -2 190 -33z"/>
    <path d="M5871 6501 c-8 -5 -11 -68 -9 -221 3 -205 4 -213 25 -227 37 -25 63
15 63 99 0 68 0 68 50 68 89 0 160 60 160 133 0 51 -36 120 -70 135 -31 14
-201 24 -219 13z m205 -31 c55 -21 79 -113 44 -168 -25 -41 -73 -62 -140 -62
-50 0 -50 0 -50 -79 0 -64 -3 -80 -17 -85 -9 -4 -20 -3 -23 1 -14 15 -20 389
-7 402 13 14 150 7 193 -9z"/>
    <path d="M5937 6434 c-4 -4 -7 -38 -7 -76 0 -68 0 -68 53 -68 132 0 147 141
16 148 -30 2 -58 0 -62 -4z m115 -31 c41 -37 6 -93 -58 -93 -44 0 -44 0 -44
55 0 55 0 55 42 55 24 0 49 -7 60 -17z"/>
    <path d="M6020 6370 c0 -19 3 -21 12 -12 9 9 9 15 0 24 -9 9 -12 7 -12 -12z"/>
    <path d="M6352 6498 c-19 -19 -17 -432 3 -448 15 -13 55 -5 67 14 16 24 9 400
-8 424 -17 24 -43 29 -62 10z m52 -34 c9 -25 7 -367 -3 -383 -5 -8 -16 -11
-25 -8 -27 11 -24 407 3 407 10 0 22 -7 25 -16z"/>
    <path d="M9433 6503 c-12 -2 -27 -11 -34 -19 -17 -21 -30 -123 -19 -145 7 -13
1 -26 -25 -55 -80 -87 -25 -228 92 -236 46 -3 113 17 113 34 0 13 20 9 36 -7
21 -21 64 -30 83 -18 27 17 24 44 -10 79 -33 34 -33 34 -11 57 26 28 28 65 5
83 -27 20 -51 17 -64 -8 -6 -13 -13 -25 -15 -27 -4 -5 -54 42 -54 50 0 4 12
21 28 38 80 92 3 199 -125 174z m81 -23 c60 -22 69 -82 21 -138 -32 -38 -31
-46 6 -94 32 -39 32 -39 60 -12 47 45 79 15 39 -36 -26 -33 -25 -39 6 -71 46
-48 17 -78 -32 -35 -28 23 -28 23 -72 0 -77 -41 -153 -29 -193 32 -34 52 -24
100 34 162 27 28 30 35 19 52 -15 24 -16 84 -1 111 18 34 67 47 113 29z"/>
    <path d="M9440 6419 c-12 -21 9 -69 30 -69 14 0 50 38 50 53 0 38 -62 51 -80
16z m56 -15 c-3 -9 -6 -20 -6 -25 0 -12 -27 -11 -35 1 -11 18 3 40 26 40 15 0
19 -4 15 -16z"/>
    <path d="M9417 6248 c-72 -66 -8 -155 86 -119 41 16 40 37 -5 88 -50 59 -50
59 -81 31z m72 -49 c18 -21 28 -39 22 -39 -6 0 -11 5 -11 11 0 5 -4 8 -10 4
-5 -3 -7 -12 -3 -20 4 -11 -3 -15 -26 -15 -31 0 -38 8 -22 26 5 5 5 18 1 29
-8 18 -9 17 -9 -7 -1 -30 -18 -38 -27 -13 -7 18 21 65 39 64 6 0 27 -18 46
-40z"/>
    <path d="M10315 6502 c-146 -34 -202 -229 -109 -374 15 -23 32 -38 44 -38 11
0 20 -4 20 -8 0 -14 65 -32 118 -32 78 0 155 42 195 107 12 19 -9 50 -38 55
-20 4 -35 -4 -66 -33 -37 -35 -47 -39 -92 -39 -48 0 -53 3 -93 46 -49 55 -59
117 -24 149 11 10 20 24 20 30 0 24 27 37 49 25 14 -7 21 -7 21 0 0 5 -5 10
-11 10 -5 0 -7 5 -4 10 17 27 101 3 139 -39 24 -27 60 -27 86 -1 21 21 21 21
-11 61 -17 22 -44 46 -59 54 -32 17 -142 27 -185 17z m185 -47 c45 -28 63 -55
50 -75 -10 -16 -30 -8 -89 35 -94 69 -231 -14 -231 -140 0 -118 140 -197 231
-130 56 41 78 50 91 37 17 -17 -25 -67 -78 -92 -101 -50 -220 -10 -271 90 -57
111 1 273 105 296 15 3 32 8 37 10 27 10 119 -8 155 -31z"/>
    <path d="M10920 6504 c-75 -28 -140 -81 -140 -114 0 -9 -6 -22 -12 -29 -14
-13 -14 -170 -1 -180 5 -3 14 -18 20 -32 38 -88 250 -134 313 -69 3 3 14 10
25 16 11 6 35 33 53 60 33 47 34 52 30 129 -6 137 -73 209 -204 219 -38 3 -76
3 -84 0z m171 -44 c133 -68 133 -276 1 -362 -91 -58 -234 -25 -286 66 -112
195 83 398 285 296z"/>
    <path d="M10908 6419 c-75 -39 -103 -158 -54 -230 66 -97 216 -88 266 16 70
144 -73 288 -212 214z m137 -13 c121 -63 76 -266 -59 -266 -68 0 -136 69 -135
136 1 108 104 177 194 130z"/>
    <path d="M11522 6493 c-5 -10 -19 -45 -32 -78 -13 -33 -29 -67 -37 -76 -8 -9
-17 -33 -20 -53 -3 -20 -10 -39 -14 -42 -5 -3 -9 -14 -9 -25 0 -20 -15 -26
-25 -9 -7 12 -25 4 -25 -11 0 -5 7 -9 15 -9 21 0 19 -15 -7 -61 -21 -37 -21
-39 -3 -59 10 -11 27 -20 37 -20 20 0 57 36 58 56 1 42 25 59 80 56 81 -3 100
-10 100 -32 0 -10 5 -22 10 -25 6 -3 10 -15 10 -25 0 -22 31 -34 65 -26 32 8
36 26 14 72 -10 21 -18 43 -19 47 0 9 -25 69 -41 99 -5 10 -9 23 -9 29 0 7
-11 35 -24 63 -13 28 -33 72 -45 99 -22 51 -61 66 -79 30z m84 -93 c130 -308
133 -315 119 -323 -22 -12 -41 2 -54 41 -22 60 -26 62 -118 62 -84 0 -84 0
-105 -49 -21 -51 -36 -65 -57 -52 -12 8 -2 44 37 131 24 54 86 203 101 243 18
47 42 30 77 -53z"/>
    <path d="M11526 6318 c-14 -35 -26 -69 -26 -75 0 -14 105 -19 113 -5 6 9 -44
142 -53 142 -4 0 -19 -28 -34 -62z m50 -36 c6 -31 5 -32 -25 -32 -36 0 -35 -3
-15 45 17 42 30 38 40 -13z"/>
    <path d="M12085 6504 c-11 -3 -29 -7 -41 -9 -31 -7 -93 -64 -115 -107 -14 -27
-19 -58 -19 -116 0 -74 2 -80 38 -130 20 -28 43 -52 50 -52 7 0 25 -11 39 -24
20 -19 34 -23 62 -20 67 9 141 27 141 36 0 4 6 8 13 8 15 0 67 64 67 82 0 47
-44 48 -110 3 -72 -49 -116 -48 -168 3 -53 51 -62 103 -28 170 46 91 150 99
225 18 29 -31 42 -32 65 -7 28 31 -5 95 -64 126 -30 16 -122 27 -155 19z m145
-39 c47 -24 74 -65 56 -84 -14 -13 -18 -13 -38 6 -143 131 -341 -17 -253 -188
47 -90 168 -103 252 -27 22 21 53 19 53 -3 0 -41 -103 -99 -178 -99 -180 0
-265 242 -129 368 55 51 166 64 237 27z"/>
    <path d="M6161 6468 c-1 -16 4 -28 9 -28 12 0 12 8 0 35 -8 18 -9 17 -9 -7z"/>
    <path d="M2975 6364 c-17 -17 -18 -25 -9 -48 6 -14 114 -16 1130 -16 1124 0
1124 0 1136 25 26 57 76 55 -1134 54 -983 0 -1109 -1 -1123 -15z m2224 -18 c7
-8 8 -17 3 -20 -13 -8 -2201 -8 -2213 0 -6 4 -6 11 2 20 10 12 176 14 1104 14
928 0 1094 -2 1104 -14z"/>
    <path d="M14944 6355 c-38 -58 -91 -55 1061 -55 908 0 1054 2 1065 15 15 18 5
51 -19 58 -10 2 -484 5 -1054 6 -1036 1 -1036 1 -1053 -24z m2104 -17 c3 -17
-52 -18 -1042 -18 -1066 0 -1072 0 -1039 33 3 4 472 6 1042 5 977 -3 1036 -4
1039 -20z"/>
    <path d="M11817 6256 c-4 -10 -5 -21 -2 -24 9 -9 17 6 13 25 -3 17 -4 17 -11
-1z"/>
    <path d="M13033 6165 c0 -38 2 -53 4 -32 2 20 2 52 0 70 -2 17 -4 1 -4 -38z"/>
    <path d="M8646 6212 c-8 -13 5 -52 18 -52 15 0 15 52 -1 57 -6 2 -14 0 -17 -5z"/>
    <path d="M8700 6202 c0 -10 22 -32 32 -32 15 0 8 15 -12 28 -11 7 -20 9 -20 4z"/>
    <path d="M10330 6190 c0 -13 28 -25 38 -16 3 4 0 11 -8 16 -20 13 -30 12 -30
0z"/>
  </g>

  <!-- Text layer (Studio, First Floor, Pilates &amp; Coaching) -->
  <g transform="translate(0.000000,2000.000000) scale(0.100000,-0.100000)" fill="#726753" stroke="none">
    <path d="M6406 13111 c-38 -6 -40 -8 -42 -46 -2 -35 -48 -193 -74 -250 -5 -11
-14 -38 -21 -60 -6 -22 -20 -48 -30 -58 -12 -11 -19 -32 -19 -56 0 -23 -19
-82 -50 -154 -40 -92 -50 -128 -50 -171 0 -96 28 -129 96 -112 24 6 25 8 9 20
-27 19 -15 103 35 236 23 63 82 232 131 374 68 198 86 262 78 273 -6 7 -14 12
-18 12 -3 -1 -24 -5 -45 -8z"/>
    <path d="M3583 13071 c-55 -40 -93 -118 -93 -190 1 -76 34 -138 135 -247 109
-118 125 -142 131 -200 5 -39 2 -62 -15 -99 -22 -49 -77 -105 -115 -117 -18
-5 -16 -6 8 -7 68 -2 161 66 197 145 54 120 22 217 -120 364 -96 99 -115 130
-126 203 -7 48 16 119 48 146 10 7 17 17 17 22 0 17 -27 9 -67 -20z"/>
    <path d="M3843 13075 c33 -31 53 -69 62 -118 13 -67 38 -36 51 63 l7 50 -32 0
c-17 0 -48 7 -68 15 -49 21 -52 19 -20 -10z"/>
    <path d="M6952 13043 c-7 -3 -18 -16 -23 -30 -21 -55 46 -97 84 -55 41 45 -4
108 -61 85z"/>
    <path d="M4453 12910 c-22 -9 -53 -57 -53 -82 0 -7 -9 -24 -20 -38 -11 -14
-20 -35 -20 -48 0 -21 -10 -51 -99 -300 -62 -170 -52 -242 32 -242 44 0 50 7
26 31 -10 10 -19 27 -19 37 0 16 37 126 101 302 12 30 24 66 29 80 9 27 35 86
49 110 8 13 41 139 41 154 0 9 -42 6 -67 -4z"/>
    <path d="M4975 12770 c-3 -6 0 -13 9 -16 35 -13 26 -56 -48 -241 -77 -195 -83
-253 -27 -293 31 -21 86 -26 111 -10 12 8 11 10 -6 10 -27 0 -54 30 -54 61 0
34 32 133 75 234 57 133 67 224 28 252 -20 15 -79 17 -88 3z"/>
    <path d="M6015 12755 c-106 -51 -211 -197 -233 -321 -11 -65 -5 -109 21 -161
27 -51 113 -93 132 -63 3 6 -1 10 -10 10 -8 0 -25 15 -36 33 -28 44 -21 135
18 248 38 107 86 179 152 229 72 55 47 69 -44 25z"/>
    <path d="M6836 12771 c-3 -5 1 -14 9 -21 23 -19 19 -43 -34 -179 -76 -195
-104 -287 -97 -315 9 -37 33 -56 71 -56 39 0 51 12 30 30 -21 18 -19 48 11
121 47 115 124 340 124 363 0 40 -27 66 -70 66 -21 0 -41 -4 -44 -9z"/>
    <path d="M5335 12734 c-8 -20 -15 -39 -15 -43 0 -10 -58 -161 -82 -211 -29
-62 -37 -95 -43 -166 -6 -77 16 -114 70 -114 39 0 51 12 30 30 -8 7 -15 21
-15 32 0 18 38 137 124 386 20 57 34 108 30 113 -3 5 -23 9 -44 9 -36 0 -41
-3 -55 -36z"/>
    <path d="M7505 12753 c-16 -9 -51 -33 -76 -54 -77 -64 -139 -222 -126 -321 8
-58 45 -125 81 -148 48 -29 61 -25 35 12 -67 94 2 371 120 481 48 45 49 47 23
47 -15 -1 -40 -8 -57 -17z"/>
    <path d="M7703 12736 c26 -67 29 -97 18 -158 -27 -139 -84 -265 -147 -320 -42
-37 -44 -52 -4 -44 43 8 112 58 152 109 100 126 117 312 38 397 -29 31 -67 41
-57 16z"/>
    <path d="M3317 12378 c-34 -120 -34 -121 3 -113 22 5 46 -1 95 -24 36 -17 67
-31 70 -31 2 0 -19 21 -47 48 -57 52 -78 93 -78 149 0 77 -16 66 -43 -29z"/>
    <path d="M3543 12213 c9 -2 23 -2 30 0 6 3 -1 5 -18 5 -16 0 -22 -2 -12 -5z"/>
    <path d="M12015 11364 c-212 -12 -522 -69 -693 -128 -133 -46 -312 -131 -419
-201 -150 -98 -257 -196 -382 -350 -94 -117 -173 -281 -222 -460 -22 -80 -19
-325 5 -400 85 -260 280 -422 581 -482 109 -21 327 -21 425 1 147 32 322 104
406 168 65 49 115 100 112 114 -2 11 -25 -1 -83 -44 -131 -98 -306 -174 -459
-201 -33 -6 -123 -11 -200 -11 -120 0 -155 4 -234 25 -158 44 -244 89 -340
180 -101 95 -152 195 -178 351 -64 376 200 839 621 1088 192 114 307 161 552
227 363 96 784 104 1353 24 96 -14 418 -65 465 -75 182 -36 562 -52 677 -29
103 21 224 62 301 101 42 22 77 44 77 49 0 13 -7 12 -74 -15 -34 -13 -108 -34
-166 -47 -95 -20 -122 -21 -300 -16 -112 4 -304 19 -450 36 -310 36 -568 65
-715 81 -113 12 -535 21 -660 14z"/>
    <path d="M15330 11345 c-206 -45 -407 -152 -615 -327 -200 -168 -464 -500
-712 -893 -191 -304 -283 -452 -320 -515 -60 -102 -65 -111 -88 -144 -11 -17
-40 -65 -65 -108 -64 -110 -199 -336 -226 -378 -31 -48 -138 -231 -219 -375
-135 -238 -199 -385 -225 -519 -24 -117 26 -233 108 -256 135 -37 270 29 475
232 98 98 270 295 332 383 11 15 38 48 59 74 22 25 60 73 84 106 51 68 52 61
13 -75 -13 -46 -24 -119 -28 -190 -9 -187 33 -319 137 -420 140 -136 351 -156
580 -53 170 75 247 127 393 264 206 194 325 358 437 603 123 270 145 556 58
736 -40 82 -106 148 -183 185 -52 25 -75 29 -172 33 -120 5 -201 -9 -317 -54
-201 -79 -434 -266 -589 -473 -73 -96 -177 -254 -177 -267 0 -11 -185 -281
-252 -367 -188 -242 -297 -368 -443 -509 -112 -109 -252 -187 -310 -172 -29 7
-55 44 -55 77 0 58 69 214 205 462 70 127 184 323 231 397 13 21 24 39 24 42
0 2 43 75 96 162 53 88 112 186 132 219 19 33 42 74 52 90 29 48 300 496 331
545 15 25 48 79 74 120 102 167 358 547 494 735 198 273 377 452 546 543 116
64 257 85 368 57 46 -11 72 -14 79 -7 39 39 -183 66 -312 37z m-85 -1674 c88
-41 125 -111 133 -250 10 -197 -64 -455 -225 -776 -99 -197 -207 -355 -368
-538 -159 -182 -316 -267 -469 -255 -119 10 -180 65 -213 191 -36 143 12 412
119 662 209 486 541 891 796 969 68 21 178 20 227 -3z"/>
    <path d="M1526 11241 c-7 -11 17 -21 49 -21 60 0 129 -23 165 -56 31 -28 42
-48 59 -113 l21 -78 -3 -1409 c-3 -775 -8 -1428 -12 -1451 -8 -47 -60 -115
-107 -139 -17 -9 -60 -19 -96 -22 -38 -4 -67 -12 -70 -19 -3 -10 85 -13 418
-13 333 0 421 3 418 13 -3 7 -31 15 -69 18 -75 7 -94 14 -134 47 -84 69 -84
73 -85 870 l0 672 48 1 c26 1 188 0 360 -1 345 -2 377 -6 469 -62 83 -50 113
-111 140 -283 5 -28 13 -48 18 -45 11 6 19 727 9 800 -6 39 -7 42 -15 22 -5
-13 -13 -50 -18 -83 -19 -116 -69 -194 -156 -242 -77 -43 -114 -47 -494 -47
l-361 0 -1 78 c-3 277 3 1445 7 1480 l6 42 465 0 c556 0 567 -1 731 -77 18 -9
61 -46 96 -84 56 -61 67 -79 95 -163 17 -52 31 -102 31 -111 0 -10 5 -13 11
-9 8 5 10 33 5 93 -4 47 -11 152 -16 233 -5 81 -11 152 -15 158 -8 13 -1961
14 -1969 1z"/>
    <path d="M13435 10988 c-71 -23 -251 -118 -312 -163 -255 -191 -410 -385 -730
-920 -203 -338 -220 -364 -246 -369 -12 -3 -51 -8 -87 -11 -93 -9 -112 -14
-139 -36 -20 -16 -22 -22 -11 -29 8 -5 21 -5 31 1 25 13 159 30 180 24 18 -6
17 -9 -7 -53 -75 -135 -169 -289 -282 -462 -31 -47 -61 -94 -67 -105 -18 -33
-107 -167 -135 -205 -14 -19 -66 -89 -116 -155 -49 -66 -108 -142 -132 -170
-71 -82 -265 -276 -298 -299 -18 -11 -69 -47 -114 -80 -104 -75 -172 -107
-318 -152 -106 -33 -131 -37 -265 -42 -151 -5 -224 4 -317 36 -208 71 -336
184 -389 342 -34 103 -37 163 -11 261 33 126 35 138 16 145 -63 24 -113 -159
-86 -315 39 -235 230 -412 520 -483 91 -22 423 -16 536 10 186 42 396 133 552
239 122 82 179 130 320 267 240 234 443 508 730 986 74 124 136 227 138 228 7
10 188 1 263 -12 192 -33 267 -39 300 -22 78 41 161 109 148 122 -3 3 -27 -2
-54 -12 -43 -17 -79 -19 -328 -19 -243 0 -280 2 -283 15 -2 14 71 143 306 540
136 230 254 412 352 545 72 97 202 235 261 278 20 14 59 37 88 50 28 13 48 26
45 30 -9 9 -22 8 -59 -5z"/>
    <path d="M4155 10748 c-73 -26 -123 -113 -108 -189 9 -46 72 -105 121 -114
114 -19 205 68 188 177 -16 97 -113 158 -201 126z"/>
    <path d="M8751 10308 c-14 -62 -71 -182 -104 -219 -75 -84 -237 -179 -305
-179 -34 0 -68 -23 -58 -38 5 -8 48 -12 130 -12 81 0 126 -4 134 -12 9 -9 12
-203 12 -813 0 -764 1 -805 20 -879 40 -158 139 -245 313 -276 173 -31 371 48
462 185 19 29 35 58 35 64 0 21 -19 11 -41 -21 -59 -82 -149 -136 -241 -144
-76 -7 -129 5 -191 47 -58 38 -102 123 -117 224 -6 41 -10 387 -10 841 0 695
2 772 16 778 9 3 123 6 255 6 207 0 240 2 246 15 3 9 2 19 -2 23 -3 4 -120 9
-258 12 l-252 5 -3 223 c-2 175 -5 222 -15 222 -8 0 -19 -22 -26 -52z"/>
    <path d="M5945 9934 c-101 -24 -149 -41 -203 -71 -113 -62 -218 -176 -275
-299 -32 -69 -37 -51 -37 144 0 142 -3 192 -13 200 -9 8 -48 4 -137 -13 -111
-21 -154 -28 -303 -50 -52 -8 -38 -22 31 -31 100 -12 152 -55 171 -144 18 -82
15 -1488 -3 -1564 -24 -102 -68 -142 -174 -158 -40 -6 -72 -14 -72 -19 0 -10
364 -16 595 -9 172 5 197 13 87 28 -71 10 -125 43 -147 89 -30 63 -36 193 -33
795 2 461 6 600 16 610 6 6 12 18 12 26 0 8 16 47 36 87 40 82 126 177 197
218 52 31 144 57 199 57 98 0 198 -88 198 -174 0 -35 28 -65 71 -76 52 -14 87
-6 129 28 27 23 33 36 37 79 3 28 0 66 -6 84 -29 88 -146 157 -277 164 -43 2
-88 2 -99 -1z"/>
    <path d="M7170 9930 c-133 -20 -280 -93 -371 -185 -77 -76 -138 -254 -124
-362 6 -52 37 -159 55 -194 22 -41 94 -115 153 -159 63 -45 222 -129 277 -145
39 -12 226 -93 325 -141 116 -57 179 -105 237 -182 62 -81 82 -149 76 -257 -9
-173 -114 -309 -286 -369 -104 -37 -305 -39 -422 -5 -196 57 -330 191 -401
399 -18 52 -36 99 -40 104 -8 9 -2 -379 7 -421 3 -16 12 -23 27 -23 12 0 47
-9 77 -20 172 -64 364 -100 526 -100 263 0 454 81 580 245 80 105 106 182 107
324 2 157 -38 249 -158 368 -71 70 -98 89 -186 131 -134 63 -176 82 -183 82
-3 0 -29 11 -58 23 -29 13 -96 41 -148 62 -295 121 -400 230 -400 417 0 33 5
80 12 106 53 214 342 331 623 251 157 -44 315 -223 341 -387 4 -23 13 -47 22
-54 13 -12 14 3 8 137 -4 83 -9 173 -12 202 l-6 51 -93 31 c-158 52 -252 71
-385 75 -69 3 -150 1 -180 -4z"/>
    <path d="M4065 9878 c-246 -40 -229 -36 -215 -53 8 -10 31 -15 62 -15 77 0
129 -36 159 -110 21 -52 21 -1578 0 -1630 -30 -75 -95 -119 -176 -120 -16 -1
-41 -7 -55 -15 -22 -13 21 -14 358 -15 236 0 382 4 382 10 0 5 -16 12 -35 15
-19 3 -52 8 -72 11 -46 7 -80 33 -112 87 l-26 42 -5 910 c-3 501 -7 911 -8
913 -6 7 -96 -3 -257 -30z"/>
    <path d="M18785 9733 c-152 -34 -286 -139 -457 -358 -39 -49 -82 -108 -96
-130 -28 -44 -52 -71 -52 -58 0 4 19 51 41 103 93 212 83 363 -28 412 -124 55
-285 -53 -506 -340 -140 -182 -291 -407 -282 -421 10 -18 21 -6 105 117 43 64
95 140 115 167 19 28 47 66 60 85 78 109 234 276 303 324 24 16 60 30 85 33
41 5 44 4 57 -27 10 -25 11 -42 2 -81 -11 -44 -77 -191 -119 -264 -10 -16 -33
-57 -52 -90 -19 -33 -43 -76 -54 -95 -11 -19 -39 -69 -62 -110 -64 -114 -153
-271 -237 -415 -41 -71 -119 -206 -173 -300 -54 -93 -111 -192 -127 -220 -15
-27 -42 -75 -58 -105 -17 -30 -35 -62 -42 -71 -23 -33 -4 -47 59 -45 32 2 82
4 110 4 50 2 54 4 78 42 23 36 147 252 208 360 14 25 52 91 86 148 34 57 61
105 61 107 0 11 371 617 390 635 3 3 25 34 49 70 134 197 263 341 372 412 91
60 158 81 248 77 69 -4 81 -7 118 -36 58 -46 73 -85 73 -185 0 -91 -17 -157
-57 -220 -12 -21 -23 -41 -23 -46 0 -5 -31 -42 -69 -83 -55 -60 -67 -78 -60
-92 20 -35 115 -15 185 38 89 68 151 234 141 374 -11 138 -85 244 -194 277
-44 13 -154 17 -198 7z"/>
    <path d="M16735 9705 c-81 -15 -217 -64 -278 -100 -23 -13 -55 -32 -72 -41
-66 -37 -195 -142 -280 -228 -237 -239 -413 -561 -464 -850 -6 -33 -11 -108
-11 -167 0 -273 139 -457 370 -489 177 -25 411 59 632 226 191 144 406 411
517 639 173 355 186 681 35 882 -27 36 -108 93 -167 117 -53 22 -197 27 -282
11z m282 -62 c57 -48 82 -109 90 -224 5 -72 -15 -233 -36 -284 -4 -11 -23 -67
-41 -125 -113 -364 -387 -801 -639 -1017 -192 -166 -413 -188 -520 -51 -97
122 -52 489 100 817 115 250 199 389 346 572 209 262 371 363 570 356 80 -3
84 -5 130 -44z"/>
    <path d="M5882 6474 c-11 -20 -3 -386 9 -398 17 -19 29 10 35 87 l7 77 49 0
c65 0 113 22 138 62 35 55 11 147 -44 168 -12 4 -59 10 -104 13 -65 4 -84 2
-90 -9z m191 -66 c23 -31 18 -67 -15 -98 -16 -15 -35 -20 -75 -20 l-53 0 0 68
c0 38 3 72 7 76 4 4 32 6 62 4 45 -3 57 -7 74 -30z"/>
    <path d="M6665 6472 c-4 -9 -9 -97 -12 -194 -5 -135 -3 -181 7 -193 9 -11 34
-15 101 -15 77 0 90 3 98 19 14 25 -2 31 -85 31 l-64 0 0 158 c0 86 -3 167 -6
179 -8 28 -30 37 -39 15z"/>
    <path d="M7216 6462 c-34 -66 -156 -359 -156 -375 0 -4 12 -7 26 -5 21 2 30
12 43 48 l17 45 83 3 c94 3 105 -2 122 -59 12 -39 28 -52 53 -43 18 7 12 24
-62 194 -27 63 -57 136 -67 162 -21 57 -40 67 -59 30z m53 -150 c31 -79 30
-82 -34 -82 -49 0 -55 2 -55 21 0 11 6 33 14 47 8 15 19 40 25 56 14 35 23 28
50 -42z"/>
    <path d="M7589 6474 c-14 -18 11 -32 61 -36 l45 -3 3 -177 2 -178 25 0 25 0 2
178 3 177 47 3 c46 3 70 23 45 39 -19 13 -247 10 -258 -3z"/>
    <path d="M8084 6472 c-11 -10 -14 -56 -14 -202 0 -162 2 -189 16 -194 20 -8
198 -8 218 0 24 9 19 33 -6 39 -13 3 -54 6 -93 7 l-70 3 -3 68 -3 67 75 0 c82
0 106 6 106 25 0 19 -24 25 -106 25 l-75 0 3 63 3 62 83 3 c63 2 84 7 89 18 9
25 -5 29 -109 29 -72 1 -104 -3 -114 -13z"/>
    <path d="M8610 6472 c-40 -20 -60 -53 -60 -100 0 -49 41 -85 129 -112 102 -32
126 -76 70 -126 -31 -28 -104 -23 -138 10 -48 46 -88 28 -51 -24 39 -55 176
-66 226 -19 78 73 41 169 -79 204 -68 19 -107 49 -107 79 0 58 90 79 149 35
24 -18 34 -20 43 -11 28 28 -46 82 -112 82 -19 0 -51 -8 -70 -18z"/>
    <path d="M9433 6480 c-12 -5 -26 -18 -32 -29 -15 -27 -14 -87 1 -111 11 -17 8
-24 -19 -52 -39 -42 -53 -69 -53 -105 0 -34 30 -82 62 -99 34 -20 99 -17 143
6 48 25 51 25 82 1 23 -19 53 -19 53 -1 0 5 -12 23 -26 40 l-27 31 22 40 c34
60 9 80 -40 33 l-26 -25 -32 39 c-36 46 -38 62 -11 87 10 9 24 33 31 52 9 28
8 38 -6 59 -25 39 -75 53 -122 34z m75 -52 c17 -17 15 -35 -8 -58 -26 -26 -36
-25 -55 4 -13 19 -14 29 -5 45 12 23 49 28 68 9z m-17 -200 c51 -62 52 -65 29
-88 -48 -48 -148 -5 -134 57 6 26 46 73 62 73 4 0 24 -19 43 -42z"/>
    <path d="M10323 6481 c-84 -22 -136 -91 -141 -190 -4 -79 21 -138 80 -184 53
-42 146 -49 213 -16 49 24 85 65 78 87 -8 20 -30 14 -68 -20 -29 -25 -48 -32
-88 -36 -45 -3 -58 0 -96 26 -105 71 -91 221 26 281 47 24 129 7 162 -33 8 -9
24 -16 38 -16 38 0 26 39 -23 72 -45 30 -125 43 -181 29z"/>
    <path d="M10906 6476 c-121 -45 -169 -193 -100 -312 37 -64 83 -88 176 -89 69
0 80 3 120 30 67 48 89 95 86 181 -4 85 -36 142 -97 174 -53 27 -136 34 -185
16z m137 -47 c58 -30 97 -92 97 -152 0 -17 -9 -50 -21 -74 -50 -103 -199 -111
-265 -14 -29 43 -32 118 -6 171 31 63 135 100 195 69z"/>
    <path d="M12057 6476 c-83 -31 -131 -106 -129 -204 2 -143 124 -231 267 -191
39 11 105 66 105 88 0 25 -31 21 -68 -9 -98 -79 -226 -36 -253 85 -11 50 -10
57 12 102 53 106 165 124 257 40 17 -16 25 -18 34 -9 10 10 10 18 -2 40 -31
55 -149 86 -223 58z"/>
    <path d="M12540 6470 c-6 -11 -10 -97 -10 -203 0 -160 2 -186 16 -191 28 -11
34 4 34 79 0 108 -3 105 105 105 108 0 105 3 105 -105 0 -75 6 -90 34 -79 14
5 16 27 15 153 -1 181 -9 246 -29 246 -11 0 -16 -14 -18 -60 -4 -110 1 -105
-106 -105 -109 0 -106 -3 -106 100 0 51 -4 69 -15 74 -8 3 -19 -3 -25 -14z"/>
    <path d="M14059 6476 c-84 -30 -128 -87 -137 -177 -16 -168 155 -282 307 -204
27 13 58 36 70 51 23 30 45 99 36 114 -7 11 -188 14 -198 4 -3 -3 -3 -12 0
-20 4 -10 23 -14 69 -14 55 0 64 -3 64 -18 0 -48 -68 -95 -137 -94 -52 1 -92
21 -128 64 -25 29 -27 37 -23 104 4 78 22 110 80 140 56 29 146 11 190 -38 17
-20 32 -28 42 -25 27 11 18 34 -29 75 -59 52 -131 65 -206 38z"/>
    <path d="M6367 6473 c-4 -3 -7 -93 -7 -200 0 -168 2 -194 16 -200 9 -3 20 0
25 8 10 16 12 358 3 383 -6 16 -26 21 -37 9z"/>
    <path d="M11510 6403 c-40 -97 -52 -125 -80 -188 -41 -92 -52 -128 -39 -136
21 -13 36 1 58 52 l20 50 88 -3 88 -3 20 -43 c22 -46 41 -63 61 -55 8 3 -2 38
-36 121 -100 242 -116 277 -132 280 -11 2 -25 -19 -48 -75z m82 -90 c14 -38
23 -71 21 -75 -8 -14 -113 -9 -113 5 0 18 52 137 60 137 4 0 19 -30 32 -67z"/>
    <path d="M13086 6465 c-3 -9 -6 -100 -6 -201 l0 -184 25 0 25 0 -2 197 c-3
173 -5 198 -19 201 -9 2 -19 -4 -23 -13z"/>
    <path d="M13389 6468 c-2 -7 -3 -97 -1 -200 3 -179 4 -188 22 -188 19 0 20 8
20 135 0 102 3 135 13 134 13 0 58 -56 152 -186 34 -48 67 -83 76 -83 21 0 26
66 21 263 -3 103 -7 129 -19 134 -26 10 -33 -18 -33 -144 0 -68 -4 -123 -9
-123 -5 0 -54 61 -110 135 -95 126 -124 153 -132 123z"/>
    <path d="M2991 6347 c-6 -8 -8 -17 -4 -20 8 -9 2208 -9 2216 0 4 3 2 12 -4 20
-17 20 -2191 20 -2208 0z"/>
    <path d="M14971 6347 c-6 -8 -8 -17 -4 -20 3 -4 471 -7 1039 -7 1022 0 1079 2
1033 31 -8 5 -471 9 -1035 9 -843 0 -1024 -2 -1033 -13z"/>
  </g>
</svg>