<?xml version="1.0" standalone="no"?>
<!DOCTYPE svg PUBLIC "-//W3C//DTD SVG 20010904//EN"
 "http://www.w3.org/TR/2001/REC-SVG-20010904/DTD/svg10.dtd">
<svg version="1.0" xmlns="http://www.w3.org/2000/svg"
 width="2000.000000pt" height="2000.000000pt" viewBox="0 0 2000.000000 2000.000000"
 preserveAspectRatio="xMidYMid meet">
<metadata>
Created by potrace 1.16, written by Peter Selinger 2001-2019
</metadata>
<g transform="translate(0.000000,2000.000000) scale(0.100000,-0.100000)"
fill="#000000" stroke="none">
<path d="M6406 13111 c-38 -6 -40 -8 -42 -46 -2 -35 -48 -193 -74 -250 -5 -11
-14 -38 -21 -60 -6 -22 -20 -48 -30 -58 -12 -11 -19 -32 -19 -56 0 -23 -19
-82 -50 -154 -40 -92 -50 -128 -50 -171 0 -96 28 -129 96 -112 24 6 25 8 9 20
-27 19 -15 103 35 236 23 63 82 232 131 374 68 198 86 262 78 273 -6 7 -14 12
-18 12 -3 -1 -24 -5 -45 -8z"/>
<path d="M3583 13071 c-55 -40 -93 -118 -93 -190 1 -76 34 -138 135 -247 109
-118 125 -142 131 -200 5 -39 2 -62 -15 -99 -22 -49 -77 -105 -115 -117 -18
-5 -16 -6 8 -7 68 -2 161 66 197 145 54 120 22 217 -120 364 -96 99 -115 130
-126 203 -7 48 16 119 48 146 10 7 17 17 17 22 0 17 -27 9 -67 -20z"/>
<path d="M3843 13075 c33 -31 53 -69 62 -118 13 -67 38 -36 51 63 l7 50 -32 0
c-17 0 -48 7 -68 15 -49 21 -52 19 -20 -10z"/>
<path d="M6952 13043 c-7 -3 -18 -16 -23 -30 -21 -55 46 -97 84 -55 41 45 -4
108 -61 85z"/>
<path d="M4453 12910 c-22 -9 -53 -57 -53 -82 0 -7 -9 -24 -20 -38 -11 -14
-20 -35 -20 -48 0 -21 -10 -51 -99 -300 -62 -170 -52 -242 32 -242 44 0 50 7
26 31 -10 10 -19 27 -19 37 0 16 37 126 101 302 12 30 24 66 29 80 9 27 35 86
49 110 8 13 41 139 41 154 0 9 -42 6 -67 -4z"/>
<path d="M4975 12770 c-3 -6 0 -13 9 -16 35 -13 26 -56 -48 -241 -77 -195 -83
-253 -27 -293 31 -21 86 -26 111 -10 12 8 11 10 -6 10 -27 0 -54 30 -54 61 0
34 32 133 75 234 57 133 67 224 28 252 -20 15 -79 17 -88 3z"/>
<path d="M6015 12755 c-106 -51 -211 -197 -233 -321 -11 -65 -5 -109 21 -161
27 -51 113 -93 132 -63 3 6 -1 10 -10 10 -8 0 -25 15 -36 33 -28 44 -21 135
18 248 38 107 86 179 152 229 72 55 47 69 -44 25z"/>
<path d="M6836 12771 c-3 -5 1 -14 9 -21 23 -19 19 -43 -34 -179 -76 -195
-104 -287 -97 -315 9 -37 33 -56 71 -56 39 0 51 12 30 30 -21 18 -19 48 11
121 47 115 124 340 124 363 0 40 -27 66 -70 66 -21 0 -41 -4 -44 -9z"/>
<path d="M5335 12734 c-8 -20 -15 -39 -15 -43 0 -10 -58 -161 -82 -211 -29
-62 -37 -95 -43 -166 -6 -77 16 -114 70 -114 39 0 51 12 30 30 -8 7 -15 21
-15 32 0 18 38 137 124 386 20 57 34 108 30 113 -3 5 -23 9 -44 9 -36 0 -41
-3 -55 -36z"/>
<path d="M7505 12753 c-16 -9 -51 -33 -76 -54 -77 -64 -139 -222 -126 -321 8
-58 45 -125 81 -148 48 -29 61 -25 35 12 -67 94 2 371 120 481 48 45 49 47 23
47 -15 -1 -40 -8 -57 -17z"/>
<path d="M7703 12736 c26 -67 29 -97 18 -158 -27 -139 -84 -265 -147 -320 -42
-37 -44 -52 -4 -44 43 8 112 58 152 109 100 126 117 312 38 397 -29 31 -67 41
-57 16z"/>
<path d="M3317 12378 c-34 -120 -34 -121 3 -113 22 5 46 -1 95 -24 36 -17 67
-31 70 -31 2 0 -19 21 -47 48 -57 52 -78 93 -78 149 0 77 -16 66 -43 -29z"/>
<path d="M3543 12213 c9 -2 23 -2 30 0 6 3 -1 5 -18 5 -16 0 -22 -2 -12 -5z"/>
<path d="M12015 11364 c-212 -12 -522 -69 -693 -128 -133 -46 -312 -131 -419
-201 -150 -98 -257 -196 -382 -350 -94 -117 -173 -281 -222 -460 -22 -80 -19
-325 5 -400 85 -260 280 -422 581 -482 109 -21 327 -21 425 1 147 32 322 104
406 168 65 49 115 100 112 114 -2 11 -25 -1 -83 -44 -131 -98 -306 -174 -459
-201 -33 -6 -123 -11 -200 -11 -120 0 -155 4 -234 25 -158 44 -244 89 -340
180 -101 95 -152 195 -178 351 -64 376 200 839 621 1088 192 114 307 161 552
227 363 96 784 104 1353 24 96 -14 418 -65 465 -75 182 -36 562 -52 677 -29
103 21 224 62 301 101 42 22 77 44 77 49 0 13 -7 12 -74 -15 -34 -13 -108 -34
-166 -47 -95 -20 -122 -21 -300 -16 -112 4 -304 19 -450 36 -310 36 -568 65
-715 81 -113 12 -535 21 -660 14z"/>
<path d="M15330 11345 c-206 -45 -407 -152 -615 -327 -200 -168 -464 -500
-712 -893 -191 -304 -283 -452 -320 -515 -60 -102 -65 -111 -88 -144 -11 -17
-40 -65 -65 -108 -64 -110 -199 -336 -226 -378 -31 -48 -138 -231 -219 -375
-135 -238 -199 -385 -225 -519 -24 -117 26 -233 108 -256 135 -37 270 29 475
232 98 98 270 295 332 383 11 15 38 48 59 74 22 25 60 73 84 106 51 68 52 61
13 -75 -13 -46 -24 -119 -28 -190 -9 -187 33 -319 137 -420 140 -136 351 -156
580 -53 170 75 247 127 393 264 206 194 325 358 437 603 123 270 145 556 58
736 -40 82 -106 148 -183 185 -52 25 -75 29 -172 33 -120 5 -201 -9 -317 -54
-201 -79 -434 -266 -589 -473 -73 -96 -177 -254 -177 -267 0 -11 -185 -281
-252 -367 -188 -242 -297 -368 -443 -509 -112 -109 -252 -187 -310 -172 -29 7
-55 44 -55 77 0 58 69 214 205 462 70 127 184 323 231 397 13 21 24 39 24 42
0 2 43 75 96 162 53 88 112 186 132 219 19 33 42 74 52 90 29 48 300 496 331
545 15 25 48 79 74 120 102 167 358 547 494 735 198 273 377 452 546 543 116
64 257 85 368 57 46 -11 72 -14 79 -7 39 39 -183 66 -312 37z m-85 -1674 c88
-41 125 -111 133 -250 10 -197 -64 -455 -225 -776 -99 -197 -207 -355 -368
-538 -159 -182 -316 -267 -469 -255 -119 10 -180 65 -213 191 -36 143 12 412
119 662 209 486 541 891 796 969 68 21 178 20 227 -3z"/>
<path d="M1526 11241 c-7 -11 17 -21 49 -21 60 0 129 -23 165 -56 31 -28 42
-48 59 -113 l21 -78 -3 -1409 c-3 -775 -8 -1428 -12 -1451 -8 -47 -60 -115
-107 -139 -17 -9 -60 -19 -96 -22 -38 -4 -67 -12 -70 -19 -3 -10 85 -13 418
-13 333 0 421 3 418 13 -3 7 -31 15 -69 18 -75 7 -94 14 -134 47 -84 69 -84
73 -85 870 l0 672 48 1 c26 1 188 0 360 -1 345 -2 377 -6 469 -62 83 -50 113
-111 140 -283 5 -28 13 -48 18 -45 11 6 19 727 9 800 -6 39 -7 42 -15 22 -5
-13 -13 -50 -18 -83 -19 -116 -69 -194 -156 -242 -77 -43 -114 -47 -494 -47
l-361 0 -1 78 c-3 277 3 1445 7 1480 l6 42 465 0 c556 0 567 -1 731 -77 18 -9
61 -46 96 -84 56 -61 67 -79 95 -163 17 -52 31 -102 31 -111 0 -10 5 -13 11
-9 8 5 10 33 5 93 -4 47 -11 152 -16 233 -5 81 -11 152 -15 158 -8 13 -1961
14 -1969 1z"/>
<path d="M13435 10988 c-71 -23 -251 -118 -312 -163 -255 -191 -410 -385 -730
-920 -203 -338 -220 -364 -246 -369 -12 -3 -51 -8 -87 -11 -93 -9 -112 -14
-139 -36 -20 -16 -22 -22 -11 -29 8 -5 21 -5 31 1 25 13 159 30 180 24 18 -6
17 -9 -7 -53 -75 -135 -169 -289 -282 -462 -31 -47 -61 -94 -67 -105 -18 -33
-107 -167 -135 -205 -14 -19 -66 -89 -116 -155 -49 -66 -108 -142 -132 -170
-71 -82 -265 -276 -298 -299 -18 -11 -69 -47 -114 -80 -104 -75 -172 -107
-318 -152 -106 -33 -131 -37 -265 -42 -151 -5 -224 4 -317 36 -208 71 -336
184 -389 342 -34 103 -37 163 -11 261 33 126 35 138 16 145 -63 24 -113 -159
-86 -315 39 -235 230 -412 520 -483 91 -22 423 -16 536 10 186 42 396 133 552
239 122 82 179 130 320 267 240 234 443 508 730 986 74 124 136 227 138 228 7
10 188 1 263 -12 192 -33 267 -39 300 -22 78 41 161 109 148 122 -3 3 -27 -2
-54 -12 -43 -17 -79 -19 -328 -19 -243 0 -280 2 -283 15 -2 14 71 143 306 540
136 230 254 412 352 545 72 97 202 235 261 278 20 14 59 37 88 50 28 13 48 26
45 30 -9 9 -22 8 -59 -5z"/>
<path d="M4155 10748 c-73 -26 -123 -113 -108 -189 9 -46 72 -105 121 -114
114 -19 205 68 188 177 -16 97 -113 158 -201 126z"/>
<path d="M8751 10308 c-14 -62 -71 -182 -104 -219 -75 -84 -237 -179 -305
-179 -34 0 -68 -23 -58 -38 5 -8 48 -12 130 -12 81 0 126 -4 134 -12 9 -9 12
-203 12 -813 0 -764 1 -805 20 -879 40 -158 139 -245 313 -276 173 -31 371 48
462 185 19 29 35 58 35 64 0 21 -19 11 -41 -21 -59 -82 -149 -136 -241 -144
-76 -7 -129 5 -191 47 -58 38 -102 123 -117 224 -6 41 -10 387 -10 841 0 695
2 772 16 778 9 3 123 6 255 6 207 0 240 2 246 15 3 9 2 19 -2 23 -3 4 -120 9
-258 12 l-252 5 -3 223 c-2 175 -5 222 -15 222 -8 0 -19 -22 -26 -52z"/>
<path d="M5945 9934 c-101 -24 -149 -41 -203 -71 -113 -62 -218 -176 -275
-299 -32 -69 -37 -51 -37 144 0 142 -3 192 -13 200 -9 8 -48 4 -137 -13 -111
-21 -154 -28 -303 -50 -52 -8 -38 -22 31 -31 100 -12 152 -55 171 -144 18 -82
15 -1488 -3 -1564 -24 -102 -68 -142 -174 -158 -40 -6 -72 -14 -72 -19 0 -10
364 -16 595 -9 172 5 197 13 87 28 -71 10 -125 43 -147 89 -30 63 -36 193 -33
795 2 461 6 600 16 610 6 6 12 18 12 26 0 8 16 47 36 87 40 82 126 177 197
218 52 31 144 57 199 57 98 0 198 -88 198 -174 0 -35 28 -65 71 -76 52 -14 87
-6 129 28 27 23 33 36 37 79 3 28 0 66 -6 84 -29 88 -146 157 -277 164 -43 2
-88 2 -99 -1z"/>
<path d="M7170 9930 c-133 -20 -280 -93 -371 -185 -77 -76 -138 -254 -124
-362 6 -52 37 -159 55 -194 22 -41 94 -115 153 -159 63 -45 222 -129 277 -145
39 -12 226 -93 325 -141 116 -57 179 -105 237 -182 62 -81 82 -149 76 -257 -9
-173 -114 -309 -286 -369 -104 -37 -305 -39 -422 -5 -196 57 -330 191 -401
399 -18 52 -36 99 -40 104 -8 9 -2 -379 7 -421 3 -16 12 -23 27 -23 12 0 47
-9 77 -20 172 -64 364 -100 526 -100 263 0 454 81 580 245 80 105 106 182 107
324 2 157 -38 249 -158 368 -71 70 -98 89 -186 131 -134 63 -176 82 -183 82
-3 0 -29 11 -58 23 -29 13 -96 41 -148 62 -295 121 -400 230 -400 417 0 33 5
80 12 106 53 214 342 331 623 251 157 -44 315 -223 341 -387 4 -23 13 -47 22
-54 13 -12 14 3 8 137 -4 83 -9 173 -12 202 l-6 51 -93 31 c-158 52 -252 71
-385 75 -69 3 -150 1 -180 -4z"/>
<path d="M4065 9878 c-246 -40 -229 -36 -215 -53 8 -10 31 -15 62 -15 77 0
129 -36 159 -110 21 -52 21 -1578 0 -1630 -30 -75 -95 -119 -176 -120 -16 -1
-41 -7 -55 -15 -22 -13 21 -14 358 -15 236 0 382 4 382 10 0 5 -16 12 -35 15
-19 3 -52 8 -72 11 -46 7 -80 33 -112 87 l-26 42 -5 910 c-3 501 -7 911 -8
913 -6 7 -96 -3 -257 -30z"/>
<path d="M18785 9733 c-152 -34 -286 -139 -457 -358 -39 -49 -82 -108 -96
-130 -28 -44 -52 -71 -52 -58 0 4 19 51 41 103 93 212 83 363 -28 412 -124 55
-285 -53 -506 -340 -140 -182 -291 -407 -282 -421 10 -18 21 -6 105 117 43 64
95 140 115 167 19 28 47 66 60 85 78 109 234 276 303 324 24 16 60 30 85 33
41 5 44 4 57 -27 10 -25 11 -42 2 -81 -11 -44 -77 -191 -119 -264 -10 -16 -33
-57 -52 -90 -19 -33 -43 -76 -54 -95 -11 -19 -39 -69 -62 -110 -64 -114 -153
-271 -237 -415 -41 -71 -119 -206 -173 -300 -54 -93 -111 -192 -127 -220 -15
-27 -42 -75 -58 -105 -17 -30 -35 -62 -42 -71 -23 -33 -4 -47 59 -45 32 2 82
4 110 4 50 2 54 4 78 42 23 36 147 252 208 360 14 25 52 91 86 148 34 57 61
105 61 107 0 11 371 617 390 635 3 3 25 34 49 70 134 197 263 341 372 412 91
60 158 81 248 77 69 -4 81 -7 118 -36 58 -46 73 -85 73 -185 0 -91 -17 -157
-57 -220 -12 -21 -23 -41 -23 -46 0 -5 -31 -42 -69 -83 -55 -60 -67 -78 -60
-92 20 -35 115 -15 185 38 89 68 151 234 141 374 -11 138 -85 244 -194 277
-44 13 -154 17 -198 7z"/>
<path d="M16735 9705 c-81 -15 -217 -64 -278 -100 -23 -13 -55 -32 -72 -41
-66 -37 -195 -142 -280 -228 -237 -239 -413 -561 -464 -850 -6 -33 -11 -108
-11 -167 0 -273 139 -457 370 -489 177 -25 411 59 632 226 191 144 406 411
517 639 173 355 186 681 35 882 -27 36 -108 93 -167 117 -53 22 -197 27 -282
11z m282 -62 c57 -48 82 -109 90 -224 5 -72 -15 -233 -36 -284 -4 -11 -23 -67
-41 -125 -113 -364 -387 -801 -639 -1017 -192 -166 -413 -188 -520 -51 -97
122 -52 489 100 817 115 250 199 389 346 572 209 262 371 363 570 356 80 -3
84 -5 130 -44z"/>
<path d="M5882 6474 c-11 -20 -3 -386 9 -398 17 -19 29 10 35 87 l7 77 49 0
c65 0 113 22 138 62 35 55 11 147 -44 168 -12 4 -59 10 -104 13 -65 4 -84 2
-90 -9z m191 -66 c23 -31 18 -67 -15 -98 -16 -15 -35 -20 -75 -20 l-53 0 0 68
c0 38 3 72 7 76 4 4 32 6 62 4 45 -3 57 -7 74 -30z"/>
<path d="M6665 6472 c-4 -9 -9 -97 -12 -194 -5 -135 -3 -181 7 -193 9 -11 34
-15 101 -15 77 0 90 3 98 19 14 25 -2 31 -85 31 l-64 0 0 158 c0 86 -3 167 -6
179 -8 28 -30 37 -39 15z"/>
<path d="M7216 6462 c-34 -66 -156 -359 -156 -375 0 -4 12 -7 26 -5 21 2 30
12 43 48 l17 45 83 3 c94 3 105 -2 122 -59 12 -39 28 -52 53 -43 18 7 12 24
-62 194 -27 63 -57 136 -67 162 -21 57 -40 67 -59 30z m53 -150 c31 -79 30
-82 -34 -82 -49 0 -55 2 -55 21 0 11 6 33 14 47 8 15 19 40 25 56 14 35 23 28
50 -42z"/>
<path d="M7589 6474 c-14 -18 11 -32 61 -36 l45 -3 3 -177 2 -178 25 0 25 0 2
178 3 177 47 3 c46 3 70 23 45 39 -19 13 -247 10 -258 -3z"/>
<path d="M8084 6472 c-11 -10 -14 -56 -14 -202 0 -162 2 -189 16 -194 20 -8
198 -8 218 0 24 9 19 33 -6 39 -13 3 -54 6 -93 7 l-70 3 -3 68 -3 67 75 0 c82
0 106 6 106 25 0 19 -24 25 -106 25 l-75 0 3 63 3 62 83 3 c63 2 84 7 89 18 9
25 -5 29 -109 29 -72 1 -104 -3 -114 -13z"/>
<path d="M8610 6472 c-40 -20 -60 -53 -60 -100 0 -49 41 -85 129 -112 102 -32
126 -76 70 -126 -31 -28 -104 -23 -138 10 -48 46 -88 28 -51 -24 39 -55 176
-66 226 -19 78 73 41 169 -79 204 -68 19 -107 49 -107 79 0 58 90 79 149 35
24 -18 34 -20 43 -11 28 28 -46 82 -112 82 -19 0 -51 -8 -70 -18z"/>
<path d="M9433 6480 c-12 -5 -26 -18 -32 -29 -15 -27 -14 -87 1 -111 11 -17 8
-24 -19 -52 -39 -42 -53 -69 -53 -105 0 -34 30 -82 62 -99 34 -20 99 -17 143
6 48 25 51 25 82 1 23 -19 53 -19 53 -1 0 5 -12 23 -26 40 l-27 31 22 40 c34
60 9 80 -40 33 l-26 -25 -32 39 c-36 46 -38 62 -11 87 10 9 24 33 31 52 9 28
8 38 -6 59 -25 39 -75 53 -122 34z m75 -52 c17 -17 15 -35 -8 -58 -26 -26 -36
-25 -55 4 -13 19 -14 29 -5 45 12 23 49 28 68 9z m-17 -200 c51 -62 52 -65 29
-88 -48 -48 -148 -5 -134 57 6 26 46 73 62 73 4 0 24 -19 43 -42z"/>
<path d="M10323 6481 c-84 -22 -136 -91 -141 -190 -4 -79 21 -138 80 -184 53
-42 146 -49 213 -16 49 24 85 65 78 87 -8 20 -30 14 -68 -20 -29 -25 -48 -32
-88 -36 -45 -3 -58 0 -96 26 -105 71 -91 221 26 281 47 24 129 7 162 -33 8 -9
24 -16 38 -16 38 0 26 39 -23 72 -45 30 -125 43 -181 29z"/>
<path d="M10906 6476 c-121 -45 -169 -193 -100 -312 37 -64 83 -88 176 -89 69
0 80 3 120 30 67 48 89 95 86 181 -4 85 -36 142 -97 174 -53 27 -136 34 -185
16z m137 -47 c58 -30 97 -92 97 -152 0 -17 -9 -50 -21 -74 -50 -103 -199 -111
-265 -14 -29 43 -32 118 -6 171 31 63 135 100 195 69z"/>
<path d="M12057 6476 c-83 -31 -131 -106 -129 -204 2 -143 124 -231 267 -191
39 11 105 66 105 88 0 25 -31 21 -68 -9 -98 -79 -226 -36 -253 85 -11 50 -10
57 12 102 53 106 165 124 257 40 17 -16 25 -18 34 -9 10 10 10 18 -2 40 -31
55 -149 86 -223 58z"/>
<path d="M12540 6470 c-6 -11 -10 -97 -10 -203 0 -160 2 -186 16 -191 28 -11
34 4 34 79 0 108 -3 105 105 105 108 0 105 3 105 -105 0 -75 6 -90 34 -79 14
5 16 27 15 153 -1 181 -9 246 -29 246 -11 0 -16 -14 -18 -60 -4 -110 1 -105
-106 -105 -109 0 -106 -3 -106 100 0 51 -4 69 -15 74 -8 3 -19 -3 -25 -14z"/>
<path d="M14059 6476 c-84 -30 -128 -87 -137 -177 -16 -168 155 -282 307 -204
27 13 58 36 70 51 23 30 45 99 36 114 -7 11 -188 14 -198 4 -3 -3 -3 -12 0
-20 4 -10 23 -14 69 -14 55 0 64 -3 64 -18 0 -48 -68 -95 -137 -94 -52 1 -92
21 -128 64 -25 29 -27 37 -23 104 4 78 22 110 80 140 56 29 146 11 190 -38 17
-20 32 -28 42 -25 27 11 18 34 -29 75 -59 52 -131 65 -206 38z"/>
<path d="M6367 6473 c-4 -3 -7 -93 -7 -200 0 -168 2 -194 16 -200 9 -3 20 0
25 8 10 16 12 358 3 383 -6 16 -26 21 -37 9z"/>
<path d="M11510 6403 c-40 -97 -52 -125 -80 -188 -41 -92 -52 -128 -39 -136
21 -13 36 1 58 52 l20 50 88 -3 88 -3 20 -43 c22 -46 41 -63 61 -55 8 3 -2 38
-36 121 -100 242 -116 277 -132 280 -11 2 -25 -19 -48 -75z m82 -90 c14 -38
23 -71 21 -75 -8 -14 -113 -9 -113 5 0 18 52 137 60 137 4 0 19 -30 32 -67z"/>
<path d="M13086 6465 c-3 -9 -6 -100 -6 -201 l0 -184 25 0 25 0 -2 197 c-3
173 -5 198 -19 201 -9 2 -19 -4 -23 -13z"/>
<path d="M13389 6468 c-2 -7 -3 -97 -1 -200 3 -179 4 -188 22 -188 19 0 20 8
20 135 0 102 3 135 13 134 13 0 58 -56 152 -186 34 -48 67 -83 76 -83 21 0 26
66 21 263 -3 103 -7 129 -19 134 -26 10 -33 -18 -33 -144 0 -68 -4 -123 -9
-123 -5 0 -54 61 -110 135 -95 126 -124 153 -132 123z"/>
<path d="M2991 6347 c-6 -8 -8 -17 -4 -20 8 -9 2208 -9 2216 0 4 3 2 12 -4 20
-17 20 -2191 20 -2208 0z"/>
<path d="M14971 6347 c-6 -8 -8 -17 -4 -20 3 -4 471 -7 1039 -7 1022 0 1079 2
1033 31 -8 5 -471 9 -1035 9 -843 0 -1024 -2 -1033 -13z"/>
</g>
</svg>
