<?xml version="1.0" encoding="UTF-8" standalone="no"?>
<!DOCTYPE svg PUBLIC "-//W3C//DTD SVG 1.1//EN" "http://www.w3.org/Graphics/SVG/1.1/DTD/svg11.dtd">
<svg xmlns="http://www.w3.org/2000/svg" version="1.1" viewBox="0.00 0.00 193.00 181.00">
<path stroke="#ebe4de" stroke-width="2.00" fill="none" stroke-linecap="butt" vector-effect="non-scaling-stroke" d="
  M 130.95 109.99
  Q 132.61 105.98 131.31 101.38
  C 129.02 93.25 125.33 84.28 129.91 78.85
  A 0.65 0.65 0.0 0 1 131.04 79.11
  C 132.60 85.44 136.45 87.54 142.32 88.86
  A 1.59 1.56 79.3 0 1 143.28 89.53
  Q 144.44 91.35 143.98 93.18
  Q 141.30 103.68 142.56 115.57
  Q 143.63 125.76 136.27 133.34
  Q 134.50 135.17 129.87 136.88
  C 124.21 138.97 120.08 140.43 116.40 145.15
  Q 114.62 147.44 110.91 148.92
  Q 98.69 153.79 85.20 155.31
  Q 80.23 155.87 72.29 155.43
  Q 58.40 154.68 45.47 156.94
  Q 44.38 157.13 37.89 157.46
  A 5.82 5.63 51.3 0 1 36.00 157.22
  Q 33.86 156.58 31.20 155.33
  Q 28.20 153.93 26.09 156.14
  C 22.98 159.40 22.51 160.15 18.18 161.49
  Q 14.25 162.70 10.08 165.97
  A 0.59 0.59 0.0 0 0 10.21 166.97
  Q 12.20 167.85 14.25 167.56
  C 30.12 165.35 46.29 165.39 61.67 165.55
  Q 65.34 165.59 77.07 166.53
  C 87.50 167.36 98.39 167.84 107.98 166.45
  Q 118.82 164.87 123.62 164.12
  A 3.08 3.08 0.0 0 1 124.94 164.21
  Q 126.49 164.67 130.61 166.06
  Q 138.41 168.71 149.00 168.94
  Q 160.94 169.20 171.63 168.75
  C 177.67 168.49 184.48 165.85 182.63 158.57
  C 181.65 154.72 176.66 153.39 173.13 152.89
  Q 167.18 152.07 152.32 151.18
  A 1.05 1.05 0.0 0 1 151.58 149.46
  C 159.54 140.01 164.00 127.69 165.20 115.22
  A 11.83 11.78 -34.1 0 1 165.63 113.02
  C 166.70 109.36 167.50 106.76 165.23 103.78
  C 162.29 99.92 158.66 95.93 157.40 91.17
  A 3.17 3.12 -43.5 0 1 157.46 89.40
  C 161.70 76.77 165.77 63.43 162.69 51.78
  Q 159.45 39.52 158.59 28.16
  Q 158.16 22.43 152.75 19.84
  A 1.21 1.20 -51.1 0 0 151.49 19.98
  Q 149.74 21.33 149.43 22.45
  A 2.05 2.03 -50.2 0 0 149.55 23.86
  C 150.62 26.15 152.21 27.63 152.42 30.66
  A 0.51 0.51 0.0 0 1 151.85 31.20
  Q 149.95 31.00 149.15 28.98
  A 0.09 0.08 71.1 0 0 149.06 28.93
  L 148.47 29.02
  A 0.31 0.31 0.0 0 0 148.25 29.48
  C 149.99 32.59 151.27 34.01 153.81 36.75
  A 4.15 4.12 -72.7 0 1 154.82 38.69
  Q 155.34 41.03 155.38 43.00
  Q 155.63 55.32 155.86 62.14
  C 155.96 64.88 155.52 68.08 154.46 70.23
  A 1.16 1.16 0.0 0 1 152.41 70.30
  L 151.66 69.00
  A 1.63 1.61 81.4 0 0 150.64 68.24
  C 147.96 67.59 147.23 67.48 145.03 66.49
  C 139.79 64.11 133.35 67.91 131.72 72.98
  Q 130.67 76.26 130.61 76.42
  A 1.10 1.09 -0.7 0 1 129.98 77.06
  C 119.79 81.20 123.05 96.97 124.27 107.22
  C 124.69 110.73 124.45 112.81 123.90 116.33
  A 0.40 0.40 0.0 0 0 124.49 116.74
  C 127.92 114.77 128.81 111.42 129.80 107.75
  A 0.34 0.34 0.0 0 1 130.21 107.50
  L 130.47 107.57
  A 0.38 0.38 0.0 0 1 130.73 108.07
  Q 130.36 109.13 130.31 109.84
  A 0.33 0.33 0.0 0 0 130.95 109.99
Z"/>
<path fill="#d7c9bd" d="
  M 130.95 109.99
  A 0.33 0.33 0.0 0 1 130.31 109.84
  Q 130.36 109.13 130.73 108.07
  A 0.38 0.38 0.0 0 0 130.47 107.57
  L 130.21 107.50
  A 0.34 0.34 0.0 0 0 129.80 107.75
  C 128.81 111.42 127.92 114.77 124.49 116.74
  A 0.40 0.40 0.0 0 1 123.90 116.33
  C 124.45 112.81 124.69 110.73 124.27 107.22
  C 123.05 96.97 119.79 81.20 129.98 77.06
  A 1.10 1.09 -0.7 0 0 130.61 76.42
  Q 130.67 76.26 131.72 72.98
  C 133.35 67.91 139.79 64.11 145.03 66.49
  C 147.23 67.48 147.96 67.59 150.64 68.24
  A 1.63 1.61 81.4 0 1 151.66 69.00
  L 152.41 70.30
  A 1.16 1.16 0.0 0 0 154.46 70.23
  C 155.52 68.08 155.96 64.88 155.86 62.14
  Q 155.63 55.32 155.38 43.00
  Q 155.34 41.03 154.82 38.69
  A 4.15 4.12 -72.7 0 0 153.81 36.75
  C 151.27 34.01 149.99 32.59 148.25 29.48
  A 0.31 0.31 0.0 0 1 148.47 29.02
  L 149.06 28.93
  A 0.09 0.08 71.1 0 1 149.15 28.98
  Q 149.95 31.00 151.85 31.20
  A 0.51 0.51 0.0 0 0 152.42 30.66
  C 152.21 27.63 150.62 26.15 149.55 23.86
  A 2.05 2.03 -50.2 0 1 149.43 22.45
  Q 149.74 21.33 151.49 19.98
  A 1.21 1.20 -51.1 0 1 152.75 19.84
  Q 158.16 22.43 158.59 28.16
  Q 159.45 39.52 162.69 51.78
  C 165.77 63.43 161.70 76.77 157.46 89.40
  A 3.17 3.12 -43.5 0 0 157.40 91.17
  C 158.66 95.93 162.29 99.92 165.23 103.78
  C 167.50 106.76 166.70 109.36 165.63 113.02
  A 11.83 11.78 -34.1 0 0 165.20 115.22
  C 164.00 127.69 159.54 140.01 151.58 149.46
  A 1.05 1.05 0.0 0 0 152.32 151.18
  Q 167.18 152.07 173.13 152.89
  C 176.66 153.39 181.65 154.72 182.63 158.57
  C 184.48 165.85 177.67 168.49 171.63 168.75
  Q 160.94 169.20 149.00 168.94
  Q 138.41 168.71 130.61 166.06
  Q 126.49 164.67 124.94 164.21
  A 3.08 3.08 0.0 0 0 123.62 164.12
  Q 118.82 164.87 107.98 166.45
  C 98.39 167.84 87.50 167.36 77.07 166.53
  Q 65.34 165.59 61.67 165.55
  C 46.29 165.39 30.12 165.35 14.25 167.56
  Q 12.20 167.85 10.21 166.97
  A 0.59 0.59 0.0 0 1 10.08 165.97
  Q 14.25 162.70 18.18 161.49
  C 22.51 160.15 22.98 159.40 26.09 156.14
  Q 28.20 153.93 31.20 155.33
  Q 33.86 156.58 36.00 157.22
  A 5.82 5.63 51.3 0 0 37.89 157.46
  Q 44.38 157.13 45.47 156.94
  Q 58.40 154.68 72.29 155.43
  Q 80.23 155.87 85.20 155.31
  Q 98.69 153.79 110.91 148.92
  Q 114.62 147.44 116.40 145.15
  C 120.08 140.43 124.21 138.97 129.87 136.88
  Q 134.50 135.17 136.27 133.34
  Q 143.63 125.76 142.56 115.57
  Q 141.30 103.68 143.98 93.18
  Q 144.44 91.35 143.28 89.53
  A 1.59 1.56 79.3 0 0 142.32 88.86
  C 136.45 87.54 132.60 85.44 131.04 79.11
  A 0.65 0.65 0.0 0 0 129.91 78.85
  C 125.33 84.28 129.02 93.25 131.31 101.38
  Q 132.61 105.98 130.95 109.99
Z"/>
</svg>
